<mxfile host="Electron" modified="2023-11-18T01:22:32.724Z" agent="Mozilla/5.0 (Windows NT 10.0; Win64; x64) AppleWebKit/537.36 (KHTML, like Gecko) draw.io/21.6.8 Chrome/114.0.5735.289 Electron/25.5.0 Safari/537.36" etag="qGr2whjBot5mhgBr1iyB" version="21.6.8" type="device">
  <diagram name="Page-1" id="oVs7UT5iWrj_E1RuLotN">
    <mxGraphModel dx="-320" dy="484" grid="1" gridSize="10" guides="1" tooltips="1" connect="1" arrows="1" fold="1" page="1" pageScale="1" pageWidth="850" pageHeight="1100" math="0" shadow="0">
      <root>
        <mxCell id="0" />
        <mxCell id="1" parent="0" />
        <mxCell id="IZlDyetnFrTAtIApsN1v-1" value="" style="shape=image;verticalLabelPosition=bottom;labelBackgroundColor=default;verticalAlign=top;aspect=fixed;imageAspect=0;image=data:image/png,iVBORw0KGgoAAAANSUhEUgAAAOEAAADhCAMAAAAJbSJIAAAAflBMVEX///8AAADi4uKioqK2trZ1dXUWFhYeHh5wcHCysrL8/PzPz8/n5+f19fWWlpbg4ODt7e1mZma/v79WVlasrKyPj4+dnZ3x8fHZ2dnQ0NBCQkKIiIi6urozMzMoKChra2swMDBfX199fX1GRkZNTU0NDQ07OzscHBxERETGxsaw6RRcAAAM6UlEQVR4nO1daYOyKhRuncqsrGy1fabm7f//wZvJYREQJo8p3p5PHc3iUYGzQqPxf8PIb7kNf5TBLthNt4em6zhsp7tAyW8yL7ttiJhPJH7+sexGIePoiwTvZTeoANx5gmHZrSkEYd0JchSHZbekMAwTgqsrO/QdtTtuox19MzrX1ZPhhR6YpsYfR+FPKaNLLE+oeDdd6gzY1BDPi10Q1mW3CxFrINVtNDz4vCu7VajYAS2PDqTnstuEjDMdThfk06bsJiFjQ3gtgGuv7Bahowfv5q2eLyl9TW+Nr+RDVHaD0BElxL4a5HVtl90gdLQJsw9Dd/Fh6D7+wnAyC6P+YjBbva11GLBm6I+Zg/E7zHJGVgyWDIOoKaLtvbedr8OO4aAp4eSKkWXFcCETbDpjZtkw1DmJ3Rh3LRiqn2AMJ9wdZoY7gVRPkFpo7fDxxBSMDD3GZ76LJ4kgZNPG3JaAAcvHby1FcZwpcl8ei6IEI0P6jh7YO8l848NX+EhI/mOBIcowMQyAy57XZMA18LArEQCvCZliR0Qkf7giYiA2KBDP6vUsE0N4XFcx2EgdkRizIrj8NkqxJf4TnCWBQbjX+hHBxPBMjs9Sx8FBntUDbKF5aGQACUTRV4svP0P4t5/0dXDiOze/Bky4UxD7KvEofjkl9vU/bmC4Vh9+gMQEehiGxih+U84jnTiVz051ogwDwxk5LHc3uBAniOPvfFFsZZ7NEtMwMNTzgLFGTgWoGAwMl8nRq5y2AYNY5U0MA0Mwm+Qn1SFn8BS3gmBgCO+irGNH2qf7Orzx/sZrJylxkRJv+7FwVhApDAxhuulKF56SE3tEW9/bPn+Ris8w9U08u6XffoYh/tG/3z/PKlpjYOjtyfH0o4KHmzER/RlEf4LMibbYomwxVDaf+6JWpwHdJf0Qwb5I6zp5QCxtCA71RZGcBUVgKt7hs/aGmxhSHVs8QXMAMJ1uF7GVKbErin3xzhPxIv+q0Xr6AS5cNx5RgqihKqJe3DPFmVq8a18pI0OWRvQDxuCAmcC4ftNIfAyReA+zxYvuhpu9GGdKp3m4hIP28YsdwPZFDcfj4V/Ejf4shZmhp0+mPSp+sHKw8LW1dARVs0/1YOMv3agJ3tyI0Fj5vFd7BUEnXtGGdWRG8gofBu9t5+uwja4FF55fb+lEF3zCPkI6ul8Sh/dpsXaH39+j3G6MLjw+cXz38WHoPtIMMbz01cISGBKLQXbIuA5iOX9BfunWfIlj2CbEbtQhg+kdrAIgdHWhgcK6dUTohiH1jH45lNBlgRF4JPxGA8qEsLIPqgEoiI3jnDSzC9PJWzb6QOpp7G1B+q58PMkSa1q+lkwRtEao2ZzOXLKP1PBmrHQNYoCiIf/lNgQuNGR1btYTrEzGO5fdlkIw5V/eulXjxxCcgv6t7OYUgBuniPrur4ahwoFmkoyu5m87iStoomfu4PbcdRvnLceGDKYsGfg0qEO5uj84UUbPrPsVnSQX7is0CTxaJfIV+3nHIIXGK90BzWYeP/j+whMsu1WoAE3016N6N0pec4UAM/yauhUdqYSxBoyfbciQudZllAF4ZJKfQpJTvXwYMYgf4wAeYUVSkeMgbtJPtbrD+DB0Hx+GPDy/NexsfMdiN/YMhxdQgH7GLrmMbRnORAfHT+ULSSjsGE5kD9XRlRiVFUPlipiHyteSJLBh2FYRbLqyaJYFw5mGIFbdWsEwM5zo+DWbJ7y+WJzRZmbIHFbXy309WXc4zz+WJTI8/ptyaejD6TcvbmRxo/2yBCNDtujHAp4Yt6Ykznua9IMZhijDxHBEF1HYKK5CWt4N2pCAWOXgbSAt6I2UopfYtb/6/mJiSN3E4sAJORwoDzFVj54twrBA5qq1sR0mhhDqT6fZQI4DRrp3IDYaRKI2+aLYEr8MhPXKsoEhBGtO6bEOfhnFr5NoTCcQk4gDuDWTukOWjnbLFGUYGAIR2U1MKr4OGBNGK+5bX1RHmsTi1decbcU975eKfvwMehn6lWW1uqy+QBAAZTQdhRd+ca08ogQDQ/D7y/cIhqDKGxmW1epyin5dqtXr/wzBbiq4HwKGUTQURb5M/i6JQ71IUYmxFPB0T6dqSC+6s6mi0dRZBsv5UCIC1DFX5U2V9u6U4k788k59LYcq6DQAdS03JPxk13ITg+eFWm5q/mr0UkzXYqoA/031+KwKeKi4SkwZywvyq29eU4GuYfLo1TApts70GK4f4zl6bUXxWxTZck7fovhPFBnMNj6rkL12Zw8bf8AlpiJHG73xfD72UESGXH6avQs+04+vLYZug53a+Es1Pu+TE0/QNm7R2koE+y70wRjWsaeTwK92sacYw4jGD5eVNwo5/CkGHPjD3bq+MWBX8WHoPj4M3QdlWNvcRMqwtvmllGFdc4QZw7rmeTOGdc3VZww9CGfXq96CY1jPmpkGz3AERTPNqFajDWPI1a4dQkfsdxssGcPGuclwm/dLxBFxRF+HgyfizyOxiL1MKFd1RoB/Mv/3e1AUw0Yge5zKQWEMG1Pzn78FRTGszpoKRTGcm//6TSiIobi2Sa9EWK1WNfKDP3qlufVpjphLreNjHV4g5nc4L4e2KphHKw4q7dD2hpE0bU93Vg+TJgNXedk9L1SvTfK1sNAz/5EvV9mPEf4q+T1htBccWK9tY1C5OtmXQxi0uu5E/S6FgGPmGsAkIaey6yaubCbrQ1ZQjAy//97W5L/BT3E5XZbtMGxf0op0xqaT1V6/VEgI6XXv3KiyGQvdU29Zki9Uc+nLCbf60WkgjYUzflV8rbJCzldyoBlxe4OGqknB49NFdH2xygzp8ofNH91o6XF2n2a+qyDD4N5eRNEi7NK2Z21rwyYTjc5SNYbB+KeZRnbjWA2a2uNryfBN06XfleiZR0GWnqZspZHhaNZNZpRDtCnaZbxU8LMIbVK3vXKRWQNDX9jf4ndcpPbqfzcVUOWOpkGLP1XjaSZDL715fPNQXHRjojYgbIxWDyZ/Ve5yFsOVSqlHTYDmsFb8V9NWFaFdUWEuZjDU7BW0L2Q3j0D4j95+TzZGsbwcrFxFjFDPUJskfCtgwPG4PjgPW4+buJrEede227jD0zjJp7QMM/bsKuBFZfP2jUvQXdl7xsDIkscaLUPOLjtEYSfsF7jvGmckvborH2iossdV12bF3nmdovbO427ny/cO+rFcrqT7Zdov+P0P6byDuv8ht8VbjmQCoux9SeOghiF9hOIJShH3IUIvzLPbNyg2kuamYfjOfUgbK5jr87ikYTSVRl81Q1ASpG1/i9hLdgZjWK4xmtYNpm+TmqFxP2CpUP91MM0314sR0LH+LNaUqhnq93ReaB7uq+Bjl7mUpRE3fwu7yqsZvm1fbu8fa1fOuIKgRHN+cDXDt+2tzj3BvOFRcTtKNu+oGUJCkayqw/uLE4njrLOfvPcspWXSIUTNEKwR+V/13F8A8z/85p9+BlPR2APfgJrhWn24QbM2ehgmFBsctN7Cv8Hf8UklxFhXU1mRw5KSoT3xCug7ihi7bHG+rMRK0TysMzmefnlg8sKIAsDd4na7xwCrKTw9ZQ1D6i4P1FdjDKXwCNHmVoKAjqpPVhqG1Kkg+CyoXwMjZ9qDH0NPMQ9o/44br2HIjO4e02vYMoNZC6XZAgbSAjLMqTUW09IxpHf4MdB1YiXID9mEgzIywLCHcbfSANdyfPd0DFOl3GIuC4bKBlNFD+G3ZEBXHGb52sZNHWwdYJnQLxCDARgpo0x/qW6LJBw/FLwjRbykzKieZ/u81XkeSOY9/HhBUS3o5aPsuMVA5rfHqnYmugPiSqEC2EpX2W/eKh2aUYbTXwLRrrYFRezAlTY0xg99LqnjJ3MJuD+CLLSDouAqALbDzCYG3JoNFt1x544bkSHPEHVJLQ7gaRqUF8cveJveSfkMUU1pGdAPd+UxhCYUFFQGK2hdHkPQjguKKYMhbJgPC8WNtqEAeEQxPXiQm4gcTLIBDDWF1FjAZHGhdxJzlUBLUHO6iIcIAck7dcgUY8Nko8fuMzbg7sXRRFCAS1jeivqCDKnoLwCM9XjxRRi0S3hNGzQ/FnvtIuo1jU11r7gbaQSrQEaxqSlovC55/7tF3UgLsHwPxHmfS6pNNGmWGPT+sq4Vy+POHZgB3JnDDCZ5FoM9v32DFT7v6njPbyp6Oy7/lkafuBvZ3EbLQTHQvIaiF6EfjQcdCvk3BMRHOjyWkeBZ4mIFmgw9ZGjuum4zm9z45c0yhTsGH7oXS7k4Y35sRU1Jt8olJrR9p5VRevcypGyYofmavNAybIwu5qv/hqui1wd983X5oGf4GAlwq8kXal1+UnDNehbDh7WjKkN4CddI7/lZ7abfp8J2ks9m+JjK7tH8lu/fr/v5whgkGAWtgmD65yfLwM/xD35QqyWErPEf4bDIRHun9sAAAAAASUVORK5CYII=;" parent="1" vertex="1">
          <mxGeometry x="1342.5" y="260" width="40" height="40" as="geometry" />
        </mxCell>
        <mxCell id="IZlDyetnFrTAtIApsN1v-2" value="" style="shape=image;verticalLabelPosition=bottom;labelBackgroundColor=default;verticalAlign=top;aspect=fixed;imageAspect=0;image=data:image/png,iVBORw0KGgoAAAANSUhEUgAAAOEAAADhCAMAAAAJbSJIAAAAh1BMVEX///8AAAD29vb6+vpKSkqPj4/7+/vt7e29vb3W1tbq6uq6urqlpaW1tbWgoKDd3d3IyMhzc3M4ODhiYmIkJCSvr6/k5OQsLCwaGhp6enqVlZU/Pz+ioqLQ0NAJCQlsbGxWVlYSEhKHh4cZGRlGRkZZWVmRkZF4eHhQUFApKSk6OjpmZmYyMjKjd1ztAAASAklEQVR4nOVd12LqOhA0NgQwBptmejEpJ4X//74LAYJntZJWouWcO28JtqxR2aaVFAS3RhSmjaRT664/R4Nxsawsi/Fg9Lnu1jpJIw2jm3//lojT9uarVzGj97Vpp/Gjq+qB5nA1W1rInbGcrYbNR1fZAc1OVcytjGrnb2BZH3a92J3QHdYfTcGEPFlfRO+AdZI/mgiPMPEbmxyqSfhoOgqy/tXoHdDPHk2pjLg2vjK/Pca136JEmpfJFhO6v0G4ZtebfRyqjx6smc1kuRy9R3K8cf+d8LB+XNyH3zfHxQP41Vdulexm8GfmKJ5W9zZ1oppT/WatKIjgP7siWjOnMmp3dbSygUvdtq39OyH877u6ra1LMYP7TcfQbYAOj2+pDINg6FTS6k62XNupVi8nw4RlGMQvTqW178CvbjBAC/Vf058XeYZBMBWVc0L/5hKnof96v6U69aWpo2MYZMpby5a+GYvGbQlOtF/e5IEyPZdls1LLMGgqLbMK8o32S5Mb8ks/NB8dT3c1Tuh/ezCi9AyDumL7JTttMtU5LB/prQi2NF8czPcyLqX/HqHkMzAMwhF9eU8inOuUUus2BHVKPjnUlvbDM5EJJoZB/Zm83fv+d6SMiyNqN+AXvfPf2hzrSmdoQYMtRoZBXpD3j7Mt0szH96tbODE/YLonbacIRGWumBmqg/wkhmPegh1cOQCwoE38je2PMniiE0mV6RaGQYOUMHo6/ZKxxl1xVX+DlzHTnzoEHfLTRi3DxjCg47Hz88sTYxVUripv5lz5s9Iwiclvr0whVobBKyml/AHWD5lfiyDtoG9My08QE2TAWch2hiGZ6/3yj2w3dphSPMBpiREEwRbkV9bNsTNUxBXMtKaiMytX0hqcodbFR4gq/MOWI2AY/MGCevgrJ1SvYMJxBIf4CFHLY74gCcOAGGoJ/sp5kxdTZIbogKi6sMDfNa64iCEZpwWZ0CmjlS8cqIyQWVMxQmSArlFFDOmQmZKfQ2Zx6yJxw6gJhQDWvLLUuagyhnXiSSlSmZk1FygNRtGrDfYm/JyMIW3UN+UBZlh5q36qBNiySBdqxIzyoN5wJsJGVa1Mu3sacHGhlMQIkan1iSOkDImwoTNRfWKHwssMj1S5xax1RdjknLl2hJQhMd7GzJNNpWYDH2dK8QeXXPCAqCjDcBEzJJNjyDySKpGdd1d6jCJkCQYz8XfEDEnbzrhHFG/SXS2q05klSKaEKe4uZygpVKXoKFDVAvj1ZlTAbHOfIGcYfMKj/NxW56JbBE4JG/K9Q/xCY7DWgSFx93lBqUjUDym5PRTDQTMEUFUMjGU6MAxQjDMKYw9lIjkY4TRkojX9CnjKvGziwhAXf541TynWjTjgXy/Im7rGwYFyDh2xcGFIAls6AaZEMKXLNnRZpK978AseU01IgAtDMvy/dI9RT0NbU4SyPvi8TlhJWsfHLPl2TgxzLFrXN8p0Eq0vhvStY/PMU1ortGfWTuXarCzsHcauCbMpt7gqWSXWL2E/r5K03JpoQNo0rhtDFJREJebZRrPGUFnZCaqGO7J86Q4Xh4Yig9RWsBvDJyz8p2HjLFkZczis6QyMR8FgvEqyJwxAMVHuSxgSObkPSaXtN0GOktXLcMuTKcFqMzkyRKusNxEn0FlM8Lq9BB5ba5UdGQZuSRolmJWiYyrXGcvBdvY6mbYbi1yj+KUM62nWaE8nfd2KuhVGYcNEZnyw/OzXOvNk2MoWaRyGYRTtWNOsr500eYqi3a/1PF3sSCWdzdesuMbnTVGbW2UbFoPeC2q4r9fqbDuQ7zlxQVVP0KIp/hroNQbpwukXX8Cvh7YTSRfu7d1s45Q++BAsq52USEhdJxKVc7Sk02TllGt5X3xOsn0IgFjqPZ4g6cKSkRKm8984YD82rfpJNRFXke9EMgupxkrbE28VdXUsX2oNcCOIR8TORBK8Srhn6ovpl1vu8vXx/D5pMe4qWdHhHFpcQ2aTDQ6Im8nkfmn6ZWxXtUauMcqIy9BVnyCBQcuyo+Jc3wGdJ2MgiMSl1BAkOhXPFl8ZFg2XvbsIW1scCJP/VBcD15A0IcofgOHfD6K4uWi/dfvVbXENLs+z19WmszPiISZmjKgHNHqlLGQSVWFzbuDhUnOF9ThuNpLpZrN6nX04mJ3P25fXP5u3eTtL43p4Go64vmypExGnVGFgBNHmsDeNZZURxXlz5zm02kMMCXSS4bDdajSyRTPXzwhsd9tWPUyMI5FFwt+2ERfjRLIFWIy8mKPHJ6D4s8W6iGGDDYcNvLZ9GSyIT1FlSSMK94bAKpR1XQKDf6jRUb9Z4//wuDYijfBiCMaiwe87AHUYPI79O7LJGczKZq0fFV4MYWyNbcsSES53lOcaDlLrgjGunwpTPbwYYljFGs9D2VtueowwWLcXo4gTLvh4McTYn3X2YNOvdeVsrd8F3arPEUJ4MURDxGaHBAH66+e2xyUWeyYcGOnSPA8/hjC6GHOaAI3T84IOuhV29QaflaZ5+DEEc3ltfRwV6LlF4N+aCEC5rjB0uIwe9i0vhjC8xva3MBJz+i/aYPbBjtNWmjXnxxCFqV2o4TBtGv8r/aq0rn4MMVJub02UpieRAhYKlylHgNpTWFVPhjiD7DMCMwlPZg0UIlhEnXKFWOHJEJrfPoOI1Dz8D6ehYK0fCrGujJ7gyRBcIru6IHkWhymH2lBwgpFrsx7gyRAGzIv9eTSxD8MaIuJ2gyYIfOxub4bQ/oXgBdAXhzkHAVBJzg1UVXzQgSdDtIEFL6ixnRiiKYIuQWddfC6XJ0McdYJkZ5D0y72B5uwK4QviEwA8GaJ5IcghVR0uFD6CRoJxsxRX1ZMh7jkSzAn8zl41gDiWZKFCk3zKQkrKl8UMnyBUI8lbg/D0XplBKEQSc4GBbth+QODJEMNLEskNomZPCKSrZJcUODQCE+gIX4bO9gWY2T1q2kpGAWyDlGce+zKEyCW/eRNBBQt+WHICHAxrsdHmzRDkhERdN8mHUPZL5AYkPoqNNm+GYLZJQiaor1MSRZV8EmwgsdHmzRAEm2396RvwoQYWILFKMZ4lP9bIlyFMq5HkDZCdCUoekewHfSM/f8uXIRgY5i0dR4B+6aDsF0lG8KLlh1P6MgTBIQrOgvStobqRRAaj4oEMC8k+Q+i0LsY+O0FkwxOGJJv7/EkR0ISuS1+LUPjn9u/hOSFrsk/s38NnwJ028S9hFPzirLyrYEA3h/9zGAfFo6twYxTBbVKtfw+Wgf2Zvxz/gz4sHl2FG6P4H8jSf18f/vs2zb9vlzr7FnjO0eLmvgVE6Zex/Q3qWzj7h7i4JvcPMUDk6R/qDh8AEP/Q3ccH2SQ/vwgDs3KG0IeiKAbx8d3jNLCvRH4ysy9DCAaKTvcgcRr3WBvIJnk00ZchLAKLsnVJrM09XuoZEfZl6BwRpvFS95g3rO3Io/q+DJ2j+jTm7b5u4bky48sQ5IYg3URZt3Bfe6q5fvIAX4bOq2vKojbMS8m0gl1iwjT2wJ8hLHVJ1jfp+qH7GjC0kSCH5whfhrABSZLqqRCCmSzRqCB9BSmfR3gyxMOFJeoX9PV+WLddv4wzWZxt4skQzVmBJFRzMZzzabAI8ZmMngxj19fUfBrnnCjUqGLD1JMhVljwgpoThWu6ElED35SmefsyxMxJwQvMnkXITbTnsZMmEZttngzBaJMscjO5ic75pdAk4jMnPRmCqBdk73D5pc45wmDUCI9I82YIg07QnFyOsHOeNxg1kqTWb3gyLMpvCU595vK8nXP1nZNav+HJEN6y50Xwufq438Kewumc8nn4thdDV/OC32/RZP+rB6p86dmvfgxdLS7N7hj4ryApB4a19NB3P4auqfr8vicyO+36Ap6XClM/hiBK7c6obu+a6/5DUBfSw239GIKjYFcWuv2HrntIcTu+8LBwL4b4kn3K6/aQkn3AVumIAksY9vZiiELQsWLr0i+Oe7nRHRGmJ3oxRFFq9dTw8I+yn4TG3Id13IHtLQxGeTEEmWa1uw378V3PVIAPC0M1XgwhSGM1KA1nKpBhal2+QOErdPPhHZl4QuFvdUVRnKAzT842sdUZHW+rqHkK63FOhMb5EBoD8B1bOMF4tonj+TQYOCdOcJguWsNk/jZZrWejomLEcvzx+f41mSbJsJGlytBFyWFrEuP5NPSMIds0Ab2zCqJ6nDaSt0n/5dLEh+17d/OWZHn8fdac09ZIyxlDjudEQXM9r7fXzzv6PitK2cJkguWcKHLWly3Qq7uS9Jaw6F3rWV/kvDa9Nx3FrWm/uB+xH2wadZMEtp7XRhwMVuvX00edtndE0d+0U94Ntp+5R89NpB5GszWpFvfjYsBgvclUD49cb8dqMNI7pZnYTNa/LYVx3B8CS7SYNOcgEIVxWN0Nm1N6eebvQXeYnyaT6PxSegZtHOTt33z87De2k2w/L2Vn0NJOfHmoUJGjWA/rwnOEb3ac972hP43k3z/P+2qd+Pz52p1MNrVp53D0fJrnMUYY0jxNm1lrOJ/WNpNJ92t9sUV7hulAmcvO1e/1N9OkneVhxJkLKM/VJ56iMM/a8+mf90sPZDZ6Wd53I9jTsZx259VT/jJuCcyhAIf7LZYF/Gl19B33H3rftGFb3JDdUfJaG+YhHlJoXQt2ZIi+0Ka9YW6RZWGLFNrumRms5qejwlHLWtcRHRkW8Pi3hbZzanRXBJUqaI0A6TXG4HW+gNfxnhTb2p4bQ6xGKZyXZ9NXUy8Itl6zwmawStQoCnpktlifG0OsBXF0dsYyvTlNWgu1Jnt2k7OBC8Bhqr3q2IchufiYWQ7bseSGrCgOS+9d62ljXPgJS7KRE0P09rSqyO/eNfXuPK2NgG1hiX07McQprg0F016UrmWK7z8kbqc5YuvCkNhWuoe97z+U32GJnzDbNS4MsW90h9L432Epv4eUXDlrDO87MGyKir3kHlLxXbIkLGBc0XFgiHET2aUxjnfJiu8DJnLXtEgrZ0g+zsuZS+8Dlt7pTIw8k76VM0RtzydpXXynM2eCsxSngmcOEDMklWdN+ivcy83crc5Wnzg5hrO4xAz/YJGcBlAJetytznkZ3Fwk9dF3opQhqb0gPF+ReBQc4kIpiJGoJFKpN2ykDMnNjoxJqro/hTifHsFEbZjpjCs6eq0rZEisDUZ2MSt78n2e9rJU64Z0onalVsiQhGfULlQsGQ8xesZcLU01HEgn6iw8GUNSf3UWKuaWKHNYD6bB3mnlSCfqchtFDG1lhYxPKE3/1ICJTA2ovMQcCJ2zJWJIQtJ06T5l4hceihDBjApqR9HAH+8KSxiSZU6qC4cVFU7mtpwikXB0LLPjVMCQjlEy/rgI0hUI8iHULSr/An9lx6mAIRmjGKBsckHwi4foAYy4IeYidZm51Bc7QzKfUbUSA/iAC4XMGYzSqFQ+y3YEDe0wGsrKkGrfctAlZg8ouUhNmD9+wPQchFNWGdSpaGNIJ2FJzDyxHXiJolexKLhPjM52KpWCI4WChWFID8o5S+SMPUOn8DbVeMR8JH31M1TpVehVGmU1M3yii7M/JnzMr/gNPI1tPSLNosjm6LfE9AfqsZkZKqUfCURU/JxK93KXLNAtvHUOH6OhchqXMjJUcnYOweuIFeOVq2kJCl1C4mD+XV9lNKFdYGLIvxrOdYtMV5UxZaS6FfbxNKQ75/eAoaRnqE6A/V294VR30NqH+MYJD3Am3AGbXJ2KlUHJsNQyrKs9FQe5Zv5VrmSo6dEotF9+zVTLeHnWJzqGmZoUOMz0uXSFQ+jeD3Xd2uQOM4b+jwGnYcj0VWG4GLsvXny5AIrQNGOUGxjmjgfiyQ9IvwihY9bNKtcwzF0Lkp+IcikyxxStSc7kROV6scViID///QqIZHk3Z7y3yZl7bXviCKJ2CyvGBJrSeWOs7iFhKBb3S0etXtmPECO7D8fqXScg5dizV/BC9B7J75vjbfvxof13QrNrr6gnuvLDQ2+LuHaL85bHtau78ZcgM5irXuj/huGJCJPrzchqcj/7zAl5Ik3kNWGd3NLDvRj14WVypzt8hPHiimbHb7xWO79FdErQHK5m8h19y9lq+DexOyFO25svm9HT+9q001+lFpwRhWkj6dS668/RYFwsK8tiPBh9rru1TtJIw9u7RP8Bl1H87pnPAqgAAAAASUVORK5CYII=;" parent="1" vertex="1">
          <mxGeometry x="1422.5" y="310" width="50" height="50" as="geometry" />
        </mxCell>
        <mxCell id="IZlDyetnFrTAtIApsN1v-3" value="" style="shape=image;verticalLabelPosition=bottom;labelBackgroundColor=default;verticalAlign=top;aspect=fixed;imageAspect=0;image=data:image/png,iVBORw0KGgoAAAANSUhEUgAAAOEAAADhCAMAAAAJbSJIAAAAflBMVEX////e3t4AAADw8PBvb2/j4+NycnLh4eHY2Nh0dHTl5eV2dnavr6/19fVra2vo6OiioqJgYGBISEjDw8OSkpJcXFyampo+Pj4zMzNUVFQ7OztOTk4XFxe5ubmAgIAiIiKJiYnLy8sNDQ0uLi7R0dGcnJwcHBynp6cTExMpKSnR3okcAAALXklEQVR4nO1d2ZaqOhBtSiMICDKJoIgCTv//g5cMYNsJ2GfBNXhO9lulSVZtgqkR+utrZBxgGMKxFRobBhjuEOhgyqbwArH1NRuCVZjIptCPDNxBBGvASTaJXsB1NZDgKgPZJPoQ5kMJ1hTjq2wa3XDhNAJDA1ayiXTCi/qPmRXDC4oLSzaRLlSg9Wo+yw5eknhh8IKjC7psKh24HHs0Xxnzh1nfzPo4rtapbCpi2NCndVgT8+yTZgRnH+CS9W7jJZBNRgiwe7ROAM7tAYKcehv79juYpMU4lD3HTAnx0wF5Auh7pL92G1k0uoF6LMXKg+jH5S70OgcGzKSw6MPO6SZ4hZK73gBA3QxXB0cCh16cwOxUt94vxM/YgNd32oD2fhK9yMPuLTzDQjRlD0bPJl4nZjGu0L0fXzkYojlh/2Gzz95Nog8r6LFvGtyFkwzY9lmM06QshuV361qHQ554FvT8dvEBPKGEhglVD8N1V+6l6Psh4r2fjsXwrb7HLYS1eFrZd2PwxI69fz+CPocUH6Ude3jr38PZCqr3EulEce7digw6rHevzcczbfER9XZsXqQujI6zVOs9SwnF1H4zFyFWEPQrWj+NQv/kDIdXDKtJWIxF8krPEA6iiff+g4ZMdY5vZiOAAfoLNWcmgMtPXEP0Om3lTiAFnr561Oqd2IDPzatpG68ZrjbSU+C/SnKvfFj+mLfaQ7ev/h3SU+C9qYsHLvC8F0YBfV7Ct5sjO6ERvjrwmZ5mCrfHyb86wMtztJ3qd3hE78Gvk9yrmQVwOQTazDVsBwCuvy1RSU6BR96va2lfVfTIlx7c32f/V5Ywfn4PKkCr3+MLrZ04Tf1DNvv6g2krmQmNe5LZf4KM4Y8m2ZnH25o3IRhYsv89hFmQtzCMNmEnNgD5FuMCezpygQsZyAHEF3QsFEtkeHRRF1wbtkuKO2QmQmYGdzawBdvlL+hcyZPJ0NS6YB4gWcwxFjs4Ik1DIezYQIInchd0rvSRDA+KoWKoGCqGiqFi+Bcx7FZMMVQMFUP5DNEG/OUCw0rhihleIbXIwNKHDeIv+DSGmgHgJxgx3OjIDWIy4ANUzxcURvc602WIsiZCvwU6HtBPRTOSIdEFn8ZQQ8aZxOhnjemvG2s6YCDxBZ/GsKZA0T3AXfBpDMeBYqgYKoaDGIpPlvbk1H/IE2QYzgQauU1IpZvXI4bNOOg6k00qm9UGi2HgNhNcwR0zZzIZ+sIc/IHqqVc5G8hPmJJ+ai64G1g2N428YPYxu4uW8xKJDAH2PAqYU423kO4wUsjJQM7kLfg1Qz2DwifyhUbS9YBouZvUusVlvuQxzwF7YboNW6vxrO3a015DzDzvEjJdMyPwqOc9hz15HFOIBMvVfrrMp5SGP89YkNBBQ8c2WiLRkXlsoyV6wRYcOmF5AfwYV1BYguXmzvQY7l4zPIsZLkUMPcVQMZTCsON3OD2GsUilJd0iFDY3oGYYIsz4aQ/1FNgE6wZVzRB3EYlumFSGkHg8klojbN5aY0LNR23u7gsq7/GemUvwqTnwIDWpd5YKlvNyqQzFoHklcw7FHaMADzNAHtywmBc41UbyNBciAzaPeKAUL1dIZDg/JDwWAXNMUfN9hQPzS5dMpsUA/cScvn3G3DztGPHLebbU2MI1BWhjBROdMFDjipv6k6y7BhYrt52ARMvJ7VR4FR/qGH8gizDp+HAUTLW6RqDrz5sklqfMMHR1Hma7sWZFGtOqZgCdqNz8DrWA9K0ZjwmC5eR2DHlRyiOxWcyuO00MywgkTHYIRRQ0Ae+aUtYN3Lv4E3Eok2EHQqKxmUBOdMzBx5z1mMkX8BAN+UssbpkBfeQAOMhjWHgOD+9G3Eyd9LHhgBf3rekaIn1sWF4QH8d0ICER8NKBO6J3ZCdYztlK9bxH8UuX9JbUPs70/NK/P7ZQ8eE/zPBzntKOk2bz3JnQddI0DPd9J41chjfH4tKblrNvrQXLl27B1r93KtyJtfAgaqzFheTAfUj45ZbLdIIRMHVXkQ95jHGHlFj8FO5EziFiFj8lcu3UTNbiJ3HOY9s6YY2XtiOtFnoVMzmhTqh9e/KBarc1ESyXHyKptSeBp/zN8w6u6+t6HbCYWEdEvrY5AMNeX6/r1hPXaqdd4MhPOgLWf9QHX8lCqAhYMRzGUPTOzLeH0CRf7GxTUz9lxOTHhOm9M5NteNhNixMKkrLGPckoBzMjchmxo0YPUyxuLYNNMIMzv9xam14EfK+Ixua1HSH241HVxgXTWt41Yk4b90xLvN5WJsOtz2MLOdmhCiAiPkxU4F7E2qAXHpVJ2r/26koHOzXzGCJyB45wESwXS7X4rIz9DOykYb/03LitNCTGfiqTST9p7fI41E+1WKHjAnPBcsvor48tVJVbMVQM/x+GH/M7LLvO0lph3CH0Z2dpDvPl1M5SKGMeJZTE4mN76MwdZ07L3tgeRlh0ksYe3j0ix7RGbIawFyyXSrWHN7EPQr0wZLcjJGtvrluZFH3d9jMSJfNpxN/kv6Uy/dJgzSPTW7/UI3UJL0DML/W2eMA5sV7Es4/l+Ng4suZJsNxVl1s/HCG2MF/EFio+VAyHMXxV5X6Rl/mAPm/X4NHm2nREA+Ss7fNuZMbPuJIQ9/TItWn8crrUPu9ke+O7lu+bJl/atIHHJCTWqy2Td3Rv2giZPewo8AVd0HtLZr60Awea846hJDFsCVtS2S+ZfIcEkb43iIlcECeODHRgYnWL+aXp8y6f6hbrb3UL2ucdNX3etG5Rx/qCuoUVT8/zFtSejj9qTxtB7amaYu3pH6gfqvjw32X4OU/pWH3ep6n2eReRqCeqII3pegY5Pe8XxDpg68H6vMmemU4d87M+75L1RPminqhyglXuDe3zjmDPvse2wxYf+ex7bTfSuodz4ncslizLjwcmZ/EdR5CGj7KmxrtgCs6ZX+ox2WK9iSkVi2vj5lk7frndWa7nLYpYH33eFflMYlvFRlQ2mv5S/YTFQHuUxQUR9bSr3K/6uqffI/wPRMB/PcNQ9L7Ft1e32T+mRM9ye4XpPmem6hB4au9bHNYHHpumM9280td8SnZWmmf66nNq03dmNFbzjZpWd9MWLHc8OdOzh/RjLGYIcMNgbWA44cvkM7F/WyoXQFyaGpF4uY7/U/MehrHgvSf2xZ1HVZs2ftch/N6hMsnq135qSmq+8x31COo7cBcst7vJtPipsDIT068mbdoqN3HFH37pMsateihuPG+L1Pk1rQBBYWaxVLHFNBn+/fGhYvj5DD/mmwr0tZ8fZx9Nh9K+bsqAnp2Ps5XkT80dq3IvlvR7begOjuAwtRKpETANaZ9RB7zERzFusCMvY+8AsFwHuFT24a6RO3CJiLyFJXkTeg0gWK6UGgFfhD7Ijnmh7Rfn2BfoHlVv4vSY7T+X9ZnTtgERcl+m521kPKrmk0HIOOBNig7M70QVlY/McXUzh2ziup2gCZYLpNaejqKXPr9FtCw6+BE6oC65fY32uZVdxYeKoWKoGCqGn80wVAwVQ8VQMVQMFUPFUDFUDBVDxVAxVAwVQ8VQMVQMFcP3MBR+g3ZkSK3M7Kx3QOp3Md4EWQxn1eMNM+1IVDlxr55p5HWuHf9SGv2yV8hPoG8DB9+GqpUkhk+grzHP+D+QD3xF/PiMTLD/YCXJGI/hmfzBHV/FgVAMOSiG46s4EIohB8VwfBUHQjHkoBiOr+JAKIYcFMPxVRwIxZCDYji+igOhGHJQDMdXcSAUQw6K4fgqDoRiyEExHF/FgVAMOSiG46s4EIohB8VwfBUHQjHkoBiOr+JAKIYcFMPxVRwIxZCDYji+igOhGHJQDMdXcSAUQw6K4fgqDsQaiqIQMfTrP4DHj8/IBGH3Jf7DaAz/A9Tq7DhvJvBdAAAAAElFTkSuQmCC;" parent="1" vertex="1">
          <mxGeometry x="1000" y="150" width="50" height="50" as="geometry" />
        </mxCell>
        <mxCell id="IZlDyetnFrTAtIApsN1v-4" value="" style="shape=image;verticalLabelPosition=bottom;labelBackgroundColor=default;verticalAlign=top;aspect=fixed;imageAspect=0;image=data:image/png,iVBORw0KGgoAAAANSUhEUgAAAMgAAADICAMAAACahl6sAAAAflBMVEX///8AAADLy8sQEBAUFBSioqIzMzOmpqafn58LCwtjY2PX19fPz8/5+fmbm5sODg5NTU04ODh1dXWtra1sbGzl5eXDw8NTU1Ps7OweHh709PTd3d2MjIwnJydJSUmBgYFBQUG5ubmKiop5eXldXV0jIyO8vLyUlJRwcHA9PT0dV1uxAAAFa0lEQVR4nO2d6XaqOgBGtVgUxKlWHHFW7Pu/4K0mYUwgAYK5Pd/+4SokYWVLZojtdAAAAAAAAAAAAAAAAAAAAAAAQI7h1OkaiTMdKnlM3p1hMRMVk+m7c1vEVEHE0HJFcBRE3p3XYiBiGv+yiEKSFoAIRDQBEYhoAiIQ0QRE/oAInVipTGFaoIIIneouteWpEhVEyOKDpbRgoZ8qBX44dZylusfmdJnat5u9//5cCCN5obufzfbu2R+pXb21mntfJhctZuMNJ87w0YujTFxP5fotifizbobeLvuVb5fZOCrrbRIio0fpitzkUVgQRt+8RMFHKs6BE8XZNSnyKNN48ii4wMoWJEpkc5G7ZYSrbFWREJFaIZ0UeATCVC6L4/VEUfaSJhIiMh4FFxhF98NZ7k6+Pz8c41S0M/qIv6zZpX+/z8/7qGm4miLiMo3Dip1aHKKMfz+PPYvFuUQN8yqKM1ASKWjq6oncabid6jtWUfUPfw/W9O9lKs6C3jlL3OtwcmmJTeqJ0IJ1zPYbc3oXHK/DilqYiTKi7fG3jEhUFMUmtUROJHS9yoWw+h3QdteZ56KMfkhIPnGefZQToUktEfqlnjhBw3RL1aenV2EYso5w63BvFY+P+EoikzoiI5KTH26gn0x/SeZozA5IVTpKiHTmCZNt4yL0exrzQ89xcnuUTBLF916BjlRfkjDhTzHqiIxJoKjdiXuUuDSkRDqk+MmNuWIT/qSvjsjlFUa7/YEbQYM9lpqdWNr2cxywtm3aD5I6zKtihSaNi5AyfiMHbj42O8UKdTwqs8mJ6+vgU06kM9AmQjIaCEVCcmixXkYgIte5J5quxkXIyLlHDg52BA1esbHJgZ64ZosWqUX5LqZtkR0J5E0Hn0T3aBL3eenKTkYvH7zErYqcSKCgsvbj5HGDmRIZklCZrl2vyIoEutxALzmLj/KeEiGtXiDpoVGkQyZ+Dq+r3a6T6R2fnt54nsfuwIKofhkgQpslzisibKjl0EnuhFMR6Fqg9HKKRpENbZcO2QA2jO+OF9Rokmub6GrBUdZDpwhrtzKTilXUXrlRi/D7d6pSb9jykGybpVckmrIHcdOVmOoen+PBkB1Zh2hUtgnZKF9qXqVfpLNlZah7++p7Q29++IlT/ZAeJrGmdTz0ff+0i9clbVEnpCwitRxkia/ui1/wmrJMnoVR1lIzdikRqQW6ohbStwSJLnGcucA2UPEoEZFYMrW+Cqc+W+4y4u2ejDPkxlkqlKtSkSYIcyuJvXPWfZyLs+5zLyZGv8hvI5RaAJ6FnK96NE7FsceKj0iURZ4PetTesH2xHbvHYL0O9g/xg55teLV7jtOzl7sqT8TURMijN6U3bNtCTYQOgFTesG0LNREzH0+/UBPR3zJUBiKmARHTgIhpQMQ0IGIaEDENiJgGRCoxsKzPpj/fImK9Hio2+/kWEZK22U+IoLLrpT2RgWhhvia05WpPRJMHa7naE9HlQXMDEYg0SnDa/AmRYPO87h8QOXUqitR5rKBDZFNVpM6uN6NE6ux60yEyrypSddebLpFgVVWkBjpEusG8WvNrnEicdVmRkpc5Sva+GSRS+npN0d43k0TK9yOWiRgyjC+/XpnIp3CbXk2PfssimoFIJRESr9lPiNQRMWDJtBmRz96zjWn28y0iGoEIRDQBEYhoAiL/V5HyXQutZFdMY1Nd6X12mmho8aFkF0kLtLccpJnxHxEp2Zifo+L+Ee2U/VRCFrqIzf+lizdS+uMVWYz+3fgXPbkv2ejfjX/Sk9yk/O58liHrYbqItIfhRUvew+zKruBh9L/tUPEw+R+pLI3r3AAAAAAAAAAAAAAAAAAAAMA/z3/gL0/bY83+kwAAAABJRU5ErkJggg==;" parent="1" vertex="1">
          <mxGeometry x="1070" y="200" width="60" height="60" as="geometry" />
        </mxCell>
        <mxCell id="IZlDyetnFrTAtIApsN1v-5" value="" style="shape=image;verticalLabelPosition=bottom;labelBackgroundColor=default;verticalAlign=top;aspect=fixed;imageAspect=0;image=data:image/png,iVBORw0KGgoAAAANSUhEUgAAAOEAAADhCAMAAAAJbSJIAAAAe1BMVEX///8HCAoAAACPj4+CgoL29vbExcYAAAPx8vMiIiIEBQno6OmMjo3//v/T1dQdHh8PDw/Nz84mJife3t51dXUpKiydnZ0YGBqFhYW5u7pISkmzs7OWlpZRUlTa2tstLy5oaWmoqKgZGRyytLITFhTAwsFaWlwzNDNVV1Xtt4ueAAADiElEQVR4nO3da3OaQBSAYTmK4FJU8B5z0TYm/v9fWNS0M2mThuzhsJi+z0zbLx2XF3S51Gx7PQAAAAAAAAAAAAAAAAAA0GF54PFj+yFCJxrLX/3xNQcPfQhz+w2YLfvhLGfmffd3Etbdve3baDyRaRTSVCaFZWD2IEH7TuQhMywchA+cRjIwLBSJksCFLhKxC5y9HEInLmlflXYZXmZWJ418fB7CudVoEsLo0blz4bhndV6+FCarYRZGsWqn0JVpG9e/f4l7aRm1UihVYZhrt7RM2ikcpSav/rF0JBQqUWiNQj0KrVGoR6E1CvUotEahHoXWKNSj0BqFehRao1CPQmsU6lFojUI9Cq1RqEehNQr1KLRGoR6F1ijUo9AahXoUWqNQj0JrFOpRaI1CPQqtUahHoTUK9Si0RqEehdYo1Ptvfoa0TFtYYOQtadnOMUwCFvJzwFqXwsjN+/1vAfTn5+FbKIyCLU7TVqGLQnEtFYZGoaqwG8wK82w+6IK50TJKefi12n7pynYYstnbX37H5b39YB36E/hiPdhb7PBZ6Bn0lYZXFzzvr103ToYXsst7DX5wzi+06VJg5GRzWtCsqcTz6yw6VVjdhjcU97tx36nA6gpc9r1G5/f7750qrMhk1uh8Ou9aYJU4b7Kw6F5glVg0lxjfSLi73nfJXXMr//2QgPf175NtU4GZ4kzh3Gnn/Os3571sryzOt1HKt+rprLpWBNZYl9T/1WXQzCdxptiE1fRjj4rXb+TyNPa/IJVBHn9M8R6RnXqyqa79DopdfKg1iN8Ip7nPnUbQvlFj/2kmkXqP/1PxXn5ZFvozxq3iED7V+xec/EkxxlJ7CDPFuV6WNd9BS8VkLdoHb4oL0kTqrg8/1OzGuS6wEP/LGSnjmscwLn33o/vEfnzbSHHJLbvaw2iekMhIM51uNfcU53vUelT315rL0+xBsYp+Mq1/wZFNNQMt/Cebubip9xwgz8NxMS7qGBfPioPofCebvHcvqhvfTz3/1A009jyEx2oeVak3DZ/+nm4YOfoFboweVzctqX5tfALTm0k5ug7l443XF2Bq3Ph0h08grl+6GW4Ow2twqLbU53MYr0NPkp/wze+DuJx28znpn6S6EfVUHEMfm1qOmvunbHsb8H/Kq+N2q7vJv4bzjH4bu/w1kya2LdAXnuvq+OYBAAAAAAAAAAAAAAAAAIAv5yeMV3yY1Lf0lgAAAABJRU5ErkJggg==;" parent="1" vertex="1">
          <mxGeometry x="1190" y="220" width="100" height="100" as="geometry" />
        </mxCell>
        <mxCell id="IZlDyetnFrTAtIApsN1v-6" value="" style="shape=image;verticalLabelPosition=bottom;labelBackgroundColor=default;verticalAlign=top;aspect=fixed;imageAspect=0;image=data:image/png,iVBORw0KGgoAAAANSUhEUgAAAOEAAADhCAMAAAAJbSJIAAAAb1BMVEX///8AAADr6+s3NzdcXFzZ2dmlpaWbm5v09PRra2vPz8+YmJj6+vo7OzvExMSenp7i4uLa2tpycnJGRka6urp7e3uwsLDNzc1UVFRiYmIeHh4uLi4NDQ3g4OCSkpKGhoYZGRlJSUmKioowMDATExNEvFfMAAAFr0lEQVR4nO2d2WKqMBRFBUERwaLiXG172///xiuSQBgqYQg5sXs9qUA8i4RMSJxMAAAAAFpYKbrDUAgMzQeG5gND84Gh+cDQfGBoPjA0HxiaDwzNB4bm46XoDgMAAIAqYt0BlBg8no01HzrJXiyt3bAJbu49EUqKy3s8gypuHp0tOorzRzwDKm5Yf/JtuCR7MWfxDKYYWxwaubjM4hmsulmSUlQSTZ6o/oI6V3O66eSiskgUnbnWKCxNA5w7L1q7vu+766jzGFhpWep39vzZKTxnKZzD08zvkIriktQ5eS92rDqcfcu8VF7hdSsih0WtXsrioPz7W9HhK+LtE7+E7V7ht7cn/xJbav/DpcEv4bKSSisaQzC/FtcyO9tHCb+EYySTnMv2VtzpSHPRldl1VjF5D4/OyTmG75UtM5kEffU5mLCUFAxOpXxarmwvSDd59mpZyt9TIJGmP4ZgoihTRK9nMX4nrgoExTbkLFNS3XF6VDKVzEGI/fP22xH27VPYT6bhkLpgx2AlBH7jzXp0eNstnOKQzrsJe8rVqSQQBB2Wf4ePS32dYp8MVPTzmNMc8/IOX02tmU8hWF36qhrIm+bt47Lx/ok1Sk27EOX9HjLX2TOCKQ83bQHiH6vBUGhZpjKNhm6yjvYieeeVhxX1bXvxINrseayb5J1vlfmlz8UnLC3pjrguvKyIJu9WBbnL4rZf/dY2ZgWV+j1wHuh3ckEJtaR1nkdPr7Hg24xymvVlkqwScjBsbupsvm+bQfH4fAlXk5v5vUtdXPwK/lIcYy94rjn3117W5zzKDZcnvNql3LXhQ6LrRGgANrJHX/kZURhhT9YsxI+JUMu0uEH0wQ6RmkHQwi6v8INz2xyc5JXNwLd3B0QIkPe1t60S4KdITXj94fVM0n0WWw15eKedal2zyWt7PgslNcMk8NW+aI+JMMYN05eXtkmwM/OtILoB4JW9nVeqrbvRvK65qgiwN3Fet7C58XP70R4bDFP7fVLKR16THvN2sSW7zkeOwCkrmR6b1O4w7cI6p6fhw+tPwGoXN6v0PzsM9dwuzehIeD9ZaxjnzUZb2Mn5oTgOtvOMm3dv1fiIpF1PYRzsvAlk04fLLslcyBsmjfWuW4fmwTd5w+n9pbt60CnKqRGGfYChRmAoCQw1AkNJYKgRGEoCQ43AUBIYagSGksBQIzCUBIYagaEkMNQIdUOrjla3RzQaerXRl3aCYTN/1zCeMfi9+WgmULlhb5yhLTyfN32kV3rg61JyMc6w8HxXcsv0rfwlpVv2xhkWE7SrguVIlBn2R8ZwV30mcQjDkZAxlDjXMNTIU8NZ8ZHu3dud2UsZCj/ct7IfabyW4UR4/ulW3iZirqFbEXw1wywTbzXbBAw2XJcFX84w/bXbsn5bjsmGE3c5X/+2LcNowzIwpAYMq8CQGjCsAkNqwLAKDKkBwyowpAYMq5hmyG4ehMVPWxuypxjJPZ232m3ZyX8PpyLMovhhCnOxih+yx0+n2x2lh/KzlZMGhsqKSt6pOdaOnEgU1qBpldk+bCmsbqYuBxMIPNQdN0fZC/1rD4TNQfYibA5BLdkNl1lkD0mU3fCXWtFXIXx16OGXdORr1ej+qwK2Js0/BUmzZ951r1XDVvRSsYocW7JI9xp8zFDF0qo+DMcBhj2A4UjAsAe0DFWMVfc0DNkCXyrWdWLjTt3LfvG1EhdDT47ZfP1T3dM1XrYe+dEZkuzvL/SvicVXVVWFij59OwLFhgQmaqrLrg8JiX9LWDXH2Rnd1QwjUjWfGNL5M4iVc26OtyVnh0gGMryrWwsLN6rZxCdi6g+8am8lJGEWrbeZAwxhSB8YwpA+MIQhfWAIQ/rAEIb0gSEM6QNDGNIHhjCkDwxhSB8YGm8YWOeEn9qNL2H4FBiaDwzNB4bmA0PzgaH5wNB8/owhgV8BAwAA+Ov8Bx/XOuMwTqzoAAAAAElFTkSuQmCC;" parent="1" vertex="1">
          <mxGeometry x="1010" y="300" width="40" height="40" as="geometry" />
        </mxCell>
        <mxCell id="IZlDyetnFrTAtIApsN1v-7" value="" style="shape=image;verticalLabelPosition=bottom;labelBackgroundColor=default;verticalAlign=top;aspect=fixed;imageAspect=0;image=data:image/png,iVBORw0KGgoAAAANSUhEUgAAAOEAAADhCAMAAAAJbSJIAAAAilBMVEX///8AAAD8/Pz5+fnQ0NDu7u739/fo6OjCwsL09PR2dnavr6/g4OCzs7MoKCgwMDC6urqVlZU1NTXGxsbV1dU/Pz+BgYHNzc2enp6pqal7e3siIiJra2tcXFxXV1dNTU0bGxtiYmKZmZmNjY0dHR1HR0cNDQ07OzsVFRVnZ2eGhoYLCwssLCxwcHC9vQ68AAAShklEQVR4nO1d6XbqOAyGhJAASdn3rRQotLTv/3rTVrLjBC+y49A75/Q7Z35Mb0gsW7tludH4wx/+8Ic//B8Qt5LesXvYT6eX/jdG0/N+2z0uk1b820OriiDNhttTU4frdthLg98eqAs6cTabamkTMZ0t085vD9kGk97miUwdw9NbL/3tgdMwntlTx7BejX97+Aa0k09n6hg2g/Zvk6FCMO8qBj3abmYvvaQ1+UL69V+rlSyPq82uL3/81p3/i7onHsrGe54txnEUKn7TjuLxYnWRzcnLv2ZI5tu7QT7NMqrmSLPu893vt61aR2yFMPsoL8EqiSxfEifdUfktmWrxH4v2oqQ7d0tXrZ8udsVXrZf/AI2La2FM+57t4hURLYt+wnXhaZyuWBSG019UIw8QlZhi6eGdrhgU5O/Tn2oYb8QXPw28vdgOk70wilcvy5cjGr6Koj3x+nIawpkwgo/Mv4kOemJUsnq4yhkIX7/UxUUD0X48llWjg0BfUuOHMoHG7QPdnN6Nf/bWq/lbS2EZs5q/xRAKHtqwfhc5fBeW8SFhxzxXcm+P4ZtUmNJ5/Z8b8o+t6xTAIga5WAxr/lSQO47dR8Zw7dwF2NVqNyb8O0+Pjm3G3DreajT/Wb6Aj/f5O7mFqk2nDuv/hBa54ahJGHkWZvRbGYaUBx3dGt6eW8E63k5E8FafvmnzfNFvhmuNxgsbxsUziR3uH/52fmjMBtL3ug0QMQF49hsFuiDlHofHsUTMFu3/he2TaOqdxA5bwQPNjenE34ntNK7L6Wkzx2rtacJDJoNv5mfjwfv+iWXfnvvbl3Et0QAjse/l7SHToivDg8FcTGxw9F9q2DQ7+NSoOxqB6ftaRt8Pzkvv8sv2uHbVX8U8Gb2dbx0UxCFe330rYWb7K/sfzBfd6B5KdyrKBBw9Kx6Wy6zoo7Jo4qB5JjyWibl+jC6jp1vpr6+eI2Y2rZXCABYP7jTzPynsG466y0kafam44MtmjF82hV2NT6+eVpvZxQqaLMRXrDVKWcyFjRZ3NjCciCv84VWtRvjWm/vEMT7QaAnBQKxUw0+E9L9XTmUOnLNCZVpG42wf+NC1yrKV0+g1v8rccEdtM8efa8IlTuDOxH55tswriSyYckoyhjgmjcHhpSWEmLHNI2ivjPpWQRRxRFP1E0yHrGn6g++m+syVBRgV6MyZAj0cjjonw7afzlR3hf3g5tMbZ9rG2ioyTaze02JPTOnjZYphazsaHZi5snULUYdo3G1Ujx82EsBW0Wuu5+DEp+itPamHj1z8apdZZLLoMx/ZeTaxmwTMmVFbwg66Y7a1hKj7tI68LRjz23DTCn4yUz+B3sC77WjaxrlzwMY43DLQ4V6r/e0OPmE/Gpzwi/0v1eig6aabIVQiGtM8dOPRbxzcf6oEarC95fO6xBNMmpPHm1qOhoStcU0K+DDqO2Q1ty3nlS1LEYDT9kF7GjW6zl8H0T67jSaG9/vd4MFyBpqhhWevmrC+c7J43T1gfm5e82/MvlGexSXU+XkTIxtr0YKf+y1yQueNUKzZvpq1+bEKk34BMqsO4YAGAWTmr2azvyBM8IE6Xfpv+E0vZsRFDCHe0kSFX8t8qqBJvxHb6XYiYBE1rjQgIyxhRBdqBc4/L7DwsijIzArkG2ALn7TPQALntcJgQJAdfD4tgLVG+ofmFDUHaqvKnkirmjJWAAM6vfRsjbawwRJc1mGFgAiq/zwf40KbqNXRqAJe9G86Uh7SA3x734U/QzNr4COGlMesorHgr/Car2lwFaiZuAA2WT4NL1pVpxDCF4sgcbLqEnga/MG+WsjmFFFlFFbKJoGqeSXnx36CGfOZBIx51AkE2O/tm94Dfvwm62VJKw6dPBMUePJWFAZ0xpJI8FeUYQvmUIzsl9co/uDcHY6tK0ueDZNdRF7XavCD0B9UpXATkp4pH3YCXD4HVilZKPCg7tIIe5Ar7VxG+nmgxrW9MnlsMS3OC4LhJZqLUDzq9aGdSdgXVunKJnFeJ00lutTcBJgLomeaFT+i41QME+X/OCYyKc/7SLGjOSrA6cRMBuiZvPJBoymQTeWDgGmluJvh8LzbrFarzXZaPF/5gz1lHYHTaalvXJcsP2ul8Rh3GuZ4Ms2PHNF4+VnqffFpTsFk5Olk2efb16f4Zrl6xwiYQxocoXS5VUvEg2KfCGMOBtaDlDQ9wCt/9MPRSGKqJgP4xj3bHhYaDph0CFgmSqoHeXQUCL/TfAA9T5nHBbtClbKYkeALnPWcSqYQQ0muQHmJsEqcYJ4lCXssk62aO+GV5s1XKb8HAbh5YyKFjKDcwvF6XoUkwNx93Ls1+KrKJYRRzqslEuPkuJmerrenfXfYymhyyAi8CZ5MR1/tpXR5QQx9pE54Nb24itFSPBfNYNKlE3YSsODARli0rIiSwIDdOy5gDU11wCR0GDEnxhHRSkKeXFpEcANY0husSEI+WqjyuddEsPSeDjSxajfIe4WlYIRKIT88eue+MuaVRrIgAHciHqi41w1M4Xyr5km5o4eAnVrjTnj7CIlhQE9VyqdIfvmf8M9VqCqALdtAGYkAnhUuXpAHTFLLh/pMajLki6VYWncgo66F8szbYZmkcToZLM4CjVL7JEyLPKfHqr1kPACxZ1ngYM6r5EDLKNd+H0R/v5PllcV3JLaXQtm/yv9DjS2LMFfSf9mqF90RHbGxxX0WKci4I1v8p3Qo0DdSKwYM4ST/As532RJBdOA1CT3PByp1EwNWvHnNWS3MCmZzpklZpMo1huV9Lv0VHve7kcDLT2+KlWDSBtMdxCWvYKQPNCHpItkHjGWrC3/0u7XODfNaOXEsUuhFk8VnqRnTsykhq9zeiWT/AE97PpfJ8jkaI6s2JS/m2Vbl69qQ9Si6AzCZnvcRkOe0qS15E7sTqQMWmEzJVhOo8aKOtkmbUIFLaChIkDRZ3BJDOGC8/v1kgIQWDSJMh99tZ1Q0hngsKZG3W5LVXagSRJlB7Er+VhH4faMTIXqt3cwqPoWf3mtcWK9iuuJglhhbjFUzXAI60dPZwNpWbRSjXkrEA5SCV4NPTb/ifpBLSe1RwXmyRN7U+StKwKQRdhlB8x0dPrFUyAGooGIYMVVwtDswYUSYNBinix7XU1j0di7eKUTXieAlJZLx0LBQUAh2qpj67ddE4ZXwJLjQhgoXKd4VcggUFkqHAu8UdkDR6IurAOhGOniMW4WoA4XF3XrPFPLc0zPh4bYzhSpRRwoLXOGXwvzkLIVLY1cuxcW/d+zrXsOWmIUhjLslmXESwKeQ5O8lcqj0f+wRFJO/hPQkODUOFcOgaCQ+hUyXerOH82YRhGJu8IntvX71PhpQWLQ/Z4XMWkJsagqJKFMFWYOV1thn29HxlSyLzKcBF6vq1lqaNx9/ToD5TkaT71xrCmOW2SPwIYp+KViWirGFkJI4cqfGuDafEpaiAANLWcK4J5HsrvJpOnIVs/tZEJhjU5UcJgXtM7VYfCIzo7BrUowPq8f47TzHjbI/KPyfCm+OTIr7GtKgXRbju/v3iIhn6S98sPgHbdiOvEZQSEVgEugqFXNZngY+5F6cnvLKISHOQ7nUiRgKq/UShliOKdccoFWKerNivjTlFVkF+4c7gOp9UNYHznpHCHlbXgeArbuKti8mMJQabCWa/aILwypFVCTGmIXSdYeRgjn2co9JmvOutG8RMRbdl0fKtjkv0qlrsZW3PV/EzJJCAUv3LbCAwSkVxQtcJEvFFey9Ro14H0tbS8EIVLmy4OycSn+tsH/INoxk5VQh34y/FC/IifLSIlshZLGZsjUkJDfKWxTA2S4GcaYhUCjv+ZK2bgJSEEyyA/+rdYELL+xQhi0worKlhJV3SAexmheVNgkLu92v1/6o1Lnu1cqTCnhTaHWYAGFE2V10rcVgalRjSu+and1hQd63nPCNHI3KkC+xaz0N7qZr26W2jBewXYc0O5ULryYMUtTTONZEsRpzw8wsmzIUKolW5vB7nP9AZ19gTPcC51TXxs6Imycmu1vHt3nhEokvgntaZhWuRLlqJxT87nulCaqGkt8UgJVnhMamhTMMz+duAtQUslZfFi5T+Byh2PNtqxfbtWLSXepL0T2iFTggpw4naSp+JCkt7v59XKYyHq/EnWKD0Ubddz9VLjXCuIS01MCrikmSuwvb1rtZbzBuTSbzJHt5K/5z3ySvECaNJEGEfZ03LiGtGA4DQekMtnRHVIowe10ghrJQ175WH/mO5swetK9P30nXQs4IQgQKV8ZXmoMKCoAEGU6HI3C91SmNMNnIaBJxpIQ+OjLWRDYovYvWwAOdO+0ahIM3CV2IEfGSOXC75Y1qgIHpVUPoAtMehpyhOXXfWm7vb4p8sriOD9xgebxCP7sGAIanhSOYWCCtd5C2lrPP7XnUH533b6thklqkALRn18jnDwGh9l3yD1tVBgZhYL8f1dMyFog6tUXV2GbQYCsou4kVAa6PyuZRzwEDrLpjyLLQdUDPpI32zUabWm2Kvdu8uQJAk6obDRHP4wP2NlJ7oCuaSugbeAW3N2nbiLK0qxL+63WkMBKA3aRomwgfNoMGb6L2O4ZAV+o8zxe6rglg0ERLDOnYum++Qz2jE3daf5ofhCcbCiF0qvuiL8oCQRhzoljaJxsKT/YG3x4BcIreNcS9FEpCyqoEZ/QIOcS0mGFIoPQo6ZqLjS7d2zzsCkKruQatXxsAnHhiH57VA+whBmimPAyl5x7AqnfH0KjkqgOYamTUIUvqIsJqE8NJcPm9nDJWgVYY8YXwSlxEbPVE048Tsng7A5ZQ092ZAzsImR1OkuZCYPeOGg1ijzrsBhv5zTgZMGnEGvsajjsUEEBcRGvmyJLTpufAgyD2KFjZTIcDhhZLyA9bmexzasOmEF177VMuAt1NWmaTayVjYozWoa8whBquYPvBoWknBTua7aR1WUTAJlO12kAlEuKacJj76v8A14VWS7EkGiEXBCdrDsFCSlPmaGPxYpyOWlzTrs1UA8z3W/wA15q0QYpsal2ESAAGRHa5SlQ2psbKRIH9QWYjtTYI15ZqBrAl8SnrokJJT2C1h+cG0A3Oo7bcEWFVncEDx4IoUl7YSvXSgbwhr6Ul/NBg9/EOAZKQo67xHGCwkiWHcwbIpwY3weZ+o661Tidg5Maj32ib7137xoxOYmzB0lTgrLnFZYS7877BqkUIATyaWU/NqL7BmsU6ZtNZnaO+hDdifWjMWhKjRH9ZxTl9duUg3GHZEIqdDI0EG3zKaS6CGUzLuJ+iYFcgGu6/zuu5DLZljnGZp51SpsirJEeYRd/rfZucRF3L7cmBPUW80seAgJW6VUo0U+4DbogHSpobBY1zoe7Jj6phE1bxxN0LjcSOUGM4va+iTIdil1o/iWFGYOWbBmn3cpdqnc/HJP6+9rgRdKJ0uSo04d352b1g4/KQ+iHerd4YlyvT+uf9fnp34bqn/insKKCPpkH8yIRpFdUNIHPMPJlCtoK667TpCFl5tTENomriyenzFVewIj9f19N1GKsdjDnreKisopwufNEXHPCVF283RkWMxL2ZydqJrH3X6OivDoM3gNUegbAEJ3FNWofJcvOcU3d5t+v+ZEDMxnLxumne4UcdyCfp4klrPG/Z1BWSwM40Nvd+LzVrhPyovde7fK3Bz6b4vQPzG/kJrfrr79TgMv7meQWLbx/VXtukQMwZqaZNrNyie4zSLZDf/lCbpOR3hRgv7fGPMLdCnq8VFJGfSn9yv/3QDS3u4arbofpAkJ8I7dYh68rv5v6g3wadEuTCeKqRWUpI8hCl/jrjxjy/0ebwGKUa5wdNnmovwv1GeOAfbA7rZ9VACMrq2JuTQrh/6ea1I6gEvbwt+PVxYlE43jqtsx5vcBEWsOby1BLE5riXumgcCOdLr/VVGykgtvVqrjP/8hhkYo7HZ8d/MiZit4TXF787n9GLEGE2t3XV4ZhQPMG78efmFK6Oao4ezqACiq0EPrykYqJFYeJe69bWJiyKd8ude9WIjHrFE/rr36bvC+GilF7bLVylJl2Urv0YLR/p/KoRZuW7ci6sFQ0dUdK9lN4yTf4N+n4wPzTLWHcz6lqmWfd09/tDzWcXrBEN708ofy3majGOI1W4HEZxsng/y37nLX3sE0FLfpXDlzjtNrPhMmm1JoBWK1kOZ5ud4iKoa/dfW74c7eRTPmgLdMePz5DYYUxrACHFx+w3jbsF0uWbTCgN1G16v+WbOSFMezOZCpFjOsviuo9f1oIgzYa7Zy1tp+0wS/8hs+eGeJ5kw+5hd55eRv1+f3SZnveH7vD7ZvbfHtof/vCHP/yBhP8AR0fV3dx8oqEAAAAASUVORK5CYII=;" parent="1" vertex="1">
          <mxGeometry x="1080" y="300" width="40" height="40" as="geometry" />
        </mxCell>
        <mxCell id="IZlDyetnFrTAtIApsN1v-9" value="" style="shape=image;verticalLabelPosition=bottom;labelBackgroundColor=default;verticalAlign=top;aspect=fixed;imageAspect=0;image=data:image/png,iVBORw0KGgoAAAANSUhEUgAAAOEAAADhCAMAAAAJbSJIAAAAflBMVEX///8AAABCQkKysrL19fXExMT5+fmrq6uXl5fj4+Pm5ubLy8ugoKD09PSAgIDHx8fR0dFwcHBqampVVVUyMjLt7e1bW1uIiIg6OjoZGRm5ubljY2Pb29uRkZESEhJ2dnYlJSUrKyucnJxISEg2NjYWFhZPT08uLi58fHwLCwvn244rAAAM9UlEQVR4nO1d6baqvBJUpjCJDEIwgKC4Fd//BS/oQRkChNHwXevXXks2dEGGTrq6s9nMA0HgJJ1HQFWDxLQYxj2co+h4ejy2j8fpGEXng8swlpkEqgoQr0ucIMxkycSwJZ29wNBjjtu+ODJeCC+sLtnfJoGHrfNqaLmn3sTq+HOtUOV1iohKSLz9TcCsxvQmIunL3Ha+qrkzcCvC1VR/9xV2sgKdx8zscjwcqMiLsuP4cO5PV4cb8twy9Hx1eXZvlqo/M7v04/UYLY/X2HI8QwtUlt/vlRT6C9mf+z3PqoFmeI4VX3vMLac5P6USRiQ2XL0EXpAuyTbpJC7YsqSjC0y8K8kDolCZg56udb7oq3EBym6cbyLsFHAxOokeNX0iXv+wA61fL2LClNq0T1RAyLQ/FEz3RF9reY4XKP5cLqXgK4HXQlObZtzZW00PYCArzz+AczILmSYTrP3o++sNNz9DfgLrycHDc8NrHtchlRvuplcDfcMtthF+BLoNH1klD/fOgrkn3Tb4Aa5NeQMd9KB+q4P4bWc/fe/ioW5YMOBGSs15OQbLer/NkIPa3Hzq21SF2gRhLjuydIE3qwZqveYsueJc/6kUrbj/wVYry263RxNjKy2Anc/OUWArPYnYzvIQw6A5jRwJVB5aCQecUheMaP1+OdiSV6eR/EtY/A+R/l1MQSwaHHb/g1G43PnOFlBf7JyCzUbX1cUXApYwbxKAYrNrvxR9roy/776QQ4o/hreOjPLnOm8p4yZCwYdumxc/DRouZtpUgJ/ho/kinrQxU4nPENLsYN7zS8wFDZsOb1f13nTFPr/iuqRdE+K9QG7a23h31jWNokVIHcMkl/9O4BdQirc/ht8gU/Ofv7lNMQ5+TkHF/pzvOrkLmzUl8nXtDftrvhDp9OwoRu5VM9hfc4brcUfrAEQMLwtbNSUuRAxbnB7q4RAxPC9s1ZQ4EzFs9Ajox9sr62BoLWzXdLAIGbavISnGZ/3exbB1DUkvCuv3ToaNyw+qce/BcGvRv4tYhVCMVXcz3DL0BSraYZfNx15T3iCP1tUX5bKggYRhjzgHBajEkggZbr11bHlvNrtaOJ6Q4fa0jokR1bV2pAzTleTE4qoZoOP0Iu0Mywohk+5B1S5Huy0ihkgpv4+E3q03KSmbquR+WztDduNX9BwmnW1Vr6gVDv57TO1iWAmTprjRN+agav/LNkHJGW74mkod0rTJ6MOqeY9nsKIHw2oXzhADOvwcGcQ12/4NiH0YbjYKRrF++zpJGWBmBzdXRPVjWPeFXndTvze2Svg8gbrFpAw3Aka9l+KRfEF+aaMEn8ESFFZ6vRmm9xUbUppibcE0FlnR6l3viT+x9K4HMNxsONCYYnE12flnSp01G6X7J1AJMg1iuKlpq8pwIdDn2REQdADb8nMwerShDNMuHpxbHpWul80ASfZUsnbOllBgtqevnAPcgDecYfpC64rOGu6WCZE+Iplu5+sImta980kmj282Yxim4Fic8LuOU3S4mRCgvS+TNF9B9vcIQPN2iMiSqjy2sbGMZJiBN3pn+B6vNzPRYCCmuKiqesn+CKCWmLc+KV3/bma0apUnYJj1f4jNUVgAN9g1pk3CMIOtBA3z02yIA4XAy5iMYQaBF5diGYsNA8u8DJ+QeNHCpD9MhoMl8n3c4OkZvmjqauJNzfPgJare28efieETwk5GF+02vuTA6aZdkDwwUXNOhm8IUja7ecz5SM72dDwzXjaDSiP9v0UYfiDYkq8rCgJqANPpLzRMz3Mcx/NMI0wnSBioACmK7kvECcOdWJjhF/Bj+GNIP34MfwzpBxnD/776co25FjnE3zd8Aq8CXwdUIoZry+kqwiNiGC1q07SIiBhuZ6ngswjeCoQOhusVejuEDFuy2+jGJ7uwUzFEt4amCfaDnOE6E4MKcSoCBe3Cxk2BYs46ga5tfRRLYrWfgnZ9IypfsZ1QfZmsRc5erxdErC9dx2fc1w0nV9AOraK1IPAVybCX5gzLMbOE7tnfLitMYyKGCJX+aQvpFbTvKhJFRKygrcirQpqElx9UFcKnHgraUk2bDBZ9Y86+amNWL6jHbiKo/PvWFWn6kL5YE0s9t5f67JdK9SC9O2FN1DHYgboW7F+9oH47wggjdrHQQhWnG8EhTD3VKFe49dzz5rDqUufyTQVttfM98VGY9t7VlxPcDbfXxYqHFyDwCV6FqRVm7AFxC9nA3jW9B7HGZQII+0btTlhaAw2KzNiwUXFw11hp7o/JyazWqGQ5wYrHNTD2tGurMx95EPnzeHY7nw/Mc/OjXbU2tg+PrulNjfXfu7x6ai/tUhckXvXcduGigRNgj1LQYtI4qjhaUEX+iBNjBEFCauB0F7ePwSwKWulCKNVjssr6rCLJNoFSRthlVfVZFSYmQ6YxipszPsbHgGXQ3lyrON6Zm+WYCQwy8SxgEeIRYgFQL2IAE8Nzbswh6nUQiMG2dfppotx6h6p9PtzFruSH6RS0yFua5dkkydOZVKkg8dDrf6rTEBw9SDpQT67FyKr6zysUjvudTjCT2sRnL+Z16nODHgdPZHsvSWfV08g6L5q38VLhw80UeX3gjvsCiiEhOzEmndsMp8MlKePoOkaSugu6RJSE0ohlNVECx8l6dnpelkICtdD0rDid/Q5MbHlmqMFXgglAusxxUy1TfqqvH0P68WP4Y0g/fgxf+O+rL38KWprxU9C+sM6S8y+YRAz/D2rQ0lkVigT6lozhepupSchwtYWEP9KhLobRtwO9w8BFxAxXqL3MUAh/d6u+1tgVi7VXCHRt6zs+oBRQIVHuxXQoS0ixK1cjIdImPmhSCHXBr8TlCNWXQw73/A5qshhSfelhHd6NXt9oJ1fQJvT3xh1O89PheZebKt1i70pVQLLcNaSW/mlb13RQA65iKiBV0Fa0/fQcBFyGXT0WeE++1yZX+y6FdXb9qmbiIPfaTayNv7SIS1/ASEyfc1uf/VK9rvTyEB0kd5jyf+6rkfXbEVZrt9keje9n0Cq4mnj57lnPPW8bpw56eOz3viSHTJxsynjrUHrv6vv4QomM6C8/Swq+iC8yWszrGRC30BuKQUYGGFHjsi84HxhnvCFeaZQfFJmpjcoflrdgPz/L3V68NYoVq7kuA2NPNmwRyxwToMy1rSMoQGtRYp6Cmg5seHQNlwJQfJYDgT9dTbL0pfpsl6bMwRXCHxM/lMTGesU5XCcUeX2U8luQdP4SOm11i1+PEvFCt5ER0noxeyz+7nFWgZbvof7e5VVoyVRGzSX+x8eAfTXuJ2CLGMvQRFFVAWAz/exe2WcaWhY8VbTQcOJzr/ttY7Vtd2WSKLfNh53tdSZcQ76jXUwVxxekS/vIMwesC0HZyEmVCj4IuzX10yAKAeHG3/QKWgV4bVXTx8P1gNLDq5hHbSIrl+lL0G6393Tu6S0znVFPI+xkXoXW+BK0qftgQZUfWIR2CcWQxLMgCB03OvaaVo6RaxkBYEfmFi2ridpJvr4Hz+rrr+qz1i1m3KvLxDcrr0QLoQh4xZemSg2jQfU178KSBobz4sfwx5B+/Bj+GNKPH8MfQ/pBxnA9Eow6glaGueZmnQerv5CfhRVjf8117ts1SYXK8Let7dDOf9YWtms6vGvvNewNvHOW6Qvak+EtgsY30sKhnOss0Foo0do0HXD5BauUlxYFpo3L7E/kHi5p2UT4RFVacmI+e5/rmxQ/+pi2TvYebbdbh249WxVCoQhY62xXEAod6C/s+YFU2JHuaH7FI8fXk8RWrIHYqVAvBpViOhV7VcjF4iPdiRRCKcIs0t8bBbFoMENicKlwX0R7UwWlEB/h+FgO199pXi+y5YN1iafxSvHSv4bSYd+GACpnhvdob341HAjpmzqkqjLk3mvBINSEJd6ChSC7IfA1vR3sa59eC3aeNFqWxr5WN27Iik+s3iUdWRukSEtCEjECiYE1BGycBuoK9e/lX3I6xGl5qjU+ewBb0X0bmegbn1JC+APlzXHGSA3q0qO2aM1kDmkNkrdw/Mu24R/+3turBqQFFLQS0JpkZse6wnTYM1pq0B4dyM8m+hZ8HjrNckVmyhQQv3ZGRhERYwB+2nWIzAODaVWVTT93dciEUxwMESgjlcKCrQDR6FRYWTiB8HjILLZeeBVnJ6tAq0syMVnhWYX2AhPnTPIAj51x3WqjHjVoT4fYcjxDC1SW3+8VRdFzpH/v9zyrBprhOVZ86CEWC0nKmI6EEkwv0yPDIVgsKWnHa/OKLutwtcUr3UutI/mUyGrQfmvHiJNYOO/HZPrVoJ0JElJnKJx89tSvuL+NSP0PNXHaJ2kiRIyTqPP5SaOxk30kaqHH9O2iR8YL4QX5Mh15qgQQBE5SEAtUNUhMi3Gv9yg6nh6P7eNxOkbR/eoylpkEz0LtisSNKMbfgf8BekTChzH9BsMAAAAASUVORK5CYII=;" parent="1" vertex="1">
          <mxGeometry x="1427.5" y="245" width="50" height="50" as="geometry" />
        </mxCell>
        <mxCell id="IZlDyetnFrTAtIApsN1v-13" value="" style="endArrow=classic;html=1;rounded=0;entryX=0.5;entryY=0;entryDx=0;entryDy=0;exitX=0.5;exitY=1;exitDx=0;exitDy=0;" parent="1" source="IZlDyetnFrTAtIApsN1v-4" target="IZlDyetnFrTAtIApsN1v-7" edge="1">
          <mxGeometry width="50" height="50" relative="1" as="geometry">
            <mxPoint x="1100" y="270" as="sourcePoint" />
            <mxPoint x="1150" y="220" as="targetPoint" />
          </mxGeometry>
        </mxCell>
        <mxCell id="IZlDyetnFrTAtIApsN1v-14" value="" style="endArrow=classic;html=1;rounded=0;entryX=1;entryY=0;entryDx=0;entryDy=0;exitX=0;exitY=1;exitDx=0;exitDy=0;" parent="1" source="IZlDyetnFrTAtIApsN1v-4" target="IZlDyetnFrTAtIApsN1v-6" edge="1">
          <mxGeometry width="50" height="50" relative="1" as="geometry">
            <mxPoint x="1110" y="270" as="sourcePoint" />
            <mxPoint x="1110" y="310" as="targetPoint" />
          </mxGeometry>
        </mxCell>
        <mxCell id="IZlDyetnFrTAtIApsN1v-16" value="" style="endArrow=classic;startArrow=classic;html=1;rounded=0;entryX=1;entryY=0.5;entryDx=0;entryDy=0;exitX=0;exitY=0;exitDx=0;exitDy=0;" parent="1" source="IZlDyetnFrTAtIApsN1v-4" target="IZlDyetnFrTAtIApsN1v-3" edge="1">
          <mxGeometry width="50" height="50" relative="1" as="geometry">
            <mxPoint x="1080" y="200" as="sourcePoint" />
            <mxPoint x="1130" y="150" as="targetPoint" />
          </mxGeometry>
        </mxCell>
        <mxCell id="IZlDyetnFrTAtIApsN1v-17" value="" style="endArrow=classic;startArrow=classic;html=1;rounded=0;exitX=1;exitY=0.5;exitDx=0;exitDy=0;entryX=0;entryY=0.5;entryDx=0;entryDy=0;" parent="1" source="IZlDyetnFrTAtIApsN1v-4" target="IZlDyetnFrTAtIApsN1v-5" edge="1">
          <mxGeometry width="50" height="50" relative="1" as="geometry">
            <mxPoint x="1180" y="230" as="sourcePoint" />
            <mxPoint x="1230" y="180" as="targetPoint" />
          </mxGeometry>
        </mxCell>
        <mxCell id="IZlDyetnFrTAtIApsN1v-18" value="" style="endArrow=classic;html=1;rounded=0;entryX=0;entryY=0.25;entryDx=0;entryDy=0;" parent="1" target="IZlDyetnFrTAtIApsN1v-2" edge="1">
          <mxGeometry width="50" height="50" relative="1" as="geometry">
            <mxPoint x="1390" y="300" as="sourcePoint" />
            <mxPoint x="1440" y="220" as="targetPoint" />
          </mxGeometry>
        </mxCell>
        <mxCell id="IZlDyetnFrTAtIApsN1v-19" value="" style="endArrow=classic;html=1;rounded=0;entryX=0;entryY=0.75;entryDx=0;entryDy=0;exitX=1;exitY=0.5;exitDx=0;exitDy=0;" parent="1" target="IZlDyetnFrTAtIApsN1v-9" edge="1" source="IZlDyetnFrTAtIApsN1v-1">
          <mxGeometry width="50" height="50" relative="1" as="geometry">
            <mxPoint x="1390" y="230" as="sourcePoint" />
            <mxPoint x="1440" y="180" as="targetPoint" />
          </mxGeometry>
        </mxCell>
        <mxCell id="IZlDyetnFrTAtIApsN1v-20" value="" style="endArrow=classic;html=1;rounded=0;entryX=0;entryY=0.5;entryDx=0;entryDy=0;" parent="1" target="IZlDyetnFrTAtIApsN1v-1" edge="1">
          <mxGeometry width="50" height="50" relative="1" as="geometry">
            <mxPoint x="1290" y="270" as="sourcePoint" />
            <mxPoint x="1340" y="220" as="targetPoint" />
          </mxGeometry>
        </mxCell>
        <mxCell id="IZlDyetnFrTAtIApsN1v-21" value="Clients (Users)" style="text;html=1;align=center;verticalAlign=middle;resizable=0;points=[];autosize=1;strokeColor=none;fillColor=none;" parent="1" vertex="1">
          <mxGeometry x="1190" y="300" width="100" height="30" as="geometry" />
        </mxCell>
        <mxCell id="IZlDyetnFrTAtIApsN1v-22" value="ssh" style="text;html=1;align=center;verticalAlign=middle;resizable=0;points=[];autosize=1;strokeColor=none;fillColor=none;" parent="1" vertex="1">
          <mxGeometry x="1300" y="235" width="40" height="30" as="geometry" />
        </mxCell>
        <mxCell id="IZlDyetnFrTAtIApsN1v-23" value="cable" style="text;html=1;align=center;verticalAlign=middle;resizable=0;points=[];autosize=1;strokeColor=none;fillColor=none;" parent="1" vertex="1">
          <mxGeometry x="1150" y="230" width="50" height="30" as="geometry" />
        </mxCell>
        <mxCell id="IZlDyetnFrTAtIApsN1v-24" value="" style="shape=image;verticalLabelPosition=bottom;labelBackgroundColor=default;verticalAlign=top;aspect=fixed;imageAspect=0;image=data:image/png,iVBORw0KGgoAAAANSUhEUgAAAOEAAADhCAMAAAAJbSJIAAAAflBMVEX////e3t4AAADw8PBvb2/j4+NycnLh4eHY2Nh0dHTl5eV2dnavr6/19fVra2vo6OiioqJgYGBISEjDw8OSkpJcXFyampo+Pj4zMzNUVFQ7OztOTk4XFxe5ubmAgIAiIiKJiYnLy8sNDQ0uLi7R0dGcnJwcHBynp6cTExMpKSnR3okcAAALXklEQVR4nO1d2ZaqOhBtSiMICDKJoIgCTv//g5cMYNsJ2GfBNXhO9lulSVZtgqkR+utrZBxgGMKxFRobBhjuEOhgyqbwArH1NRuCVZjIptCPDNxBBGvASTaJXsB1NZDgKgPZJPoQ5kMJ1hTjq2wa3XDhNAJDA1ayiXTCi/qPmRXDC4oLSzaRLlSg9Wo+yw5eknhh8IKjC7psKh24HHs0Xxnzh1nfzPo4rtapbCpi2NCndVgT8+yTZgRnH+CS9W7jJZBNRgiwe7ROAM7tAYKcehv79juYpMU4lD3HTAnx0wF5Auh7pL92G1k0uoF6LMXKg+jH5S70OgcGzKSw6MPO6SZ4hZK73gBA3QxXB0cCh16cwOxUt94vxM/YgNd32oD2fhK9yMPuLTzDQjRlD0bPJl4nZjGu0L0fXzkYojlh/2Gzz95Nog8r6LFvGtyFkwzY9lmM06QshuV361qHQ554FvT8dvEBPKGEhglVD8N1V+6l6Psh4r2fjsXwrb7HLYS1eFrZd2PwxI69fz+CPocUH6Ude3jr38PZCqr3EulEce7digw6rHevzcczbfER9XZsXqQujI6zVOs9SwnF1H4zFyFWEPQrWj+NQv/kDIdXDKtJWIxF8krPEA6iiff+g4ZMdY5vZiOAAfoLNWcmgMtPXEP0Om3lTiAFnr561Oqd2IDPzatpG68ZrjbSU+C/SnKvfFj+mLfaQ7ev/h3SU+C9qYsHLvC8F0YBfV7Ct5sjO6ERvjrwmZ5mCrfHyb86wMtztJ3qd3hE78Gvk9yrmQVwOQTazDVsBwCuvy1RSU6BR96va2lfVfTIlx7c32f/V5Ywfn4PKkCr3+MLrZ04Tf1DNvv6g2krmQmNe5LZf4KM4Y8m2ZnH25o3IRhYsv89hFmQtzCMNmEnNgD5FuMCezpygQsZyAHEF3QsFEtkeHRRF1wbtkuKO2QmQmYGdzawBdvlL+hcyZPJ0NS6YB4gWcwxFjs4Ik1DIezYQIInchd0rvSRDA+KoWKoGCqGiqFi+Bcx7FZMMVQMFUP5DNEG/OUCw0rhihleIbXIwNKHDeIv+DSGmgHgJxgx3OjIDWIy4ANUzxcURvc602WIsiZCvwU6HtBPRTOSIdEFn8ZQQ8aZxOhnjemvG2s6YCDxBZ/GsKZA0T3AXfBpDMeBYqgYKoaDGIpPlvbk1H/IE2QYzgQauU1IpZvXI4bNOOg6k00qm9UGi2HgNhNcwR0zZzIZ+sIc/IHqqVc5G8hPmJJ+ai64G1g2N428YPYxu4uW8xKJDAH2PAqYU423kO4wUsjJQM7kLfg1Qz2DwifyhUbS9YBouZvUusVlvuQxzwF7YboNW6vxrO3a015DzDzvEjJdMyPwqOc9hz15HFOIBMvVfrrMp5SGP89YkNBBQ8c2WiLRkXlsoyV6wRYcOmF5AfwYV1BYguXmzvQY7l4zPIsZLkUMPcVQMZTCsON3OD2GsUilJd0iFDY3oGYYIsz4aQ/1FNgE6wZVzRB3EYlumFSGkHg8klojbN5aY0LNR23u7gsq7/GemUvwqTnwIDWpd5YKlvNyqQzFoHklcw7FHaMADzNAHtywmBc41UbyNBciAzaPeKAUL1dIZDg/JDwWAXNMUfN9hQPzS5dMpsUA/cScvn3G3DztGPHLebbU2MI1BWhjBROdMFDjipv6k6y7BhYrt52ARMvJ7VR4FR/qGH8gizDp+HAUTLW6RqDrz5sklqfMMHR1Hma7sWZFGtOqZgCdqNz8DrWA9K0ZjwmC5eR2DHlRyiOxWcyuO00MywgkTHYIRRQ0Ae+aUtYN3Lv4E3Eok2EHQqKxmUBOdMzBx5z1mMkX8BAN+UssbpkBfeQAOMhjWHgOD+9G3Eyd9LHhgBf3rekaIn1sWF4QH8d0ICER8NKBO6J3ZCdYztlK9bxH8UuX9JbUPs70/NK/P7ZQ8eE/zPBzntKOk2bz3JnQddI0DPd9J41chjfH4tKblrNvrQXLl27B1r93KtyJtfAgaqzFheTAfUj45ZbLdIIRMHVXkQ95jHGHlFj8FO5EziFiFj8lcu3UTNbiJ3HOY9s6YY2XtiOtFnoVMzmhTqh9e/KBarc1ESyXHyKptSeBp/zN8w6u6+t6HbCYWEdEvrY5AMNeX6/r1hPXaqdd4MhPOgLWf9QHX8lCqAhYMRzGUPTOzLeH0CRf7GxTUz9lxOTHhOm9M5NteNhNixMKkrLGPckoBzMjchmxo0YPUyxuLYNNMIMzv9xam14EfK+Ixua1HSH241HVxgXTWt41Yk4b90xLvN5WJsOtz2MLOdmhCiAiPkxU4F7E2qAXHpVJ2r/26koHOzXzGCJyB45wESwXS7X4rIz9DOykYb/03LitNCTGfiqTST9p7fI41E+1WKHjAnPBcsvor48tVJVbMVQM/x+GH/M7LLvO0lph3CH0Z2dpDvPl1M5SKGMeJZTE4mN76MwdZ07L3tgeRlh0ksYe3j0ix7RGbIawFyyXSrWHN7EPQr0wZLcjJGtvrluZFH3d9jMSJfNpxN/kv6Uy/dJgzSPTW7/UI3UJL0DML/W2eMA5sV7Es4/l+Ng4suZJsNxVl1s/HCG2MF/EFio+VAyHMXxV5X6Rl/mAPm/X4NHm2nREA+Ss7fNuZMbPuJIQ9/TItWn8crrUPu9ke+O7lu+bJl/atIHHJCTWqy2Td3Rv2giZPewo8AVd0HtLZr60Awea846hJDFsCVtS2S+ZfIcEkb43iIlcECeODHRgYnWL+aXp8y6f6hbrb3UL2ucdNX3etG5Rx/qCuoUVT8/zFtSejj9qTxtB7amaYu3pH6gfqvjw32X4OU/pWH3ep6n2eReRqCeqII3pegY5Pe8XxDpg68H6vMmemU4d87M+75L1RPminqhyglXuDe3zjmDPvse2wxYf+ex7bTfSuodz4ncslizLjwcmZ/EdR5CGj7KmxrtgCs6ZX+ox2WK9iSkVi2vj5lk7frndWa7nLYpYH33eFflMYlvFRlQ2mv5S/YTFQHuUxQUR9bSr3K/6uqffI/wPRMB/PcNQ9L7Ft1e32T+mRM9ye4XpPmem6hB4au9bHNYHHpumM9280td8SnZWmmf66nNq03dmNFbzjZpWd9MWLHc8OdOzh/RjLGYIcMNgbWA44cvkM7F/WyoXQFyaGpF4uY7/U/MehrHgvSf2xZ1HVZs2ftch/N6hMsnq135qSmq+8x31COo7cBcst7vJtPipsDIT068mbdoqN3HFH37pMsateihuPG+L1Pk1rQBBYWaxVLHFNBn+/fGhYvj5DD/mmwr0tZ8fZx9Nh9K+bsqAnp2Ps5XkT80dq3IvlvR7begOjuAwtRKpETANaZ9RB7zERzFusCMvY+8AsFwHuFT24a6RO3CJiLyFJXkTeg0gWK6UGgFfhD7Ijnmh7Rfn2BfoHlVv4vSY7T+X9ZnTtgERcl+m521kPKrmk0HIOOBNig7M70QVlY/McXUzh2ziup2gCZYLpNaejqKXPr9FtCw6+BE6oC65fY32uZVdxYeKoWKoGCqGn80wVAwVQ8VQMVQMFUPFUDFUDBVDxVAxVAwVQ8VQMVQMFcP3MBR+g3ZkSK3M7Kx3QOp3Md4EWQxn1eMNM+1IVDlxr55p5HWuHf9SGv2yV8hPoG8DB9+GqpUkhk+grzHP+D+QD3xF/PiMTLD/YCXJGI/hmfzBHV/FgVAMOSiG46s4EIohB8VwfBUHQjHkoBiOr+JAKIYcFMPxVRwIxZCDYji+igOhGHJQDMdXcSAUQw6K4fgqDoRiyEExHF/FgVAMOSiG46s4EIohB8VwfBUHQjHkoBiOr+JAKIYcFMPxVRwIxZCDYji+igOhGHJQDMdXcSAUQw6K4fgqDsQaiqIQMfTrP4DHj8/IBGH3Jf7DaAz/A9Tq7DhvJvBdAAAAAElFTkSuQmCC;" parent="1" vertex="1">
          <mxGeometry x="1030" y="360" width="30" height="30" as="geometry" />
        </mxCell>
        <mxCell id="IZlDyetnFrTAtIApsN1v-25" value="DHT22 sensor" style="text;html=1;strokeColor=none;fillColor=none;align=center;verticalAlign=middle;whiteSpace=wrap;rounded=0;" parent="1" vertex="1">
          <mxGeometry x="1060" y="360" width="100" height="30" as="geometry" />
        </mxCell>
        <mxCell id="IZlDyetnFrTAtIApsN1v-26" value="" style="shape=image;verticalLabelPosition=bottom;labelBackgroundColor=default;verticalAlign=top;aspect=fixed;imageAspect=0;image=data:image/png,iVBORw0KGgoAAAANSUhEUgAAAgAAAAIACAYAAAD0eNT6AAAABHNCSVQICAgIfAhkiAAAAAlwSFlzAAAOxAAADsQBlSsOGwAAABl0RVh0U29mdHdhcmUAd3d3Lmlua3NjYXBlLm9yZ5vuPBoAACAASURBVHic7d15tF5VmaDx5ya5YUiYTBRCAiGAGkAQgXYsp3YAxwSiqNVqlVpO1dooaqFdZam9qi0g2GrZXVU4lCUqpZZDEHG2HBAHBCcUkBCCEOZJQpgy3Ft/7Bs7QAj3ft+eztnPb629YLlk5333Odn7/c6wzwiSUtgJOBBYBOwz0eYBc7ZoM4DtgB0n/ps7gLuBjcBNE+1G4Frg8ol2GXARcFuGHCT12EjpAKQemAU8GngCcDhwCGHhT/X3a5xQCPwa+DnwQ+BcQgEhSZNiASBN3XTCgv9s4JnAYYRf8yVtBM4HvgF8DfgZsKloRJIk9cAM4EjgXwiX5scrbzcCHyUUKKWLE0mSOucQ4EOEBbX0oj5ouwH4IHBw5LGRJKlXZgJ/BvyE8ot37PZj4OUTOUqSJGBX4O3AVZRfqFO3NcBfAbtEGTlJkjpoNnACcAvlF+bcbS1wIhYCkqSGzATeSrfv78dqNwDH460BSVLPPR24kPILb23tEuCFQ4yrJElV2ofwnnzphbb29hVg78GGWJKkekwD/gdhC93Si2tX2lrgDRNjJ0lS5+wFfJfyC2pX238AC6Y86pIkFfRi2ny6P3a7CXjBFMdekqTsZhBebyu9cPatnYpvCkiSKrUncA7lF8u+th8SPm0sSVI1DgGuoPwi2fd2FeEriJIkFfdM4FbKL46ttNuA50zqyEiSlMifAxspvyi21jYAL3vgwyNJUnyvBTZRfjFstY0R9liQ1CEjpQOQhvRm4H3Uey7fBPwOuJiwze4lwDXA7RPtlol/AswCdpv45yzCg3YPAx4OLJ749zkZY5+KccK3BD5QOhBJUv+9ivDrs/Qv4C3btcDngNcAixLkPI+wV/+pwO8ryPfeVwJenyBnSZL+6M+p57L/xcBfE36p53YA8DeEqwylx2GccEx8JkCSlMSzCQ+flVzobgL+L/CYxLlOxWOB/0eIreTYbACOTJyrJKkxjwD+QLnF7VrgBGDH1IkOYTvCLYgrKTdOa4FHpk5UktSGPQkb0JRY0FYRFtXtkmcZz3bA64DLKDNmVwJ7JM9SktRrMymzve9awtPtM9KnmMwo8DbKfAr5BxN/viRJA/lH8i9eZwJ750gukz2B08g/jr4aKEkayIvJu2BdQdhWuK+OIv/zAcuyZCZJ6o0F5H2q/VvA7lkyK2sucBb5xvUW+nU1RZKU0DTge+RZoNYDb6XeHQVTGCG80ZDrlcrvEI6pJEnbdBx5FqbrgcdnyqlGfwLcQJ6x/u+ZcpIkddRC8jy1fjlldvCrzWLybC28FtgrU06SpA76GukXowsIT8YrWAD8hvTjfmauhCRJ3bKE9IvQjwlf3tM9PQj4CenH/zm5EpIkdcNMwidzUy4+vyEsdNq6XYBfkvYYrKRbuypKkhJ7K2kXntXA/GzZdNcC0j8T8KZs2UiSqjab8ER+qgXnBsLDbpqc/YHrSHs8dsqWjSSpWn9LusVmPW2/6jeoJ5J2n4D/mS8VSVKNdiXtZ37fmi+V3nk76Y7LzcDO+VKRJNXmHaRbZM6irR3+YhsBvky64/O2fKls1UzgRcDpwMXAOtLlWmtbN5H76cCxE2MiScmNku7jNFcS9r3XcB4MrCHNMVpDuQVnGbBqEjG21i4FjhliXCVpUv6MdBNZn7/ql9uzSXecXpoxD4DpwCmRYu9zW47fb5CUUKqNZz6bM4lGfIk0x+qcnEng4j+VdtKAYyxJ23QwaSattfi+fwp7ke4bDQdlymFZovj73JYONNKStA0fIs2EdXzOJBpzAmmO2fszxD6TcH+79ILatXYZPhgoKaJR0nyGdhUwI2MerZlJ+Ipi7ON2LeHefEovShB3K+2FA4y3KubDHSrpaaR5Qv9EYGOCfhWsJzwcFtvuwFMS9LslL2UPbknpACT1x8eJ/yvlSvzITA7bAVcR//h9OHHcqT801ed28QDjLUn3MR24ifiT1HE5k2jc8cQ/fteT9spkqgcYW2i3DTDeknQfjyf+BHUjsGPOJBo3i7CVb+zj+OiEMVsADN5uHWC8VTGfAVApz0rQ52eAOxL0q627nTR7LRyVoM/Nrk7Yd985dj1jAaBSjkzQ5ycT9KltOy1BnykLgPMT9t1355UOQFL3zSL+J2YvwQ/+lHIxcY/letLdyjk2cqwttRcMMN6qmFcAVMJjiP+e/icIk5TyOz1yf6PAEZH73OxLhI2ANDWXEb4IqR6xAFAJj0/Q5+cT9KnJSTH2T0jQJ4QrTyck6rvPjidcmZGkoawg7qXJq/KGr3sZITwgFvOYpi7olkeOt8/txAHHWJLu4zLiTlApHkTT1HyauMf0ksTxTgNOjhxzH9tJeKVYUiQ7AWPEnaRekTUDbc1fEPeYbiI8LJraUmBl5Nj70Fbi1r+SInsM8SerhVkz0NYsIv5xPTxT7KOED918CriINjcLum0i908RnvYfHWpEJWkrXkLcieumvOFHMZPwVbrTCa/QrZtoF0/8b8fSzU+vxt7a2dfOJKlH3kHcReKcvOEPbRnhc8UPlNelwDGFYhzUT4h7bN+WN3ypLT7codwWRu7vd5H7S2U6cArh6fZ9J/H/3w/4AuFp9a78PY39tbhFkfuTtIWuTCzqj3mR++vKJ0pPAt4ywH/3VuDvI8eSSuxibI/I/UmSCvohcS8TL80b/kCW0UaexxD32P4gb/hSW7wCoNzmRu7v2sj9xTaT8Ot/WP+H+h8MvC5yf3Mi9ydpCxYAym23yP2ti9xfbEcT7ucPaxH1v5d9W+T+HhS5P0lbsABQbttF7i/2ohNbzEv3rRUAsc8VSVuwAFBusS9j114AxNzMJtUX8mKxAJA6xAJAucUuAGq/BRDzrYf5EftKwQJA6pCR0gGoOeOR+6v9HDbf4dSer9RZXgGQJKlBFgCSJDXIAkCSpAZZAEiS1CALAEmSGmQBIElSgywAJElqkAWAJEkNsgCQJKlBFgCSJDXIAkCSpAZZAEiS1CALAEmSGmQBIElSgywAJElqkAWAJEkNsgCQJKlBFgCSJDXIAkCSpAZZAEiS1CALAEmSGmQBIElSgywAJElqkAWAJEkNsgCQJKlBFgCSJDXIAkCSpAZZAEiS1CALAEmSGmQBIKl1M4EXAacDFwPrgPHK27qJWE8Hjp3IQZKqFnsirJ351p3vMmBVgrhzt0uBYyKPjSRF1bUFYljmW2e+04FTEsRbui3HK7uSKtWVBSIW860z3z4u/pvbSRHHSZKi6coCEYv51pfvsgRx1taWRhst9dZI6QDUnNiTeu3nsPkOJ3a+M4ELgf0i91ub1cBiYH3pQFQv7xVJasnR9H/xB1gELCkdhOpmASCpJS1dGrcA0DZZAEhqyeGlA8joiNIBqG4WAJJaMq90ABnNLx2A6mYBIEn9NFY6ANXNAkBSS64uHUBGLeWqAVgASGrJ+aUDyOi80gGobhYAklqyonQAGZ1ROgDVrfZNRdQ/tW8UE5v5Did2vqOEjYD2j9xvbS4DDsCNgLQNXgGQ1JINwAmlg8jgeFz8JVWmC3vFx2S+dea7PEGstbQTI46TJEXTlQUiFvOtM99pwMkJ4i3dTsIru5Iq1ZUFIhbzrTvfpcDKBHHnbitx619NUe0PFKl/Yk/qtZ/D5jucHPmOEgqBJYStghcAszP8ucNYB6whvNa4gvDE/4aiEalzap9M1D9dXCCGYb7DqT1fqbO8VyRJUoMsACRJapAFgCRJDbIAkCSpQRYAkiQ1yAJAkqQGWQBIktQgCwBJkhpkASBJUoMsACRJapAFgCRJDbIAkCSpQRYAkiQ1yAJAkqQGWQBIktQgCwBJkhpkASBJUoMsACRJapAFgCRJDbIAkCSpQRYAkiQ1yAJAkqQGWQBIktQgCwBJkhpkASBJUoMsACRJapAFgCRJDbIAkCSpQRYAkiQ1yAJAkqQGWQBIktQgCwBJkhpkASBJUoMsACRJapAFgCRJDbIAkCSpQRYAkiQ1yAJAkqQGWQBIktSgGaUDkKTCZgJHA0uAw4AFwKyiEeV3O7AG+DmwYqKtLxqRpN4Zj9xqZ75157sMWJUg7q63S4FjhhhXSbqPri0QwzLfOvOdDpySIN6+teV4q1hSJF1ZIGIx3zrzdfGffDtpwDGWpHvoygIRi/nWl++yBHH2vS0daKRVtZHSAag5sSf12s9h8x1O7HxnAhcC+0Xut+9WA4vxwcBe8d6OpJYcjYv/IBYR3pJQj1gASGqJl7IHZwHQMxYAklpyeOkAOuyI0gEoLgsASS2ZVzqADptfOgDFZQEgSZqMsdIBKC4LAEktubp0AB3m2PWMBYCklpxfOoAOO690AIrLAkBSS1aUDqDDzigdgOKqfVMR9U/tG8XEZr7DiZ3vKGEjoP0j99t3lwEH4EZAveIVAEkt2QCcUDqIDjoeF39JQ+rCXvExmW+d+S5PEGtf24kDjrEk3UNXFohYzLfOfKcBJyeIt2/tJLxSLCmSriwQsZhv3fkuBVYmiLvrbSVu/dt7tT9QpP6JPanXfg6b73By5DtKKASWELYKXgDMzvDn1mQdsIbwmuQKwhP/G4pGpORqn0zUP11cIIZhvsOpPV+ps7y3I0lSgywAJElqkAWAJEkNsgCQJKlBFgCSJDXIAkCSpAZZAEiS1CALAEmSGmQBIElSgywAJElqkAWAJEkNsgCQJKlBFgCSJDXIAkCSpAZZAEiS1CALAEmSGmQBIElSgywAJElqkAWAJEkNsgCQJKlBFgCSJDXIAkCSpAZZAEiS1CALAEmSGmQBIElSgywAJElqkAWAJEkNsgCQJKlBFgCSJDXIAkCSpAZZAEiS1CALAEmSGmQBIElSgywAJElqkAWAJEkNsgCQJKlBFgCSJDXIAkCSpAZZAEiS1CALAEmtmwm8CDgduBhYB4xX3tZNxHo6cOxEDpJUtdgTYe3Mt+58lwGrEsSdu10KHBN5bCQpqq4tEMMy3zrznQ6ckiDe0m05XtmVVKmuLBCxmG+d+fZx8d/cToo4TpIUTVcWiFjMt758lyWIs7a2NNpoqbdGSgeg5sSe1Gs/h813OLHznQlcCOwXud/arAYWA+tLB6J6ea9IUkuOpv+LP8AiYEnpIFQ3CwBJLWnp0rgFgLbJAkBSSw4vHUBGR5QOQHWzAJDUknmlA8hofukAVDcLAEnqp7HSAahuFgCSWnJ16QAyailXDcACQFJLzi8dQEbnlQ5AdbMAkNSSFaUDyOiM0gGobrVvKqL+qX2jmNjMdzix8x0lbAS0f+R+a3MZcABuBKRt8AqApJZsAE4oHUQGx+PiL6kyXdgrPibzrTPf5QliraWdGHGcJCmariwQsZhvnflOA05OEG/pdhJe2ZVUqa4sELGYb935LgVWJog7d1uJW/9qimp/oEj9E3tSr/0cNt/h5Mh3lFAILCFsFbwAmJ3hzx3GOmAN4bXGFYQn/jcUjUidU/tkov7p4gIxDPMdTu35Sp3lvSJJkhpkASBJUoMsACRJapAFgCRJDbIAkCSpQRYAkiQ1yAJAkqQGWQBIktQgCwBJkhpkASBJUoMsACRJapAFgCRJDbIAkCSpQRYAkiQ1yAJAkqQGWQBIktQgCwBJkhpkASBJUoMsACRJapAFgCRJDbIAkCSpQRYAkiQ1yAJAkqQGWQBIktQgCwBJkhpkASBJUoMsACRJapAFgCRJDbIAkCSpQRYAkiQ1yAJAkqQGWQBIktQgCwBJkhpkASBJUoMsACRJapAFgCRJDbIAkCSpQRYAkiQ1yAJAkqQGzSgdgCQVNhM4GlgCHAYsAGYVjSi/24E1wM+BFRNtfdGIJPXOeORWO/OtO99lwKoEcXe9XQocM8S4StJ9dG2BGJb51pnvdOCUBPH2rS3HW8WSIunKAhGL+daZr4v/5NtJA46xJN1DVxaIWMy3vnyXJYiz723pQCOtqo2UDkDNiT2p134Om+9wYuc7E7gQ2C9yv323GliMDwb2ivd2JLXkaFz8B7GI8JaEesQCQFJLvJQ9OAuAnrEAkNSSw0sH0GFHlA5AcVkASGrJvNIBdNj80gEoLgsASdJkjJUOQHFZAEhqydWlA+gwx65nLAAkteT80gF02HmlA1BcFgCSWrKidAAddkbpABRX7ZuKqH9q3ygmNvMdTux8RwkbAe0fud++uww4ADcC6hWvAEhqyQbghNJBdNDxuPhLGlIX9oqPyXzrzHd5glj72k4ccIwl6R66skDEYr515jsNODlBvH1rJ+GVYkmRdGWBiMV86853KbAyQdxdbytx69/eq/2BIvVP7Em99nPYfIeTI99RQiGwhLBV8AJgdoY/tybrgDWE1yRXEJ7431A0IiVX+2Si/uniAjEM8x1O7flKneW9HUmSGmQBIElSgywAJElqkAWAJEkNsgCQJKlBFgCSJDXIAkCSpAZZAEiS1CALAEmSGmQBIElSgywAJElqkAWAJEkNsgCQJKlBFgCSJDXIAkCSpAZZAEiS1CALAOX0xtIBqHPeUDoASdLgRoB3A+MJWu3Md/j2QfyxIkmdsz3wGdIsDC0uiLVLdZy/COyYMQ9J0hDmAGeTblFocUGsXcpj/RPgIflSkSQNYm9gJWkXhBYXxNqlPt6XAHtly0aSNCULgVWkXwxuyZXQEForAP5A+uN+ObBfpnwkSZP0MOBK0i8C48CvMuU0jNYKgAvIc+yvAB6aKSepl3yyVjEdCHwPWJDpz7sg05+jyct1TPYinGsHZPrzJEn340DgOvL8+tvcnp0ls+G0dgXgueQ9B67FIkCSillIvsv+m9sqYEaO5IbUWgEwCqwm77lwBeGhU0lSRg8GLiLvhD8GPCNHchG0VgAA/FfCMcp5TqwEds+RnCQJdgbOJ+9EPw78fY7kImmxAAA4mfznxc+AnXIkJ0kt2x74Lvkn+b/LkVxErRYAEI5V7vPjO8B2OZKTpFZ9irwT+13Aq7NkFlfLBQDAy4A7yHuunJYlM0lq0NvJO6GvAR6bJbP4Wi8AAA4jbN6T85x5W47EJKklRwEbyTeRnw3skSWzNCwAggcTLs/nOm82Ac/LkpkkNeAgYC35JvEPE14r6zILgP9vFPgo+c6fWwn7U0iShrAbcCn5Ju935UkrOQuAexoB3kO+8+hSwrkrSRrQF8kzYW8EXpsppxwsALbuFcAG8pxTX8iUkyT1zhvIM1HfTv/u21oA3L8l5HtD4C8z5SRJvXEweSbpO4CnZ8opJwuAbXsGec6vu4BDM+UkSZ03izzb/PZ18QcLgMnIVQRcgjsFStKkfJw8i39X9vUfhAXA5BwJ3En68+0juRKSpK46ivST8d3AM3MlVIgFwOQ9C1hP2nOuSx+SkqTsdgZ+T/qJ+GW5EirIAmBqXkL6LwlejrcCJGmr/om0E/A47WzVagEwde8g/fn3oWzZSFJHPJn0v8D+OVs25VkADOYfSHsObgKelC0bSarcdoQnpVNOvF8GpudKqAIWAIOZDnyFtOfi74CZuRKSpJqlvvR6CbBLtmzqYAEwuJ2AC0l7Tv5VtmwkqVK7Ez6ekmqivY3wMaHWWAAMZzFpP0C1FpiXLRtJqtC/km6SHQOOzZZJXSwAhvdi0p2b48DH8qUiSXV5NOGhqFQT7PvypVIdC4A4Pki683MTcHi+VCSpHj8i3eT6S8LDha2yAIhje+AC0p2nZ+dLRZLq8FzSTap3AYfkS6VKFgDxHETa7YKflS8VSSrvXNJNqMdnzKNWFgBxvY105+t5wEi+VCSpnOeTbjL9LjAtXyrVsgCIaxrwfdKdt8/Ll4oklTEC/Iw0k+hdwMPzpVKVPYEXAqcCvyX+2F4NfA54DbBvppxq81DS3Qo4H68CSOq5Y0j3K+pdGfOowWLg3cDFpBvT+2sXEca7tYLrf5FuTJdmzEOSsvspaSbPlYQntvtuZ+BNwC/Iv+jfX/s5cBxtfOluO8JWvinG8WcZ85CkrJ5AukXo2RnzKGEf4ETgZsov+PfX1hLem98nyQjU45mkG8PHZcxDkrL5d9JMml/MmURmewOnARspv8BPtm0g7PC4V/zhqMYZpBm7z+ZMQpJyWEhYGGJPmBuBAzPmkctswv39Oyi/oA/a7iZcEdg17tBUYTFpzucNhKJPknrjfaRZZD6SM4lMXgrcQPkFPFa7HvjTqCNUh4+RZrxOypmEJKW0I3AL8SfKO4AFGfNIbQ/C7YzSC3aqdhYwP9polbcXaV4LvBnYIWMekpTMS0mzoJycM4nEXkzdD/jFajfRry80LifNOL0kZxKSlMq3iD9B3kk/vqc+g/B0f+mFOXc7FRiNMH6l7U6a5zS+ljMJSUphAWmeYP/HnEkkMhf4NuUX41Lt+4QFtOtOJf7YbKLfb1FIasDfEH9y3AjsnzOJBB4KrKb8Ily6rab7x3Jf0hS5b8+ZhCTFlmKb2s9kzSC+g4CrKL/41tKuBR451IiW93nij8vvsmYgSREdQZoF49E5k4jsvwA3Un7Rra3dTLd3wXscacblUTmTkKRY/o74E+KvsmYQ12GE7XJLL7a1tluBQwce3fJSfJ/h3TkTkKRYfkP8CfH1WTOIZxFwDeUX2drb9YTnI7rojcQfj19mzUCSItif+JPhHXRzW9m5lPlkb1fbpXTz7YBdgduJPx6LciYhpTatdABK7ugEfX4W+EOCflMaBVYADy8dSIfsR3iobkbpQKboD6T5MNWSBH1KUjJnE/+X0FNyJhBJqm8gtNC6uCf+04g/Dt/NmoEkDWEnYD1xJ8Frgek5k4jgecAY5RfSrrYx0lxJSmk6cB1xx+FuYFbOJKSUvAXQb08k/javXyTsjtYVC4HTgJHSgXTYCOGLe13aEW8TcEbkPmcCj4/cp1SMBUC/PTlBn59P0GdKH6KbDyzWZjfgn0sHMUUpztWnJuhTkqI7l7iXQG+gWw+EvYTyl8/71l4wpSNQ1gzCORsz/x9lzUCSBrAzsIG4k98nsmYwnF1wm98U7RrC1YCu+CRx899AeLZG6jxvAfTXnxD/1/q3I/eX0nuAPUsH0UN7ED4s1RWxz9kZwBMi9ylJUb2b+L/+5udMYAh7A3dR/tdyX9uddOeBwPnEz/+dWTOQEvEKQH/F/njJbwmX1Lvgb4HtSgfRY9sDf106iEm6Crgocp9+GEhS1a4k7q+eD+QNf2APJf6zD7b7tvWEnQK74B+Im/vlWaOXEvEKQD89GFgQuc+zI/eXypvp1psKXTUKHFc6iEn6QeT+FgJzIvcpSVEcRfxffHtnzWAwOxE+ZVv613ErbS3hbZPa7UP83J+eMwEpBa8A9NMjI/d3PXBF5D5TeDndWJD6YifgT0sHMQmXE/YDiOnQyP1J2VkA9FPsL979LHJ/qbyudAAN+svSAUzS+ZH7e1jk/qTsLAD6KfbDWedF7i+FQ4BHlA6iQQfTjXGPXcR25QFI6X5ZAPTTvpH7+1Xk/lI4pnQADevC2Mc+h/eP3J+UnQVA/+xA/B3wLoncXwpd+1xtn3Rh7FdG7m8B7jWhjrMA6J99iXtcx4DLIvaXwn6EWwAq41BgUekgHsClhKf3Y5lG/TlL22QB0D+xL/+vIWz9WjNfySrvaaUDeAB3EH8nS58DUKdZAPTPvMj9deHy/+NKB6BOHIPYtwH2iNyflJUFQP/Mjdxf7Zf/oRuLT989vnQAk7Aqcn8PjtyflJUFQP88JHJ/10buL7Y5hP3/VdbDiV98xnZd5P4sANRpFgD9E3tSuj5yf7E9ChgpHYQYof4HMWOfyxYA6jQLgP5prQDwQax61H4sLACkLVgA9E/sy7Cx91CPzVex6lH7sbAAkLZgAdA/syL35xUATVbsV1Bji30ux/67JmVlAdA/20fu7/bI/cW2sHQA+qN9SgfwAO6I3J87AarTLAD6J/akdHfk/mLbpXQA+qPaP8V8V+T+LADUaRYA/dNaAeBl2HrMLh3AA4h9Lse+2iZlZQHQPxYAKqX2Y+EVAGkLFgD9MzNyfxYAmqzWrgBYAKjTLADUdTG/8Kbh1H4sYsfnBlTqNAuA/lkfub/YVxRiW1c6AP3RbaUDeACt3R6TtskCoH9aKwBqX3RaUvuxsACQtmAB0D+xJyULAE1W7cfCAkDaggVA/7T2qlPti05Laj8WsQuA2FfbpKwsAPondgGwW+T+Yqv9c8Utqf1YxD6XY79WKGVlAdA/f4jc35zI/cV2SekA9Ee/Kx3AA4j9oaxbIvcnZWUB0D83Ru4v9qQZW+2LTktqPxaxz+XYf9ekrCwA+if2pFT7FYDaF52W1H4sYp/LFgDqNAuA/rkpcn97RO4vtotLB6A/qv12zO6R+7s5cn9SVhYA/RO7AKj9c7s3A5eXDkJcRv33xBdF7s8rAOo0C4D+if0kduxJM4X/KB2A+E7pACZhn8j9XRe5PykrC4D++X3k/vaJ3F8K3y0dgDpxDPaN3N/qyP1JWVkA9E/sSWkB9e8G2IVfn302Tv0FwPbEf57l8sj9SVlZAPTPFcBYxP6mA4sj9pfCNfgwYEkXUv8mQAcSd77bBFwZsT8pOwuA/rmbsCDGdEjk/lL4fOkAGtaFsY99Dq8BNkTuU8rKAqCfYt8GODhyfymcRv3fo++r00sHMAmPiNyf9//VeRYA/fTbyP114QrASuDc0kE06Bzqf/8f4p/Dsf+OSdlZAPTTBZH7OwwYidxnCp8sHUCDujDmI8CjIvcZ+++YJEXxRMLl8JjtYVkzGMyDgNuJn7tt620d9X8tEuAA4uf+uKwZSAl4BaCffk2YpGJ6QuT+UrgZ+HDpIBryT9S/+x/EP3fH8RaAesACoJ9uJbwOGFMXCgCAk/E77TncBby/dBCTFPvcXQ2sjdynlJ0FQH/9PHJ/fxK5v1SuAT5ROogGfBS4unQQkxT73I39d0uSonoL8e97xt5KNZVFwHrK3yPva7sb2HvSR6OsfYmf/3FZM5AS8QpAf52ToM8jE/SZwmrgA6WD6LFTiH+LKZXnJOgzaJZfAAAACrVJREFUxd8tSYpmlPhPxJ+RNYPh7EjYq730r+W+td8DsyZ/GIo7i7j5rwNmZM1AkgbwfeJOfrcB22XNYDgvoPyC2bf2/CkdgbJ2IH4R7Ien1BveAui3syP3Nxs4KnKfKX0e+HrpIHrkK8CXSwcxBc8iXAmKKfbfKUlKIsWGQJ/OmsHwFgA3UP6Xc9fbdcCeUxz70j5L/HF4bNYMJGlAMwgbtcScANfRrXvAEH4JbqL8ItrVtgl45pRHvawdCedqzHG4ifB5bKkXvAXQbxuBb0Xucxbdug0A8DVgeekgOuy9wDdLBzFFzyV+ofpNQjEkSZ3wSuL/IuzSfeDNZhDu35b+Nd219j26+dT7V4k/Fi/PmoEkDWlPYIy4E+FGwr31rpkDXEj5RbUr7beEDyx1zV6EczTmWGwCds+ZhCTF8EPiLw7vzJpBPAsI77KXXlxrb2uAhQOOcWnvIv54fC9nApIUyxuJPyFeQXcfiDqQ8EBX6UW21vYH4JCBR7esaaTZAOr1GXOQpGj2IP4l0XFgSc4kInsMFgFbazdNjE1XHU38MdmIl/8lddj3iD8x/iBnAgkcSLiSUXrRraVdTXd/+W92DvHHJfabNJKU1etJs2h0+dcihIckf035xbd0u5DufOHv/jyONGPz6pxJSFJsuxJ/X/Rx4HM5k0hkLuFqRulFuFT7Ht182v/evkj8sbmD8HdHkjrtk8SfIDcCB+RMIpEZwLtpa8fAMeCDhC9Hdt1BpDl2H8+ZhCSl8iTSLCSfzZlEYk8DrqH84py63UDYIrkvvkCacXp8ziQkKaXfEn+SHAMOzZlEYvOJ/x35mtqZdO/DPttyMGl+/V8EjGTMQ5KSegtpFpUVOZPI5HnAasov2LHaGvq5ne2XSTNeb8qZhCSltjNwK2kmzCdnzCOXWcCJwN2UX8AHbXcD/5vwhby+eSppxmwtsEvGPCQpi/eTZtL8Bd3dHfCB7E14YO4Oyi/oU1n4TwP2SzAeNZgO/JI0Y+fXIyX10kJgA2kmzr6/M/0QwtsCqa6ixGjrCMXK/DRDUI1Ue1usp/t7IkjS/foMaSbP62jjvendgNeRZue5QdrYRCyvm4it73YDrifNWH4yYx6SlN0RpFuMPpwxjxo8FHgP8BvyL/wXEK5I7J86ycp8jHSFVJ/eaJGkrTqTdJPo0zLmUZOHAC8ETiXNK5dXE3ZffA3hu/ctegrhHEtx7n4hXxpSWb7j2rZHAeeT5jxYCTwSuDNB312yG/BwYDHwsIl/3x2YDexEuF0ye+L/u47wKd7bJv79WuAS4HfAxRP/fkvG2Gu0A+HbDSmueIwBhwG/StC3JFXn86S7PH1KxjzUhveR7nz9t4x5SFJxqfZQH5/ot9VbAYrvGaQ7V/vyTQtJmpLTSPerag0wJ18q6qm5wFWkO08/li8VSarHAsI951STqw9WaRgjhK2mU52fa4F52bKRpMq8k3QT7Djw5nypqGfeRtpz84R8qUhSfXYg7YdvNtDPbwUoraeSbtfKcWAVsH22bCSpUi8i7S+tawm3G6TJmEfY9yDlObk0WzaSVLER4JuknXB/Sj+/Sqe4dgTOJe25eFa2bCSpAxYSNqJJOfGeSX+/GqjhTQO+SNpzcB2wKFdCktQVx5N28h0nbOgibc0HSX/+vTFbNpLUIdMJl+pTT8LH5UpInZGj+Pwx4SqDJGkrDgbuIu1EPAa8MldCqt5fkO4jP5vbnYTdLyVJ25Dj19gm4CW5ElK1lhG24019vnnpX5ImIcdbAePAenwdq2VLCedA6vPsq/gFVEmatN0J7++nnpw3Ai/PlJPq8WLyLP7XA3tkykmSemMJ6e/Nbi4CfCagHa8iz2X/MeA5mXKSpN5ZTvqJevNk7dsB/Xc8eYrKceC9mXKSpF6aDnyDPBP2OOFdcF/V6p/p5HnPf3P7Nm46JUlDm0PaDwbdu30Jtw3uk1mk/azvvdvvgblZMpOkBjyG9PsDbNl+CszPkplSWkD6vf23bHcCR2TJTJIa8iLy3b8dB24AnpYlM6XwJOAa8p0vY8BLs2QmSQ16J/km9HHCN+FPwPe4u+Y15HnNb8v29iyZSVLD/oW8E/s44Stxc3Ikp6HMJe/9/s3tIzmSk6TWjRKess49ya/BWwI1ewZwFfnPi68DMzLkJ0kCdiLPlwPv3TYR9ibYIX2KmqQdCJ95zvl8yOb2I2B2+hQlSVvaBTif/JP+OLAKeHr6FPUAnghcRJlz4FfAg9KnKEnamodQbgEYI9z73TV5lrq33YCPUeZX/zhwIfDg5FlKkrZpAeEXeYmFYBy4jvDUuTu/pTcdeC3hIzuljveluEeEJFVjD+ACyi0Km38VHpk60YY9BfglZY/xRYSCU5JUkYdQfoEYB84ADk2ca0seBXyZ8sf1F3jZX5KqtSvhyezSi8UYcCYWAsM4EDiN8OZF6eN5Lu4DIUnV2wn4FuUXjXHC4vXvwGOTZtwvjwO+QB0L/zjha5S+6idJHTFKmR0Dt9XOBpbi54a3ZhphbH5I+eO0ZfsIbvIjSZ10HPX8ktzc1gAnAvukS7sz9iR8a+Eyyh+XLdsY8O50aUuScvhv5P2U8GTbRuArwLHAjsmyr8+OhC87nkUYg9LH4d7tTuDFybKXJGX1aOAKyi8u99fWAf8GHE0/txnegZDbZwi5lh7v+2uXA4enGQJJUilzgW9SfpF5oHYH4SHGEwhPwnfVvoQNkj4HrKX8uD5Q+y6we5KRkCQVNwM4mXJbyA7SVhIeaHwlsBgYiT4qwxshxPYq4OOEmEuP22TbGPBe3MlRyqLGCUxteT7wUbq5scuNhE1pfkXY/fACwi6Ed2f687cnXJk4GHgE8EjCZj1zM/35MV1PKKzOKh2I1AoLANVgHvCvwDMLxxHDOHA1sHqLdj1wE3ADoWi4jXApfhOwgXAvHsI77qOEX8A7E/ZRmEsojuYQLovvAywiXNafRz/+Dn8NeAXhWw6SpMaMEO5T3075S9G2PO1OwvMV7scgSeJg4KeUX5xsaduPgIOQJGkL0whXA7rwxLptau12wq9+H/STJN2vfYCvU37RssVpXwUWIknSJL2A8DBd6QXMNlhbRdh8SJKkKZtJ+J7ArZRf0GyTa+sI+/hvf9/DKUnS1OxJ2OCmxr3rbaFtBD5GeE1RkqSoFgOnYSFQUxsjbDf88G0cN0mSojiIsOh0aUvhPrZvEXYhlCQpq0cBnybsrFd6MWylrQc+BRw6ieMjSVJS8wgPnt1C+QWyr20t8EFg78kdEkmS8tkFeDPh4zylF8y+tN8Cb5oYW0mSqnc4cCrhtbTSi2jX2p2EZyyeTj8+PCRJatCuhC2Gv4NvD2yrbQS+Dbwaf+1LknpmDvBy4EwsBsYJnyb+IWGzJd/flxrgJT0J9gCOmmjPAB5UNpxsbiK8vvc14BvAdWXDkZSTBYB0T9OBxwBHAk8CHg3sWDSieG4HzgV+QFjwzyX88pfUIAsAadtGCXsMPGGiHQYsKhrR5IwDlwM/J1zaPwf4BeF2hyRZAEgD2Bl4BHAw8EjgAGBfYD75v3O/CVhD+FrihcCvgQuA3xDe15ekrbIAkOIZJWyOs89E2wOYS3jgcMs2jVBETJ/4b2ZP/PfrCDsZbiIs3mOE+/Sb240T/7yW8Ot+NXDlxH8jSVPyn2wDm0EfQ1IWAAAAAElFTkSuQmCC;" parent="1" vertex="1">
          <mxGeometry x="930" y="157.5" width="35" height="35" as="geometry" />
        </mxCell>
        <mxCell id="IZlDyetnFrTAtIApsN1v-27" value="" style="shape=image;verticalLabelPosition=bottom;labelBackgroundColor=default;verticalAlign=top;aspect=fixed;imageAspect=0;image=data:image/png,iVBORw0KGgoAAAANSUhEUgAAAgAAAAIACAMAAADDpiTIAAAAA3NCSVQICAjb4U/gAAAACXBIWXMAABLgAAAS4AFNvAQzAAAAGXRFWHRTb2Z0d2FyZQB3d3cuaW5rc2NhcGUub3Jnm+48GgAAAwBQTFRF////AAAAAAAAAAAAAAAAAAAAAAAAAAAAAAAAAAAAAAAAAAAAAAAAAAAAAAAAAAAAAAAAAAAAAAAAAAAAAAAAAAAAAAAAAAAAAAAAAAAAAAAAAAAAAAAAAAAAAAAAAAAAAAAAAAAAAAAAAAAAAAAAAAAAAAAAAAAAAAAAAAAAAAAAAAAAAAAAAAAAAAAAAAAAAAAAAAAAAAAAAAAAAAAAAAAAAAAAAAAAAAAAAAAAAAAAAAAAAAAAAAAAAAAAAAAAAAAAAAAAAAAAAAAAAAAAAAAAAAAAAAAAAAAAAAAAAAAAAAAAAAAAAAAAAAAAAAAAAAAAAAAAAAAAAAAAAAAAAAAAAAAAAAAAAAAAAAAAAAAAAAAAAAAAAAAAAAAAAAAAAAAAAAAAAAAAAAAAAAAAAAAAAAAAAAAAAAAAAAAAAAAAAAAAAAAAAAAAAAAAAAAAAAAAAAAAAAAAAAAAAAAAAAAAAAAAAAAAAAAAAAAAAAAAAAAAAAAAAAAAAAAAAAAAAAAAAAAAAAAAAAAAAAAAAAAAAAAAAAAAAAAAAAAAAAAAAAAAAAAAAAAAAAAAAAAAAAAAAAAAAAAAAAAAAAAAAAAAAAAAAAAAAAAAAAAAAAAAAAAAAAAAAAAAAAAAAAAAAAAAAAAAAAAAAAAAAAAAAAAAAAAAAAAAAAAAAAAAAAAAAAAAAAAAAAAAAAAAAAAAAAAAAAAAAAAAAAAAAAAAAAAAAAAAAAAAAAAAAAAAAAAAAAAAAAAAAAAAAAAAAAAAAAAAAAAAAAAAAAAAAAAAAAAAAAAAAAAAAAAAAAAAAAAAAAAAAAAAAAAAAAAAAAAAAAAAAAAAAAAAAAAAAAAAAAAAAAAAAAAAAAAAAAAAAAAAAAAAAAAAAAAAAAAAAAAAAAAAAAAAAAAAAAAAAAAAAAAAAAAAAAAAAAAAAAAAAAAAAAAAAAAAAAAAAAAAAAAAAAAAAAAAAAAAAAAAAAAAAAAAAAAAAAAAAAAAAAAAAAAAAAAAAAAAAAAAAAAAAAAACyO34QAAAP90Uk5TAAECAwQFBgcICQoLDA0ODxAREhMUFRYXGBkaGxwdHh8gISIjJCUmJygpKissLS4vMDEyMzQ1Njc4OTo7PD0+P0BBQkNERUZHSElKS0xNTk9QUVJTVFVWV1hZWltcXV5fYGFiY2RlZmdoaWprbG1ub3BxcnN0dXZ3eHl6e3x9fn+AgYKDhIWGh4iJiouMjY6PkJGSk5SVlpeYmZqbnJ2en6ChoqOkpaanqKmqq6ytrq+wsbKztLW2t7i5uru8vb6/wMHCw8TFxsfIycrLzM3Oz9DR0tPU1dbX2Nna29zd3t/g4eLj5OXm5+jp6uvs7e7v8PHy8/T19vf4+fr7/P3+6wjZNQAAKHhJREFUGBntwQmATYX+B/DvvbMyMxjGvqVQSJs16SXtu6JV9No3oRQqpVVFJL02RZtSqadSFClZUkpISRHZ98HMmP3e7/9t/ZsZ59y5v985995z7pzPBx6Px+PxeDwej8fjiYq0M5/89Ns1u4s3zHvlvrOT4alSat71VRHL2D+lVzV4qoraD+7lQbIHJ8FTFSQ/kkNDv10AT/xr8R1NfVYHnjh3wV6G8FtLeOLaowxtVzd44tgjrEzB+fDErWtYuYJu8MSpk4sZht2t4IlLrbMZlrV14YlDtdcwTN9WhyfuJM9j2D70wxNvXqHAP+CJM3dT5C544kqfIEWCl8ITRzrlU6jwRHjiRtNtFMs+Ap44kb6CCusbwBMX/B9T5dtUeOLBeCpNhScO3Ey1++FxvdNLqBa8GB6Xa7ufFuR3gMfV6q6nJVsaweNiKV/Tou+qweNeb9Gyd33wuNUDtMGD8LjUFbTFpfC4UrdC2iK/Ezwu1GInbbK1MTyuU/Nn2mZpdXhcJnE2bfSeDx53eZ62ehgeVxlMm10Bj4ucGaDNCrrA4xrNdtN225rC4xLJSxgB36fC4w7PMiImweMKVzBCrofHBdrlMUIKO8HjeOm/MGI2ZsHjdO8wgj5PgMfZBjKiHofH0Y4vZmRdBI+D1d3ECMs5HB7H8s9hxK1Kh8epHmIUvAuPQ50VZDQMgceRmu9hVJT2gMeBkpcwSnY0hsd5nmPULE6Gx2n6Moqeg8dh2uUxmq6Cx1EyVjOq8o+Fx0neZZStqw2Pcwxi1M3yw+MUxxcz+h6CxyHqbmYMBM+FxxH8c6g24Rmq7T0MHid4mGpfJibNp9rSZHhi7+wgtTbUBeptotpYeGKu+R5q5R+Lf+lUSK3gGfDEWMp3VLsC/3EN1bbXgye2nqbak/ifZ6k20wdPLJ0epNbsBPxP0gKqDYYnhmpvodbvtfH/GmymVuEx8MTOu9TKa48yuhRS65fq8MTKlVTrg3Kuo9pEeGKk2T5qPYoKnqdab3hiwv8ltT7xo4LkRdTKbgpPLNxJrV9r4iANt1LrKz880XdUIZVy2sDA8UXUug+eqEv5kUrBC2DoBmqVdoMn2p6k1kiYmEit9TXhia4eQSp94IOJ5MXUmgpPVNXcQKVVGTDVaBu1/g5PNE2h0t5WCOHEUirltoInei6hUuAshDScWt8nwRMtjbOpdDdC882k1mh4osQ3m0rvojJZm6gUPA0eQ9VOvPDvgx8YftnxDX2wxUAqrUhDpU4oodLWuvBU5O9675eF/FPu1AtTYVnbAursaYEwDKXWx/CUl3jVb6wg581jYU3SD9QJnoVw+D6m1m3wlJF8/ToaCLzSCFaMotJ4hKf2BioVHgXP/2u5giYOPJAKtRMC1FmegjB1LabSz9Xg+Z9e+2huURaUMtZRJ78NwjaEWs/B8x8JTzCkNS2hM5lKN0LgQyoFT4HnXxKnsRK7jofGhVSaDonMP6i0Ph0eYBIrldcBcg12UWdzbYh0LqbSc/BgOMOwrTnEPqFO4GQIDaZSsCeqvD5BhmNVJoRuotIoiP2TSuvTUcV1yWd45iVDpPUB6nybCBMNu55y/uXdfThYrXVUehZVW/PtDNebPggkfkudnMNgrP0bJfy39Q+3xkE6FlEneDKqspo/MXyjIHA3lfrDUOeZ/Mu0VFR0G5XWpaHqSpxNiRsQtpYF1HkLhrodYFnza6Gi96j0D1RdL1Kk9GyE63PqrKsBI0dms7wfG6GCmn9QJ9gDVdWdFMo9DuHpT52S42HkkC2s6PfaqOBvAer8noaq6cIApbY2QziydlHnPhiay4N96kcFj1HpGVRJHQ9Q7udaCMNr1JmfACNNAjTwCCpIWkqd4EmogppupcYXyajUKdTJbgpDd9FI8HxU0CafOr9XQ5WT8SN13kBlUtdQpw+MLaehfa1Qwa1UegxVTcJMat2HSoyizsswVp8mVqahgpnUKW6LKuZZqgUvRkjti6nyaxqM1aWZt1FBg13U+cqHKmUwLcjviBD8i6lSdBxMpNPU7aigF5X+jqrkvACt2NIY5m6lzhCYSaCpkr+hgpeos6sOqo5j82jN0uow03g/VWb7YKqQprY3Qnnpa6jzMqqMxptp1fs+mPgnVXY2gLmpNPd1EsrrUkKV4AmoItKX0bpHYewC6lyAEI5lCM+igpHUWZmIKsE/g3boByMZm6jyDkL6nCH0R3mJi6kzFFXC07RFYTcYeIYqe+ohpNMZQv4xKK9lLlUONEcVcCttsuMQHKRLgCr9UYlXGcK62ijvOup8hPh3dintsjIDFSSuoMpnqEzKtwxhlh/lTadOL8S7o3Jon4/9KG8YVfIOQaWa7mQI96C8rG1U2ZiG+NZwI+00DuUcmk+VQQhDz1KaK+mC8s6kzpOIa9W/p72uR1mzqbLYj3AMZQi/10B5/6BKyRGIY75/0mbFJ+MvV1KlqB3C8x5DmILy0tZTZQbi2H203Z5W+FOdnVQZiTBl/MIQ+qG806hzKuLWuUHab3Ut/M8rVPkpGeFqk0tzOYehvMlUWeFHnGq9j5EwJxH/0ZMqga4IXx+G8G0SysncSpXrEJ8yfmFkPId/S/2NKuMhMZohPIbyLqTKtnTEI98HjJTb8C+PUGV9GiQSvqC5QE+U9y5VHkU8GsmIKT0TaFdMldMhU3cTzW2pg3Lq76FGQTPEn/ODjJz9bX2LqPIapLoU0dyHKK8fVd5E3DliPyPp9xFU2VEbYjcyhFtQ3ixqBDsjztRYTUe6BAqTaa7gSJTTLIcaixBffB/RkT6ERupSmluZinJuocoliCsP0pH2N4bKYTk09yzK8c2nxroUxJFeQTrSjVDqzxDORzmtC6gxFPGjTQ4daZ4PWm/R3O5GKGcoNfZnIV7U/JWOVNAKajXX09xcP8pK+J4ajyNO+D+mMw2DBSeU0txwlHN0MRVysxAfHqEz/ZAIK0bSXHFnlPMwNR5HXLgoSEcqORaWJCykuS9RTvLPVMjNQhxol0tnGgOLmu+juSNQTtcAFR6H+9VaQ2faUQNWXUZz41HeRCrkZsHt/DPpUNfDutdoam91lFN3HxUeh9uNokMt98O6jLU0dSrKG0yF3Cy4Wx861cmwQ+cSmjkT5SWuosLjcLUj8+hQ02GPe2jmTFRwOhVys+BimWup9+R2Rk7RYbCH/0uaOBMVfUiFx+Fe/k+pNwUnFDFiRsMuTbJp7BRUdFgh5XKz4FqPU++7VOAaRsqOGrBNbxrKroaDPEaFx+FWl1BvW2P8y3hGyA2w0Us0Mh4HS99CudwsuNOReVQr7Ip/S5jNiFjuh42qr6aBtjDQjwoj4Uppq6j3d/xX5hpGwsmw1XFFPMhXMOL7mnJbk+BGb1BvHP7UZj/tNx02u6iYFaxrCkMdg5S7HC50LfVmJ+D/nROg3YoOg90uKGI5fzSHiUmU+xru0z6far9looyhtNto2O+cQpaxsQXM1N9PuQ5wm/TVVNvfBuVMob121EAEdHq7mP+z49GGMDeEcq/Cbd6kWuAclJe6hLa6AZFR/541+/5l4RXJCCVpNcUKsxAR/hPufPr9JRtWzn17wrWNYaPrqTccFTXaShut8CNKkqv5YeAsyt0D+6WeN2kHy1jx+HGwydEFVHsLB+tSSPv0RHR0n5xHluQtuiQRFXxMsY0JsFnCdVt5kI+Ogx0yfqXa99VgoB9tMx3R4Bv0K/+0aXgNlHNEgGK9Ya9zfqKhD9rAuqlU29YEhsbQJkWHIQoSJrOsJRko5y2KzYOdasygmbxLYdVNVCs6Hsb8M2mPMYiClPdZ3vzqKKtdkGJHwT6HrmIITybAkmMKqHY1zNT8hXbYWQNRMIMVfZaMsqZRbCJs87fdDOmLNFhQYw3VxsNc6720wQ2IglN5sLEo6+ggpQ5kwibH5LESMxKg9w7V5iQghNNLadkKP6JgAQ+W3wBlfUCxgbBHvQ2s1ASo3UK1NZkI6XZa1hNRcCqNjENZHSi2CLZIXsQwDITScYXUymmLSrxCi6YjGl6lkfz6KOtjSgWbwA5jGY5AN6jUWEutwHmoTMrXtCTQGtHwOQ2NRVldKHY7bNA5wLD8Vg0a06h2NyrXYBOtmIaoWE1DB+qhrM8o9TWsS/qRYXoKCgOoNhXh6JBPCzohKnJpbAzK6k6pYFNYdh/DFTgRYh2KqLWyOsJyJfW+QFT4cmjsQD2U9QWl7oBVbYoYtrXVIVTzd2rltEaYnqfacETHxzQxGmX1oNQ3sMi/iAITIPQ+1fogXCnfUSvnMETFHTSRVxdlLaBUM1hzGyWCJ0FkINXGIXzN91BrSRKi4RiaeQJlnUapIbCkeS5Ffk+DQKciai1MhMDZQWo9gWjwraOJvCyUtZhC38KSWRR6FuGrtZ5aOxpD5GFqBU9DNFxPM6NQ1tmUag4L+lEq2BNhm06t0lMg459DrW31EAVJf9DEnmooawWF7oRe3d0UW5+OMN1OtXshVXcTtWb6EAU30sxJKOsWCi2B3lQqvIDwdCmm1sc+iB1fTK3bEQXJG2niZpRV4wCF6kHrXKqcinDUWE+t9ZlQGEStouMQBTfTxDMoZxKFLoBSjU1U2ZCBMLxOrcIOUHmHWr+mIfJSNtHYXJTTmUKPQ+l5Kk1E5S6h2o3QyVhNrVcQBbfS2BqUt4wy86FzYpBaZ6AyTbKp9Tq02uVR63JEXsoWGpqG8m6iTH4SNFJ/pdqmmgjNN5daK6tDrS+19h+KyBtIQwNRXkYeZTpBYxQteAGhDaFWTmtY8By1vklExKVupZFjUcEUygyCwjEltCDYDaEcXUStPrAieQm1HkPkXU8D+xJQwUWUeQdyCUtpyY+JMJf6E7XGwZrme6gUOAUR51vIg92MiqofoMhGyA2lRcNgbjy1FibCorOCVNpaFxHXrpgVzcDB/kmZJpBqmU+LDrSAmdODVNrRGJY9RK2PEXmjWMGOejjYlZS5GEK+L2nZTJios5VKpafAOv9sag1CxCWPDbKsHSfDQM1iijwFoRtog0tg7H1q3Qs7ZG2iUuExiLyem/iXSbVh6FOKfAuZBvtog601YeQaan3sgy2OL6bS6jREXuaLm/lfq3rAxACKFPkgMoW2eBYGDsul0vpM2GQgtSYhKlr0f/Eft/SoB1MdKJMJiZNpj0AXHCRhMZUKO8A271DrUjhCYj5FWkMgaRVtsjwRFY2k1s2wT/ovVNp3CBxhAUW6Q2A4bTMEFXQpodJ02KltHpUWJ8IJxlDkQoSv2QHaJq8ZyklfS6VNtWGr/tR6FE7QmyI3IHwf0EYfoZyXqRToAZu9RaXAyXCAxhQZgbCdS1tdhDIupNYjsFvN9VTaUgsOUESJpxGuautoq80Z+H8Nd1NpcSJs162USi/DATZR4i2E62Ha7Gn8yfcplfa3QATcT62eiL2llPgcYWpdRJsFOuJ/BlLrckRCwgIqra2GmJtFiRUI0xzabmkC/qNdAZVeRWQ030ulMYi51ymxFeG5lBEwGP+WvJxKv6UjQi6lUmlHxNpYShQjLBlbGAG5TfAvY6hU3AER8wqVlicixiZQIh9heYoRMR3AyUEq3YnISV9DpXsQY69SYifCcXQpI+N81NpEpdk+RFDHYuoUHo7Yep8S6xEG3yJGyMb0t6m0swEiahiVFvgQU3MosRJh6MuIWUKtsxFZ/rlUuhkx9Q0lFqNy1TfRecYj0hrvpk5OE8TSKkp8jsrdT+dZloKI60WlGYilTZT4AJVqfICOc+AIRMHzVLocMbSfElNQqdfoPNcjGqqtos7OOoiZdIq8iMp0DNJxpiE6ji6kzhuImWMpMhaVWUDH2ZCJKBlMpTMRK5dR5EFU4mI6Tml3RItvFnX+SEeM3E+RoQgtZT0d5wFET/0d1JmAGHmTIlchtOF0nAUJiKKzglQJHI/Y+J4iJyCk+jl0mr3NEFXjqfNzMmIihyL1EdJLdJxLEV0pK6jzIGKhIUVyEdLRATrNO4i2tvlUKT4SMXAORZYhpC/oNNvqIOpuos43fkTfWIq8h1AuoOOchxj4gDqDEX3LKfI4QkheQ41HGTmvIBbqbKdK3iGItqwgRa5DCHdQYwo+YaRsrImYuJA6sxFtF1OmB8xl7aVCbiO0KmJkBE9FjLxNnasQZc9TpgnMjafGMABPMDKeRaxk7aTKnjqIrt8oUuCDqcYFVPgtGUD6VkbC2jTEzMXUeQZR1ZQyP8Pcc9Q4B//WjxEQ6I4YmkaVkjaIpkGUmQpTzYuo8An+w/c17fckYqnebqrMRDR9T5lbYOolKhS1wn91CNBuq1IRU5dT5wxETxsKtYeZw0qo8Dj+9BJtVtIRMTadKj8nIGpGUSbbBzOvUWFLOv5Udy/t9RBircEeqtyCaPFtpMwMmDm8lAp98ZdBtNWyJMTclVTZVQtRcjKFhsLMW1RYiDISf6KNitrDAWZQZSyiZDKFjoeJdgHKBY5FWafQRsPhBI32UqOoJaKiZg5l8pNh4j0qvIDy3qdtFifAEf5OlQ8QFfdQ6EuYOCZIuewslHdIAW2S3xoOMZMqJyMK0nZR6CGY+JAKA1DRg7TJQDhFk/3UWO5H5N1OqdNhrCMVfkxARdU20BZf+uAY11HlOkRcyhYKlaTD2EwqnISDXUw75BwCB5lNje0ZiLSbKPUZjB1PhXdg5Eva4Ho4SbMcajyGCEtcT6mrYexzyh1oCiPtS2nZTDjLTdQoPASRdR2limrB0ElUGAFjz9Cq7EZwFt9caryLiMrcSamPYOwryq1LhbHM3bToSjhNizxqdEckPU+xvjB0EhUugJkbac0COM8AanznQ+R0DlAqPx2GplNuHkz5f6YVwY5wHt9X1OiPiPEvpdh7MNQiQLluMHcRrXgdTnTYASpsTkOk3Eq5PjA0lnIzEMoS6h1oAkcaRI0HESH191EstxqMpO+jWPAohHIa9R6EM/kXUuFAE0TGPyn3JgwNoNxbCO0Lam1Jg0O1LqDCFETEACqcDyO+XylW0hKhdaXWTXCsh6gQ7IwIOK6IcpuTYORsyr2IynxInUBdOFa1DVT4GvarsZYKw2DoM4oVNEZljgxQZREcrA81LoPt3qFCbi0YaUO5MajcG1QZBiebS4UNqbDZTdR4GoZeoNj+OqjcocXUaAsna1dChWGwV6cCKpS2gJHMAxS7H+F4jgpr4WxPUWFXGuzUaic1psHQUIrtzEA4GuZT7ik4W80dVBgKGzVcT5WuMJKwgWK3IzxPUK4nHO4aKuxMg21qrqDKQhjqQ7GNKQhP7X0U6wuH831Lhbtgl9SvqHMhDC2g2HUI1wiKLYTTdQ5Sbmd12CNhOnXW+mGkA8V+TUS40ndQ7Cg43SQq3AlbJL5BpVth6HWKXYrwDaLYC3C6evsot6M6bFD9Eyr9ngIjDYoo9YMP4UvZQKncGnC6wVQYAutqf02tPjA0jGJnQeJqit0Kp0v8iXLbq8OqpquotRDGfqTUAogk/EKpn+B4PalwByxqu4lawc4w1J5i3SHTh2J/g+NNo9z2arCkxx6qTYGxxyg1B0K+Hyk1FY7XLJ9yt8MC/32lVMtvCkO+Pyh1GqT6UaowHY53H+W2VYNa/Tm04BEYO5FSyyCWtJFSveF4qesoNxhaPbfRgm3pMPY8pa6A3B2Ueg3O14tyW1Oh4n8wQCuug7Gk3RT6IxFy6XsptDsBzvcZ5QZBo91CWrLCD2PnUWogNEZR6m9wviOKKbY1FWJpY0poSWlXmHiVQnvSoNGgkEJj4QJjKDcQUr030aKHYcK3nUIPQ+clCq2BC2Rso9iWVIgcNotWLU2CieMoVFAPOocHKdQWLtCfcrdBoP7oAlpV0BZmRlBoIrQ+otBwuIDva4ptTkG4mj1TQOsGw9QiCh0HrbMptABu0IlyAxCeVpOKaYMvfDBTu5Qy30PNv5Ey+Ylwg/cptjkFYej4doB22NcMpi6j0I3QG0mhY+EGbQMUuxWVaTLsZ9qkH8y9Rpm8DOg1KaXMjXCF1ym2KRmhpPWfE6Bd3kMI2ynzEqyYQZlJcIVDiyl2M0w1uOyNPNpnSxbMNaNQZ1hxPmV+gjs8R7GNyTBS56J//Exb5XdECBdQZjksSdhMkUA6XKFRPsVuQgV1u183flmQNgtejFAeoMwAWPMIZXrAHcZQbGMy/sWX1qDlsSf2Gjr56z2MiPsQ0ocUCTaCNcdQZijcoU4Oxbb+8cfWnCAj602EtpEi38OqDRR5Dy7xAB1pcSpCyqLMSFj1DEVWwSVq7KYDbaiP0E6jzLGw6jSK5MEt7qTz5B6FSgyhyCZYlrSfIplwiWpb6DSB81CZ0RR5Hta9TZGj4RaD6DSDUalJFDkf1l1FkXPhFmm76SzDULnpFGkJ6zpT5Ga4xgN0lKEIw3xKlCTCutoUeQyuUecAHeQuhONnSqyBHfZSYgrc42k6x50Iy3ZKzIQdvqfEfLhHsxI6xRCEp5gSz8AO0yixDi7yOh3iDoSpgBITYYePKLEGLnJkkI5wO8K1mxIfww7fU+JbuMkMOsFghG0DJZbBDtsoMQtu0p2xl38pwvczJXbABgkBSrwJV1nIWNvcEQJLKBFMgnWNKfIMXOU8xtiSRpD4kiJNYV0nijwIV/GtZkxNTYXIDIp0hXW9KDII7nIHYyg4AkJvUWQorBtHkf5wl9oFjJm8iyD1GEW+hnXrKHIuXOYNxsrGYyB2HUWC9WFVe8p0g8ucwBiZVR9yPSlzPay6jzJHwG1+Yizk3giN5pT5BFYtpUhxKhzG16TTeTfc2RGmbmMMzD8UKv5iihSmw5qmlFkKhzlrGf9j44STYKzmAUZb4Z1+KP1Gmathzd2UeR6O0n0+//J8EgxNZpQtbQe1WZT5IwVWZGZT5mo4yV0sZ14WjHRhVJU8mAS9Jyk0BFaMoVA7OMi5AZa3vhWMLGMUreoIK3pRaE8t6DUroEyuH87RLocVfQIjNzFqsm9PhiVZlHoceq9SaB6cI+l3Hqw7DNQpYXQUj68Nq1ZRqKAJtNoHKDQaznEaDSyAkbmMin+2hHUTKTXdB52kBZTqA+d4jkbOhIFbGAXfnQg79KPYw9CZSLFmcAzfFhp5AQYaBRlpG/v6YItDKHcZNAZRbDucoxMNrYCRRYys3fekwi4bKJbfCXJnlFLsRThHDxoKZMDAEEbSLzdVg33GUW5LI0gdsY9yJ8I52tBYTxhowciZc7YPdupKhR/qQeaQNZTb4INz1KGxe2HkB0ZG4eT2sJlvAxX+OAoS3XdS4TE4iK+Ehj6GkRGMhJ0P1of9xlAj9wKE75oiahwJJ1lPQ7thpC1tF5h3TSoioRNVgncjTP6xVFkOR3mbxlrByK+0VWDerQ0QKeuoM6UGwlF3JnXugqPcRmP9YWQS7RP4akADRNAoKu0alIzKVB+xnzqBJnCUDjT2HIxcT5sE5g9oiMhqXkqtdZf7EErCDVup9SWcJTGPhpbBSHva4bdXrmuIyHuHektPhSnfhb9Q71o4zBc0VJoGA/4cWlP8zZMX1kN0dKEV68adlICDJZ3+3GZasDsDDvMIjR0LI3Opl/3J3X+rhihaRGt2v9IrDWXVvHTqPlpzF5zmbBo7HUYepcKub6c+eu3JzX2Ist60LLhrxaxJD998yS2PvvLZyj20bGs1OE1mkIauhJHzKLLj2SEXHp2BGElYR6e5Fc6zmoZuh5F6FPkGMTWADvNHMpxnDg2NgqF1lFiLmEpaQ2e5Gg70Jg29DEPTKLEPsdWbjrI6AQ40joY+hKGnKZKI2FpIJ7kUTjSchr6GoXsp0gCx1ZUOstwHJ7qGhtbC0A0UORIx9jad4zw40jk0tB+GelHkJMRYiyI6xbtwpk40lgIj3SjSG7F2Lx1ic204UzMaawIjrShyI2It4Rs6QvA0OFQqjbWDkZoUuRcx1zqfTjAeTpVCY4fCUBElnkLs3UYH+CkVTlWbxurC0G5KvIzY881lzBUdA8dqSmOpMFRAiQlwgGb7GWtD4VxtaKgEhhIp8hicoHeQsTXPD+fqSEPZMFSLIiPgCCMZU3ubw8FOoqENMNSUIoPhCL5pjKH8v8HJzqahn2CoLUWuhzNU/4ExU3IuHO0SGloMQ50pcgUcoul2xkjwSjjb1TQ0G4ZOocj5cIpuhYyN2+BwI2jofRjqRZFT4BhnFjIWHoDTvUNDr8JQP4p0hXOcVcjoewaO9wsNTYChWyjSHg5yThGjbYoPTpdaSkMDYGgoRVrASc4tYnTNSITjdaCx7jA0hiL14CjnFTGaXkiC811NQ8EMGPqIImlwlp7ZjJqSW+EGT9HQWhj7jRIlPjhM6zWMkj094Qpzaeh9GEoqocTvcJza8xgVqw6DO+yioftgqA1F5sB5kiYzCj6uAXdoTWPnwVAvirwIJxpaykgb7YdLDKOxpjA0nCLD4EjdfmdEFfSDa3xLQ3tg7BWKXAxnSn+ZETSnFVyjcZCGvoCxxRTpAKe6YCcjZOtlcJEBNDYOxrIpkgnHqj+DkRB4pgbcZC6N9YehehTZCye7eD1t910HuErtEhoKNIChv1FkKRwt9e4c2mrfrX64y99pbAGM3U2RaXC4BpMCtM8HDeA2H9LYYBibQ5En4HjHfk7b3AO3aV5CY81gKCWfIjfCBTq8VUJ7fAm3mUBjS2DsJMqcBldoNi6HdihKg7tkHaCxYTD2IGWawyVq3vUHbXAO3OUhmmgJYwsosh3u4Tvhme206mm4Sno2ja2AsbRiinwAV0k49eVsWrIKrnIHTdwPY2dQZjjcJvms0d+UUK8JXCR5M020g7EnKNMDbpR26kPzCqhzDVzkappYDRPfUaQ0DW6VclTv4ZPmb6PU23CP6r/TxEgYqxWgyDK4XcZVlNmdCNd4kiYOZMHYVZR5Hq6Xkk+Zc+EWnUppYhxMzKXMVXC/TykzDS6R9CNNFDWGsSYByhwO97uDMoWZcIf7aeZFmBhOmWwf3K8dhW6GK7QtoonSQ2HiZ8rMQjzYQplv4Ab+xTQzBSY6UOh+xINXKHQ4XGAQzQTbwcR4Cp2OeHA5hUbB+brk08x0mEjcQZn86ogHdYOU2eSH0zXfTlOdYOJcCn2A+LCUQqfC4WqspKnZMPMOhf6O+PAYhT6CsyV8SnPdYaJ2AWVK6yA+nEyh4JFwtOdobiLMjKTQPMSJ5DwKvQ4nG0xzm2vCRMYeCg1GvPiEQiXN4VznBmjuHJgZSqlDEC8GUWoCHOuQXJqbAjPVtlNoOeLGEZQ6kAWnmk1zO+rAzABKPYD4sYZSD8GhrmEIfWAmaSOljkH8uIdS2elwpEZ7ae59mLqWUusRRxqVUmoIHGkEze2pDzMJayg1HvFkBqV2Z8KJ3qO5/jB1BcV6IJ70otgEONEampoJU/6VlNrgRzxJ3E6pkrZwnowgzaytC1M3UmwE4stois2G87SjmT2tYSprD6VKGiK+HE65C+A4KcU0Vtgd5iZR7H3Em4UUW5sCx/mBhoKXwVy3IMVOQ7y5mnLD4Dgv0dBwmEtYTrG1PsSbtByK5TaE01xPIxMRwkDKDUX8mUi5qXCa1NU82KxEmGuwn2JFdRF/ulDhUjhNl1JWtDwDIbxJubcQj36iXHYjOM1jrGBTY4TQgwonIR7dToVP4TQpi1nOuvYIofovlFuFuJSVT4VbEAvJTZrCTOKIIv5lYjpCmUyFQYhP46hwoDWiKvPMBz9dvZfkyoeOg4kjv+f/bD0bIfWjwoFMxKf6B6jwTQKixH/UDa/8EuRfVh8JY752N76x/tc3bz+xOkI6Io8KoxGvxlDjPkSUv3bLzmf1vW3khLk5rCjnPFhR7Ucq5GYhXtXNo0JJd0RG2gkDX1uZHWAIgWGwYCI1HkX8eowaO5sjApIeKGYYekPtcmrsz0T8qpNDjeVpsN2RPzAsqxOg1CqHGg8gnj1Clfd9sNl1RQzTtdBJWUaN7JqIZ5n7qfIQ7NW+iOHalAqVyVQZgfj2IHUugZ0SlzJ8PaExiiq7MxDfau6lyoHjYKP7KXAFFAZRZxji3X3U2dQQtqlRTIEhkOsbpMqONMS7Gnuo83Nd2KUHJcZA7Mxi6tyB+HcPlVbUhk2GUGIypLrmUWdrNcS/9F1U+r4W7DGVEjdAqM0eKl2OquBaan2TAVv8QoFAfcg03Uil2agavqTWgjTY4SsKLIRM/VVUKmyJqqFVAbW+qAYbjKPAEIgcupZa96OqGE61z6rDur4M37LqkDhmO7V+TUFVkbicakvqw7IjGLYdzSDRYz/VeqLq6FhKtfVtYJV/JcNU1B0SvQupNgVVyVjq7e0Bq44rYVg29oLETQGq7a2HqqT6OuoV9YNVDzEMu25PgcRIWnAjqpbTacX9sChpOSuRN+/uDEj4n6MFi32oYl6nFa8mwZq679NU8JdXbzomATJZM2lB6dGoaurspBWLD4FFfbNpYM+skWdkQq77ZlrxKKqeK2jJ3t6wqNHYBbn8r9Jdq7+e8dpTI/q19kHDN7yEVixKRBU0i9Y8lwqr/G2uuPyMjofW9MGSrFm0JLsZqqJme2jNisPhCCdupjW9UDWdEaA1eVch9nx3l9KaCaiq7qVVr9dEjNX7lBb9kIKqyvcBrdp2OWLJf3M2LcpphaqrxmpaNqcVYqbTd7SsL6qytrm0rPCBFMRE5vMBWjYZVVsf2mDNaYg+39W7aN2q6qjinqAdpjZGlB29iDbIb4+qLuFz2qHw6YaIorpPl9IOfeHJ2kBb5I+thyhp9NQB2uJeeICOhbTHgdFZiIJDni+kPV6C59+uoV1yR9VGhB3+agltMisRnv94nrbJebY9IuiodwK0y7J0eP4r4T3aaFG/VESE//QPg7TNxkbw/Cl5Ju20Z2xr2K79mC200b528Pyl2pe0VXDuxdVgowZ3LKetinvCU1b6Ytos7/1+mbBFtctnldJm/eApr9Yy2q7k81ubwKL6l72aQ9uNgKeiuqsYAcEl9xyXCKXMXhN+YiQ8A8/BGv3OyDjw1RO9GkAo7czR3wcYGWPhMXLIJkbO+qkDO9dAOPwtzhj47KJiRsyj8Bg7fAcja9c3bz50VfdGPhjL7HrVqPdWFjCy7oPHzFF7GA35Py/8dNrkCY8OH3BV7ytuvOuh8ZOmffr1yj/2MRrugsdcpxzGt+Bt8ITSZQfjWeB6eEJrsYrxq7Q/PJWp9QXjVcml8FQu6RXGp8Je8IRlRJBxaGsXeMJ0eSHjzneN4Qlb992MM2+mwiPQ8jfGk8BweGTqzGf8yDkPHqmUNxkv1raDR+HuEsaFubXhUen0G+PAPxLhUUqbSLfLvRoeC3rtoqvNbwGPJQ0/pXsV3umHxyLfwAK61A/t4LFBuxV0o9KHk+CxRcrYIF1ndWd4bHPKZrpLcEI1eGxUe3KQLrLxFHhs1mE+3aJodA147HfxerrCPw+DJyJS78ml4y3rAU/ENJwcpKNtv84PTyR1mE/nKnw8A55Iu3g9Heq9Q+GJgtR7culAP5wET5TUH5VNh/nqHB880ZM2cD2dI/BeF3iiLOHS7+gMBS+0gicWTpoRZMxlP1IPnlhp83IhY2rDoDR4Yqn+I3sYM9/2TYQn1tJuW8FYWP/w4fA4wxEjVzG69k480QePg7R/ZA2jpfiD3inwOM5xo/9gFCy+pQ48DtX1qc2MpOL5I1rC42S+E//xKyNj5VPnpMPjAvUuHLekhLba/GrfBvC4SFrPkXNyaYv9Hw44Ah4XSugw6L3ttCD4+0ej+h6TCI+Ltbx8xOSvNgUptGHm6Ks6VocnTqQccfZtT330Uz4rVbDxs3HXds2AJx75Gnbvf+eIR8c+O/mt6bPmfbP81w07c/ZvWP7l9Mlj7xvQ95xubRqkwuPxeDwej8fj8XiqoP8DAji3hnWOSy0AAAAASUVORK5CYII=;" parent="1" vertex="1">
          <mxGeometry x="930" y="206.5" width="28.5" height="28.5" as="geometry" />
        </mxCell>
        <mxCell id="IZlDyetnFrTAtIApsN1v-29" value="" style="endArrow=classic;html=1;rounded=0;entryX=0;entryY=0.5;entryDx=0;entryDy=0;" parent="1" target="IZlDyetnFrTAtIApsN1v-3" edge="1">
          <mxGeometry width="50" height="50" relative="1" as="geometry">
            <mxPoint x="965" y="170" as="sourcePoint" />
            <mxPoint x="1015" y="120" as="targetPoint" />
          </mxGeometry>
        </mxCell>
        <mxCell id="IZlDyetnFrTAtIApsN1v-30" value="" style="endArrow=classic;html=1;rounded=0;entryX=0;entryY=1;entryDx=0;entryDy=0;" parent="1" target="IZlDyetnFrTAtIApsN1v-3" edge="1">
          <mxGeometry width="50" height="50" relative="1" as="geometry">
            <mxPoint x="960" y="210" as="sourcePoint" />
            <mxPoint x="1010" y="180" as="targetPoint" />
          </mxGeometry>
        </mxCell>
        <mxCell id="IZlDyetnFrTAtIApsN1v-31" value="" style="shape=image;verticalLabelPosition=bottom;labelBackgroundColor=default;verticalAlign=top;aspect=fixed;imageAspect=0;image=data:image/png,iVBORw0KGgoAAAANSUhEUgAAAgAAAAIACAYAAAD0eNT6AAAABHNCSVQICAgIfAhkiAAAAAlwSFlzAAAOxAAADsQBlSsOGwAAABl0RVh0U29mdHdhcmUAd3d3Lmlua3NjYXBlLm9yZ5vuPBoAACAASURBVHic7d15tF5VmaDx5ya5YUiYTBRCAiGAGkAQgXYsp3YAxwSiqNVqlVpO1dooaqFdZam9qi0g2GrZXVU4lCUqpZZDEHG2HBAHBCcUkBCCEOZJQpgy3Ft/7Bs7QAj3ft+eztnPb629YLlk5333Odn7/c6wzwiSUtgJOBBYBOwz0eYBc7ZoM4DtgB0n/ps7gLuBjcBNE+1G4Frg8ol2GXARcFuGHCT12EjpAKQemAU8GngCcDhwCGHhT/X3a5xQCPwa+DnwQ+BcQgEhSZNiASBN3XTCgv9s4JnAYYRf8yVtBM4HvgF8DfgZsKloRJIk9cAM4EjgXwiX5scrbzcCHyUUKKWLE0mSOucQ4EOEBbX0oj5ouwH4IHBw5LGRJKlXZgJ/BvyE8ot37PZj4OUTOUqSJGBX4O3AVZRfqFO3NcBfAbtEGTlJkjpoNnACcAvlF+bcbS1wIhYCkqSGzATeSrfv78dqNwDH460BSVLPPR24kPILb23tEuCFQ4yrJElV2ofwnnzphbb29hVg78GGWJKkekwD/gdhC93Si2tX2lrgDRNjJ0lS5+wFfJfyC2pX238AC6Y86pIkFfRi2ny6P3a7CXjBFMdekqTsZhBebyu9cPatnYpvCkiSKrUncA7lF8u+th8SPm0sSVI1DgGuoPwi2fd2FeEriJIkFfdM4FbKL46ttNuA50zqyEiSlMifAxspvyi21jYAL3vgwyNJUnyvBTZRfjFstY0R9liQ1CEjpQOQhvRm4H3Uey7fBPwOuJiwze4lwDXA7RPtlol/AswCdpv45yzCg3YPAx4OLJ749zkZY5+KccK3BD5QOhBJUv+9ivDrs/Qv4C3btcDngNcAixLkPI+wV/+pwO8ryPfeVwJenyBnSZL+6M+p57L/xcBfE36p53YA8DeEqwylx2GccEx8JkCSlMSzCQ+flVzobgL+L/CYxLlOxWOB/0eIreTYbACOTJyrJKkxjwD+QLnF7VrgBGDH1IkOYTvCLYgrKTdOa4FHpk5UktSGPQkb0JRY0FYRFtXtkmcZz3bA64DLKDNmVwJ7JM9SktRrMymzve9awtPtM9KnmMwo8DbKfAr5BxN/viRJA/lH8i9eZwJ750gukz2B08g/jr4aKEkayIvJu2BdQdhWuK+OIv/zAcuyZCZJ6o0F5H2q/VvA7lkyK2sucBb5xvUW+nU1RZKU0DTge+RZoNYDb6XeHQVTGCG80ZDrlcrvEI6pJEnbdBx5FqbrgcdnyqlGfwLcQJ6x/u+ZcpIkddRC8jy1fjlldvCrzWLybC28FtgrU06SpA76GukXowsIT8YrWAD8hvTjfmauhCRJ3bKE9IvQjwlf3tM9PQj4CenH/zm5EpIkdcNMwidzUy4+vyEsdNq6XYBfkvYYrKRbuypKkhJ7K2kXntXA/GzZdNcC0j8T8KZs2UiSqjab8ER+qgXnBsLDbpqc/YHrSHs8dsqWjSSpWn9LusVmPW2/6jeoJ5J2n4D/mS8VSVKNdiXtZ37fmi+V3nk76Y7LzcDO+VKRJNXmHaRbZM6irR3+YhsBvky64/O2fKls1UzgRcDpwMXAOtLlWmtbN5H76cCxE2MiScmNku7jNFcS9r3XcB4MrCHNMVpDuQVnGbBqEjG21i4FjhliXCVpUv6MdBNZn7/ql9uzSXecXpoxD4DpwCmRYu9zW47fb5CUUKqNZz6bM4lGfIk0x+qcnEng4j+VdtKAYyxJ23QwaSattfi+fwp7ke4bDQdlymFZovj73JYONNKStA0fIs2EdXzOJBpzAmmO2fszxD6TcH+79ILatXYZPhgoKaJR0nyGdhUwI2MerZlJ+Ipi7ON2LeHefEovShB3K+2FA4y3KubDHSrpaaR5Qv9EYGOCfhWsJzwcFtvuwFMS9LslL2UPbknpACT1x8eJ/yvlSvzITA7bAVcR//h9OHHcqT801ed28QDjLUn3MR24ifiT1HE5k2jc8cQ/fteT9spkqgcYW2i3DTDeknQfjyf+BHUjsGPOJBo3i7CVb+zj+OiEMVsADN5uHWC8VTGfAVApz0rQ52eAOxL0q627nTR7LRyVoM/Nrk7Yd985dj1jAaBSjkzQ5ycT9KltOy1BnykLgPMT9t1355UOQFL3zSL+J2YvwQ/+lHIxcY/letLdyjk2cqwttRcMMN6qmFcAVMJjiP+e/icIk5TyOz1yf6PAEZH73OxLhI2ANDWXEb4IqR6xAFAJj0/Q5+cT9KnJSTH2T0jQJ4QrTyck6rvPjidcmZGkoawg7qXJq/KGr3sZITwgFvOYpi7olkeOt8/txAHHWJLu4zLiTlApHkTT1HyauMf0ksTxTgNOjhxzH9tJeKVYUiQ7AWPEnaRekTUDbc1fEPeYbiI8LJraUmBl5Nj70Fbi1r+SInsM8SerhVkz0NYsIv5xPTxT7KOED918CriINjcLum0i908RnvYfHWpEJWkrXkLcieumvOFHMZPwVbrTCa/QrZtoF0/8b8fSzU+vxt7a2dfOJKlH3kHcReKcvOEPbRnhc8UPlNelwDGFYhzUT4h7bN+WN3ypLT7codwWRu7vd5H7S2U6cArh6fZ9J/H/3w/4AuFp9a78PY39tbhFkfuTtIWuTCzqj3mR++vKJ0pPAt4ywH/3VuDvI8eSSuxibI/I/UmSCvohcS8TL80b/kCW0UaexxD32P4gb/hSW7wCoNzmRu7v2sj9xTaT8Ot/WP+H+h8MvC5yf3Mi9ydpCxYAym23yP2ti9xfbEcT7ucPaxH1v5d9W+T+HhS5P0lbsABQbttF7i/2ohNbzEv3rRUAsc8VSVuwAFBusS9j114AxNzMJtUX8mKxAJA6xAJAucUuAGq/BRDzrYf5EftKwQJA6pCR0gGoOeOR+6v9HDbf4dSer9RZXgGQJKlBFgCSJDXIAkCSpAZZAEiS1CALAEmSGmQBIElSgywAJElqkAWAJEkNsgCQJKlBFgCSJDXIAkCSpAZZAEiS1CALAEmSGmQBIElSgywAJElqkAWAJEkNsgCQJKlBFgCSJDXIAkCSpAZZAEiS1CALAEmSGmQBIElSgywAJElqkAWAJEkNsgCQJKlBFgCSJDXIAkCSpAZZAEiS1CALAEmSGmQBIKl1M4EXAacDFwPrgPHK27qJWE8Hjp3IQZKqFnsirJ351p3vMmBVgrhzt0uBYyKPjSRF1bUFYljmW2e+04FTEsRbui3HK7uSKtWVBSIW860z3z4u/pvbSRHHSZKi6coCEYv51pfvsgRx1taWRhst9dZI6QDUnNiTeu3nsPkOJ3a+M4ELgf0i91ub1cBiYH3pQFQv7xVJasnR9H/xB1gELCkdhOpmASCpJS1dGrcA0DZZAEhqyeGlA8joiNIBqG4WAJJaMq90ABnNLx2A6mYBIEn9NFY6ANXNAkBSS64uHUBGLeWqAVgASGrJ+aUDyOi80gGobhYAklqyonQAGZ1ROgDVrfZNRdQ/tW8UE5v5Did2vqOEjYD2j9xvbS4DDsCNgLQNXgGQ1JINwAmlg8jgeFz8JVWmC3vFx2S+dea7PEGstbQTI46TJEXTlQUiFvOtM99pwMkJ4i3dTsIru5Iq1ZUFIhbzrTvfpcDKBHHnbitx619NUe0PFKl/Yk/qtZ/D5jucHPmOEgqBJYStghcAszP8ucNYB6whvNa4gvDE/4aiEalzap9M1D9dXCCGYb7DqT1fqbO8VyRJUoMsACRJapAFgCRJDbIAkCSpQRYAkiQ1yAJAkqQGWQBIktQgCwBJkhpkASBJUoMsACRJapAFgCRJDbIAkCSpQRYAkiQ1yAJAkqQGWQBIktQgCwBJkhpkASBJUoMsACRJapAFgCRJDbIAkCSpQRYAkiQ1yAJAkqQGWQBIktQgCwBJkhpkASBJUoMsACRJapAFgCRJDbIAkCSpQRYAkiQ1yAJAkqQGWQBIktQgCwBJkhpkASBJUoMsACRJapAFgCRJDbIAkCSpQRYAkiQ1yAJAkqQGWQBIktSgGaUDkKTCZgJHA0uAw4AFwKyiEeV3O7AG+DmwYqKtLxqRpN4Zj9xqZ75157sMWJUg7q63S4FjhhhXSbqPri0QwzLfOvOdDpySIN6+teV4q1hSJF1ZIGIx3zrzdfGffDtpwDGWpHvoygIRi/nWl++yBHH2vS0daKRVtZHSAag5sSf12s9h8x1O7HxnAhcC+0Xut+9WA4vxwcBe8d6OpJYcjYv/IBYR3pJQj1gASGqJl7IHZwHQMxYAklpyeOkAOuyI0gEoLgsASS2ZVzqADptfOgDFZQEgSZqMsdIBKC4LAEktubp0AB3m2PWMBYCklpxfOoAOO690AIrLAkBSS1aUDqDDzigdgOKqfVMR9U/tG8XEZr7DiZ3vKGEjoP0j99t3lwEH4EZAveIVAEkt2QCcUDqIDjoeF39JQ+rCXvExmW+d+S5PEGtf24kDjrEk3UNXFohYzLfOfKcBJyeIt2/tJLxSLCmSriwQsZhv3fkuBVYmiLvrbSVu/dt7tT9QpP6JPanXfg6b73By5DtKKASWELYKXgDMzvDn1mQdsIbwmuQKwhP/G4pGpORqn0zUP11cIIZhvsOpPV+ps7y3I0lSgywAJElqkAWAJEkNsgCQJKlBFgCSJDXIAkCSpAZZAEiS1CALAEmSGmQBIElSgywAJElqkAWAJEkNsgCQJKlBFgCSJDXIAkCSpAZZAEiS1CALAEmSGmQBIElSgywAJElqkAWAJEkNsgCQJKlBFgCSJDXIAkCSpAZZAEiS1CALAEmSGmQBIElSgywAJElqkAWAJEkNsgCQJKlBFgCSJDXIAkCSpAZZAEiS1CALAEmSGmQBIElSgywAJElqkAWAJEkNsgCQJKlBFgCSJDXIAkCSpAZZAEiS1CALAEmtmwm8CDgduBhYB4xX3tZNxHo6cOxEDpJUtdgTYe3Mt+58lwGrEsSdu10KHBN5bCQpqq4tEMMy3zrznQ6ckiDe0m05XtmVVKmuLBCxmG+d+fZx8d/cToo4TpIUTVcWiFjMt758lyWIs7a2NNpoqbdGSgeg5sSe1Gs/h813OLHznQlcCOwXud/arAYWA+tLB6J6ea9IUkuOpv+LP8AiYEnpIFQ3CwBJLWnp0rgFgLbJAkBSSw4vHUBGR5QOQHWzAJDUknmlA8hofukAVDcLAEnqp7HSAahuFgCSWnJ16QAyailXDcACQFJLzi8dQEbnlQ5AdbMAkNSSFaUDyOiM0gGobrVvKqL+qX2jmNjMdzix8x0lbAS0f+R+a3MZcABuBKRt8AqApJZsAE4oHUQGx+PiL6kyXdgrPibzrTPf5QliraWdGHGcJCmariwQsZhvnflOA05OEG/pdhJe2ZVUqa4sELGYb935LgVWJog7d1uJW/9qimp/oEj9E3tSr/0cNt/h5Mh3lFAILCFsFbwAmJ3hzx3GOmAN4bXGFYQn/jcUjUidU/tkov7p4gIxDPMdTu35Sp3lvSJJkhpkASBJUoMsACRJapAFgCRJDbIAkCSpQRYAkiQ1yAJAkqQGWQBIktQgCwBJkhpkASBJUoMsACRJapAFgCRJDbIAkCSpQRYAkiQ1yAJAkqQGWQBIktQgCwBJkhpkASBJUoMsACRJapAFgCRJDbIAkCSpQRYAkiQ1yAJAkqQGWQBIktQgCwBJkhpkASBJUoMsACRJapAFgCRJDbIAkCSpQRYAkiQ1yAJAkqQGWQBIktQgCwBJkhpkASBJUoMsACRJapAFgCRJDbIAkCSpQRYAkiQ1yAJAkqQGzSgdgCQVNhM4GlgCHAYsAGYVjSi/24E1wM+BFRNtfdGIJPXOeORWO/OtO99lwKoEcXe9XQocM8S4StJ9dG2BGJb51pnvdOCUBPH2rS3HW8WSIunKAhGL+daZr4v/5NtJA46xJN1DVxaIWMy3vnyXJYiz723pQCOtqo2UDkDNiT2p134Om+9wYuc7E7gQ2C9yv323GliMDwb2ivd2JLXkaFz8B7GI8JaEesQCQFJLvJQ9OAuAnrEAkNSSw0sH0GFHlA5AcVkASGrJvNIBdNj80gEoLgsASdJkjJUOQHFZAEhqydWlA+gwx65nLAAkteT80gF02HmlA1BcFgCSWrKidAAddkbpABRX7ZuKqH9q3ygmNvMdTux8RwkbAe0fud++uww4ADcC6hWvAEhqyQbghNJBdNDxuPhLGlIX9oqPyXzrzHd5glj72k4ccIwl6R66skDEYr515jsNODlBvH1rJ+GVYkmRdGWBiMV86853KbAyQdxdbytx69/eq/2BIvVP7Em99nPYfIeTI99RQiGwhLBV8AJgdoY/tybrgDWE1yRXEJ7431A0IiVX+2Si/uniAjEM8x1O7flKneW9HUmSGmQBIElSgywAJElqkAWAJEkNsgCQJKlBFgCSJDXIAkCSpAZZAEiS1CALAEmSGmQBIElSgywAJElqkAWAJEkNsgCQJKlBFgCSJDXIAkCSpAZZAEiS1CALAOX0xtIBqHPeUDoASdLgRoB3A+MJWu3Md/j2QfyxIkmdsz3wGdIsDC0uiLVLdZy/COyYMQ9J0hDmAGeTblFocUGsXcpj/RPgIflSkSQNYm9gJWkXhBYXxNqlPt6XAHtly0aSNCULgVWkXwxuyZXQEForAP5A+uN+ObBfpnwkSZP0MOBK0i8C48CvMuU0jNYKgAvIc+yvAB6aKSepl3yyVjEdCHwPWJDpz7sg05+jyct1TPYinGsHZPrzJEn340DgOvL8+tvcnp0ls+G0dgXgueQ9B67FIkCSillIvsv+m9sqYEaO5IbUWgEwCqwm77lwBeGhU0lSRg8GLiLvhD8GPCNHchG0VgAA/FfCMcp5TqwEds+RnCQJdgbOJ+9EPw78fY7kImmxAAA4mfznxc+AnXIkJ0kt2x74Lvkn+b/LkVxErRYAEI5V7vPjO8B2OZKTpFZ9irwT+13Aq7NkFlfLBQDAy4A7yHuunJYlM0lq0NvJO6GvAR6bJbP4Wi8AAA4jbN6T85x5W47EJKklRwEbyTeRnw3skSWzNCwAggcTLs/nOm82Ac/LkpkkNeAgYC35JvEPE14r6zILgP9vFPgo+c6fWwn7U0iShrAbcCn5Ju935UkrOQuAexoB3kO+8+hSwrkrSRrQF8kzYW8EXpsppxwsALbuFcAG8pxTX8iUkyT1zhvIM1HfTv/u21oA3L8l5HtD4C8z5SRJvXEweSbpO4CnZ8opJwuAbXsGec6vu4BDM+UkSZ03izzb/PZ18QcLgMnIVQRcgjsFStKkfJw8i39X9vUfhAXA5BwJ3En68+0juRKSpK46ivST8d3AM3MlVIgFwOQ9C1hP2nOuSx+SkqTsdgZ+T/qJ+GW5EirIAmBqXkL6LwlejrcCJGmr/om0E/A47WzVagEwde8g/fn3oWzZSFJHPJn0v8D+OVs25VkADOYfSHsObgKelC0bSarcdoQnpVNOvF8GpudKqAIWAIOZDnyFtOfi74CZuRKSpJqlvvR6CbBLtmzqYAEwuJ2AC0l7Tv5VtmwkqVK7Ez6ekmqivY3wMaHWWAAMZzFpP0C1FpiXLRtJqtC/km6SHQOOzZZJXSwAhvdi0p2b48DH8qUiSXV5NOGhqFQT7PvypVIdC4A4Pki683MTcHi+VCSpHj8i3eT6S8LDha2yAIhje+AC0p2nZ+dLRZLq8FzSTap3AYfkS6VKFgDxHETa7YKflS8VSSrvXNJNqMdnzKNWFgBxvY105+t5wEi+VCSpnOeTbjL9LjAtXyrVsgCIaxrwfdKdt8/Ll4oklTEC/Iw0k+hdwMPzpVKVPYEXAqcCvyX+2F4NfA54DbBvppxq81DS3Qo4H68CSOq5Y0j3K+pdGfOowWLg3cDFpBvT+2sXEca7tYLrf5FuTJdmzEOSsvspaSbPlYQntvtuZ+BNwC/Iv+jfX/s5cBxtfOluO8JWvinG8WcZ85CkrJ5AukXo2RnzKGEf4ETgZsov+PfX1hLem98nyQjU45mkG8PHZcxDkrL5d9JMml/MmURmewOnARspv8BPtm0g7PC4V/zhqMYZpBm7z+ZMQpJyWEhYGGJPmBuBAzPmkctswv39Oyi/oA/a7iZcEdg17tBUYTFpzucNhKJPknrjfaRZZD6SM4lMXgrcQPkFPFa7HvjTqCNUh4+RZrxOypmEJKW0I3AL8SfKO4AFGfNIbQ/C7YzSC3aqdhYwP9polbcXaV4LvBnYIWMekpTMS0mzoJycM4nEXkzdD/jFajfRry80LifNOL0kZxKSlMq3iD9B3kk/vqc+g/B0f+mFOXc7FRiNMH6l7U6a5zS+ljMJSUphAWmeYP/HnEkkMhf4NuUX41Lt+4QFtOtOJf7YbKLfb1FIasDfEH9y3AjsnzOJBB4KrKb8Ily6rab7x3Jf0hS5b8+ZhCTFlmKb2s9kzSC+g4CrKL/41tKuBR451IiW93nij8vvsmYgSREdQZoF49E5k4jsvwA3Un7Rra3dTLd3wXscacblUTmTkKRY/o74E+KvsmYQ12GE7XJLL7a1tluBQwce3fJSfJ/h3TkTkKRYfkP8CfH1WTOIZxFwDeUX2drb9YTnI7rojcQfj19mzUCSItif+JPhHXRzW9m5lPlkb1fbpXTz7YBdgduJPx6LciYhpTatdABK7ugEfX4W+EOCflMaBVYADy8dSIfsR3iobkbpQKboD6T5MNWSBH1KUjJnE/+X0FNyJhBJqm8gtNC6uCf+04g/Dt/NmoEkDWEnYD1xJ8Frgek5k4jgecAY5RfSrrYx0lxJSmk6cB1xx+FuYFbOJKSUvAXQb08k/javXyTsjtYVC4HTgJHSgXTYCOGLe13aEW8TcEbkPmcCj4/cp1SMBUC/PTlBn59P0GdKH6KbDyzWZjfgn0sHMUUpztWnJuhTkqI7l7iXQG+gWw+EvYTyl8/71l4wpSNQ1gzCORsz/x9lzUCSBrAzsIG4k98nsmYwnF1wm98U7RrC1YCu+CRx899AeLZG6jxvAfTXnxD/1/q3I/eX0nuAPUsH0UN7ED4s1RWxz9kZwBMi9ylJUb2b+L/+5udMYAh7A3dR/tdyX9uddOeBwPnEz/+dWTOQEvEKQH/F/njJbwmX1Lvgb4HtSgfRY9sDf106iEm6Crgocp9+GEhS1a4k7q+eD+QNf2APJf6zD7b7tvWEnQK74B+Im/vlWaOXEvEKQD89GFgQuc+zI/eXypvp1psKXTUKHFc6iEn6QeT+FgJzIvcpSVEcRfxffHtnzWAwOxE+ZVv613ErbS3hbZPa7UP83J+eMwEpBa8A9NMjI/d3PXBF5D5TeDndWJD6YifgT0sHMQmXE/YDiOnQyP1J2VkA9FPsL979LHJ/qbyudAAN+svSAUzS+ZH7e1jk/qTsLAD6KfbDWedF7i+FQ4BHlA6iQQfTjXGPXcR25QFI6X5ZAPTTvpH7+1Xk/lI4pnQADevC2Mc+h/eP3J+UnQVA/+xA/B3wLoncXwpd+1xtn3Rh7FdG7m8B7jWhjrMA6J99iXtcx4DLIvaXwn6EWwAq41BgUekgHsClhKf3Y5lG/TlL22QB0D+xL/+vIWz9WjNfySrvaaUDeAB3EH8nS58DUKdZAPTPvMj9deHy/+NKB6BOHIPYtwH2iNyflJUFQP/Mjdxf7Zf/oRuLT989vnQAk7Aqcn8PjtyflJUFQP88JHJ/10buL7Y5hP3/VdbDiV98xnZd5P4sANRpFgD9E3tSuj5yf7E9ChgpHYQYof4HMWOfyxYA6jQLgP5prQDwQax61H4sLACkLVgA9E/sy7Cx91CPzVex6lH7sbAAkLZgAdA/syL35xUATVbsV1Bji30ux/67JmVlAdA/20fu7/bI/cW2sHQA+qN9SgfwAO6I3J87AarTLAD6J/akdHfk/mLbpXQA+qPaP8V8V+T+LADUaRYA/dNaAeBl2HrMLh3AA4h9Lse+2iZlZQHQPxYAKqX2Y+EVAGkLFgD9MzNyfxYAmqzWrgBYAKjTLADUdTG/8Kbh1H4sYsfnBlTqNAuA/lkfub/YVxRiW1c6AP3RbaUDeACt3R6TtskCoH9aKwBqX3RaUvuxsACQtmAB0D+xJyULAE1W7cfCAkDaggVA/7T2qlPti05Laj8WsQuA2FfbpKwsAPondgGwW+T+Yqv9c8Utqf1YxD6XY79WKGVlAdA/f4jc35zI/cV2SekA9Ee/Kx3AA4j9oaxbIvcnZWUB0D83Ru4v9qQZW+2LTktqPxaxz+XYf9ekrCwA+if2pFT7FYDaF52W1H4sYp/LFgDqNAuA/rkpcn97RO4vtotLB6A/qv12zO6R+7s5cn9SVhYA/RO7AKj9c7s3A5eXDkJcRv33xBdF7s8rAOo0C4D+if0kduxJM4X/KB2A+E7pACZhn8j9XRe5PykrC4D++X3k/vaJ3F8K3y0dgDpxDPaN3N/qyP1JWVkA9E/sSWkB9e8G2IVfn302Tv0FwPbEf57l8sj9SVlZAPTPFcBYxP6mA4sj9pfCNfgwYEkXUv8mQAcSd77bBFwZsT8pOwuA/rmbsCDGdEjk/lL4fOkAGtaFsY99Dq8BNkTuU8rKAqCfYt8GODhyfymcRv3fo++r00sHMAmPiNyf9//VeRYA/fTbyP114QrASuDc0kE06Bzqf/8f4p/Dsf+OSdlZAPTTBZH7OwwYidxnCp8sHUCDujDmI8CjIvcZ+++YJEXxRMLl8JjtYVkzGMyDgNuJn7tt620d9X8tEuAA4uf+uKwZSAl4BaCffk2YpGJ6QuT+UrgZ+HDpIBryT9S/+x/EP3fH8RaAesACoJ9uJbwOGFMXCgCAk/E77TncBby/dBCTFPvcXQ2sjdynlJ0FQH/9PHJ/fxK5v1SuAT5ROogGfBS4unQQkxT73I39d0uSonoL8e97xt5KNZVFwHrK3yPva7sb2HvSR6OsfYmf/3FZM5AS8QpAf52ToM8jE/SZwmrgA6WD6LFTiH+LKZXnJOgzaJZfAAAACrVJREFUxd8tSYpmlPhPxJ+RNYPh7EjYq730r+W+td8DsyZ/GIo7i7j5rwNmZM1AkgbwfeJOfrcB22XNYDgvoPyC2bf2/CkdgbJ2IH4R7Ien1BveAui3syP3Nxs4KnKfKX0e+HrpIHrkK8CXSwcxBc8iXAmKKfbfKUlKIsWGQJ/OmsHwFgA3UP6Xc9fbdcCeUxz70j5L/HF4bNYMJGlAMwgbtcScANfRrXvAEH4JbqL8ItrVtgl45pRHvawdCedqzHG4ifB5bKkXvAXQbxuBb0Xucxbdug0A8DVgeekgOuy9wDdLBzFFzyV+ofpNQjEkSZ3wSuL/IuzSfeDNZhDu35b+Nd219j26+dT7V4k/Fi/PmoEkDWlPYIy4E+FGwr31rpkDXEj5RbUr7beEDyx1zV6EczTmWGwCds+ZhCTF8EPiLw7vzJpBPAsI77KXXlxrb2uAhQOOcWnvIv54fC9nApIUyxuJPyFeQXcfiDqQ8EBX6UW21vYH4JCBR7esaaTZAOr1GXOQpGj2IP4l0XFgSc4kInsMFgFbazdNjE1XHU38MdmIl/8lddj3iD8x/iBnAgkcSLiSUXrRraVdTXd/+W92DvHHJfabNJKU1etJs2h0+dcihIckf035xbd0u5DufOHv/jyONGPz6pxJSFJsuxJ/X/Rx4HM5k0hkLuFqRulFuFT7Ht182v/evkj8sbmD8HdHkjrtk8SfIDcCB+RMIpEZwLtpa8fAMeCDhC9Hdt1BpDl2H8+ZhCSl8iTSLCSfzZlEYk8DrqH84py63UDYIrkvvkCacXp8ziQkKaXfEn+SHAMOzZlEYvOJ/x35mtqZdO/DPttyMGl+/V8EjGTMQ5KSegtpFpUVOZPI5HnAasov2LHaGvq5ne2XSTNeb8qZhCSltjNwK2kmzCdnzCOXWcCJwN2UX8AHbXcD/5vwhby+eSppxmwtsEvGPCQpi/eTZtL8Bd3dHfCB7E14YO4Oyi/oU1n4TwP2SzAeNZgO/JI0Y+fXIyX10kJgA2kmzr6/M/0QwtsCqa6ixGjrCMXK/DRDUI1Ue1usp/t7IkjS/foMaSbP62jjvendgNeRZue5QdrYRCyvm4it73YDrifNWH4yYx6SlN0RpFuMPpwxjxo8FHgP8BvyL/wXEK5I7J86ycp8jHSFVJ/eaJGkrTqTdJPo0zLmUZOHAC8ETiXNK5dXE3ZffA3hu/ctegrhHEtx7n4hXxpSWb7j2rZHAeeT5jxYCTwSuDNB312yG/BwYDHwsIl/3x2YDexEuF0ye+L/u47wKd7bJv79WuAS4HfAxRP/fkvG2Gu0A+HbDSmueIwBhwG/StC3JFXn86S7PH1KxjzUhveR7nz9t4x5SFJxqfZQH5/ot9VbAYrvGaQ7V/vyTQtJmpLTSPerag0wJ18q6qm5wFWkO08/li8VSarHAsI951STqw9WaRgjhK2mU52fa4F52bKRpMq8k3QT7Djw5nypqGfeRtpz84R8qUhSfXYg7YdvNtDPbwUoraeSbtfKcWAVsH22bCSpUi8i7S+tawm3G6TJmEfY9yDlObk0WzaSVLER4JuknXB/Sj+/Sqe4dgTOJe25eFa2bCSpAxYSNqJJOfGeSX+/GqjhTQO+SNpzcB2wKFdCktQVx5N28h0nbOgibc0HSX/+vTFbNpLUIdMJl+pTT8LH5UpInZGj+Pwx4SqDJGkrDgbuIu1EPAa8MldCqt5fkO4jP5vbnYTdLyVJ25Dj19gm4CW5ElK1lhG24019vnnpX5ImIcdbAePAenwdq2VLCedA6vPsq/gFVEmatN0J7++nnpw3Ai/PlJPq8WLyLP7XA3tkykmSemMJ6e/Nbi4CfCagHa8iz2X/MeA5mXKSpN5ZTvqJevNk7dsB/Xc8eYrKceC9mXKSpF6aDnyDPBP2OOFdcF/V6p/p5HnPf3P7Nm46JUlDm0PaDwbdu30Jtw3uk1mk/azvvdvvgblZMpOkBjyG9PsDbNl+CszPkplSWkD6vf23bHcCR2TJTJIa8iLy3b8dB24AnpYlM6XwJOAa8p0vY8BLs2QmSQ16J/km9HHCN+FPwPe4u+Y15HnNb8v29iyZSVLD/oW8E/s44Stxc3Ikp6HMJe/9/s3tIzmSk6TWjRKess49ya/BWwI1ewZwFfnPi68DMzLkJ0kCdiLPlwPv3TYR9ibYIX2KmqQdCJ95zvl8yOb2I2B2+hQlSVvaBTif/JP+OLAKeHr6FPUAnghcRJlz4FfAg9KnKEnamodQbgEYI9z73TV5lrq33YCPUeZX/zhwIfDg5FlKkrZpAeEXeYmFYBy4jvDUuTu/pTcdeC3hIzuljveluEeEJFVjD+ACyi0Km38VHpk60YY9BfglZY/xRYSCU5JUkYdQfoEYB84ADk2ca0seBXyZ8sf1F3jZX5KqtSvhyezSi8UYcCYWAsM4EDiN8OZF6eN5Lu4DIUnV2wn4FuUXjXHC4vXvwGOTZtwvjwO+QB0L/zjha5S+6idJHTFKmR0Dt9XOBpbi54a3ZhphbH5I+eO0ZfsIbvIjSZ10HPX8ktzc1gAnAvukS7sz9iR8a+Eyyh+XLdsY8O50aUuScvhv5P2U8GTbRuArwLHAjsmyr8+OhC87nkUYg9LH4d7tTuDFybKXJGX1aOAKyi8u99fWAf8GHE0/txnegZDbZwi5lh7v+2uXA4enGQJJUilzgW9SfpF5oHYH4SHGEwhPwnfVvoQNkj4HrKX8uD5Q+y6we5KRkCQVNwM4mXJbyA7SVhIeaHwlsBgYiT4qwxshxPYq4OOEmEuP22TbGPBe3MlRyqLGCUxteT7wUbq5scuNhE1pfkXY/fACwi6Ed2f687cnXJk4GHgE8EjCZj1zM/35MV1PKKzOKh2I1AoLANVgHvCvwDMLxxHDOHA1sHqLdj1wE3ADoWi4jXApfhOwgXAvHsI77qOEX8A7E/ZRmEsojuYQLovvAywiXNafRz/+Dn8NeAXhWw6SpMaMEO5T3075S9G2PO1OwvMV7scgSeJg4KeUX5xsaduPgIOQJGkL0whXA7rwxLptau12wq9+H/STJN2vfYCvU37RssVpXwUWIknSJL2A8DBd6QXMNlhbRdh8SJKkKZtJ+J7ArZRf0GyTa+sI+/hvf9/DKUnS1OxJ2OCmxr3rbaFtBD5GeE1RkqSoFgOnYSFQUxsjbDf88G0cN0mSojiIsOh0aUvhPrZvEXYhlCQpq0cBnybsrFd6MWylrQc+BRw6ieMjSVJS8wgPnt1C+QWyr20t8EFg78kdEkmS8tkFeDPh4zylF8y+tN8Cb5oYW0mSqnc4cCrhtbTSi2jX2p2EZyyeTj8+PCRJatCuhC2Gv4NvD2yrbQS+Dbwaf+1LknpmDvBy4EwsBsYJnyb+IWGzJd/flxrgJT0J9gCOmmjPAB5UNpxsbiK8vvc14BvAdWXDkZSTBYB0T9OBxwBHAk8CHg3sWDSieG4HzgV+QFjwzyX88pfUIAsAadtGCXsMPGGiHQYsKhrR5IwDlwM/J1zaPwf4BeF2hyRZAEgD2Bl4BHAw8EjgAGBfYD75v3O/CVhD+FrihcCvgQuA3xDe15ekrbIAkOIZJWyOs89E2wOYS3jgcMs2jVBETJ/4b2ZP/PfrCDsZbiIs3mOE+/Sb240T/7yW8Ot+NXDlxH8jSVPyn2wDm0EfQ1IWAAAAAElFTkSuQmCC;" parent="1" vertex="1">
          <mxGeometry x="1027.5" y="400" width="35" height="35" as="geometry" />
        </mxCell>
        <mxCell id="IZlDyetnFrTAtIApsN1v-32" value="Temperature" style="text;html=1;align=center;verticalAlign=middle;resizable=0;points=[];autosize=1;strokeColor=none;fillColor=none;" parent="1" vertex="1">
          <mxGeometry x="1060" y="402.5" width="90" height="30" as="geometry" />
        </mxCell>
        <mxCell id="IZlDyetnFrTAtIApsN1v-33" value="" style="shape=image;verticalLabelPosition=bottom;labelBackgroundColor=default;verticalAlign=top;aspect=fixed;imageAspect=0;image=data:image/png,iVBORw0KGgoAAAANSUhEUgAAAgAAAAIACAMAAADDpiTIAAAAA3NCSVQICAjb4U/gAAAACXBIWXMAABLgAAAS4AFNvAQzAAAAGXRFWHRTb2Z0d2FyZQB3d3cuaW5rc2NhcGUub3Jnm+48GgAAAwBQTFRF////AAAAAAAAAAAAAAAAAAAAAAAAAAAAAAAAAAAAAAAAAAAAAAAAAAAAAAAAAAAAAAAAAAAAAAAAAAAAAAAAAAAAAAAAAAAAAAAAAAAAAAAAAAAAAAAAAAAAAAAAAAAAAAAAAAAAAAAAAAAAAAAAAAAAAAAAAAAAAAAAAAAAAAAAAAAAAAAAAAAAAAAAAAAAAAAAAAAAAAAAAAAAAAAAAAAAAAAAAAAAAAAAAAAAAAAAAAAAAAAAAAAAAAAAAAAAAAAAAAAAAAAAAAAAAAAAAAAAAAAAAAAAAAAAAAAAAAAAAAAAAAAAAAAAAAAAAAAAAAAAAAAAAAAAAAAAAAAAAAAAAAAAAAAAAAAAAAAAAAAAAAAAAAAAAAAAAAAAAAAAAAAAAAAAAAAAAAAAAAAAAAAAAAAAAAAAAAAAAAAAAAAAAAAAAAAAAAAAAAAAAAAAAAAAAAAAAAAAAAAAAAAAAAAAAAAAAAAAAAAAAAAAAAAAAAAAAAAAAAAAAAAAAAAAAAAAAAAAAAAAAAAAAAAAAAAAAAAAAAAAAAAAAAAAAAAAAAAAAAAAAAAAAAAAAAAAAAAAAAAAAAAAAAAAAAAAAAAAAAAAAAAAAAAAAAAAAAAAAAAAAAAAAAAAAAAAAAAAAAAAAAAAAAAAAAAAAAAAAAAAAAAAAAAAAAAAAAAAAAAAAAAAAAAAAAAAAAAAAAAAAAAAAAAAAAAAAAAAAAAAAAAAAAAAAAAAAAAAAAAAAAAAAAAAAAAAAAAAAAAAAAAAAAAAAAAAAAAAAAAAAAAAAAAAAAAAAAAAAAAAAAAAAAAAAAAAAAAAAAAAAAAAAAAAAAAAAAAAAAAAAAAAAAAAAAAAAAAAAAAAAAAAAAAAAAAAAAAAAAAAAAAAAAAAAAAAAAAAAAAAAAAAAAAAAAAAAAAAAAAAAAAAAAAAAAAAAAAAAAAAAAAAAAAAAAAAAAAAAAAAAAAAAAAAAAAAAAAAAAAAAAAAAAAAAAAAAAAAAAAAAAAAAAAAAAAAAAAAAAAACyO34QAAAP90Uk5TAAECAwQFBgcICQoLDA0ODxAREhMUFRYXGBkaGxwdHh8gISIjJCUmJygpKissLS4vMDEyMzQ1Njc4OTo7PD0+P0BBQkNERUZHSElKS0xNTk9QUVJTVFVWV1hZWltcXV5fYGFiY2RlZmdoaWprbG1ub3BxcnN0dXZ3eHl6e3x9fn+AgYKDhIWGh4iJiouMjY6PkJGSk5SVlpeYmZqbnJ2en6ChoqOkpaanqKmqq6ytrq+wsbKztLW2t7i5uru8vb6/wMHCw8TFxsfIycrLzM3Oz9DR0tPU1dbX2Nna29zd3t/g4eLj5OXm5+jp6uvs7e7v8PHy8/T19vf4+fr7/P3+6wjZNQAAKHhJREFUGBntwQmATYX+B/DvvbMyMxjGvqVQSJs16SXtu6JV9No3oRQqpVVFJL02RZtSqadSFClZUkpISRHZ98HMmP3e7/9t/ZsZ59y5v985995z7pzPBx6Px+PxeDwej8fjiYq0M5/89Ns1u4s3zHvlvrOT4alSat71VRHL2D+lVzV4qoraD+7lQbIHJ8FTFSQ/kkNDv10AT/xr8R1NfVYHnjh3wV6G8FtLeOLaowxtVzd44tgjrEzB+fDErWtYuYJu8MSpk4sZht2t4IlLrbMZlrV14YlDtdcwTN9WhyfuJM9j2D70wxNvXqHAP+CJM3dT5C544kqfIEWCl8ITRzrlU6jwRHjiRtNtFMs+Ap44kb6CCusbwBMX/B9T5dtUeOLBeCpNhScO3Ey1++FxvdNLqBa8GB6Xa7ufFuR3gMfV6q6nJVsaweNiKV/Tou+qweNeb9Gyd33wuNUDtMGD8LjUFbTFpfC4UrdC2iK/Ezwu1GInbbK1MTyuU/Nn2mZpdXhcJnE2bfSeDx53eZ62ehgeVxlMm10Bj4ucGaDNCrrA4xrNdtN225rC4xLJSxgB36fC4w7PMiImweMKVzBCrofHBdrlMUIKO8HjeOm/MGI2ZsHjdO8wgj5PgMfZBjKiHofH0Y4vZmRdBI+D1d3ECMs5HB7H8s9hxK1Kh8epHmIUvAuPQ50VZDQMgceRmu9hVJT2gMeBkpcwSnY0hsd5nmPULE6Gx2n6Moqeg8dh2uUxmq6Cx1EyVjOq8o+Fx0neZZStqw2Pcwxi1M3yw+MUxxcz+h6CxyHqbmYMBM+FxxH8c6g24Rmq7T0MHid4mGpfJibNp9rSZHhi7+wgtTbUBeptotpYeGKu+R5q5R+Lf+lUSK3gGfDEWMp3VLsC/3EN1bbXgye2nqbak/ifZ6k20wdPLJ0epNbsBPxP0gKqDYYnhmpvodbvtfH/GmymVuEx8MTOu9TKa48yuhRS65fq8MTKlVTrg3Kuo9pEeGKk2T5qPYoKnqdab3hiwv8ltT7xo4LkRdTKbgpPLNxJrV9r4iANt1LrKz880XdUIZVy2sDA8UXUug+eqEv5kUrBC2DoBmqVdoMn2p6k1kiYmEit9TXhia4eQSp94IOJ5MXUmgpPVNXcQKVVGTDVaBu1/g5PNE2h0t5WCOHEUirltoInei6hUuAshDScWt8nwRMtjbOpdDdC882k1mh4osQ3m0rvojJZm6gUPA0eQ9VOvPDvgx8YftnxDX2wxUAqrUhDpU4oodLWuvBU5O9675eF/FPu1AtTYVnbAursaYEwDKXWx/CUl3jVb6wg581jYU3SD9QJnoVw+D6m1m3wlJF8/ToaCLzSCFaMotJ4hKf2BioVHgXP/2u5giYOPJAKtRMC1FmegjB1LabSz9Xg+Z9e+2huURaUMtZRJ78NwjaEWs/B8x8JTzCkNS2hM5lKN0LgQyoFT4HnXxKnsRK7jofGhVSaDonMP6i0Ph0eYBIrldcBcg12UWdzbYh0LqbSc/BgOMOwrTnEPqFO4GQIDaZSsCeqvD5BhmNVJoRuotIoiP2TSuvTUcV1yWd45iVDpPUB6nybCBMNu55y/uXdfThYrXVUehZVW/PtDNebPggkfkudnMNgrP0bJfy39Q+3xkE6FlEneDKqspo/MXyjIHA3lfrDUOeZ/Mu0VFR0G5XWpaHqSpxNiRsQtpYF1HkLhrodYFnza6Gi96j0D1RdL1Kk9GyE63PqrKsBI0dms7wfG6GCmn9QJ9gDVdWdFMo9DuHpT52S42HkkC2s6PfaqOBvAer8noaq6cIApbY2QziydlHnPhiay4N96kcFj1HpGVRJHQ9Q7udaCMNr1JmfACNNAjTwCCpIWkqd4EmogppupcYXyajUKdTJbgpDd9FI8HxU0CafOr9XQ5WT8SN13kBlUtdQpw+MLaehfa1Qwa1UegxVTcJMat2HSoyizsswVp8mVqahgpnUKW6LKuZZqgUvRkjti6nyaxqM1aWZt1FBg13U+cqHKmUwLcjviBD8i6lSdBxMpNPU7aigF5X+jqrkvACt2NIY5m6lzhCYSaCpkr+hgpeos6sOqo5j82jN0uow03g/VWb7YKqQprY3Qnnpa6jzMqqMxptp1fs+mPgnVXY2gLmpNPd1EsrrUkKV4AmoItKX0bpHYewC6lyAEI5lCM+igpHUWZmIKsE/g3boByMZm6jyDkL6nCH0R3mJi6kzFFXC07RFYTcYeIYqe+ohpNMZQv4xKK9lLlUONEcVcCttsuMQHKRLgCr9UYlXGcK62ijvOup8hPh3dintsjIDFSSuoMpnqEzKtwxhlh/lTadOL8S7o3Jon4/9KG8YVfIOQaWa7mQI96C8rG1U2ZiG+NZwI+00DuUcmk+VQQhDz1KaK+mC8s6kzpOIa9W/p72uR1mzqbLYj3AMZQi/10B5/6BKyRGIY75/0mbFJ+MvV1KlqB3C8x5DmILy0tZTZQbi2H203Z5W+FOdnVQZiTBl/MIQ+qG806hzKuLWuUHab3Ut/M8rVPkpGeFqk0tzOYehvMlUWeFHnGq9j5EwJxH/0ZMqga4IXx+G8G0SysncSpXrEJ8yfmFkPId/S/2NKuMhMZohPIbyLqTKtnTEI98HjJTb8C+PUGV9GiQSvqC5QE+U9y5VHkU8GsmIKT0TaFdMldMhU3cTzW2pg3Lq76FGQTPEn/ODjJz9bX2LqPIapLoU0dyHKK8fVd5E3DliPyPp9xFU2VEbYjcyhFtQ3ixqBDsjztRYTUe6BAqTaa7gSJTTLIcaixBffB/RkT6ERupSmluZinJuocoliCsP0pH2N4bKYTk09yzK8c2nxroUxJFeQTrSjVDqzxDORzmtC6gxFPGjTQ4daZ4PWm/R3O5GKGcoNfZnIV7U/JWOVNAKajXX09xcP8pK+J4ajyNO+D+mMw2DBSeU0txwlHN0MRVysxAfHqEz/ZAIK0bSXHFnlPMwNR5HXLgoSEcqORaWJCykuS9RTvLPVMjNQhxol0tnGgOLmu+juSNQTtcAFR6H+9VaQ2faUQNWXUZz41HeRCrkZsHt/DPpUNfDutdoam91lFN3HxUeh9uNokMt98O6jLU0dSrKG0yF3Cy4Wx861cmwQ+cSmjkT5SWuosLjcLUj8+hQ02GPe2jmTFRwOhVys+BimWup9+R2Rk7RYbCH/0uaOBMVfUiFx+Fe/k+pNwUnFDFiRsMuTbJp7BRUdFgh5XKz4FqPU++7VOAaRsqOGrBNbxrKroaDPEaFx+FWl1BvW2P8y3hGyA2w0Us0Mh4HS99CudwsuNOReVQr7Ip/S5jNiFjuh42qr6aBtjDQjwoj4Uppq6j3d/xX5hpGwsmw1XFFPMhXMOL7mnJbk+BGb1BvHP7UZj/tNx02u6iYFaxrCkMdg5S7HC50LfVmJ+D/nROg3YoOg90uKGI5fzSHiUmU+xru0z6far9looyhtNto2O+cQpaxsQXM1N9PuQ5wm/TVVNvfBuVMob121EAEdHq7mP+z49GGMDeEcq/Cbd6kWuAclJe6hLa6AZFR/541+/5l4RXJCCVpNcUKsxAR/hPufPr9JRtWzn17wrWNYaPrqTccFTXaShut8CNKkqv5YeAsyt0D+6WeN2kHy1jx+HGwydEFVHsLB+tSSPv0RHR0n5xHluQtuiQRFXxMsY0JsFnCdVt5kI+Ogx0yfqXa99VgoB9tMx3R4Bv0K/+0aXgNlHNEgGK9Ya9zfqKhD9rAuqlU29YEhsbQJkWHIQoSJrOsJRko5y2KzYOdasygmbxLYdVNVCs6Hsb8M2mPMYiClPdZ3vzqKKtdkGJHwT6HrmIITybAkmMKqHY1zNT8hXbYWQNRMIMVfZaMsqZRbCJs87fdDOmLNFhQYw3VxsNc6720wQ2IglN5sLEo6+ggpQ5kwibH5LESMxKg9w7V5iQghNNLadkKP6JgAQ+W3wBlfUCxgbBHvQ2s1ASo3UK1NZkI6XZa1hNRcCqNjENZHSi2CLZIXsQwDITScYXUymmLSrxCi6YjGl6lkfz6KOtjSgWbwA5jGY5AN6jUWEutwHmoTMrXtCTQGtHwOQ2NRVldKHY7bNA5wLD8Vg0a06h2NyrXYBOtmIaoWE1DB+qhrM8o9TWsS/qRYXoKCgOoNhXh6JBPCzohKnJpbAzK6k6pYFNYdh/DFTgRYh2KqLWyOsJyJfW+QFT4cmjsQD2U9QWl7oBVbYoYtrXVIVTzd2rltEaYnqfacETHxzQxGmX1oNQ3sMi/iAITIPQ+1fogXCnfUSvnMETFHTSRVxdlLaBUM1hzGyWCJ0FkINXGIXzN91BrSRKi4RiaeQJlnUapIbCkeS5Ffk+DQKciai1MhMDZQWo9gWjwraOJvCyUtZhC38KSWRR6FuGrtZ5aOxpD5GFqBU9DNFxPM6NQ1tmUag4L+lEq2BNhm06t0lMg459DrW31EAVJf9DEnmooawWF7oRe3d0UW5+OMN1OtXshVXcTtWb6EAU30sxJKOsWCi2B3lQqvIDwdCmm1sc+iB1fTK3bEQXJG2niZpRV4wCF6kHrXKqcinDUWE+t9ZlQGEStouMQBTfTxDMoZxKFLoBSjU1U2ZCBMLxOrcIOUHmHWr+mIfJSNtHYXJTTmUKPQ+l5Kk1E5S6h2o3QyVhNrVcQBbfS2BqUt4wy86FzYpBaZ6AyTbKp9Tq02uVR63JEXsoWGpqG8m6iTH4SNFJ/pdqmmgjNN5daK6tDrS+19h+KyBtIQwNRXkYeZTpBYxQteAGhDaFWTmtY8By1vklExKVupZFjUcEUygyCwjEltCDYDaEcXUStPrAieQm1HkPkXU8D+xJQwUWUeQdyCUtpyY+JMJf6E7XGwZrme6gUOAUR51vIg92MiqofoMhGyA2lRcNgbjy1FibCorOCVNpaFxHXrpgVzcDB/kmZJpBqmU+LDrSAmdODVNrRGJY9RK2PEXmjWMGOejjYlZS5GEK+L2nZTJios5VKpafAOv9sag1CxCWPDbKsHSfDQM1iijwFoRtog0tg7H1q3Qs7ZG2iUuExiLyem/iXSbVh6FOKfAuZBvtog601YeQaan3sgy2OL6bS6jREXuaLm/lfq3rAxACKFPkgMoW2eBYGDsul0vpM2GQgtSYhKlr0f/Eft/SoB1MdKJMJiZNpj0AXHCRhMZUKO8A271DrUjhCYj5FWkMgaRVtsjwRFY2k1s2wT/ovVNp3CBxhAUW6Q2A4bTMEFXQpodJ02KltHpUWJ8IJxlDkQoSv2QHaJq8ZyklfS6VNtWGr/tR6FE7QmyI3IHwf0EYfoZyXqRToAZu9RaXAyXCAxhQZgbCdS1tdhDIupNYjsFvN9VTaUgsOUESJpxGuautoq80Z+H8Nd1NpcSJs162USi/DATZR4i2E62Ha7Gn8yfcplfa3QATcT62eiL2llPgcYWpdRJsFOuJ/BlLrckRCwgIqra2GmJtFiRUI0xzabmkC/qNdAZVeRWQ030ulMYi51ymxFeG5lBEwGP+WvJxKv6UjQi6lUmlHxNpYShQjLBlbGAG5TfAvY6hU3AER8wqVlicixiZQIh9heYoRMR3AyUEq3YnISV9DpXsQY69SYifCcXQpI+N81NpEpdk+RFDHYuoUHo7Yep8S6xEG3yJGyMb0t6m0swEiahiVFvgQU3MosRJh6MuIWUKtsxFZ/rlUuhkx9Q0lFqNy1TfRecYj0hrvpk5OE8TSKkp8jsrdT+dZloKI60WlGYilTZT4AJVqfICOc+AIRMHzVLocMbSfElNQqdfoPNcjGqqtos7OOoiZdIq8iMp0DNJxpiE6ji6kzhuImWMpMhaVWUDH2ZCJKBlMpTMRK5dR5EFU4mI6Tml3RItvFnX+SEeM3E+RoQgtZT0d5wFET/0d1JmAGHmTIlchtOF0nAUJiKKzglQJHI/Y+J4iJyCk+jl0mr3NEFXjqfNzMmIihyL1EdJLdJxLEV0pK6jzIGKhIUVyEdLRATrNO4i2tvlUKT4SMXAORZYhpC/oNNvqIOpuos43fkTfWIq8h1AuoOOchxj4gDqDEX3LKfI4QkheQ41HGTmvIBbqbKdK3iGItqwgRa5DCHdQYwo+YaRsrImYuJA6sxFtF1OmB8xl7aVCbiO0KmJkBE9FjLxNnasQZc9TpgnMjafGMABPMDKeRaxk7aTKnjqIrt8oUuCDqcYFVPgtGUD6VkbC2jTEzMXUeQZR1ZQyP8Pcc9Q4B//WjxEQ6I4YmkaVkjaIpkGUmQpTzYuo8An+w/c17fckYqnebqrMRDR9T5lbYOolKhS1wn91CNBuq1IRU5dT5wxETxsKtYeZw0qo8Dj+9BJtVtIRMTadKj8nIGpGUSbbBzOvUWFLOv5Udy/t9RBircEeqtyCaPFtpMwMmDm8lAp98ZdBtNWyJMTclVTZVQtRcjKFhsLMW1RYiDISf6KNitrDAWZQZSyiZDKFjoeJdgHKBY5FWafQRsPhBI32UqOoJaKiZg5l8pNh4j0qvIDy3qdtFifAEf5OlQ8QFfdQ6EuYOCZIuewslHdIAW2S3xoOMZMqJyMK0nZR6CGY+JAKA1DRg7TJQDhFk/3UWO5H5N1OqdNhrCMVfkxARdU20BZf+uAY11HlOkRcyhYKlaTD2EwqnISDXUw75BwCB5lNje0ZiLSbKPUZjB1PhXdg5Eva4Ho4SbMcajyGCEtcT6mrYexzyh1oCiPtS2nZTDjLTdQoPASRdR2limrB0ElUGAFjz9Cq7EZwFt9caryLiMrcSamPYOwryq1LhbHM3bToSjhNizxqdEckPU+xvjB0EhUugJkbac0COM8AanznQ+R0DlAqPx2GplNuHkz5f6YVwY5wHt9X1OiPiPEvpdh7MNQiQLluMHcRrXgdTnTYASpsTkOk3Eq5PjA0lnIzEMoS6h1oAkcaRI0HESH191EstxqMpO+jWPAohHIa9R6EM/kXUuFAE0TGPyn3JgwNoNxbCO0Lam1Jg0O1LqDCFETEACqcDyO+XylW0hKhdaXWTXCsh6gQ7IwIOK6IcpuTYORsyr2IynxInUBdOFa1DVT4GvarsZYKw2DoM4oVNEZljgxQZREcrA81LoPt3qFCbi0YaUO5MajcG1QZBiebS4UNqbDZTdR4GoZeoNj+OqjcocXUaAsna1dChWGwV6cCKpS2gJHMAxS7H+F4jgpr4WxPUWFXGuzUaic1psHQUIrtzEA4GuZT7ik4W80dVBgKGzVcT5WuMJKwgWK3IzxPUK4nHO4aKuxMg21qrqDKQhjqQ7GNKQhP7X0U6wuH831Lhbtgl9SvqHMhDC2g2HUI1wiKLYTTdQ5Sbmd12CNhOnXW+mGkA8V+TUS40ndQ7Cg43SQq3AlbJL5BpVth6HWKXYrwDaLYC3C6evsot6M6bFD9Eyr9ngIjDYoo9YMP4UvZQKncGnC6wVQYAutqf02tPjA0jGJnQeJqit0Kp0v8iXLbq8OqpquotRDGfqTUAogk/EKpn+B4PalwByxqu4lawc4w1J5i3SHTh2J/g+NNo9z2arCkxx6qTYGxxyg1B0K+Hyk1FY7XLJ9yt8MC/32lVMtvCkO+Pyh1GqT6UaowHY53H+W2VYNa/Tm04BEYO5FSyyCWtJFSveF4qesoNxhaPbfRgm3pMPY8pa6A3B2Ueg3O14tyW1Oh4n8wQCuug7Gk3RT6IxFy6XsptDsBzvcZ5QZBo91CWrLCD2PnUWogNEZR6m9wviOKKbY1FWJpY0poSWlXmHiVQnvSoNGgkEJj4QJjKDcQUr030aKHYcK3nUIPQ+clCq2BC2Rso9iWVIgcNotWLU2CieMoVFAPOocHKdQWLtCfcrdBoP7oAlpV0BZmRlBoIrQ+otBwuIDva4ptTkG4mj1TQOsGw9QiCh0HrbMptABu0IlyAxCeVpOKaYMvfDBTu5Qy30PNv5Ey+Ylwg/cptjkFYej4doB22NcMpi6j0I3QG0mhY+EGbQMUuxWVaTLsZ9qkH8y9Rpm8DOg1KaXMjXCF1ym2KRmhpPWfE6Bd3kMI2ynzEqyYQZlJcIVDiyl2M0w1uOyNPNpnSxbMNaNQZ1hxPmV+gjs8R7GNyTBS56J//Exb5XdECBdQZjksSdhMkUA6XKFRPsVuQgV1u183flmQNgtejFAeoMwAWPMIZXrAHcZQbGMy/sWX1qDlsSf2Gjr56z2MiPsQ0ocUCTaCNcdQZijcoU4Oxbb+8cfWnCAj602EtpEi38OqDRR5Dy7xAB1pcSpCyqLMSFj1DEVWwSVq7KYDbaiP0E6jzLGw6jSK5MEt7qTz5B6FSgyhyCZYlrSfIplwiWpb6DSB81CZ0RR5Hta9TZGj4RaD6DSDUalJFDkf1l1FkXPhFmm76SzDULnpFGkJ6zpT5Ga4xgN0lKEIw3xKlCTCutoUeQyuUecAHeQuhONnSqyBHfZSYgrc42k6x50Iy3ZKzIQdvqfEfLhHsxI6xRCEp5gSz8AO0yixDi7yOh3iDoSpgBITYYePKLEGLnJkkI5wO8K1mxIfww7fU+JbuMkMOsFghG0DJZbBDtsoMQtu0p2xl38pwvczJXbABgkBSrwJV1nIWNvcEQJLKBFMgnWNKfIMXOU8xtiSRpD4kiJNYV0nijwIV/GtZkxNTYXIDIp0hXW9KDII7nIHYyg4AkJvUWQorBtHkf5wl9oFjJm8iyD1GEW+hnXrKHIuXOYNxsrGYyB2HUWC9WFVe8p0g8ucwBiZVR9yPSlzPay6jzJHwG1+Yizk3giN5pT5BFYtpUhxKhzG16TTeTfc2RGmbmMMzD8UKv5iihSmw5qmlFkKhzlrGf9j44STYKzmAUZb4Z1+KP1Gmathzd2UeR6O0n0+//J8EgxNZpQtbQe1WZT5IwVWZGZT5mo4yV0sZ14WjHRhVJU8mAS9Jyk0BFaMoVA7OMi5AZa3vhWMLGMUreoIK3pRaE8t6DUroEyuH87RLocVfQIjNzFqsm9PhiVZlHoceq9SaB6cI+l3Hqw7DNQpYXQUj68Nq1ZRqKAJtNoHKDQaznEaDSyAkbmMin+2hHUTKTXdB52kBZTqA+d4jkbOhIFbGAXfnQg79KPYw9CZSLFmcAzfFhp5AQYaBRlpG/v6YItDKHcZNAZRbDucoxMNrYCRRYys3fekwi4bKJbfCXJnlFLsRThHDxoKZMDAEEbSLzdVg33GUW5LI0gdsY9yJ8I52tBYTxhowciZc7YPdupKhR/qQeaQNZTb4INz1KGxe2HkB0ZG4eT2sJlvAxX+OAoS3XdS4TE4iK+Ehj6GkRGMhJ0P1of9xlAj9wKE75oiahwJJ1lPQ7thpC1tF5h3TSoioRNVgncjTP6xVFkOR3mbxlrByK+0VWDerQ0QKeuoM6UGwlF3JnXugqPcRmP9YWQS7RP4akADRNAoKu0alIzKVB+xnzqBJnCUDjT2HIxcT5sE5g9oiMhqXkqtdZf7EErCDVup9SWcJTGPhpbBSHva4bdXrmuIyHuHektPhSnfhb9Q71o4zBc0VJoGA/4cWlP8zZMX1kN0dKEV68adlICDJZ3+3GZasDsDDvMIjR0LI3Opl/3J3X+rhihaRGt2v9IrDWXVvHTqPlpzF5zmbBo7HUYepcKub6c+eu3JzX2Ist60LLhrxaxJD998yS2PvvLZyj20bGs1OE1mkIauhJHzKLLj2SEXHp2BGElYR6e5Fc6zmoZuh5F6FPkGMTWADvNHMpxnDg2NgqF1lFiLmEpaQ2e5Gg70Jg29DEPTKLEPsdWbjrI6AQ40joY+hKGnKZKI2FpIJ7kUTjSchr6GoXsp0gCx1ZUOstwHJ7qGhtbC0A0UORIx9jad4zw40jk0tB+GelHkJMRYiyI6xbtwpk40lgIj3SjSG7F2Lx1ic204UzMaawIjrShyI2It4Rs6QvA0OFQqjbWDkZoUuRcx1zqfTjAeTpVCY4fCUBElnkLs3UYH+CkVTlWbxurC0G5KvIzY881lzBUdA8dqSmOpMFRAiQlwgGb7GWtD4VxtaKgEhhIp8hicoHeQsTXPD+fqSEPZMFSLIiPgCCMZU3ubw8FOoqENMNSUIoPhCL5pjKH8v8HJzqahn2CoLUWuhzNU/4ExU3IuHO0SGloMQ50pcgUcoul2xkjwSjjb1TQ0G4ZOocj5cIpuhYyN2+BwI2jofRjqRZFT4BhnFjIWHoDTvUNDr8JQP4p0hXOcVcjoewaO9wsNTYChWyjSHg5yThGjbYoPTpdaSkMDYGgoRVrASc4tYnTNSITjdaCx7jA0hiL14CjnFTGaXkiC811NQ8EMGPqIImlwlp7ZjJqSW+EGT9HQWhj7jRIlPjhM6zWMkj094Qpzaeh9GEoqocTvcJza8xgVqw6DO+yioftgqA1F5sB5kiYzCj6uAXdoTWPnwVAvirwIJxpaykgb7YdLDKOxpjA0nCLD4EjdfmdEFfSDa3xLQ3tg7BWKXAxnSn+ZETSnFVyjcZCGvoCxxRTpAKe6YCcjZOtlcJEBNDYOxrIpkgnHqj+DkRB4pgbcZC6N9YehehTZCye7eD1t910HuErtEhoKNIChv1FkKRwt9e4c2mrfrX64y99pbAGM3U2RaXC4BpMCtM8HDeA2H9LYYBibQ5En4HjHfk7b3AO3aV5CY81gKCWfIjfCBTq8VUJ7fAm3mUBjS2DsJMqcBldoNi6HdihKg7tkHaCxYTD2IGWawyVq3vUHbXAO3OUhmmgJYwsosh3u4Tvhme206mm4Sno2ja2AsbRiinwAV0k49eVsWrIKrnIHTdwPY2dQZjjcJvms0d+UUK8JXCR5M020g7EnKNMDbpR26kPzCqhzDVzkappYDRPfUaQ0DW6VclTv4ZPmb6PU23CP6r/TxEgYqxWgyDK4XcZVlNmdCNd4kiYOZMHYVZR5Hq6Xkk+Zc+EWnUppYhxMzKXMVXC/TykzDS6R9CNNFDWGsSYByhwO97uDMoWZcIf7aeZFmBhOmWwf3K8dhW6GK7QtoonSQ2HiZ8rMQjzYQplv4Ab+xTQzBSY6UOh+xINXKHQ4XGAQzQTbwcR4Cp2OeHA5hUbB+brk08x0mEjcQZn86ogHdYOU2eSH0zXfTlOdYOJcCn2A+LCUQqfC4WqspKnZMPMOhf6O+PAYhT6CsyV8SnPdYaJ2AWVK6yA+nEyh4JFwtOdobiLMjKTQPMSJ5DwKvQ4nG0xzm2vCRMYeCg1GvPiEQiXN4VznBmjuHJgZSqlDEC8GUWoCHOuQXJqbAjPVtlNoOeLGEZQ6kAWnmk1zO+rAzABKPYD4sYZSD8GhrmEIfWAmaSOljkH8uIdS2elwpEZ7ae59mLqWUusRRxqVUmoIHGkEze2pDzMJayg1HvFkBqV2Z8KJ3qO5/jB1BcV6IJ70otgEONEampoJU/6VlNrgRzxJ3E6pkrZwnowgzaytC1M3UmwE4stois2G87SjmT2tYSprD6VKGiK+HE65C+A4KcU0Vtgd5iZR7H3Em4UUW5sCx/mBhoKXwVy3IMVOQ7y5mnLD4Dgv0dBwmEtYTrG1PsSbtByK5TaE01xPIxMRwkDKDUX8mUi5qXCa1NU82KxEmGuwn2JFdRF/ulDhUjhNl1JWtDwDIbxJubcQj36iXHYjOM1jrGBTY4TQgwonIR7dToVP4TQpi1nOuvYIofovlFuFuJSVT4VbEAvJTZrCTOKIIv5lYjpCmUyFQYhP46hwoDWiKvPMBz9dvZfkyoeOg4kjv+f/bD0bIfWjwoFMxKf6B6jwTQKixH/UDa/8EuRfVh8JY752N76x/tc3bz+xOkI6Io8KoxGvxlDjPkSUv3bLzmf1vW3khLk5rCjnPFhR7Ucq5GYhXtXNo0JJd0RG2gkDX1uZHWAIgWGwYCI1HkX8eowaO5sjApIeKGYYekPtcmrsz0T8qpNDjeVpsN2RPzAsqxOg1CqHGg8gnj1Clfd9sNl1RQzTtdBJWUaN7JqIZ5n7qfIQ7NW+iOHalAqVyVQZgfj2IHUugZ0SlzJ8PaExiiq7MxDfau6lyoHjYKP7KXAFFAZRZxji3X3U2dQQtqlRTIEhkOsbpMqONMS7Gnuo83Nd2KUHJcZA7Mxi6tyB+HcPlVbUhk2GUGIypLrmUWdrNcS/9F1U+r4W7DGVEjdAqM0eKl2OquBaan2TAVv8QoFAfcg03Uil2agavqTWgjTY4SsKLIRM/VVUKmyJqqFVAbW+qAYbjKPAEIgcupZa96OqGE61z6rDur4M37LqkDhmO7V+TUFVkbicakvqw7IjGLYdzSDRYz/VeqLq6FhKtfVtYJV/JcNU1B0SvQupNgVVyVjq7e0Bq44rYVg29oLETQGq7a2HqqT6OuoV9YNVDzEMu25PgcRIWnAjqpbTacX9sChpOSuRN+/uDEj4n6MFi32oYl6nFa8mwZq679NU8JdXbzomATJZM2lB6dGoaurspBWLD4FFfbNpYM+skWdkQq77ZlrxKKqeK2jJ3t6wqNHYBbn8r9Jdq7+e8dpTI/q19kHDN7yEVixKRBU0i9Y8lwqr/G2uuPyMjofW9MGSrFm0JLsZqqJme2jNisPhCCdupjW9UDWdEaA1eVch9nx3l9KaCaiq7qVVr9dEjNX7lBb9kIKqyvcBrdp2OWLJf3M2LcpphaqrxmpaNqcVYqbTd7SsL6qytrm0rPCBFMRE5vMBWjYZVVsf2mDNaYg+39W7aN2q6qjinqAdpjZGlB29iDbIb4+qLuFz2qHw6YaIorpPl9IOfeHJ2kBb5I+thyhp9NQB2uJeeICOhbTHgdFZiIJDni+kPV6C59+uoV1yR9VGhB3+agltMisRnv94nrbJebY9IuiodwK0y7J0eP4r4T3aaFG/VESE//QPg7TNxkbw/Cl5Ju20Z2xr2K79mC200b528Pyl2pe0VXDuxdVgowZ3LKetinvCU1b6Ytos7/1+mbBFtctnldJm/eApr9Yy2q7k81ubwKL6l72aQ9uNgKeiuqsYAcEl9xyXCKXMXhN+YiQ8A8/BGv3OyDjw1RO9GkAo7czR3wcYGWPhMXLIJkbO+qkDO9dAOPwtzhj47KJiRsyj8Bg7fAcja9c3bz50VfdGPhjL7HrVqPdWFjCy7oPHzFF7GA35Py/8dNrkCY8OH3BV7ytuvOuh8ZOmffr1yj/2MRrugsdcpxzGt+Bt8ITSZQfjWeB6eEJrsYrxq7Q/PJWp9QXjVcml8FQu6RXGp8Je8IRlRJBxaGsXeMJ0eSHjzneN4Qlb992MM2+mwiPQ8jfGk8BweGTqzGf8yDkPHqmUNxkv1raDR+HuEsaFubXhUen0G+PAPxLhUUqbSLfLvRoeC3rtoqvNbwGPJQ0/pXsV3umHxyLfwAK61A/t4LFBuxV0o9KHk+CxRcrYIF1ndWd4bHPKZrpLcEI1eGxUe3KQLrLxFHhs1mE+3aJodA147HfxerrCPw+DJyJS78ml4y3rAU/ENJwcpKNtv84PTyR1mE/nKnw8A55Iu3g9Heq9Q+GJgtR7culAP5wET5TUH5VNh/nqHB880ZM2cD2dI/BeF3iiLOHS7+gMBS+0gicWTpoRZMxlP1IPnlhp83IhY2rDoDR4Yqn+I3sYM9/2TYQn1tJuW8FYWP/w4fA4wxEjVzG69k480QePg7R/ZA2jpfiD3inwOM5xo/9gFCy+pQ48DtX1qc2MpOL5I1rC42S+E//xKyNj5VPnpMPjAvUuHLekhLba/GrfBvC4SFrPkXNyaYv9Hw44Ah4XSugw6L3ttCD4+0ej+h6TCI+Ltbx8xOSvNgUptGHm6Ks6VocnTqQccfZtT330Uz4rVbDxs3HXds2AJx75Gnbvf+eIR8c+O/mt6bPmfbP81w07c/ZvWP7l9Mlj7xvQ95xubRqkwuPxeDwej8fj8XiqoP8DAji3hnWOSy0AAAAASUVORK5CYII=;" parent="1" vertex="1">
          <mxGeometry x="1030.75" y="450" width="28.5" height="28.5" as="geometry" />
        </mxCell>
        <mxCell id="IZlDyetnFrTAtIApsN1v-34" value="Humidity" style="text;html=1;align=center;verticalAlign=middle;resizable=0;points=[];autosize=1;strokeColor=none;fillColor=none;" parent="1" vertex="1">
          <mxGeometry x="1060" y="448" width="70" height="30" as="geometry" />
        </mxCell>
        <mxCell id="IZlDyetnFrTAtIApsN1v-35" value="" style="shape=image;verticalLabelPosition=bottom;labelBackgroundColor=default;verticalAlign=top;aspect=fixed;imageAspect=0;image=data:image/png,iVBORw0KGgoAAAANSUhEUgAAAOEAAADhCAMAAAAJbSJIAAAAb1BMVEX///8AAADr6+s3NzdcXFzZ2dmlpaWbm5v09PRra2vPz8+YmJj6+vo7OzvExMSenp7i4uLa2tpycnJGRka6urp7e3uwsLDNzc1UVFRiYmIeHh4uLi4NDQ3g4OCSkpKGhoYZGRlJSUmKioowMDATExNEvFfMAAAFr0lEQVR4nO2d2WKqMBRFBUERwaLiXG172///xiuSQBgqYQg5sXs9qUA8i4RMSJxMAAAAAFpYKbrDUAgMzQeG5gND84Gh+cDQfGBoPjA0HxiaDwzNB4bm46XoDgMAAIAqYt0BlBg8no01HzrJXiyt3bAJbu49EUqKy3s8gypuHp0tOorzRzwDKm5Yf/JtuCR7MWfxDKYYWxwaubjM4hmsulmSUlQSTZ6o/oI6V3O66eSiskgUnbnWKCxNA5w7L1q7vu+766jzGFhpWep39vzZKTxnKZzD08zvkIriktQ5eS92rDqcfcu8VF7hdSsih0WtXsrioPz7W9HhK+LtE7+E7V7ht7cn/xJbav/DpcEv4bKSSisaQzC/FtcyO9tHCb+EYySTnMv2VtzpSHPRldl1VjF5D4/OyTmG75UtM5kEffU5mLCUFAxOpXxarmwvSDd59mpZyt9TIJGmP4ZgoihTRK9nMX4nrgoExTbkLFNS3XF6VDKVzEGI/fP22xH27VPYT6bhkLpgx2AlBH7jzXp0eNstnOKQzrsJe8rVqSQQBB2Wf4ePS32dYp8MVPTzmNMc8/IOX02tmU8hWF36qhrIm+bt47Lx/ok1Sk27EOX9HjLX2TOCKQ83bQHiH6vBUGhZpjKNhm6yjvYieeeVhxX1bXvxINrseayb5J1vlfmlz8UnLC3pjrguvKyIJu9WBbnL4rZf/dY2ZgWV+j1wHuh3ckEJtaR1nkdPr7Hg24xymvVlkqwScjBsbupsvm+bQfH4fAlXk5v5vUtdXPwK/lIcYy94rjn3117W5zzKDZcnvNql3LXhQ6LrRGgANrJHX/kZURhhT9YsxI+JUMu0uEH0wQ6RmkHQwi6v8INz2xyc5JXNwLd3B0QIkPe1t60S4KdITXj94fVM0n0WWw15eKedal2zyWt7PgslNcMk8NW+aI+JMMYN05eXtkmwM/OtILoB4JW9nVeqrbvRvK65qgiwN3Fet7C58XP70R4bDFP7fVLKR16THvN2sSW7zkeOwCkrmR6b1O4w7cI6p6fhw+tPwGoXN6v0PzsM9dwuzehIeD9ZaxjnzUZb2Mn5oTgOtvOMm3dv1fiIpF1PYRzsvAlk04fLLslcyBsmjfWuW4fmwTd5w+n9pbt60CnKqRGGfYChRmAoCQw1AkNJYKgRGEoCQ43AUBIYagSGksBQIzCUBIYagaEkMNQIdUOrjla3RzQaerXRl3aCYTN/1zCeMfi9+WgmULlhb5yhLTyfN32kV3rg61JyMc6w8HxXcsv0rfwlpVv2xhkWE7SrguVIlBn2R8ZwV30mcQjDkZAxlDjXMNTIU8NZ8ZHu3dud2UsZCj/ct7IfabyW4UR4/ulW3iZirqFbEXw1wywTbzXbBAw2XJcFX84w/bXbsn5bjsmGE3c5X/+2LcNowzIwpAYMq8CQGjCsAkNqwLAKDKkBwyowpAYMq5hmyG4ehMVPWxuypxjJPZ232m3ZyX8PpyLMovhhCnOxih+yx0+n2x2lh/KzlZMGhsqKSt6pOdaOnEgU1qBpldk+bCmsbqYuBxMIPNQdN0fZC/1rD4TNQfYibA5BLdkNl1lkD0mU3fCXWtFXIXx16OGXdORr1ej+qwK2Js0/BUmzZ951r1XDVvRSsYocW7JI9xp8zFDF0qo+DMcBhj2A4UjAsAe0DFWMVfc0DNkCXyrWdWLjTt3LfvG1EhdDT47ZfP1T3dM1XrYe+dEZkuzvL/SvicVXVVWFij59OwLFhgQmaqrLrg8JiX9LWDXH2Rnd1QwjUjWfGNL5M4iVc26OtyVnh0gGMryrWwsLN6rZxCdi6g+8am8lJGEWrbeZAwxhSB8YwpA+MIQhfWAIQ/rAEIb0gSEM6QNDGNIHhjCkDwxhSB8YGm8YWOeEn9qNL2H4FBiaDwzNB4bmA0PzgaH5wNB8/owhgV8BAwAA+Ov8Bx/XOuMwTqzoAAAAAElFTkSuQmCC;" parent="1" vertex="1">
          <mxGeometry x="1170" y="360" width="30" height="30" as="geometry" />
        </mxCell>
        <mxCell id="IZlDyetnFrTAtIApsN1v-36" value="LEDs" style="text;html=1;align=center;verticalAlign=middle;resizable=0;points=[];autosize=1;strokeColor=none;fillColor=none;" parent="1" vertex="1">
          <mxGeometry x="1204.25" y="362.5" width="50" height="30" as="geometry" />
        </mxCell>
        <mxCell id="IZlDyetnFrTAtIApsN1v-37" value="" style="shape=image;verticalLabelPosition=bottom;labelBackgroundColor=default;verticalAlign=top;aspect=fixed;imageAspect=0;image=data:image/png,iVBORw0KGgoAAAANSUhEUgAAAOEAAADhCAMAAAAJbSJIAAAAilBMVEX///8AAAD8/Pz5+fnQ0NDu7u739/fo6OjCwsL09PR2dnavr6/g4OCzs7MoKCgwMDC6urqVlZU1NTXGxsbV1dU/Pz+BgYHNzc2enp6pqal7e3siIiJra2tcXFxXV1dNTU0bGxtiYmKZmZmNjY0dHR1HR0cNDQ07OzsVFRVnZ2eGhoYLCwssLCxwcHC9vQ68AAAShklEQVR4nO1d6XbqOAyGhJAASdn3rRQotLTv/3rTVrLjBC+y49A75/Q7Z35Mb0gsW7tludH4wx/+8Ic//B8Qt5LesXvYT6eX/jdG0/N+2z0uk1b820OriiDNhttTU4frdthLg98eqAs6cTabamkTMZ0t085vD9kGk97miUwdw9NbL/3tgdMwntlTx7BejX97+Aa0k09n6hg2g/Zvk6FCMO8qBj3abmYvvaQ1+UL69V+rlSyPq82uL3/81p3/i7onHsrGe54txnEUKn7TjuLxYnWRzcnLv2ZI5tu7QT7NMqrmSLPu893vt61aR2yFMPsoL8EqiSxfEifdUfktmWrxH4v2oqQ7d0tXrZ8udsVXrZf/AI2La2FM+57t4hURLYt+wnXhaZyuWBSG019UIw8QlZhi6eGdrhgU5O/Tn2oYb8QXPw28vdgOk70wilcvy5cjGr6Koj3x+nIawpkwgo/Mv4kOemJUsnq4yhkIX7/UxUUD0X48llWjg0BfUuOHMoHG7QPdnN6Nf/bWq/lbS2EZs5q/xRAKHtqwfhc5fBeW8SFhxzxXcm+P4ZtUmNJ5/Z8b8o+t6xTAIga5WAxr/lSQO47dR8Zw7dwF2NVqNyb8O0+Pjm3G3DreajT/Wb6Aj/f5O7mFqk2nDuv/hBa54ahJGHkWZvRbGYaUBx3dGt6eW8E63k5E8FafvmnzfNFvhmuNxgsbxsUziR3uH/52fmjMBtL3ug0QMQF49hsFuiDlHofHsUTMFu3/he2TaOqdxA5bwQPNjenE34ntNK7L6Wkzx2rtacJDJoNv5mfjwfv+iWXfnvvbl3Et0QAjse/l7SHToivDg8FcTGxw9F9q2DQ7+NSoOxqB6ftaRt8Pzkvv8sv2uHbVX8U8Gb2dbx0UxCFe330rYWb7K/sfzBfd6B5KdyrKBBw9Kx6Wy6zoo7Jo4qB5JjyWibl+jC6jp1vpr6+eI2Y2rZXCABYP7jTzPynsG466y0kafam44MtmjF82hV2NT6+eVpvZxQqaLMRXrDVKWcyFjRZ3NjCciCv84VWtRvjWm/vEMT7QaAnBQKxUw0+E9L9XTmUOnLNCZVpG42wf+NC1yrKV0+g1v8rccEdtM8efa8IlTuDOxH55tswriSyYckoyhjgmjcHhpSWEmLHNI2ivjPpWQRRxRFP1E0yHrGn6g++m+syVBRgV6MyZAj0cjjonw7afzlR3hf3g5tMbZ9rG2ioyTaze02JPTOnjZYphazsaHZi5snULUYdo3G1Ujx82EsBW0Wuu5+DEp+itPamHj1z8apdZZLLoMx/ZeTaxmwTMmVFbwg66Y7a1hKj7tI68LRjz23DTCn4yUz+B3sC77WjaxrlzwMY43DLQ4V6r/e0OPmE/Gpzwi/0v1eig6aabIVQiGtM8dOPRbxzcf6oEarC95fO6xBNMmpPHm1qOhoStcU0K+DDqO2Q1ty3nlS1LEYDT9kF7GjW6zl8H0T67jSaG9/vd4MFyBpqhhWevmrC+c7J43T1gfm5e82/MvlGexSXU+XkTIxtr0YKf+y1yQueNUKzZvpq1+bEKk34BMqsO4YAGAWTmr2azvyBM8IE6Xfpv+E0vZsRFDCHe0kSFX8t8qqBJvxHb6XYiYBE1rjQgIyxhRBdqBc4/L7DwsijIzArkG2ALn7TPQALntcJgQJAdfD4tgLVG+ofmFDUHaqvKnkirmjJWAAM6vfRsjbawwRJc1mGFgAiq/zwf40KbqNXRqAJe9G86Uh7SA3x734U/QzNr4COGlMesorHgr/Car2lwFaiZuAA2WT4NL1pVpxDCF4sgcbLqEnga/MG+WsjmFFFlFFbKJoGqeSXnx36CGfOZBIx51AkE2O/tm94Dfvwm62VJKw6dPBMUePJWFAZ0xpJI8FeUYQvmUIzsl9co/uDcHY6tK0ueDZNdRF7XavCD0B9UpXATkp4pH3YCXD4HVilZKPCg7tIIe5Ar7VxG+nmgxrW9MnlsMS3OC4LhJZqLUDzq9aGdSdgXVunKJnFeJ00lutTcBJgLomeaFT+i41QME+X/OCYyKc/7SLGjOSrA6cRMBuiZvPJBoymQTeWDgGmluJvh8LzbrFarzXZaPF/5gz1lHYHTaalvXJcsP2ul8Rh3GuZ4Ms2PHNF4+VnqffFpTsFk5Olk2efb16f4Zrl6xwiYQxocoXS5VUvEg2KfCGMOBtaDlDQ9wCt/9MPRSGKqJgP4xj3bHhYaDph0CFgmSqoHeXQUCL/TfAA9T5nHBbtClbKYkeALnPWcSqYQQ0muQHmJsEqcYJ4lCXssk62aO+GV5s1XKb8HAbh5YyKFjKDcwvF6XoUkwNx93Ls1+KrKJYRRzqslEuPkuJmerrenfXfYymhyyAi8CZ5MR1/tpXR5QQx9pE54Nb24itFSPBfNYNKlE3YSsODARli0rIiSwIDdOy5gDU11wCR0GDEnxhHRSkKeXFpEcANY0husSEI+WqjyuddEsPSeDjSxajfIe4WlYIRKIT88eue+MuaVRrIgAHciHqi41w1M4Xyr5km5o4eAnVrjTnj7CIlhQE9VyqdIfvmf8M9VqCqALdtAGYkAnhUuXpAHTFLLh/pMajLki6VYWncgo66F8szbYZmkcToZLM4CjVL7JEyLPKfHqr1kPACxZ1ngYM6r5EDLKNd+H0R/v5PllcV3JLaXQtm/yv9DjS2LMFfSf9mqF90RHbGxxX0WKci4I1v8p3Qo0DdSKwYM4ST/As532RJBdOA1CT3PByp1EwNWvHnNWS3MCmZzpklZpMo1huV9Lv0VHve7kcDLT2+KlWDSBtMdxCWvYKQPNCHpItkHjGWrC3/0u7XODfNaOXEsUuhFk8VnqRnTsykhq9zeiWT/AE97PpfJ8jkaI6s2JS/m2Vbl69qQ9Si6AzCZnvcRkOe0qS15E7sTqQMWmEzJVhOo8aKOtkmbUIFLaChIkDRZ3BJDOGC8/v1kgIQWDSJMh99tZ1Q0hngsKZG3W5LVXagSRJlB7Er+VhH4faMTIXqt3cwqPoWf3mtcWK9iuuJglhhbjFUzXAI60dPZwNpWbRSjXkrEA5SCV4NPTb/ifpBLSe1RwXmyRN7U+StKwKQRdhlB8x0dPrFUyAGooGIYMVVwtDswYUSYNBinix7XU1j0di7eKUTXieAlJZLx0LBQUAh2qpj67ddE4ZXwJLjQhgoXKd4VcggUFkqHAu8UdkDR6IurAOhGOniMW4WoA4XF3XrPFPLc0zPh4bYzhSpRRwoLXOGXwvzkLIVLY1cuxcW/d+zrXsOWmIUhjLslmXESwKeQ5O8lcqj0f+wRFJO/hPQkODUOFcOgaCQ+hUyXerOH82YRhGJu8IntvX71PhpQWLQ/Z4XMWkJsagqJKFMFWYOV1thn29HxlSyLzKcBF6vq1lqaNx9/ToD5TkaT71xrCmOW2SPwIYp+KViWirGFkJI4cqfGuDafEpaiAANLWcK4J5HsrvJpOnIVs/tZEJhjU5UcJgXtM7VYfCIzo7BrUowPq8f47TzHjbI/KPyfCm+OTIr7GtKgXRbju/v3iIhn6S98sPgHbdiOvEZQSEVgEugqFXNZngY+5F6cnvLKISHOQ7nUiRgKq/UShliOKdccoFWKerNivjTlFVkF+4c7gOp9UNYHznpHCHlbXgeArbuKti8mMJQabCWa/aILwypFVCTGmIXSdYeRgjn2co9JmvOutG8RMRbdl0fKtjkv0qlrsZW3PV/EzJJCAUv3LbCAwSkVxQtcJEvFFey9Ro14H0tbS8EIVLmy4OycSn+tsH/INoxk5VQh34y/FC/IifLSIlshZLGZsjUkJDfKWxTA2S4GcaYhUCjv+ZK2bgJSEEyyA/+rdYELL+xQhi0worKlhJV3SAexmheVNgkLu92v1/6o1Lnu1cqTCnhTaHWYAGFE2V10rcVgalRjSu+and1hQd63nPCNHI3KkC+xaz0N7qZr26W2jBewXYc0O5ULryYMUtTTONZEsRpzw8wsmzIUKolW5vB7nP9AZ19gTPcC51TXxs6Imycmu1vHt3nhEokvgntaZhWuRLlqJxT87nulCaqGkt8UgJVnhMamhTMMz+duAtQUslZfFi5T+Byh2PNtqxfbtWLSXepL0T2iFTggpw4naSp+JCkt7v59XKYyHq/EnWKD0Ubddz9VLjXCuIS01MCrikmSuwvb1rtZbzBuTSbzJHt5K/5z3ySvECaNJEGEfZ03LiGtGA4DQekMtnRHVIowe10ghrJQ175WH/mO5swetK9P30nXQs4IQgQKV8ZXmoMKCoAEGU6HI3C91SmNMNnIaBJxpIQ+OjLWRDYovYvWwAOdO+0ahIM3CV2IEfGSOXC75Y1qgIHpVUPoAtMehpyhOXXfWm7vb4p8sriOD9xgebxCP7sGAIanhSOYWCCtd5C2lrPP7XnUH533b6thklqkALRn18jnDwGh9l3yD1tVBgZhYL8f1dMyFog6tUXV2GbQYCsou4kVAa6PyuZRzwEDrLpjyLLQdUDPpI32zUabWm2Kvdu8uQJAk6obDRHP4wP2NlJ7oCuaSugbeAW3N2nbiLK0qxL+63WkMBKA3aRomwgfNoMGb6L2O4ZAV+o8zxe6rglg0ERLDOnYum++Qz2jE3daf5ofhCcbCiF0qvuiL8oCQRhzoljaJxsKT/YG3x4BcIreNcS9FEpCyqoEZ/QIOcS0mGFIoPQo6ZqLjS7d2zzsCkKruQatXxsAnHhiH57VA+whBmimPAyl5x7AqnfH0KjkqgOYamTUIUvqIsJqE8NJcPm9nDJWgVYY8YXwSlxEbPVE048Tsng7A5ZQ092ZAzsImR1OkuZCYPeOGg1ijzrsBhv5zTgZMGnEGvsajjsUEEBcRGvmyJLTpufAgyD2KFjZTIcDhhZLyA9bmexzasOmEF177VMuAt1NWmaTayVjYozWoa8whBquYPvBoWknBTua7aR1WUTAJlO12kAlEuKacJj76v8A14VWS7EkGiEXBCdrDsFCSlPmaGPxYpyOWlzTrs1UA8z3W/wA15q0QYpsal2ESAAGRHa5SlQ2psbKRIH9QWYjtTYI15ZqBrAl8SnrokJJT2C1h+cG0A3Oo7bcEWFVncEDx4IoUl7YSvXSgbwhr6Ul/NBg9/EOAZKQo67xHGCwkiWHcwbIpwY3weZ+o661Tidg5Maj32ib7137xoxOYmzB0lTgrLnFZYS7877BqkUIATyaWU/NqL7BmsU6ZtNZnaO+hDdifWjMWhKjRH9ZxTl9duUg3GHZEIqdDI0EG3zKaS6CGUzLuJ+iYFcgGu6/zuu5DLZljnGZp51SpsirJEeYRd/rfZucRF3L7cmBPUW80seAgJW6VUo0U+4DbogHSpobBY1zoe7Jj6phE1bxxN0LjcSOUGM4va+iTIdil1o/iWFGYOWbBmn3cpdqnc/HJP6+9rgRdKJ0uSo04d352b1g4/KQ+iHerd4YlyvT+uf9fnp34bqn/insKKCPpkH8yIRpFdUNIHPMPJlCtoK667TpCFl5tTENomriyenzFVewIj9f19N1GKsdjDnreKisopwufNEXHPCVF283RkWMxL2ZydqJrH3X6OivDoM3gNUegbAEJ3FNWofJcvOcU3d5t+v+ZEDMxnLxumne4UcdyCfp4klrPG/Z1BWSwM40Nvd+LzVrhPyovde7fK3Bz6b4vQPzG/kJrfrr79TgMv7meQWLbx/VXtukQMwZqaZNrNyie4zSLZDf/lCbpOR3hRgv7fGPMLdCnq8VFJGfSn9yv/3QDS3u4arbofpAkJ8I7dYh68rv5v6g3wadEuTCeKqRWUpI8hCl/jrjxjy/0ebwGKUa5wdNnmovwv1GeOAfbA7rZ9VACMrq2JuTQrh/6ea1I6gEvbwt+PVxYlE43jqtsx5vcBEWsOby1BLE5riXumgcCOdLr/VVGykgtvVqrjP/8hhkYo7HZ8d/MiZit4TXF787n9GLEGE2t3XV4ZhQPMG78efmFK6Oao4ezqACiq0EPrykYqJFYeJe69bWJiyKd8ude9WIjHrFE/rr36bvC+GilF7bLVylJl2Urv0YLR/p/KoRZuW7ci6sFQ0dUdK9lN4yTf4N+n4wPzTLWHcz6lqmWfd09/tDzWcXrBEN708ofy3majGOI1W4HEZxsng/y37nLX3sE0FLfpXDlzjtNrPhMmm1JoBWK1kOZ5ud4iKoa/dfW74c7eRTPmgLdMePz5DYYUxrACHFx+w3jbsF0uWbTCgN1G16v+WbOSFMezOZCpFjOsviuo9f1oIgzYa7Zy1tp+0wS/8hs+eGeJ5kw+5hd55eRv1+f3SZnveH7vD7ZvbfHtof/vCHP/yBhP8AR0fV3dx8oqEAAAAASUVORK5CYII=;" parent="1" vertex="1">
          <mxGeometry x="1170" y="401.25" width="32.5" height="32.5" as="geometry" />
        </mxCell>
        <mxCell id="IZlDyetnFrTAtIApsN1v-39" value="Fan motor" style="text;html=1;align=center;verticalAlign=middle;resizable=0;points=[];autosize=1;strokeColor=none;fillColor=none;" parent="1" vertex="1">
          <mxGeometry x="1200" y="405" width="80" height="30" as="geometry" />
        </mxCell>
        <mxCell id="IZlDyetnFrTAtIApsN1v-40" value="" style="shape=image;verticalLabelPosition=bottom;labelBackgroundColor=default;verticalAlign=top;aspect=fixed;imageAspect=0;image=data:image/png,iVBORw0KGgoAAAANSUhEUgAAAMgAAADICAMAAACahl6sAAAAflBMVEX///8AAADLy8sQEBAUFBSioqIzMzOmpqafn58LCwtjY2PX19fPz8/5+fmbm5sODg5NTU04ODh1dXWtra1sbGzl5eXDw8NTU1Ps7OweHh709PTd3d2MjIwnJydJSUmBgYFBQUG5ubmKiop5eXldXV0jIyO8vLyUlJRwcHA9PT0dV1uxAAAFa0lEQVR4nO2d6XaqOgBGtVgUxKlWHHFW7Pu/4K0mYUwgAYK5Pd/+4SokYWVLZojtdAAAAAAAAAAAAAAAAAAAAAAAQI7h1OkaiTMdKnlM3p1hMRMVk+m7c1vEVEHE0HJFcBRE3p3XYiBiGv+yiEKSFoAIRDQBEYhoAiIQ0QRE/oAInVipTGFaoIIIneouteWpEhVEyOKDpbRgoZ8qBX44dZylusfmdJnat5u9//5cCCN5obufzfbu2R+pXb21mntfJhctZuMNJ87w0YujTFxP5fotifizbobeLvuVb5fZOCrrbRIio0fpitzkUVgQRt+8RMFHKs6BE8XZNSnyKNN48ii4wMoWJEpkc5G7ZYSrbFWREJFaIZ0UeATCVC6L4/VEUfaSJhIiMh4FFxhF98NZ7k6+Pz8c41S0M/qIv6zZpX+/z8/7qGm4miLiMo3Dip1aHKKMfz+PPYvFuUQN8yqKM1ASKWjq6oncabid6jtWUfUPfw/W9O9lKs6C3jlL3OtwcmmJTeqJ0IJ1zPYbc3oXHK/DilqYiTKi7fG3jEhUFMUmtUROJHS9yoWw+h3QdteZ56KMfkhIPnGefZQToUktEfqlnjhBw3RL1aenV2EYso5w63BvFY+P+EoikzoiI5KTH26gn0x/SeZozA5IVTpKiHTmCZNt4yL0exrzQ89xcnuUTBLF916BjlRfkjDhTzHqiIxJoKjdiXuUuDSkRDqk+MmNuWIT/qSvjsjlFUa7/YEbQYM9lpqdWNr2cxywtm3aD5I6zKtihSaNi5AyfiMHbj42O8UKdTwqs8mJ6+vgU06kM9AmQjIaCEVCcmixXkYgIte5J5quxkXIyLlHDg52BA1esbHJgZ64ZosWqUX5LqZtkR0J5E0Hn0T3aBL3eenKTkYvH7zErYqcSKCgsvbj5HGDmRIZklCZrl2vyIoEutxALzmLj/KeEiGtXiDpoVGkQyZ+Dq+r3a6T6R2fnt54nsfuwIKofhkgQpslzisibKjl0EnuhFMR6Fqg9HKKRpENbZcO2QA2jO+OF9Rokmub6GrBUdZDpwhrtzKTilXUXrlRi/D7d6pSb9jykGybpVckmrIHcdOVmOoen+PBkB1Zh2hUtgnZKF9qXqVfpLNlZah7++p7Q29++IlT/ZAeJrGmdTz0ff+0i9clbVEnpCwitRxkia/ui1/wmrJMnoVR1lIzdikRqQW6ohbStwSJLnGcucA2UPEoEZFYMrW+Cqc+W+4y4u2ejDPkxlkqlKtSkSYIcyuJvXPWfZyLs+5zLyZGv8hvI5RaAJ6FnK96NE7FsceKj0iURZ4PetTesH2xHbvHYL0O9g/xg55teLV7jtOzl7sqT8TURMijN6U3bNtCTYQOgFTesG0LNREzH0+/UBPR3zJUBiKmARHTgIhpQMQ0IGIaEDENiJgGRCoxsKzPpj/fImK9Hio2+/kWEZK22U+IoLLrpT2RgWhhvia05WpPRJMHa7naE9HlQXMDEYg0SnDa/AmRYPO87h8QOXUqitR5rKBDZFNVpM6uN6NE6ux60yEyrypSddebLpFgVVWkBjpEusG8WvNrnEicdVmRkpc5Sva+GSRS+npN0d43k0TK9yOWiRgyjC+/XpnIp3CbXk2PfssimoFIJRESr9lPiNQRMWDJtBmRz96zjWn28y0iGoEIRDQBEYhoAiL/V5HyXQutZFdMY1Nd6X12mmho8aFkF0kLtLccpJnxHxEp2Zifo+L+Ee2U/VRCFrqIzf+lizdS+uMVWYz+3fgXPbkv2ejfjX/Sk9yk/O58liHrYbqItIfhRUvew+zKruBh9L/tUPEw+R+pLI3r3AAAAAAAAAAAAAAAAAAAAMA/z3/gL0/bY83+kwAAAABJRU5ErkJggg==;" parent="1" vertex="1">
          <mxGeometry x="1165.75" y="440" width="38.5" height="38.5" as="geometry" />
        </mxCell>
        <mxCell id="IZlDyetnFrTAtIApsN1v-41" value="Arduino board" style="text;html=1;align=center;verticalAlign=middle;resizable=0;points=[];autosize=1;strokeColor=none;fillColor=none;" parent="1" vertex="1">
          <mxGeometry x="1200" y="448" width="100" height="30" as="geometry" />
        </mxCell>
        <mxCell id="IZlDyetnFrTAtIApsN1v-42" value="" style="shape=image;verticalLabelPosition=bottom;labelBackgroundColor=default;verticalAlign=top;aspect=fixed;imageAspect=0;image=data:image/png,iVBORw0KGgoAAAANSUhEUgAAAOEAAADhCAMAAAAJbSJIAAAAflBMVEX///8AAADi4uKioqK2trZ1dXUWFhYeHh5wcHCysrL8/PzPz8/n5+f19fWWlpbg4ODt7e1mZma/v79WVlasrKyPj4+dnZ3x8fHZ2dnQ0NBCQkKIiIi6urozMzMoKChra2swMDBfX199fX1GRkZNTU0NDQ07OzscHBxERETGxsaw6RRcAAAM6UlEQVR4nO1daYOyKhRuncqsrGy1fabm7f//wZvJYREQJo8p3p5PHc3iUYGzQqPxf8PIb7kNf5TBLthNt4em6zhsp7tAyW8yL7ttiJhPJH7+sexGIePoiwTvZTeoANx5gmHZrSkEYd0JchSHZbekMAwTgqsrO/QdtTtuox19MzrX1ZPhhR6YpsYfR+FPKaNLLE+oeDdd6gzY1BDPi10Q1mW3CxFrINVtNDz4vCu7VajYAS2PDqTnstuEjDMdThfk06bsJiFjQ3gtgGuv7Bahowfv5q2eLyl9TW+Nr+RDVHaD0BElxL4a5HVtl90gdLQJsw9Dd/Fh6D7+wnAyC6P+YjBbva11GLBm6I+Zg/E7zHJGVgyWDIOoKaLtvbedr8OO4aAp4eSKkWXFcCETbDpjZtkw1DmJ3Rh3LRiqn2AMJ9wdZoY7gVRPkFpo7fDxxBSMDD3GZ76LJ4kgZNPG3JaAAcvHby1FcZwpcl8ei6IEI0P6jh7YO8l848NX+EhI/mOBIcowMQyAy57XZMA18LArEQCvCZliR0Qkf7giYiA2KBDP6vUsE0N4XFcx2EgdkRizIrj8NkqxJf4TnCWBQbjX+hHBxPBMjs9Sx8FBntUDbKF5aGQACUTRV4svP0P4t5/0dXDiOze/Bky4UxD7KvEofjkl9vU/bmC4Vh9+gMQEehiGxih+U84jnTiVz051ogwDwxk5LHc3uBAniOPvfFFsZZ7NEtMwMNTzgLFGTgWoGAwMl8nRq5y2AYNY5U0MA0Mwm+Qn1SFn8BS3gmBgCO+irGNH2qf7Orzx/sZrJylxkRJv+7FwVhApDAxhuulKF56SE3tEW9/bPn+Ris8w9U08u6XffoYh/tG/3z/PKlpjYOjtyfH0o4KHmzER/RlEf4LMibbYomwxVDaf+6JWpwHdJf0Qwb5I6zp5QCxtCA71RZGcBUVgKt7hs/aGmxhSHVs8QXMAMJ1uF7GVKbErin3xzhPxIv+q0Xr6AS5cNx5RgqihKqJe3DPFmVq8a18pI0OWRvQDxuCAmcC4ftNIfAyReA+zxYvuhpu9GGdKp3m4hIP28YsdwPZFDcfj4V/Ejf4shZmhp0+mPSp+sHKw8LW1dARVs0/1YOMv3agJ3tyI0Fj5vFd7BUEnXtGGdWRG8gofBu9t5+uwja4FF55fb+lEF3zCPkI6ul8Sh/dpsXaH39+j3G6MLjw+cXz38WHoPtIMMbz01cISGBKLQXbIuA5iOX9BfunWfIlj2CbEbtQhg+kdrAIgdHWhgcK6dUTohiH1jH45lNBlgRF4JPxGA8qEsLIPqgEoiI3jnDSzC9PJWzb6QOpp7G1B+q58PMkSa1q+lkwRtEao2ZzOXLKP1PBmrHQNYoCiIf/lNgQuNGR1btYTrEzGO5fdlkIw5V/eulXjxxCcgv6t7OYUgBuniPrur4ahwoFmkoyu5m87iStoomfu4PbcdRvnLceGDKYsGfg0qEO5uj84UUbPrPsVnSQX7is0CTxaJfIV+3nHIIXGK90BzWYeP/j+whMsu1WoAE3016N6N0pec4UAM/yauhUdqYSxBoyfbciQudZllAF4ZJKfQpJTvXwYMYgf4wAeYUVSkeMgbtJPtbrD+DB0Hx+GPDy/NexsfMdiN/YMhxdQgH7GLrmMbRnORAfHT+ULSSjsGE5kD9XRlRiVFUPlipiHyteSJLBh2FYRbLqyaJYFw5mGIFbdWsEwM5zo+DWbJ7y+WJzRZmbIHFbXy309WXc4zz+WJTI8/ptyaejD6TcvbmRxo/2yBCNDtujHAp4Yt6Ykznua9IMZhijDxHBEF1HYKK5CWt4N2pCAWOXgbSAt6I2UopfYtb/6/mJiSN3E4sAJORwoDzFVj54twrBA5qq1sR0mhhDqT6fZQI4DRrp3IDYaRKI2+aLYEr8MhPXKsoEhBGtO6bEOfhnFr5NoTCcQk4gDuDWTukOWjnbLFGUYGAIR2U1MKr4OGBNGK+5bX1RHmsTi1decbcU975eKfvwMehn6lWW1uqy+QBAAZTQdhRd+ca08ogQDQ/D7y/cIhqDKGxmW1epyin5dqtXr/wzBbiq4HwKGUTQURb5M/i6JQ71IUYmxFPB0T6dqSC+6s6mi0dRZBsv5UCIC1DFX5U2V9u6U4k788k59LYcq6DQAdS03JPxk13ITg+eFWm5q/mr0UkzXYqoA/031+KwKeKi4SkwZywvyq29eU4GuYfLo1TApts70GK4f4zl6bUXxWxTZck7fovhPFBnMNj6rkL12Zw8bf8AlpiJHG73xfD72UESGXH6avQs+04+vLYZug53a+Es1Pu+TE0/QNm7R2koE+y70wRjWsaeTwK92sacYw4jGD5eVNwo5/CkGHPjD3bq+MWBX8WHoPj4M3QdlWNvcRMqwtvmllGFdc4QZw7rmeTOGdc3VZww9CGfXq96CY1jPmpkGz3AERTPNqFajDWPI1a4dQkfsdxssGcPGuclwm/dLxBFxRF+HgyfizyOxiL1MKFd1RoB/Mv/3e1AUw0Yge5zKQWEMG1Pzn78FRTGszpoKRTGcm//6TSiIobi2Sa9EWK1WNfKDP3qlufVpjphLreNjHV4g5nc4L4e2KphHKw4q7dD2hpE0bU93Vg+TJgNXedk9L1SvTfK1sNAz/5EvV9mPEf4q+T1htBccWK9tY1C5OtmXQxi0uu5E/S6FgGPmGsAkIaey6yaubCbrQ1ZQjAy//97W5L/BT3E5XZbtMGxf0op0xqaT1V6/VEgI6XXv3KiyGQvdU29Zki9Uc+nLCbf60WkgjYUzflV8rbJCzldyoBlxe4OGqknB49NFdH2xygzp8ofNH91o6XF2n2a+qyDD4N5eRNEi7NK2Z21rwyYTjc5SNYbB+KeZRnbjWA2a2uNryfBN06XfleiZR0GWnqZspZHhaNZNZpRDtCnaZbxU8LMIbVK3vXKRWQNDX9jf4ndcpPbqfzcVUOWOpkGLP1XjaSZDL715fPNQXHRjojYgbIxWDyZ/Ve5yFsOVSqlHTYDmsFb8V9NWFaFdUWEuZjDU7BW0L2Q3j0D4j95+TzZGsbwcrFxFjFDPUJskfCtgwPG4PjgPW4+buJrEede227jD0zjJp7QMM/bsKuBFZfP2jUvQXdl7xsDIkscaLUPOLjtEYSfsF7jvGmckvborH2iossdV12bF3nmdovbO427ny/cO+rFcrqT7Zdov+P0P6byDuv8ht8VbjmQCoux9SeOghiF9hOIJShH3IUIvzLPbNyg2kuamYfjOfUgbK5jr87ikYTSVRl81Q1ASpG1/i9hLdgZjWK4xmtYNpm+TmqFxP2CpUP91MM0314sR0LH+LNaUqhnq93ReaB7uq+Bjl7mUpRE3fwu7yqsZvm1fbu8fa1fOuIKgRHN+cDXDt+2tzj3BvOFRcTtKNu+oGUJCkayqw/uLE4njrLOfvPcspWXSIUTNEKwR+V/13F8A8z/85p9+BlPR2APfgJrhWn24QbM2ehgmFBsctN7Cv8Hf8UklxFhXU1mRw5KSoT3xCug7ihi7bHG+rMRK0TysMzmefnlg8sKIAsDd4na7xwCrKTw9ZQ1D6i4P1FdjDKXwCNHmVoKAjqpPVhqG1Kkg+CyoXwMjZ9qDH0NPMQ9o/44br2HIjO4e02vYMoNZC6XZAgbSAjLMqTUW09IxpHf4MdB1YiXID9mEgzIywLCHcbfSANdyfPd0DFOl3GIuC4bKBlNFD+G3ZEBXHGb52sZNHWwdYJnQLxCDARgpo0x/qW6LJBw/FLwjRbykzKieZ/u81XkeSOY9/HhBUS3o5aPsuMVA5rfHqnYmugPiSqEC2EpX2W/eKh2aUYbTXwLRrrYFRezAlTY0xg99LqnjJ3MJuD+CLLSDouAqALbDzCYG3JoNFt1x544bkSHPEHVJLQ7gaRqUF8cveJveSfkMUU1pGdAPd+UxhCYUFFQGK2hdHkPQjguKKYMhbJgPC8WNtqEAeEQxPXiQm4gcTLIBDDWF1FjAZHGhdxJzlUBLUHO6iIcIAck7dcgUY8Nko8fuMzbg7sXRRFCAS1jeivqCDKnoLwCM9XjxRRi0S3hNGzQ/FnvtIuo1jU11r7gbaQSrQEaxqSlovC55/7tF3UgLsHwPxHmfS6pNNGmWGPT+sq4Vy+POHZgB3JnDDCZ5FoM9v32DFT7v6njPbyp6Oy7/lkafuBvZ3EbLQTHQvIaiF6EfjQcdCvk3BMRHOjyWkeBZ4mIFmgw9ZGjuum4zm9z45c0yhTsGH7oXS7k4Y35sRU1Jt8olJrR9p5VRevcypGyYofmavNAybIwu5qv/hqui1wd983X5oGf4GAlwq8kXal1+UnDNehbDh7WjKkN4CddI7/lZ7abfp8J2ks9m+JjK7tH8lu/fr/v5whgkGAWtgmD65yfLwM/xD35QqyWErPEf4bDIRHun9sAAAAAASUVORK5CYII=;" parent="1" vertex="1">
          <mxGeometry x="1300" y="360" width="32.5" height="32.5" as="geometry" />
        </mxCell>
        <mxCell id="IZlDyetnFrTAtIApsN1v-44" value="Edge Server" style="text;html=1;align=center;verticalAlign=middle;resizable=0;points=[];autosize=1;strokeColor=none;fillColor=none;" parent="1" vertex="1">
          <mxGeometry x="1332.5" y="360" width="90" height="30" as="geometry" />
        </mxCell>
        <mxCell id="IZlDyetnFrTAtIApsN1v-45" value="" style="shape=image;verticalLabelPosition=bottom;labelBackgroundColor=default;verticalAlign=top;aspect=fixed;imageAspect=0;image=data:image/png,iVBORw0KGgoAAAANSUhEUgAAAOEAAADhCAMAAAAJbSJIAAAAh1BMVEX///8AAAD29vb6+vpKSkqPj4/7+/vt7e29vb3W1tbq6uq6urqlpaW1tbWgoKDd3d3IyMhzc3M4ODhiYmIkJCSvr6/k5OQsLCwaGhp6enqVlZU/Pz+ioqLQ0NAJCQlsbGxWVlYSEhKHh4cZGRlGRkZZWVmRkZF4eHhQUFApKSk6OjpmZmYyMjKjd1ztAAASAklEQVR4nOVd12LqOhA0NgQwBptmejEpJ4X//74LAYJntZJWouWcO28JtqxR2aaVFAS3RhSmjaRT664/R4Nxsawsi/Fg9Lnu1jpJIw2jm3//lojT9uarVzGj97Vpp/Gjq+qB5nA1W1rInbGcrYbNR1fZAc1OVcytjGrnb2BZH3a92J3QHdYfTcGEPFlfRO+AdZI/mgiPMPEbmxyqSfhoOgqy/tXoHdDPHk2pjLg2vjK/Pca136JEmpfJFhO6v0G4ZtebfRyqjx6smc1kuRy9R3K8cf+d8LB+XNyH3zfHxQP41Vdulexm8GfmKJ5W9zZ1oppT/WatKIjgP7siWjOnMmp3dbSygUvdtq39OyH877u6ra1LMYP7TcfQbYAOj2+pDINg6FTS6k62XNupVi8nw4RlGMQvTqW178CvbjBAC/Vf058XeYZBMBWVc0L/5hKnof96v6U69aWpo2MYZMpby5a+GYvGbQlOtF/e5IEyPZdls1LLMGgqLbMK8o32S5Mb8ks/NB8dT3c1Tuh/ezCi9AyDumL7JTttMtU5LB/prQi2NF8czPcyLqX/HqHkMzAMwhF9eU8inOuUUus2BHVKPjnUlvbDM5EJJoZB/Zm83fv+d6SMiyNqN+AXvfPf2hzrSmdoQYMtRoZBXpD3j7Mt0szH96tbODE/YLonbacIRGWumBmqg/wkhmPegh1cOQCwoE38je2PMniiE0mV6RaGQYOUMHo6/ZKxxl1xVX+DlzHTnzoEHfLTRi3DxjCg47Hz88sTYxVUripv5lz5s9Iwiclvr0whVobBKyml/AHWD5lfiyDtoG9My08QE2TAWch2hiGZ6/3yj2w3dphSPMBpiREEwRbkV9bNsTNUxBXMtKaiMytX0hqcodbFR4gq/MOWI2AY/MGCevgrJ1SvYMJxBIf4CFHLY74gCcOAGGoJ/sp5kxdTZIbogKi6sMDfNa64iCEZpwWZ0CmjlS8cqIyQWVMxQmSArlFFDOmQmZKfQ2Zx6yJxw6gJhQDWvLLUuagyhnXiSSlSmZk1FygNRtGrDfYm/JyMIW3UN+UBZlh5q36qBNiySBdqxIzyoN5wJsJGVa1Mu3sacHGhlMQIkan1iSOkDImwoTNRfWKHwssMj1S5xax1RdjknLl2hJQhMd7GzJNNpWYDH2dK8QeXXPCAqCjDcBEzJJNjyDySKpGdd1d6jCJkCQYz8XfEDEnbzrhHFG/SXS2q05klSKaEKe4uZygpVKXoKFDVAvj1ZlTAbHOfIGcYfMKj/NxW56JbBE4JG/K9Q/xCY7DWgSFx93lBqUjUDym5PRTDQTMEUFUMjGU6MAxQjDMKYw9lIjkY4TRkojX9CnjKvGziwhAXf541TynWjTjgXy/Im7rGwYFyDh2xcGFIAls6AaZEMKXLNnRZpK978AseU01IgAtDMvy/dI9RT0NbU4SyPvi8TlhJWsfHLPl2TgxzLFrXN8p0Eq0vhvStY/PMU1ortGfWTuXarCzsHcauCbMpt7gqWSXWL2E/r5K03JpoQNo0rhtDFJREJebZRrPGUFnZCaqGO7J86Q4Xh4Yig9RWsBvDJyz8p2HjLFkZczis6QyMR8FgvEqyJwxAMVHuSxgSObkPSaXtN0GOktXLcMuTKcFqMzkyRKusNxEn0FlM8Lq9BB5ba5UdGQZuSRolmJWiYyrXGcvBdvY6mbYbi1yj+KUM62nWaE8nfd2KuhVGYcNEZnyw/OzXOvNk2MoWaRyGYRTtWNOsr500eYqi3a/1PF3sSCWdzdesuMbnTVGbW2UbFoPeC2q4r9fqbDuQ7zlxQVVP0KIp/hroNQbpwukXX8Cvh7YTSRfu7d1s45Q++BAsq52USEhdJxKVc7Sk02TllGt5X3xOsn0IgFjqPZ4g6cKSkRKm8984YD82rfpJNRFXke9EMgupxkrbE28VdXUsX2oNcCOIR8TORBK8Srhn6ovpl1vu8vXx/D5pMe4qWdHhHFpcQ2aTDQ6Im8nkfmn6ZWxXtUauMcqIy9BVnyCBQcuyo+Jc3wGdJ2MgiMSl1BAkOhXPFl8ZFg2XvbsIW1scCJP/VBcD15A0IcofgOHfD6K4uWi/dfvVbXENLs+z19WmszPiISZmjKgHNHqlLGQSVWFzbuDhUnOF9ThuNpLpZrN6nX04mJ3P25fXP5u3eTtL43p4Go64vmypExGnVGFgBNHmsDeNZZURxXlz5zm02kMMCXSS4bDdajSyRTPXzwhsd9tWPUyMI5FFwt+2ERfjRLIFWIy8mKPHJ6D4s8W6iGGDDYcNvLZ9GSyIT1FlSSMK94bAKpR1XQKDf6jRUb9Z4//wuDYijfBiCMaiwe87AHUYPI79O7LJGczKZq0fFV4MYWyNbcsSES53lOcaDlLrgjGunwpTPbwYYljFGs9D2VtueowwWLcXo4gTLvh4McTYn3X2YNOvdeVsrd8F3arPEUJ4MURDxGaHBAH66+e2xyUWeyYcGOnSPA8/hjC6GHOaAI3T84IOuhV29QaflaZ5+DEEc3ltfRwV6LlF4N+aCEC5rjB0uIwe9i0vhjC8xva3MBJz+i/aYPbBjtNWmjXnxxCFqV2o4TBtGv8r/aq0rn4MMVJub02UpieRAhYKlylHgNpTWFVPhjiD7DMCMwlPZg0UIlhEnXKFWOHJEJrfPoOI1Dz8D6ehYK0fCrGujJ7gyRBcIru6IHkWhymH2lBwgpFrsx7gyRAGzIv9eTSxD8MaIuJ2gyYIfOxub4bQ/oXgBdAXhzkHAVBJzg1UVXzQgSdDtIEFL6ixnRiiKYIuQWddfC6XJ0McdYJkZ5D0y72B5uwK4QviEwA8GaJ5IcghVR0uFD6CRoJxsxRX1ZMh7jkSzAn8zl41gDiWZKFCk3zKQkrKl8UMnyBUI8lbg/D0XplBKEQSc4GBbth+QODJEMNLEskNomZPCKSrZJcUODQCE+gIX4bO9gWY2T1q2kpGAWyDlGce+zKEyCW/eRNBBQt+WHICHAxrsdHmzRDkhERdN8mHUPZL5AYkPoqNNm+GYLZJQiaor1MSRZV8EmwgsdHmzRAEm2396RvwoQYWILFKMZ4lP9bIlyFMq5HkDZCdCUoekewHfSM/f8uXIRgY5i0dR4B+6aDsF0lG8KLlh1P6MgTBIQrOgvStobqRRAaj4oEMC8k+Q+i0LsY+O0FkwxOGJJv7/EkR0ISuS1+LUPjn9u/hOSFrsk/s38NnwJ028S9hFPzirLyrYEA3h/9zGAfFo6twYxTBbVKtfw+Wgf2Zvxz/gz4sHl2FG6P4H8jSf18f/vs2zb9vlzr7FnjO0eLmvgVE6Zex/Q3qWzj7h7i4JvcPMUDk6R/qDh8AEP/Q3ccH2SQ/vwgDs3KG0IeiKAbx8d3jNLCvRH4ysy9DCAaKTvcgcRr3WBvIJnk00ZchLAKLsnVJrM09XuoZEfZl6BwRpvFS95g3rO3Io/q+DJ2j+jTm7b5u4bky48sQ5IYg3URZt3Bfe6q5fvIAX4bOq2vKojbMS8m0gl1iwjT2wJ8hLHVJ1jfp+qH7GjC0kSCH5whfhrABSZLqqRCCmSzRqCB9BSmfR3gyxMOFJeoX9PV+WLddv4wzWZxt4skQzVmBJFRzMZzzabAI8ZmMngxj19fUfBrnnCjUqGLD1JMhVljwgpoThWu6ElED35SmefsyxMxJwQvMnkXITbTnsZMmEZttngzBaJMscjO5ic75pdAk4jMnPRmCqBdk73D5pc45wmDUCI9I82YIg07QnFyOsHOeNxg1kqTWb3gyLMpvCU595vK8nXP1nZNav+HJEN6y50Xwufq438Kewumc8nn4thdDV/OC32/RZP+rB6p86dmvfgxdLS7N7hj4ryApB4a19NB3P4auqfr8vicyO+36Ap6XClM/hiBK7c6obu+a6/5DUBfSw239GIKjYFcWuv2HrntIcTu+8LBwL4b4kn3K6/aQkn3AVumIAksY9vZiiELQsWLr0i+Oe7nRHRGmJ3oxRFFq9dTw8I+yn4TG3Id13IHtLQxGeTEEmWa1uw378V3PVIAPC0M1XgwhSGM1KA1nKpBhal2+QOErdPPhHZl4QuFvdUVRnKAzT842sdUZHW+rqHkK63FOhMb5EBoD8B1bOMF4tonj+TQYOCdOcJguWsNk/jZZrWejomLEcvzx+f41mSbJsJGlytBFyWFrEuP5NPSMIds0Ab2zCqJ6nDaSt0n/5dLEh+17d/OWZHn8fdac09ZIyxlDjudEQXM9r7fXzzv6PitK2cJkguWcKHLWly3Qq7uS9Jaw6F3rWV/kvDa9Nx3FrWm/uB+xH2wadZMEtp7XRhwMVuvX00edtndE0d+0U94Ntp+5R89NpB5GszWpFvfjYsBgvclUD49cb8dqMNI7pZnYTNa/LYVx3B8CS7SYNOcgEIVxWN0Nm1N6eebvQXeYnyaT6PxSegZtHOTt33z87De2k2w/L2Vn0NJOfHmoUJGjWA/rwnOEb3ac972hP43k3z/P+2qd+Pz52p1MNrVp53D0fJrnMUYY0jxNm1lrOJ/WNpNJ92t9sUV7hulAmcvO1e/1N9OkneVhxJkLKM/VJ56iMM/a8+mf90sPZDZ6Wd53I9jTsZx259VT/jJuCcyhAIf7LZYF/Gl19B33H3rftGFb3JDdUfJaG+YhHlJoXQt2ZIi+0Ka9YW6RZWGLFNrumRms5qejwlHLWtcRHRkW8Pi3hbZzanRXBJUqaI0A6TXG4HW+gNfxnhTb2p4bQ6xGKZyXZ9NXUy8Itl6zwmawStQoCnpktlifG0OsBXF0dsYyvTlNWgu1Jnt2k7OBC8Bhqr3q2IchufiYWQ7bseSGrCgOS+9d62ljXPgJS7KRE0P09rSqyO/eNfXuPK2NgG1hiX07McQprg0F016UrmWK7z8kbqc5YuvCkNhWuoe97z+U32GJnzDbNS4MsW90h9L432Epv4eUXDlrDO87MGyKir3kHlLxXbIkLGBc0XFgiHET2aUxjnfJiu8DJnLXtEgrZ0g+zsuZS+8Dlt7pTIw8k76VM0RtzydpXXynM2eCsxSngmcOEDMklWdN+ivcy83crc5Wnzg5hrO4xAz/YJGcBlAJetytznkZ3Fwk9dF3opQhqb0gPF+ReBQc4kIpiJGoJFKpN2ykDMnNjoxJqro/hTifHsFEbZjpjCs6eq0rZEisDUZ2MSt78n2e9rJU64Z0onalVsiQhGfULlQsGQ8xesZcLU01HEgn6iw8GUNSf3UWKuaWKHNYD6bB3mnlSCfqchtFDG1lhYxPKE3/1ICJTA2ovMQcCJ2zJWJIQtJ06T5l4hceihDBjApqR9HAH+8KSxiSZU6qC4cVFU7mtpwikXB0LLPjVMCQjlEy/rgI0hUI8iHULSr/An9lx6mAIRmjGKBsckHwi4foAYy4IeYidZm51Bc7QzKfUbUSA/iAC4XMGYzSqFQ+y3YEDe0wGsrKkGrfctAlZg8ouUhNmD9+wPQchFNWGdSpaGNIJ2FJzDyxHXiJolexKLhPjM52KpWCI4WChWFID8o5S+SMPUOn8DbVeMR8JH31M1TpVehVGmU1M3yii7M/JnzMr/gNPI1tPSLNosjm6LfE9AfqsZkZKqUfCURU/JxK93KXLNAtvHUOH6OhchqXMjJUcnYOweuIFeOVq2kJCl1C4mD+XV9lNKFdYGLIvxrOdYtMV5UxZaS6FfbxNKQ75/eAoaRnqE6A/V294VR30NqH+MYJD3Am3AGbXJ2KlUHJsNQyrKs9FQe5Zv5VrmSo6dEotF9+zVTLeHnWJzqGmZoUOMz0uXSFQ+jeD3Xd2uQOM4b+jwGnYcj0VWG4GLsvXny5AIrQNGOUGxjmjgfiyQ9IvwihY9bNKtcwzF0Lkp+IcikyxxStSc7kROV6scViID///QqIZHk3Z7y3yZl7bXviCKJ2CyvGBJrSeWOs7iFhKBb3S0etXtmPECO7D8fqXScg5dizV/BC9B7J75vjbfvxof13QrNrr6gnuvLDQ2+LuHaL85bHtau78ZcgM5irXuj/huGJCJPrzchqcj/7zAl5Ik3kNWGd3NLDvRj14WVypzt8hPHiimbHb7xWO79FdErQHK5m8h19y9lq+DexOyFO25svm9HT+9q001+lFpwRhWkj6dS668/RYFwsK8tiPBh9rru1TtJIw9u7RP8Bl1H87pnPAqgAAAAASUVORK5CYII=;" parent="1" vertex="1">
          <mxGeometry x="1303.75" y="405" width="25" height="25" as="geometry" />
        </mxCell>
        <mxCell id="IZlDyetnFrTAtIApsN1v-46" value="Website" style="text;html=1;align=center;verticalAlign=middle;resizable=0;points=[];autosize=1;strokeColor=none;fillColor=none;" parent="1" vertex="1">
          <mxGeometry x="1330" y="400" width="70" height="30" as="geometry" />
        </mxCell>
        <mxCell id="IZlDyetnFrTAtIApsN1v-47" value="" style="shape=image;verticalLabelPosition=bottom;labelBackgroundColor=default;verticalAlign=top;aspect=fixed;imageAspect=0;image=data:image/png,iVBORw0KGgoAAAANSUhEUgAAAOEAAADhCAMAAAAJbSJIAAAAflBMVEX///8AAABCQkKysrL19fXExMT5+fmrq6uXl5fj4+Pm5ubLy8ugoKD09PSAgIDHx8fR0dFwcHBqampVVVUyMjLt7e1bW1uIiIg6OjoZGRm5ubljY2Pb29uRkZESEhJ2dnYlJSUrKyucnJxISEg2NjYWFhZPT08uLi58fHwLCwvn244rAAAM9UlEQVR4nO1d6baqvBJUpjCJDEIwgKC4Fd//BS/oQRkChNHwXevXXks2dEGGTrq6s9nMA0HgJJ1HQFWDxLQYxj2co+h4ejy2j8fpGEXng8swlpkEqgoQr0ucIMxkycSwJZ29wNBjjtu+ODJeCC+sLtnfJoGHrfNqaLmn3sTq+HOtUOV1iohKSLz9TcCsxvQmIunL3Ha+qrkzcCvC1VR/9xV2sgKdx8zscjwcqMiLsuP4cO5PV4cb8twy9Hx1eXZvlqo/M7v04/UYLY/X2HI8QwtUlt/vlRT6C9mf+z3PqoFmeI4VX3vMLac5P6USRiQ2XL0EXpAuyTbpJC7YsqSjC0y8K8kDolCZg56udb7oq3EBym6cbyLsFHAxOokeNX0iXv+wA61fL2LClNq0T1RAyLQ/FEz3RF9reY4XKP5cLqXgK4HXQlObZtzZW00PYCArzz+AczILmSYTrP3o++sNNz9DfgLrycHDc8NrHtchlRvuplcDfcMtthF+BLoNH1klD/fOgrkn3Tb4Aa5NeQMd9KB+q4P4bWc/fe/ioW5YMOBGSs15OQbLer/NkIPa3Hzq21SF2gRhLjuydIE3qwZqveYsueJc/6kUrbj/wVYry263RxNjKy2Anc/OUWArPYnYzvIQw6A5jRwJVB5aCQecUheMaP1+OdiSV6eR/EtY/A+R/l1MQSwaHHb/g1G43PnOFlBf7JyCzUbX1cUXApYwbxKAYrNrvxR9roy/776QQ4o/hreOjPLnOm8p4yZCwYdumxc/DRouZtpUgJ/ho/kinrQxU4nPENLsYN7zS8wFDZsOb1f13nTFPr/iuqRdE+K9QG7a23h31jWNokVIHcMkl/9O4BdQirc/ht8gU/Ofv7lNMQ5+TkHF/pzvOrkLmzUl8nXtDftrvhDp9OwoRu5VM9hfc4brcUfrAEQMLwtbNSUuRAxbnB7q4RAxPC9s1ZQ4EzFs9Ajox9sr62BoLWzXdLAIGbavISnGZ/3exbB1DUkvCuv3ToaNyw+qce/BcGvRv4tYhVCMVXcz3DL0BSraYZfNx15T3iCP1tUX5bKggYRhjzgHBajEkggZbr11bHlvNrtaOJ6Q4fa0jokR1bV2pAzTleTE4qoZoOP0Iu0Mywohk+5B1S5Huy0ihkgpv4+E3q03KSmbquR+WztDduNX9BwmnW1Vr6gVDv57TO1iWAmTprjRN+agav/LNkHJGW74mkod0rTJ6MOqeY9nsKIHw2oXzhADOvwcGcQ12/4NiH0YbjYKRrF++zpJGWBmBzdXRPVjWPeFXndTvze2Svg8gbrFpAw3Aka9l+KRfEF+aaMEn8ESFFZ6vRmm9xUbUppibcE0FlnR6l3viT+x9K4HMNxsONCYYnE12flnSp01G6X7J1AJMg1iuKlpq8pwIdDn2REQdADb8nMwerShDNMuHpxbHpWul80ASfZUsnbOllBgtqevnAPcgDecYfpC64rOGu6WCZE+Iplu5+sImta980kmj282Yxim4Fic8LuOU3S4mRCgvS+TNF9B9vcIQPN2iMiSqjy2sbGMZJiBN3pn+B6vNzPRYCCmuKiqesn+CKCWmLc+KV3/bma0apUnYJj1f4jNUVgAN9g1pk3CMIOtBA3z02yIA4XAy5iMYQaBF5diGYsNA8u8DJ+QeNHCpD9MhoMl8n3c4OkZvmjqauJNzfPgJare28efieETwk5GF+02vuTA6aZdkDwwUXNOhm8IUja7ecz5SM72dDwzXjaDSiP9v0UYfiDYkq8rCgJqANPpLzRMz3Mcx/NMI0wnSBioACmK7kvECcOdWJjhF/Bj+GNIP34MfwzpBxnD/776co25FjnE3zd8Aq8CXwdUIoZry+kqwiNiGC1q07SIiBhuZ6ngswjeCoQOhusVejuEDFuy2+jGJ7uwUzFEt4amCfaDnOE6E4MKcSoCBe3Cxk2BYs46ga5tfRRLYrWfgnZ9IypfsZ1QfZmsRc5erxdErC9dx2fc1w0nV9AOraK1IPAVybCX5gzLMbOE7tnfLitMYyKGCJX+aQvpFbTvKhJFRKygrcirQpqElx9UFcKnHgraUk2bDBZ9Y86+amNWL6jHbiKo/PvWFWn6kL5YE0s9t5f67JdK9SC9O2FN1DHYgboW7F+9oH47wggjdrHQQhWnG8EhTD3VKFe49dzz5rDqUufyTQVttfM98VGY9t7VlxPcDbfXxYqHFyDwCV6FqRVm7AFxC9nA3jW9B7HGZQII+0btTlhaAw2KzNiwUXFw11hp7o/JyazWqGQ5wYrHNTD2tGurMx95EPnzeHY7nw/Mc/OjXbU2tg+PrulNjfXfu7x6ai/tUhckXvXcduGigRNgj1LQYtI4qjhaUEX+iBNjBEFCauB0F7ePwSwKWulCKNVjssr6rCLJNoFSRthlVfVZFSYmQ6YxipszPsbHgGXQ3lyrON6Zm+WYCQwy8SxgEeIRYgFQL2IAE8Nzbswh6nUQiMG2dfppotx6h6p9PtzFruSH6RS0yFua5dkkydOZVKkg8dDrf6rTEBw9SDpQT67FyKr6zysUjvudTjCT2sRnL+Z16nODHgdPZHsvSWfV08g6L5q38VLhw80UeX3gjvsCiiEhOzEmndsMp8MlKePoOkaSugu6RJSE0ohlNVECx8l6dnpelkICtdD0rDid/Q5MbHlmqMFXgglAusxxUy1TfqqvH0P68WP4Y0g/fgxf+O+rL38KWprxU9C+sM6S8y+YRAz/D2rQ0lkVigT6lozhepupSchwtYWEP9KhLobRtwO9w8BFxAxXqL3MUAh/d6u+1tgVi7VXCHRt6zs+oBRQIVHuxXQoS0ixK1cjIdImPmhSCHXBr8TlCNWXQw73/A5qshhSfelhHd6NXt9oJ1fQJvT3xh1O89PheZebKt1i70pVQLLcNaSW/mlb13RQA65iKiBV0Fa0/fQcBFyGXT0WeE++1yZX+y6FdXb9qmbiIPfaTayNv7SIS1/ASEyfc1uf/VK9rvTyEB0kd5jyf+6rkfXbEVZrt9keje9n0Cq4mnj57lnPPW8bpw56eOz3viSHTJxsynjrUHrv6vv4QomM6C8/Swq+iC8yWszrGRC30BuKQUYGGFHjsi84HxhnvCFeaZQfFJmpjcoflrdgPz/L3V68NYoVq7kuA2NPNmwRyxwToMy1rSMoQGtRYp6Cmg5seHQNlwJQfJYDgT9dTbL0pfpsl6bMwRXCHxM/lMTGesU5XCcUeX2U8luQdP4SOm11i1+PEvFCt5ER0noxeyz+7nFWgZbvof7e5VVoyVRGzSX+x8eAfTXuJ2CLGMvQRFFVAWAz/exe2WcaWhY8VbTQcOJzr/ttY7Vtd2WSKLfNh53tdSZcQ76jXUwVxxekS/vIMwesC0HZyEmVCj4IuzX10yAKAeHG3/QKWgV4bVXTx8P1gNLDq5hHbSIrl+lL0G6393Tu6S0znVFPI+xkXoXW+BK0qftgQZUfWIR2CcWQxLMgCB03OvaaVo6RaxkBYEfmFi2ridpJvr4Hz+rrr+qz1i1m3KvLxDcrr0QLoQh4xZemSg2jQfU178KSBobz4sfwx5B+/Bj+GNKPH8MfQ/pBxnA9Eow6glaGueZmnQerv5CfhRVjf8117ts1SYXK8Let7dDOf9YWtms6vGvvNewNvHOW6Qvak+EtgsY30sKhnOss0Foo0do0HXD5BauUlxYFpo3L7E/kHi5p2UT4RFVacmI+e5/rmxQ/+pi2TvYebbdbh249WxVCoQhY62xXEAod6C/s+YFU2JHuaH7FI8fXk8RWrIHYqVAvBpViOhV7VcjF4iPdiRRCKcIs0t8bBbFoMENicKlwX0R7UwWlEB/h+FgO199pXi+y5YN1iafxSvHSv4bSYd+GACpnhvdob341HAjpmzqkqjLk3mvBINSEJd6ChSC7IfA1vR3sa59eC3aeNFqWxr5WN27Iik+s3iUdWRukSEtCEjECiYE1BGycBuoK9e/lX3I6xGl5qjU+ewBb0X0bmegbn1JC+APlzXHGSA3q0qO2aM1kDmkNkrdw/Mu24R/+3turBqQFFLQS0JpkZse6wnTYM1pq0B4dyM8m+hZ8HjrNckVmyhQQv3ZGRhERYwB+2nWIzAODaVWVTT93dciEUxwMESgjlcKCrQDR6FRYWTiB8HjILLZeeBVnJ6tAq0syMVnhWYX2AhPnTPIAj51x3WqjHjVoT4fYcjxDC1SW3+8VRdFzpH/v9zyrBprhOVZ86CEWC0nKmI6EEkwv0yPDIVgsKWnHa/OKLutwtcUr3UutI/mUyGrQfmvHiJNYOO/HZPrVoJ0JElJnKJx89tSvuL+NSP0PNXHaJ2kiRIyTqPP5SaOxk30kaqHH9O2iR8YL4QX5Mh15qgQQBE5SEAtUNUhMi3Gv9yg6nh6P7eNxOkbR/eoylpkEz0LtisSNKMbfgf8BekTChzH9BsMAAAAASUVORK5CYII=;" parent="1" vertex="1">
          <mxGeometry x="1304.25" y="446.37" width="25.75" height="25.75" as="geometry" />
        </mxCell>
        <mxCell id="IZlDyetnFrTAtIApsN1v-48" value="Database (MySQL)" style="text;html=1;align=center;verticalAlign=middle;resizable=0;points=[];autosize=1;strokeColor=none;fillColor=none;" parent="1" vertex="1">
          <mxGeometry x="1328.75" y="444.25" width="130" height="30" as="geometry" />
        </mxCell>
        <mxCell id="JrltaCKAHfsCq2pV7cOK-1" value="" style="shape=image;verticalLabelPosition=bottom;labelBackgroundColor=default;verticalAlign=top;aspect=fixed;imageAspect=0;image=data:image/png,iVBORw0KGgoAAAANSUhEUgAAAgAAAAIACAYAAAD0eNT6AAAABHNCSVQICAgIfAhkiAAAAAlwSFlzAAAOxAAADsQBlSsOGwAAABl0RVh0U29mdHdhcmUAd3d3Lmlua3NjYXBlLm9yZ5vuPBoAACAASURBVHic7d13uB1Vufjx7zkppAEJLVSRjhRREARFafGCCCggig0v9l6uiqhXE66iVy+CBb0qCD/EKyBgQ0BQAZEmiIUuvaXRExLSz/n9sc7REE7ZZ9aaNbP3fD/P8z6hZGbetWfPrLVnVgFJkiRJkiRJkiRJkiRJkiRJkiRJkiRJkiRJkiRJkiRJkiRJkiRJkiRJkiRJkiRJkiRJkiRJkiRJkiRJkiRJkiRJkiRJkiRJkiRJkiRJkiRJkiRJkiRJkiRJkiRJkiRJkiRJkiRJkiRJkiRJkiRJkiRJkiRJkiRJkiRJkiRJkiRJkiRJkiRJkiRJkiRJkiRJkiRJkiRJkiRJkiRJkiRJkiRJkiRJkiRJkiRJkiRJkiRJkiRJkiRJkiRJyqGr6gQk1dqawEbAusBUYL2+f54MTATW6Ps7k4DVVtpuMuH+shx4eqX/vqAvFgJP9f2/J4A5wGPAo8BsYCawrKQyScIGgCTYBNimL7YGng9s2heTK8ppBaEh8ABwP3AvcAfwD+BOnt2okFSADQCpOSYAOwI7Ay/ui20Jv97bzUPATcDf+uKvhEZCb5VJSe3EBoDUuTYHXgbsAewJbA+MqjSjcj0BXAtcB1wDXE943SBpADYApM6xCTAN2A/YF9ig2nQqtxy4Afg9cBmhcbC40oykGrEBILWvscBewEHA/oR3+BrcIuAPwK+BCwl9CyRJaguTgaOAc4F5hHfeRrG4BfgyoU+EJEm1szrwFuBXhEfYVVecnRj3AP8N7NLiOZEkqRSjgAOAs4FnqL6CbFLcCnwa2HjYsyRJUiJbEx5LP0z1FWHTYwVwKfAGYMxQJ02SpCK6Cb33LwB6qL7iM54bcwivCDYb5BxKktSyKcCxhN7oVVdwRmuxHDgP2PW5p1OSpKFtSvg1+RTVV2hG8bgKOBiHU0uShrE98GPCIjdVV15GuvgrcCSdPcuiJKmA7YFzCJ3Kqq6sjPLiHuADwHikNuCjK6k82wIzgCMIHf3a1TJCJ7iH+v58uO/PxwmdFucRGjfz+dfyv8sI8/BP6dvHQH+OJiwxvBGwPmEq46l90c5mAl8ETsMljVVjNgCk9NYnVPzvJFRy7WAJcBthdrxbgNsJFf1sYC7hF24uYwmf4cbAloQnKDsC2xH6T7SLu4EvEJ7+9FSci/QcNgCkdCYBnwI+AUysOJehzCKsmHcrcHNf3E349V53axAaAjsSGga79kWdx+nfCHwc+GPViUiS0jsYeIDq30MPFLOAnwLvIVSandbwn0BY7vjThLkU6jq64gLCEs2SpA6wE3Al1VcuK8dM4HTg7TRz4poxwMsIDYIrCE82qj4n/bEIOA4YV1bhJUnlmgR8g/pULncDXwP2oL07HJZhHeBo4BfUZ12Fu4B/K7PQkqT06vK4/++EzoYvLLW0nWUCcChwBmEUQ9Xn8GxCh0dJUo1NJbxLr7LCeIhQ6W9ZblEbYSxwOHAh1T7JeYyw3LMkqYYOJHSmq6KCWAH8ljCfQLsMK2w3GxL6DNxNdQ2BC3EJYkmqjcnAj6imQniAMI58o9JLqX7dwH7AT4DF5D/nTxCWH5YkVWgv4EHyVwJ/AF6Dnfmqtj7VLdp0OrB6+UWUJK1sFDCd/O+FLyKMZ1e9rAEcQ/5XQHcDu2conySJ0NHvUvLd5FcQJojZLUfhFGUscBRhmuRc349lhL4JnTZ5kyTVyj7AI+S7sf8IeEGWkimlbuCNhLH8uRoC5wNr5iicJDXNfxAq5Rw384sJ89mrvY0FPgI8Sp7vzV0454MkJTMROIs8N/BbgQPyFEsZrUnoLJhjlsGngcPyFEuSOteGwA2Uf9N+nPAed2yeYqkiGwPfp/zOoz2EBoejRCSpgF0Ii+aUeaNeAnydMJeAmmMXwhLAZTcszwPGZyqTJHWEw4CFlHtz/hNh6V0102jgk5T/PbsWWDdTmSSprX2QMPSurBvyIsLj/lG5CqRa2wy4hHIbAfcC2+YqkCS1my7gi5R7I74K2CZXgdQ2uoC3Exb9Keu79xhOGiRJzzEK+AHl3XwXAh/DTlka2nqE9/ZlfQ+fBqZlK40k1dwYyl3C92pgi2ylUSd4H+UNGVyMwwQlibHAzynnRtsDnEhoYEgjtSNwG+V8N5cTpiyWpEZaDfgl5dxg5wNH5CuKOtR44JuU10B9b76iSFI9rAb8hnJurH8FtsxXFDXAm4F5pP+urgD+PV8xJKlaYyjvl/+pOPGKyrElYapoGwGSVMAo4GzS30QX401U5VuTcuYMWI6vrCR1sC7gNNLfPJ8A9s5XDDXcaOA7pP8eLwFenbEckpTN10h/03wY2ClnIaQ+7yH98tTPAK/MWQhJKtvHSF/53whskLMQ0ipeTfrOgU8CO+QshCSV5UjSz+1/ETApZyGkQewAPETa7/cDhKWwJaltvYLwbjPlzfEUwntYqS42B+4j7ff8r8DqOQshSalsDjxK2pvi17OWQGrdJsCdpP2+X4yrVkpqM6sDN5H2ZnhS1hJIIzeV9N/7E7OWQJIijAIuJO1N8JuEYYRS3a0L/I203/+js5ZAkgo6nrQ3v+9j5a/2Mhm4jnTXwFIcHiip5g4hLHKS6sZ3Mlb+ak9rEjrypboWZgHrZy2BJLVoS8IY5lQ3vO9i5a/2tj5wD+muicuwU6CkmhkP/J10N7qfAt1ZSyCVY0tgLumujePzpi9JQzuZdDe4q4FxedOXSrULMJ8018cK4MC86UvSwA4k3Xv/e4D18qYvZbEPYdXKFNfJIzgNtqSKbUS6yX4eA7bJm76U1RtJNy32JdhHRlJFuoDfkeZmtgjYM2/6UiU+TbrXZR/NnLskAfBB0tzEegi/jKQm6CJ0ck3VcHblQElZbQEsIM1N7LjMuUtVmwTcQprr5wZcHEtSJt3AH0hz87ocxzWrmbYi3bwZn82cu6SG+ghpblqzcWYzNVuqmTMXA9tlzl1Sw2xMmvHMy4F9M+cu1dF/kaZBfR1OniWpRD8nzc1qeu7EpZrqBi4mzXX1/sy5S2qIA0lzk3I+c+nZ1iXNdMFP4QRBkhKbADxA/A1qFjA1c+5SO3g9aRrYZ+ZOXFJnO440N6eDcicutZEzib/GeoC9cicuqTNtAiwk/sb049yJS21mTdI8afsrvmaTlECKWcsexUV+pFbsR5qhge/MnbikzrInaR79H5k7camNpVheezaweu7EJXWOq4i/Ef0qe9ZSe5tAWBo79tr7au7EJXWGg4m/AT1FWDJY0sgcQvz1twx4Ue7EJbW3buBvxN+A3pU7camDXEj8NXgv9r+RNAJHEX/juY6w9KmkYrYGlhB/Ld6I829IasFkQgei2JvOnrkTlzrQV4i/FnuB+4BXZM5dUpv5HvE3m/OzZy11pknAw6RpBKwAzgC2zVoCFeYjVOX0IeDbkftYBmwP3BWfjiTgTcBPEu/zz4RFiG4izNOxoO+/dxGeAvZbCCwldOhd3vfnvMS5aBA2AJRDF/AR4ETilxT9FvDR6Iwk9esCLqc+U/wuJTQaHiW8LpxDGLZ4d9+f9wBPVpadpJZtS7rlSJ8E1smbvtQI2wCLSHOd5ojZhPvKV4A39uXvD1qpYl2ESv/dhAs0xbSj/XFMxnJITfNZqq/YY+JR4OfAx4GX4HoFw7LFpCmEBXk2Jawbvnbfn2sS3tWN6vvnoYwHxvX9vU2A1UrI837gBcDiEvYtCcYANwA7VZ1IIvOASwjzHVxMaCBoJTYAmqEb2Iowa9e2hIp0G2BLQi/gdnAEcF7VSUgdbnPgWjpvcp8e4HrgZ8A5wIPVpiOVZyLwauBrwBWElnDVj+di4vKkn46koewOPEP1131Z0QNcCbwf+xSpA4whTMIxg/DFXkr1F1mqeAbYLtknJakVhxOG3FZ9/ZcdSwhPBPbBJ+JqI5OBownvtxZQ/YVUVnwg1QcmaUQOAJ6m+ntArriD0IFw5XkKpNqYABwJ/ILQGa7qC6bsOB9b5VKVdgZmUf29IGfMB/4HVxpVDYwiLJ37Ezr7l/6qcTWhwSOpWhsBF1H9PSF3LAF+SOgwLWU1GfgEYZGNqi+E3HETsFb8RygpoaMJk3FVfX/IHcsJDYHnxX+E0tC2Bk6mWe/eVo4rCXMTSKqfDQnTcXfyKIHBYjFwEmGeFCmpfYFfE1bUqvqLXlWcTphUSFK9TSUMM27iE4H5wCcJo6+kKLsBv6f6L3WV8QRhRTJJ7WUsYc6RUwkz7VV9L8kZtwHT4j/C6tjDujovAL4EHEpzz0MP4d3a53CaTqnddRFmEtwJ2JHQeW4csHrfn+MJTzjnr7TNmsDovj/HER6vt9sv6/MIK5TOqjoR1d/zgNMIHUuqbsFWFfaulTSYtQk/kPYG3gEcT5is50bqO/z5CeDtJXwW6hDjgC/SXktupq70rwQ+RLjAJWmkRhOeLrwNOBH4E/WasfDXOH+AVrEX8A+q/3LmrOzvAn4LHEfo4OiYfkllmAS8ivBK9UbSLkFeJJ4E3lhqiRNp6rvnXKYQesq+k3p/1o8Dc4DZfTGH8D7rEULrul8PYWGhfqv1xXzC+gMLV9pPT+lZS9JzbQgcSJhAbX/KWZ68FacQ+gYsquj4qtDBwMNU/2t85ZgP/Bn4EeGLOQ3HtErqXJOBo4ALqOZVwe3AC0svpWpjCmHN6aor+17CL/vzCMtebkO9n0JIUpk2JrySzP3DbCFhDRd1uN2B+6muwl8O/A44BtgF6C61tJLUfkYThl9fTr57cw/wFbwnd6QuwiP1JVRT8d8KfBrYoOyCSlIHeTHhlWiuYdkX43LDHWVtwvulKir9Y4Hnl15CSeps2wJnkWcEwa24sFBH2AN4kHyV/grCONNp+D5fklJ7EXAh5d/LHwZ2yFQmleAI8k3qswD4DmGlQElSufYmLEte5n39CeAVmcqjhP6DPKv2zQO+gMvjSlJuowl9u8pc8XARcEiuAilON/BNyq/4XXdakuphKnA25d3vlxBGJajGViMsSFFmxb8C+ClhRS1JUn0cRHlzCCzHJdFray3gGsqt/K/GGaMkqc7WprwfgkuBw/MVRa1YE7ie8ir+hYQx/KNyFUiSFOUoQufsMhoBB2Ysh4YwkbCEbVmV/4U4HlSS2tG2wN9JXy88A7w8Yzk0gEnAHymn4n+UNlkuUpI0qImEflup64jHgO0ylkMrmUB580T/kbAohSSp/XUB/0n6oeEPYl2R3TjgUtJX/D3AfxPGlkqSOsshpO8XcCPhB6ky6KacpXwfxY4dktTpdgMeIW39cQ5O/Z7FSaSv/K8HNslZCElSZbYG7iVtPfKFrCVooA+TvvL/NaGTiCSpOTYAbiFdXdIDvDZrCRpkP9KvB30aMCZnISRJtbEuaRcUehLYLGsJGmBTwjv6lC21GTkLIEmqpdSNgOuBsVlL0MEmAH8h3clZBrw9awkkSXW2LnAb6eqZE/Km37lOJd1JWQ68JW/6kqQ2sAlhXH+qp8z7502/87yBtI/935M3fUlSG9kKmEuaOmcmMCVv+p1jS2Ae6Sr/9+VNX5LUhnYHFpGm7jktc+4dYRRwHel+/X8qb/qSpDZ2BOGHY4r653WZc297x5Ku8p+RN3VJUgf4MmnqoIeB1TPn3rZ2ABaT5oP/KU7PKEkauW7gV6Spi76eOfe2NIowhjLFB+4CDZKkGFOA+4ivj5YSftxqCKmm+p2Nc/tLkuLtCiwhvl76Iz6RHtQGwFPEf8iLCL04JUlK4ROk+XF6ZO7E28VZpPmAHesvSUqpC7iM+PrpHpwm+Dl2J82Qi1/kTlyS1AjPB+YTX099KHPetdYFXEX8hzoXmJo5d0lSc7yP+LrqERwW+E9vIv4D7QFenTtxSVKjdAGXE19nfT534nU0Brib+A/z27kTlyQ10naEYX0xddbj+BSAdxNf+d+F4/0lSfn8D/F11yezZ10jqwEPEP8hviZ34pKkRludMMVvTN01k1APNtL7ia/8L8ietSRJcDTxdVgjh62PIv7d/2LCksGSJOU2CriVuHrsdho4O+AbiG85HZ89a0mS/uW1xNdl+2XPumKxC/48BEzMnrUkSc92HXH12Xn5U67Oy4hvMb0re9aSJD3XIcTVZ8uADbNnXZEzifuwHsC5lCVJ9dAF3ExcvdaIiYHWIazWF/NBfTB71pIkDe6txNVrd9GAzoDHEPchzQLGZc9akqTBjSZ+XoDdBtpxd8mJ5/S2yO1PIAz/kySpLpYDp0Tu480D/cdOeSywM3BjxPaPApsBC9Ok0wjrAM8D1iSMWZVUzDJgHnBf35/SqjYk9FEbXXD7ucDGhMbEPxXdWd28NXL7H2LlP5wtCT1SpxEeJ61dbTpSR5oNXAv8HvgF4dWkNIvwfXh9we2nAq8grDbYUcYCcyj+bqQH2Cp71u2hmzCx0pWEzynmHZRhGCOL5cBFwP5IYW2amO/TiflTLt9RxH0of8ifcls4iDCVZNU3QcMw4E+EeU7UXGOARyj+Hborf8rlmgDcT9yFdVTupGtuHeB8qr/hGYbx7OgBvodLlDfZycR9h7bNn3J5TiXuw3gKL6aV7UGYCrnqG51hGIPHLcA2qIn2IO6788n8KZfjc8RfSN/LnnV9HQI8Q/U3N8Mwho/HgN1R03QROgQW/d5clD/ltEYDJ5HmItolc+51dRhhKFLVNzXDMFqPBdgvoIlOofh3Zj5tPPpvF+AG0lw812XOva72JkyAVPXNzDCMkcfjwHaoSWKXCd61f0ftMBNgF7Av8DNC5f+SRPv930T7aWcbAT8FVqs6EUmFrEXotDup6kSUze+Im7V2r1SJlGk9wvz+/yB9q/keXPWvizApRNW/YAzDiI/TUZNcQfHvyi/zp9u6/YBzgSWUd7G8IVtp6utoqr9pGYaRJnqAfVBTzKD4d+Wh/OkO79XANZR/oVxN56yBUNRE4iaUMAyjfnET3tuaYh/ivivrQT36ABxEmOXqIsIYxzItAP6d8AE02XuBdatOQlJSOwKHVp2EsrgOWBqx/Yuh2gbA9sBlwAUMslZxCT5MB06HOELdwMeqTkJSKf6j6gSUxSLChFBF7QzVjAdcA5hOqIzHZDzu94D/l/F4dbUfsEmifS0CbiaMLZVUzFqEX+8p7ocvA7YG7kywL9XbX+iryAvYMWUirTqcuFmMisb5uGZ9vx8Q/3nOBN5N6EsgKd4UwjStTxJ/fX42c+6qxgco/h25IWeik4ift79oXASMK7+IbeMe4j7Pa+nrQCIpuS2AO4i7Ri/LnrWqELMuwJO5ktyV8Diqisr/FNp42sMSbEDc53k34XGlpPJsRpjrv+h1+gw+8WyCKcTdz0vvCP4RQk/F3BX/UuBTZReuDe1L3Of6mvwpS40U83i3l/AkQZ3vUYp/R0pbR2IM8P2IxGLidlzkZzDvovjnek8F+UpNNR54muLX66vyp6wKxMydc2QZwwDXAn4DvKeEfQ9lIfBfhF6RN2Y+drtYM2Lby5NlIWk4iwj9bYqanCoR1drdEduun/r9+KbAb4GtEu93KEsI82AfB8zJeNx2FLNgyOxkWUhqxayIbV0cqBkejtg2aQNgU0Lv080T7nMoMwkjC75DeA+i4cVME7o8WRaSWrEsYls7ATZDzI/eqakaAFsSKv9UE8wMZhlh5sBTgUsIC2BIktREMQ2ADVI0ALYivB/eKMG+BvM48E3CsD4f80uSFFcfTo5tAKxDmGinrMr/McIj/pOAeSUdQ5KkdvRUxLYTYxoAE4ALCY//U1tKqPS/RFjBT5IkPVtM/TipaAOgGziTclbxu5ywUNCtJexbkqROsTBi24lF5wH4b+CwiAMPZAFhopp9sfKXJGk42Z8AHERYtSqlG4C3AHcl3q8kSZ1qacS2o0b6BGAjwqQ7MePJV/U94OVY+UuSNBIxs/muGMnG3cCPCD3/U1gBHAu8n7gJLyRJaqKYCZ96RvIK4FjC+/kUFgKHEybzkSRJIxfzBKDlBsCWwOcjDrSyBYRlZa9MtD9JkpooZih/T6uth+8C4yIO1G8hcDBW/pIkxYpZ4XVRKw2At5BmbemlhMr/igT7kiSp6WIaAPOGawCsDnw94gD9eglj/F1TXpKkNKIaAMO9P/g4MDXiAP1mEGYOlIazNrAFsEbVidTQCmAucCf1WJ65i9A/aANgbMF9LOdfZVqRKK/BbABsRpjGvKhHgHuIm4FNSmVyxLZDriMwGXiC8Os9Ji4i7bwBKm4Gxc/j9JJzOwS4mlAJxH7nOj2eIMyfUeYKnENZk7BOx8whchxpPAp8izQ/OFY2Cjga+HvCXBcBPwNelDjXVZ0SkeO7Ss5N9fBein9Hzhlqx1+J2HF/PAysm6igijeD4udyekk5jSM8Haq6Um3HmEcYUZPTi4AHEuQ+WDxOuuHGawG/LzHX5cAnEuU6EBsAGs4XKf4d+e5gfQDWIyzIE6MHeCuhZS8NpAv4IeF7opFbA/g5sE+m4z0fuBR4XonHWIuwyuhLI/czlvDZpGpMDGQUcALx90qpqJhr8aHBGgDvByZG7Bjgf7HHv4b25r5QcWMIT1Bi3mu36jTyPNEbR5h1dEzEPj4LvDJNOsP6OrBVpmNJK4tpADwwUANgDPCeiJ0CzAY+F7kPdb7PVp1Ah9gIeFvJx3gF+Z40AGwNHFFw2/HAfyTMZThjgGMyHk/qt0XEtg8P1AA4FNgwYqcAHyW8n5QGszWwXdVJdJDXlbz/15a8/4EULdN+hCHMOb0WOzsrrzWAjSO2H/AVQOz7rGuAcyP3oc63TdUJdJht23z/KY9ZxXdrXcIQVimX7Sne6FzKAE8AtgH2jEop3ZoB6mw53lk3SWyfneGML3n/AylapipyBb/Tymv7iG3vBJat2gAo+s6t3++ByyL3oWaYVXUCHWZmyfuv4nwVLdPspFm0pn+SJimXnSK2vRWeu5RgbAPgy5HbqzmuB56uOokOUnbD+4qS9z+QomX6fdIsWnM1sKSC46q59ojY9jkNgK2BF0bs8Dac61+tWwL8X9VJdIgVwOklH+N8wgyEuSwlDAUs4n7yP4k8NfPx1GwTSfwE4PVR6cDJhNmFpFYdh49NU/gucEvJx3iKvEN7TwDujdj+E8DiRLkM52pszCqvXYHh1vIZyt/g2Q2Af4vY2QJc7EcjN4cw7HTIRSk0pIsodzralX0P+GaG45wHfCFyH38DjiI8SSjTHYQfTz0lH0daWUxn/Tn0Na77GwCrETf15q8JjQBppK4Fdgf+UHUibeYZwhOUQ4BlGY/7MeDdlDPF99PAscAbSbMy4LmEyYtuTrCvVfUAZxC+u3NK2L80lP0jtr2m/x/6HyG8lDD9ZlHnRWwr/QPYm9Cp5WDCErNTqkyoppYTKpvrCPPcP1JRHqcSVhI7mHDeNiT8iChiGaFM1xDK9HiC/FZ2DWEBo2mEm+bmwKSC++olvLK6hbAa4F0pEpRGaA3ifrBf2/8P/Q2AvSN29gzwm4jtpX7XstKXU7X2NPCTvqi7HsIiRpdWnYiUwDTi1sn45z22/xVAzPuEK4CFEdtLkqTWHBix7ULgz/3/0t8A2DFih767lSSpfGOIW/fjclaar6IbmAysH7HDKyK2lSRJrZlG3JoTl6z8L93Erci2EPhLxPaSJKk1sbP1Jm0A3E7omSxJksoznjBvSlH3ssrIlW7CFMBF3R6xrSRJas3hhFf2Rf1s1f/QTdz7fxsAkiSV712R2/901f/QDawTscO7I7aVJEnD2xp4ZcT297PS8L9+3cC6ETutaiYySZKa4v1AV8T25zLAYn2xDYAy5gOXJEnBFOIf/5810H/sJm7OdRsAkiSV530UX78CwlD9vw70P7p59pLAI+UKgJIklWM14MOR+zh1sP8RU/lLkqTyvBvYIGL7RQzy+B9sAEiSVEfjgc9G7uOnwFOD/U8bAJJUTzG9vtX+Pkjcr3+Abw/1P7sJa2UXtXrEtspvyfB/ZVBrJstCUitiZn1bnCwLVWEN4JjIfVwO3DjUX+gG5kccYGrEtspvYcS22yfLQlIrdojY9ulkWagKXyBuiD7ACa38pVsIEwQUiWmRCSqvwyl+rpcSN220pNbtTPFrtRd4Sf6Ulcg2hKe1Mef/Flp4hdQNPBmRqE8A2stdw/+VQY0BvpQqEUmD6gK+FrF9L3HXuqp1IjA2ch9fY4CZ/wZyFsVbGZ+KTFJ5jSHM3RDTsnxP9qylZvkycdfoHflTViKHEXfuewmL9I1q9YBfjTjQmREFVTV+S9yXq4fwnZmYO3Gpw60NnEF8BfCD3IkriSnALOLP/xtbPeBo4MGIhHeO2FbV+CVxfTe6CL1T3wacDfwJeDxBXlJTTQVeQbhxx/T87/fLBPtQfl8nftjfTYSFf1q2H8VbGsvxl2C7mUro0BfbyjQMo37xGPHvj5Xf/oSnq7Hn/5CRHLQbuC0i6VHAThHbK7+5wHlVJyGpFD8gNPDVPtYDTid+4qfLgF+NZINuYDZxj3D3idhW1TiB0FqU1DmeYZiZ31Q7XcBpxD/6Xw58bKQb9U8F/OeIA4/okYNq4S/AT6pOQlJSJxF+0Kl9fBh4TYL9fB+4uejGMyj+zmEF8a0X5bcRYQ6Iqt9ZGoYRH/cSt2a88nsZ8RP+9BL6faxVJIH+JwDXFi1B3z4Oithe1ZgJfKTqJCRFWwG8gzDHh9rDBoS+WCk6bH4SeCJmBxMJi0cUbYFcGnNwVep/qf7Xi2EYxeNY1E7GAleT5txfSqJVIy+LSKIH2DpFEsru5VR/AzMMo1gsAbZA7aKLNJM99RKe+Dw/Jpnulf75koj9dAHvi0lElVgfOKfqJCQVNhb4Gc7H0i6OA45KtK/PAfcn2hdbEdcaeRK/hO3m51T/C8YwjPhw+F/9vZN05/sKRjDff6v+HpnU+1MnpNK8hepvWoZhpIkVwJ6org4DlpHmXD8KbFhGkp+JTGwmMKGMxJTUeMIaEFXftAzDSBd/IlGHMCX1QR+WBgAAFCdJREFUGtIM9+sl9Lc7uKxEpyZI9DNlJadkPkL1NyvDMNKHE7PVyzRgEenOb+mves6KTPBJCk5KoCy6gbuo/kZlGEb6+D2qi1cDC0l3bq8FVkuZ4ECPi14J/CFyv9/GSWbqam/g8kT7Wk5oTMzt+2dJIzOWMCnMFjx7VFZRvX37ui/BvlTcG4AzSbcy4xzgJYTX7KW7hbiWygrC+taqn+8Q3xJ9DPg4sHbm3KVOtSFhiNgC4q/PT2bOXc/2bsIPolS//JeSuYPnBxIkfRd2CKyjO4k7r38lrCMgKb3tCb/eY65RZ2atRhdwPOkq/v74QM5CQOgl/lCCxL+RO3ENaT3izucDffuQVJ5tgKcofp3Op4Qx4hrSOOBs0lf+J+QsxMre3WKCQ8UK4LW5E9eg9iHufB6aP2WpkT5O3LW6ef6UG2tD4BrSV/7nkKZfSCGjgTuGSbDV1uh2mXPXwN5F8fN4P44xlnKZSFwP8mn5U26kvYHZpK/8ryQ8VSjVUK2L5cDnExxjdeAXwJQE+1KcyRHb9i8WJal8C4lbpt2h2OXqAo4BfktYUyWlvxOenC9OvN/nGO7xwnnAjQmOsxXhcUbSMYwasZi1GrIMP5H0TzHXnOuylGd94ELgq4Qn5SndBryKMJ9O6YZrAPQCHyS8y4/1KsKTABsB1Yl5hO84fymvpRHb2gmwHAcAfyFM8pPa3YR68tES9j2gVjoY/Ak4KdHxDgB+TPpWkyRJZZkCnAZcTJi4KbX7gH2BWSXse1Ct9jD8AmH8eAqvB34EjEm0P0mSyvIm4Hbg6JL2fxth4ryHStr/oFptACwirGXck+i4bwJ+gx0DJUn1tCVwEfATwkJ5ZfgzsBcV9bEayRjDq4CTEx57X8LYyS0S7lOSpBiTCRPw3Eo57/r7/QHYjzC1eiVGOsnAp4HrEx5/W+A6QmNAkqSqjCVMu3sn8AnSLeQzkLMJfeLml3iMYY20AbAYeB1pH1esA/wO+CaOEJAk5TUGOIrwLv47wLolH+9bwFvIMM5/OEWmGZxNWOowZojKqroIywdfh7MGSpLKNx54L/AP4AzKfx29hNDQ+Cjp+tNFKTrP8DXAh1Mm0udFhE4Rx+FKgpKk9NYDZhAWN/sesFmGY84kvOo+M8OxWhaz0MAPCI/tUxtPGHZ4B2G0gPPPS5JidBF6259JqPinU/6j/n6XATsTfjjXSuxKQx8HTkmRyAA2IQy/uIrQWcKGgCRpJDYFjiU85r8CeCsZFtnp0wt8Gfg34JFMxxyR2Bn5eoH3ETrvHRWfzoBeRph96SbC0IyzgWUlHUuS1N42Bo4g9FV7KdX8eJxNmDjokgqO3bIUU/L2AO8gDJk4MsH+BvNCwgyCxxM6bJxF6LUpSWquMYQfigf0xU5U+8T4Z8B7gMcrzKElqebkXwG8jfBK4Q2J9jmYTYD/7Iu/ERoCvyDdVMWSpPqaAOwG7Emo+PckLDtftfnAx4DTq06kVSkX5VlO6LT3APCphPsdyov64quERy5XEGZX+iOhQeAKdpLUnsYQfvBtQ3gC/EJgR8IEcnVbS+aXwIeAh6tOZCRSr8rXAxxDqHy/S96TtAGhAfKmvn9fBtzfl8udhIUWFhLWWV7Q988LM+ZXBxtWnUALJhA67jgMdGBzCUOKeqtOpM/6fVF0+dle/lWmsq1JeD8c0wnsKeBB6t8PaVNgl6qTGMBo/vVrfRLh1fHaq8QmhKF5G1P/ZY1nEobE/7zqROpmGqGy7TU6IqZTrn0IC0QtqUFZ6x4zgf8hzKJZhfGEacH/MUSOI40HCP17JifOtYuwAulVhFeVKXJ9itAPaevEua7qlET5GuljKXASsMagZ0+8ALiZ6k+WER/TKccYwtOiqsvXjvEosPeIP/E42xKeqJVVplnA7olyXR24oMRclxA6e5XFBkA94wLCawm1YBzwDcLrgapPnFE8pq96YhP5fg3K1s6xiHQV5nA2JLzjLLtMTxPe98YYQ1hjJMc5KKsRYAOgXvF34FVDnjENahp5bh5GOTH9uac02mE1KFcnxD2Uu3JZv0sylulm4t7/Hpsx10WEd+6p2QCoR9xGmOem7v0Ram9t4FyqP6HGyGP6AOcz1t9qUK5OiXeM8LMfqd0rKNMRBXNdjfz9j75bMNeh2ACoNu4grNoXO2NubeUu2OOEi3o/wsx+aq4tCBN2KI3DSt7/oSXvfyBFy7QP6TsTDudQnK68U9wIvB3YAfg/arJyXxmqatlcRhii8l5CRyY1zwuqTqDDlL2MdhXLdBc9ZhW5rg9MqeC4SqMH+DVhUqGXEGad7fh5ZKp8tLGcsKLgtsC3gMUV5qL8JladQIeZVPL+qzhfRctU1XerDrPRaWTuJ7zefD5wMHB1lcnkVod3G08AHyWcgOP7/l2db07VCXSY2W2+/5THrOK71VPRcTVyi4BzgP0JryL/izBRXOPUoQHQby5hfv/nEV4NOLd/Z7seeKbqJDrIFSXv/8qS9z+QKwpud3nKJFp0HWFeANXTEsIj/rcTXtccCVxKB7/fb3ejgdcSlv9dSPU9Qpse04c+XYX8sAbl6oRYAbx4hJ/9SK0NzMtYpmXEzbT3x4y59gLvjMh1MI4CiIu5hHf5b8IZ+9raJMJwjAtwqtiqYvqwZ2nkNiaMDKm6bO0ep4z0gy/o4xnLdGJkrruR715xA+WMEbcBMLJYQOhg/jlCJ/M6PeFWImsBhxM6Dv6ddPN7G0PH9FZOTgH7Ei7cqsvXrnE5cYvbjEQXcGqGMl1EmoXE3k54klBmrvcRFq8pgw2AwaOHMAHWuYQleHcl/eJ2agNrAYcAJwAXA3dT/kXfxJje6gkpYCfgzzUoYzvFEuDr5JkBcGVdhCcBZbwOWAR8ibQ38mmEe0IZ5+B8YN2Eua7KBkAYHXYHYaGwkwnTLu+BIy6S6NSJK8YSlpPcmtDLc33CO8y1+Ne7oInkv3lWbUPCsslFzACOS5fKc3QR5tk+hHDuppZ4rHa1hNAz/k+EXswPVpjL2oRV9vYivMopunzzYsICQNcQfs2VsSzwWMIQrwMIU/auVXA/ywnvlW8GziPMZFmmU4B3Fdz2AeCxhLmkspyw1gOEJ3/LCA2/xwivAx/ri0cIT1dmERoCkiLNoHhLfHr+dKVGi3kCULThoAaxk4QkSQ1kA0CSpAayASBJUgPZAJAkqYFsAEiS1EA2ACRJaiAbAJIkNZANAEmSGsgGgCRJDWQDQJKkBrIBIElSA9kAkCSpgWwASJLUQDYAJElqIBsAkiQ1kA2AZlkWse0aybKQ1IopEdsuTpaFOpYNgGZ5OmLbFyTLQlIrYq65BcmyUMeyAdAssyO23RdYJ1Uikoa0A7BdxPazUiUiqTO8COiNiJPzpyw10q+Ju1ZjXh9I6kBjgWcoflPpAd6SPWupWT5LXOV/T/6UJbWDy4i7uawA/pPQmJCUziTCU7aY67MXOD134mpPXVUnoOw+BpyUYD/3AWcC1wNzEuxPaqJuYAPgFcDbgKkJ9nkY8PME+1GHswHQPBsBDwCjqk5EUnLzgPVxGKBa4CiA5pmJvw6kTnUKVv5qkU8Ammk34Do8/1InWQJsBTxUdSJqDz4BaKbrgfOqTkJSUt/Eyl8j4C/A5toUuAmn+JU6wUPAjoQ+AFJL7AjWXPOAx4BDqk5EUpRe4AjgtqoTUXuxAdBsfwE2BnauOhFJhR0HnFZ1Emo/vgLQroQ+AZLajx3/VJidAJttbeCcqpOQVNhqwPnAuKoTUfvxFUCznQG8vOokJEXZiNAQ+G3Viai9+AqguQ4j/HKQ1P5WAHsAN1SdiNqHDYBmGgvcCmxZdSKSkrmW8ESvt+pE1B7sA9BMR2PlL3WaPYD9q05C7cMnAM3TBdwObFN1IpKS+x3wqqqTUHuwAdA8ewJ/TLSvXmAWMBcfO0pFjCKs3rd+ov31ApsRVvyUpGf5NuEmERPzgS8Am2TOXepUWwMnEsb1x16fn8ycu6Q2cTtxN5fbgM2zZy01wy6EJbtjrtFLsmctqfbWBXoofmOZRRhzLKk8LwSeJu4JnXO8SHqWvYj7ZXFk/pSlRvoMcdfqpvlTllRn76D4DeVhHDYq5bI6sIji1+t++VNWu/GG3ixTIrb9HeH1gaTyPU2Y2KeotVIlos5lA6BZJkZs+3CyLCS1ImaFv0nJslDHsgHQLDHne1myLCS1YmnEtnYC1LBsAEiS1EA2ACRJaiAbAJIkNZANAEmSGsgGgCR1nt6qE1D92QCQpHp6KmLbJ5JloY5lA0CS6umuirZVQ9gAkKR6uhBYUWC7e4FbEueiDmQDQJLqaSZwRoHtjk+diDqTDQBJqq9PAXeP4O//hmKNBjWQDQBJqq8ngP2B21r4u78CjqDYawM1kA0ASaq3e4HdgM8Dswb4/7cCbwMOBRZkzEttbnTVCUiShrUQ+BLh/f72wKaExYLuBu6rMC+1MRsAktQ+egk9/O3lr2g2AFQ3Y4D1gKlAV8W51M1iYDb1muRlErAxMLHg9osIj7VjJr1p1WrA+sA6BbdfBjwCzMWZ9iS1mRmEG1eRmF5ybrsB5xLeYRbNsSlxJ+F8rFHok443BvggcOMQOY40bgM+Q/GGxFAOIPSOX5Io1znAd4BNSshVkkoxg/o1ALqBrwE9Ebk1NWYCLx35Rx7l+cBNkXkPFfcDOyXKdTxwVom5PgO8OVGuklSqGRS/2U0vKadvR+RkhEpolxF/6sVMBR7MUKZ5hI5uMbqBCzLk2oONAEltYAbFb3TTS8jnNRH5GP+K28nTn+eXGct0I3HDlD+eMdeFwEYRuUqVcB4AVWlG1Ql0iG2BN5V8jF2AQ0o+xsp2jjjeWOCzCXMZzgTgmIzHk5KwAaCqbAq8pOokOsjhbb7/lMfci+I9/Yuq4vORotgAUFV2qDqBDlP251nF+Sp6zCpy3QiYUsFxpcJsAKgqq1edQIdZs+T9Typ5/wMpWqaqvltVDcuUCrEBoKrMrTqBDjO75P1Xcb6KlmlO0ixa04vfabUZGwCqyg2Eme2UxpUl7/+qkvc/kKJlqiLX6/H7rDZjA0BVWQCcV3USHaIX+FHJx+ifpTGXFcCPC257G6FCzumMzMeTotkAUJU+D8yvOokO8H+UX+E9Any55GOs7AeEZW6L+gSwPFEuw7kZODXTsSSpkBkUn+xkekk5HUhYEKbqyXTaNa6jnPnzB9JNuVPr9sflhIV7Yr2f8CShzFxnApsnyFWSSjWD4je66SXmtTvhsW3VlWk7xXLg+4T57nPqJjy5eSYi98FiKfANwkQ+qRwCPFxCrr3AJcCGCXOVsnI5YNXBdcALCTfrg4CtyF+xtYtHCI/7zwbuqOD4PcAXgR8S5sB/BbABca8T5wLXEsp0d2yCq/gV8DvgCMKqgM8j7unCPMJiSOdTTWdDSSpkBsV/7UzPn64kqSx2ApQkqYF8BSBJ7aGbsM7BNGATYBlwF3AhYSSCJA1qBr4CkNrRKwmV/GDX54XAZpVlp7bkKwBJqre3EToyDrXI0YGEzqG7ZMlIHcEGgCTV18sIIy7GtPB31wF+CaxbakbqGDYAJKmeuoBv0Vrl328j4AvlpKNOYwNAkuppV4o90v93YFzaVNSJbABIUj3tW3C7ScBuKRNRZ7IBIEn1tFHEtpsky0IdywaAJNVTzGN8p9LWsGwASJLUQDYAJElqIBsAkiQ1kA0ASZIayAaAJEkNZAOgWZZFbLt6siwktWLNiG0XJ8tCHcsGQLPMj9h2m2RZSGpFzDX3dLIs1LFsADTLIxHb7gdMSZWIpCFtA7wwYvu5qRKR1BlexODribcSJ+RPWWqk84i7Vm2sS3qW8YR3g0VvKiuA12XPWmqWjxBX+T+YP2VJ7eBy4m4uS4GPAqNyJy51uHHAV4Ae4q7R/5c5b7Wp0VUnoOx+A+wdsf0Y4BvAuwk3muuAOYSbltJ4BFhQcQ4TgPWwn1DZRgMbAq8Ejgaen2CfFyfYhxqgq+oElN3GwP34C77u7gHOBk4Ensh0zInAh4G3ADtkOqbSmgdsACyqOhFJ9fRr4h4xGvniMWDawKcxqZ2BByoon5E2vrPqiZWklb2c6m9URuuxFNhnwDOZxg6EOSKqLqcR/z3ZFKlFvt9rpqvxPWE7GQOcRTmzMY4ivGpwpsf29wPCUxxJGtIWwDNU/6vFaD2OHfBMxnlzDcplxMccYDLSCPgEoLnuAT5TdRIakde3yT6VVy/wXuCpqhOR1D66iJ9xzMgXi0k/cufOGpTLiAtn6FQhDgPUBOB3wB5VJ6KWTCDtEK85wNSE+1NePwPeQJilUxoRXwHoGeAg4M9VJ6JhzSP9+O6YBaJUrYsJczZY+asQGwCCMNHMvsClVSeiIV3dJvtU+c4AXkt4LSRJ0UYBXyT8oqj6vabx3Dhi8FNX2O41KJfReiwGPjjgmZSkBPYEbqb6m53xr7iK8vrsnF2D8hnDx5U4RbOkDMYA7wHupfobX9PjXsL87mVZHbixBuU0Bo6bCE9/7LQtKasxwOuAXxA6oFV9M2xa/ApYd9izFG8iYXVHX//UI+YDZxLWgbDiVyn8YmkkxhPWEdgVeAHwPMKvR2cgS2c5MBf4C3AOcG3m4+9ImB1wd2B9YGzm4zdNL2ECn3nAfcA/gGuAPxG+C5IkSZIkSZIkSZIkSZIkSZIkSZIkSZIkSZIkSZIkSZIkSZIkSZIkSZIkSZIkSZIkSZIkSZIkSZIkSZIkSZIkSZIkSZIkSZIkSZIkSZIkSZIkSZIkSZIkSZIkSZIkSZIkSZIkSZIkSZIkSZIkSZIkSZIkSZIkSZIkSZIkSZIkSZIkSZIkSZIkSZIkSZIkSZIkSZIkSZIkSZIkSZIkSZIkSZIkSZIkSZIkSZIkSZIkSZIkSZIkSZIkSZIktbn/DxoPIHItvG7AAAAAAElFTkSuQmCC;" vertex="1" parent="1">
          <mxGeometry x="1332.5" y="120" width="60" height="60" as="geometry" />
        </mxCell>
        <mxCell id="JrltaCKAHfsCq2pV7cOK-3" value="" style="endArrow=classic;startArrow=classic;html=1;rounded=0;exitX=0.5;exitY=0;exitDx=0;exitDy=0;" edge="1" parent="1" source="IZlDyetnFrTAtIApsN1v-1">
          <mxGeometry width="50" height="50" relative="1" as="geometry">
            <mxPoint x="1310" y="230" as="sourcePoint" />
            <mxPoint x="1360" y="180" as="targetPoint" />
          </mxGeometry>
        </mxCell>
        <mxCell id="JrltaCKAHfsCq2pV7cOK-4" value="" style="shape=image;verticalLabelPosition=bottom;labelBackgroundColor=default;verticalAlign=top;aspect=fixed;imageAspect=0;image=data:image/png,iVBORw0KGgoAAAANSUhEUgAAAgAAAAIACAYAAAD0eNT6AAAABHNCSVQICAgIfAhkiAAAAAlwSFlzAAAOxAAADsQBlSsOGwAAABl0RVh0U29mdHdhcmUAd3d3Lmlua3NjYXBlLm9yZ5vuPBoAACAASURBVHic7d13uB1Vufjx7zkppAEJLVSRjhRREARFafGCCCggig0v9l6uiqhXE66iVy+CBb0qCD/EKyBgQ0BQAZEmiIUuvaXRExLSz/n9sc7REE7ZZ9aaNbP3fD/P8z6hZGbetWfPrLVnVgFJkiRJkiRJkiRJkiRJkiRJkiRJkiRJkiRJkiRJkiRJkiRJkiRJkiRJkiRJkiRJkiRJkiRJkiRJkiRJkiRJkiRJkiRJkiRJkiRJkiRJkiRJkiRJkiRJkiRJkiRJkiRJkiRJkiRJkiRJkiRJkiRJkiRJkiRJkiRJkiRJkiRJkiRJkiRJkiRJkiRJkiRJkiRJkiRJkiRJkiRJkiRJkiRJkiRJkiRJkiRJkiRJkiRJkiRJkiRJkiRJkiRJyqGr6gQk1dqawEbAusBUYL2+f54MTATW6Ps7k4DVVtpuMuH+shx4eqX/vqAvFgJP9f2/J4A5wGPAo8BsYCawrKQyScIGgCTYBNimL7YGng9s2heTK8ppBaEh8ABwP3AvcAfwD+BOnt2okFSADQCpOSYAOwI7Ay/ui20Jv97bzUPATcDf+uKvhEZCb5VJSe3EBoDUuTYHXgbsAewJbA+MqjSjcj0BXAtcB1wDXE943SBpADYApM6xCTAN2A/YF9ig2nQqtxy4Afg9cBmhcbC40oykGrEBILWvscBewEHA/oR3+BrcIuAPwK+BCwl9CyRJaguTgaOAc4F5hHfeRrG4BfgyoU+EJEm1szrwFuBXhEfYVVecnRj3AP8N7NLiOZEkqRSjgAOAs4FnqL6CbFLcCnwa2HjYsyRJUiJbEx5LP0z1FWHTYwVwKfAGYMxQJ02SpCK6Cb33LwB6qL7iM54bcwivCDYb5BxKktSyKcCxhN7oVVdwRmuxHDgP2PW5p1OSpKFtSvg1+RTVV2hG8bgKOBiHU0uShrE98GPCIjdVV15GuvgrcCSdPcuiJKmA7YFzCJ3Kqq6sjPLiHuADwHikNuCjK6k82wIzgCMIHf3a1TJCJ7iH+v58uO/PxwmdFucRGjfz+dfyv8sI8/BP6dvHQH+OJiwxvBGwPmEq46l90c5mAl8ETsMljVVjNgCk9NYnVPzvJFRy7WAJcBthdrxbgNsJFf1sYC7hF24uYwmf4cbAloQnKDsC2xH6T7SLu4EvEJ7+9FSci/QcNgCkdCYBnwI+AUysOJehzCKsmHcrcHNf3E349V53axAaAjsSGga79kWdx+nfCHwc+GPViUiS0jsYeIDq30MPFLOAnwLvIVSandbwn0BY7vjThLkU6jq64gLCEs2SpA6wE3Al1VcuK8dM4HTg7TRz4poxwMsIDYIrCE82qj4n/bEIOA4YV1bhJUnlmgR8g/pULncDXwP2oL07HJZhHeBo4BfUZ12Fu4B/K7PQkqT06vK4/++EzoYvLLW0nWUCcChwBmEUQ9Xn8GxCh0dJUo1NJbxLr7LCeIhQ6W9ZblEbYSxwOHAh1T7JeYyw3LMkqYYOJHSmq6KCWAH8ljCfQLsMK2w3GxL6DNxNdQ2BC3EJYkmqjcnAj6imQniAMI58o9JLqX7dwH7AT4DF5D/nTxCWH5YkVWgv4EHyVwJ/AF6Dnfmqtj7VLdp0OrB6+UWUJK1sFDCd/O+FLyKMZ1e9rAEcQ/5XQHcDu2conySJ0NHvUvLd5FcQJojZLUfhFGUscBRhmuRc349lhL4JnTZ5kyTVyj7AI+S7sf8IeEGWkimlbuCNhLH8uRoC5wNr5iicJDXNfxAq5Rw384sJ89mrvY0FPgI8Sp7vzV0454MkJTMROIs8N/BbgQPyFEsZrUnoLJhjlsGngcPyFEuSOteGwA2Uf9N+nPAed2yeYqkiGwPfp/zOoz2EBoejRCSpgF0Ii+aUeaNeAnydMJeAmmMXwhLAZTcszwPGZyqTJHWEw4CFlHtz/hNh6V0102jgk5T/PbsWWDdTmSSprX2QMPSurBvyIsLj/lG5CqRa2wy4hHIbAfcC2+YqkCS1my7gi5R7I74K2CZXgdQ2uoC3Exb9Keu79xhOGiRJzzEK+AHl3XwXAh/DTlka2nqE9/ZlfQ+fBqZlK40k1dwYyl3C92pgi2ylUSd4H+UNGVyMwwQlibHAzynnRtsDnEhoYEgjtSNwG+V8N5cTpiyWpEZaDfgl5dxg5wNH5CuKOtR44JuU10B9b76iSFI9rAb8hnJurH8FtsxXFDXAm4F5pP+urgD+PV8xJKlaYyjvl/+pOPGKyrElYapoGwGSVMAo4GzS30QX401U5VuTcuYMWI6vrCR1sC7gNNLfPJ8A9s5XDDXcaOA7pP8eLwFenbEckpTN10h/03wY2ClnIaQ+7yH98tTPAK/MWQhJKtvHSF/53whskLMQ0ipeTfrOgU8CO+QshCSV5UjSz+1/ETApZyGkQewAPETa7/cDhKWwJaltvYLwbjPlzfEUwntYqS42B+4j7ff8r8DqOQshSalsDjxK2pvi17OWQGrdJsCdpP2+X4yrVkpqM6sDN5H2ZnhS1hJIIzeV9N/7E7OWQJIijAIuJO1N8JuEYYRS3a0L/I203/+js5ZAkgo6nrQ3v+9j5a/2Mhm4jnTXwFIcHiip5g4hLHKS6sZ3Mlb+ak9rEjrypboWZgHrZy2BJLVoS8IY5lQ3vO9i5a/2tj5wD+muicuwU6CkmhkP/J10N7qfAt1ZSyCVY0tgLumujePzpi9JQzuZdDe4q4FxedOXSrULMJ8018cK4MC86UvSwA4k3Xv/e4D18qYvZbEPYdXKFNfJIzgNtqSKbUS6yX4eA7bJm76U1RtJNy32JdhHRlJFuoDfkeZmtgjYM2/6UiU+TbrXZR/NnLskAfBB0tzEegi/jKQm6CJ0ck3VcHblQElZbQEsIM1N7LjMuUtVmwTcQprr5wZcHEtSJt3AH0hz87ocxzWrmbYi3bwZn82cu6SG+ghpblqzcWYzNVuqmTMXA9tlzl1Sw2xMmvHMy4F9M+cu1dF/kaZBfR1OniWpRD8nzc1qeu7EpZrqBi4mzXX1/sy5S2qIA0lzk3I+c+nZ1iXNdMFP4QRBkhKbADxA/A1qFjA1c+5SO3g9aRrYZ+ZOXFJnO440N6eDcicutZEzib/GeoC9cicuqTNtAiwk/sb049yJS21mTdI8afsrvmaTlECKWcsexUV+pFbsR5qhge/MnbikzrInaR79H5k7camNpVheezaweu7EJXWOq4i/Ef0qe9ZSe5tAWBo79tr7au7EJXWGg4m/AT1FWDJY0sgcQvz1twx4Ue7EJbW3buBvxN+A3pU7camDXEj8NXgv9r+RNAJHEX/juY6w9KmkYrYGlhB/Ld6I829IasFkQgei2JvOnrkTlzrQV4i/FnuB+4BXZM5dUpv5HvE3m/OzZy11pknAw6RpBKwAzgC2zVoCFeYjVOX0IeDbkftYBmwP3BWfjiTgTcBPEu/zz4RFiG4izNOxoO+/dxGeAvZbCCwldOhd3vfnvMS5aBA2AJRDF/AR4ETilxT9FvDR6Iwk9esCLqc+U/wuJTQaHiW8LpxDGLZ4d9+f9wBPVpadpJZtS7rlSJ8E1smbvtQI2wCLSHOd5ojZhPvKV4A39uXvD1qpYl2ESv/dhAs0xbSj/XFMxnJITfNZqq/YY+JR4OfAx4GX4HoFw7LFpCmEBXk2Jawbvnbfn2sS3tWN6vvnoYwHxvX9vU2A1UrI837gBcDiEvYtCcYANwA7VZ1IIvOASwjzHVxMaCBoJTYAmqEb2Iowa9e2hIp0G2BLQi/gdnAEcF7VSUgdbnPgWjpvcp8e4HrgZ8A5wIPVpiOVZyLwauBrwBWElnDVj+di4vKkn46koewOPEP1131Z0QNcCbwf+xSpA4whTMIxg/DFXkr1F1mqeAbYLtknJakVhxOG3FZ9/ZcdSwhPBPbBJ+JqI5OBownvtxZQ/YVUVnwg1QcmaUQOAJ6m+ntArriD0IFw5XkKpNqYABwJ/ILQGa7qC6bsOB9b5VKVdgZmUf29IGfMB/4HVxpVDYwiLJ37Ezr7l/6qcTWhwSOpWhsBF1H9PSF3LAF+SOgwLWU1GfgEYZGNqi+E3HETsFb8RygpoaMJk3FVfX/IHcsJDYHnxX+E0tC2Bk6mWe/eVo4rCXMTSKqfDQnTcXfyKIHBYjFwEmGeFCmpfYFfE1bUqvqLXlWcTphUSFK9TSUMM27iE4H5wCcJo6+kKLsBv6f6L3WV8QRhRTJJ7WUsYc6RUwkz7VV9L8kZtwHT4j/C6tjDujovAL4EHEpzz0MP4d3a53CaTqnddRFmEtwJ2JHQeW4csHrfn+MJTzjnr7TNmsDovj/HER6vt9sv6/MIK5TOqjoR1d/zgNMIHUuqbsFWFfaulTSYtQk/kPYG3gEcT5is50bqO/z5CeDtJXwW6hDjgC/SXktupq70rwQ+RLjAJWmkRhOeLrwNOBH4E/WasfDXOH+AVrEX8A+q/3LmrOzvAn4LHEfo4OiYfkllmAS8ivBK9UbSLkFeJJ4E3lhqiRNp6rvnXKYQesq+k3p/1o8Dc4DZfTGH8D7rEULrul8PYWGhfqv1xXzC+gMLV9pPT+lZS9JzbQgcSJhAbX/KWZ68FacQ+gYsquj4qtDBwMNU/2t85ZgP/Bn4EeGLOQ3HtErqXJOBo4ALqOZVwe3AC0svpWpjCmHN6aor+17CL/vzCMtebkO9n0JIUpk2JrySzP3DbCFhDRd1uN2B+6muwl8O/A44BtgF6C61tJLUfkYThl9fTr57cw/wFbwnd6QuwiP1JVRT8d8KfBrYoOyCSlIHeTHhlWiuYdkX43LDHWVtwvulKir9Y4Hnl15CSeps2wJnkWcEwa24sFBH2AN4kHyV/grCONNp+D5fklJ7EXAh5d/LHwZ2yFQmleAI8k3qswD4DmGlQElSufYmLEte5n39CeAVmcqjhP6DPKv2zQO+gMvjSlJuowl9u8pc8XARcEiuAilON/BNyq/4XXdakuphKnA25d3vlxBGJajGViMsSFFmxb8C+ClhRS1JUn0cRHlzCCzHJdFray3gGsqt/K/GGaMkqc7WprwfgkuBw/MVRa1YE7ie8ir+hYQx/KNyFUiSFOUoQufsMhoBB2Ysh4YwkbCEbVmV/4U4HlSS2tG2wN9JXy88A7w8Yzk0gEnAHymn4n+UNlkuUpI0qImEflup64jHgO0ylkMrmUB580T/kbAohSSp/XUB/0n6oeEPYl2R3TjgUtJX/D3AfxPGlkqSOsshpO8XcCPhB6ky6KacpXwfxY4dktTpdgMeIW39cQ5O/Z7FSaSv/K8HNslZCElSZbYG7iVtPfKFrCVooA+TvvL/NaGTiCSpOTYAbiFdXdIDvDZrCRpkP9KvB30aMCZnISRJtbEuaRcUehLYLGsJGmBTwjv6lC21GTkLIEmqpdSNgOuBsVlL0MEmAH8h3clZBrw9awkkSXW2LnAb6eqZE/Km37lOJd1JWQ68JW/6kqQ2sAlhXH+qp8z7502/87yBtI/935M3fUlSG9kKmEuaOmcmMCVv+p1jS2Ae6Sr/9+VNX5LUhnYHFpGm7jktc+4dYRRwHel+/X8qb/qSpDZ2BOGHY4r653WZc297x5Ku8p+RN3VJUgf4MmnqoIeB1TPn3rZ2ABaT5oP/KU7PKEkauW7gV6Spi76eOfe2NIowhjLFB+4CDZKkGFOA+4ivj5YSftxqCKmm+p2Nc/tLkuLtCiwhvl76Iz6RHtQGwFPEf8iLCL04JUlK4ROk+XF6ZO7E28VZpPmAHesvSUqpC7iM+PrpHpwm+Dl2J82Qi1/kTlyS1AjPB+YTX099KHPetdYFXEX8hzoXmJo5d0lSc7yP+LrqERwW+E9vIv4D7QFenTtxSVKjdAGXE19nfT534nU0Brib+A/z27kTlyQ10naEYX0xddbj+BSAdxNf+d+F4/0lSfn8D/F11yezZ10jqwEPEP8hviZ34pKkRludMMVvTN01k1APNtL7ia/8L8ietSRJcDTxdVgjh62PIv7d/2LCksGSJOU2CriVuHrsdho4O+AbiG85HZ89a0mS/uW1xNdl+2XPumKxC/48BEzMnrUkSc92HXH12Xn5U67Oy4hvMb0re9aSJD3XIcTVZ8uADbNnXZEzifuwHsC5lCVJ9dAF3ExcvdaIiYHWIazWF/NBfTB71pIkDe6txNVrd9GAzoDHEPchzQLGZc9akqTBjSZ+XoDdBtpxd8mJ5/S2yO1PIAz/kySpLpYDp0Tu480D/cdOeSywM3BjxPaPApsBC9Ok0wjrAM8D1iSMWZVUzDJgHnBf35/SqjYk9FEbXXD7ucDGhMbEPxXdWd28NXL7H2LlP5wtCT1SpxEeJ61dbTpSR5oNXAv8HvgF4dWkNIvwfXh9we2nAq8grDbYUcYCcyj+bqQH2Cp71u2hmzCx0pWEzynmHZRhGCOL5cBFwP5IYW2amO/TiflTLt9RxH0of8ifcls4iDCVZNU3QcMw4E+EeU7UXGOARyj+Hborf8rlmgDcT9yFdVTupGtuHeB8qr/hGYbx7OgBvodLlDfZycR9h7bNn3J5TiXuw3gKL6aV7UGYCrnqG51hGIPHLcA2qIn2IO6788n8KZfjc8RfSN/LnnV9HQI8Q/U3N8Mwho/HgN1R03QROgQW/d5clD/ltEYDJ5HmItolc+51dRhhKFLVNzXDMFqPBdgvoIlOofh3Zj5tPPpvF+AG0lw812XOva72JkyAVPXNzDCMkcfjwHaoSWKXCd61f0ftMBNgF7Av8DNC5f+SRPv930T7aWcbAT8FVqs6EUmFrEXotDup6kSUze+Im7V2r1SJlGk9wvz+/yB9q/keXPWvizApRNW/YAzDiI/TUZNcQfHvyi/zp9u6/YBzgSWUd7G8IVtp6utoqr9pGYaRJnqAfVBTzKD4d+Wh/OkO79XANZR/oVxN56yBUNRE4iaUMAyjfnET3tuaYh/ivivrQT36ABxEmOXqIsIYxzItAP6d8AE02XuBdatOQlJSOwKHVp2EsrgOWBqx/Yuh2gbA9sBlwAUMslZxCT5MB06HOELdwMeqTkJSKf6j6gSUxSLChFBF7QzVjAdcA5hOqIzHZDzu94D/l/F4dbUfsEmifS0CbiaMLZVUzFqEX+8p7ocvA7YG7kywL9XbX+iryAvYMWUirTqcuFmMisb5uGZ9vx8Q/3nOBN5N6EsgKd4UwjStTxJ/fX42c+6qxgco/h25IWeik4ift79oXASMK7+IbeMe4j7Pa+nrQCIpuS2AO4i7Ri/LnrWqELMuwJO5ktyV8Diqisr/FNp42sMSbEDc53k34XGlpPJsRpjrv+h1+gw+8WyCKcTdz0vvCP4RQk/F3BX/UuBTZReuDe1L3Of6mvwpS40U83i3l/AkQZ3vUYp/R0pbR2IM8P2IxGLidlzkZzDvovjnek8F+UpNNR54muLX66vyp6wKxMydc2QZwwDXAn4DvKeEfQ9lIfBfhF6RN2Y+drtYM2Lby5NlIWk4iwj9bYqanCoR1drdEduun/r9+KbAb4GtEu93KEsI82AfB8zJeNx2FLNgyOxkWUhqxayIbV0cqBkejtg2aQNgU0Lv080T7nMoMwkjC75DeA+i4cVME7o8WRaSWrEsYls7ATZDzI/eqakaAFsSKv9UE8wMZhlh5sBTgUsIC2BIktREMQ2ADVI0ALYivB/eKMG+BvM48E3CsD4f80uSFFcfTo5tAKxDmGinrMr/McIj/pOAeSUdQ5KkdvRUxLYTYxoAE4ALCY//U1tKqPS/RFjBT5IkPVtM/TipaAOgGziTclbxu5ywUNCtJexbkqROsTBi24lF5wH4b+CwiAMPZAFhopp9sfKXJGk42Z8AHERYtSqlG4C3AHcl3q8kSZ1qacS2o0b6BGAjwqQ7MePJV/U94OVY+UuSNBIxs/muGMnG3cCPCD3/U1gBHAu8n7gJLyRJaqKYCZ96RvIK4FjC+/kUFgKHEybzkSRJIxfzBKDlBsCWwOcjDrSyBYRlZa9MtD9JkpooZih/T6uth+8C4yIO1G8hcDBW/pIkxYpZ4XVRKw2At5BmbemlhMr/igT7kiSp6WIaAPOGawCsDnw94gD9eglj/F1TXpKkNKIaAMO9P/g4MDXiAP1mEGYOlIazNrAFsEbVidTQCmAucCf1WJ65i9A/aANgbMF9LOdfZVqRKK/BbABsRpjGvKhHgHuIm4FNSmVyxLZDriMwGXiC8Os9Ji4i7bwBKm4Gxc/j9JJzOwS4mlAJxH7nOj2eIMyfUeYKnENZk7BOx8whchxpPAp8izQ/OFY2Cjga+HvCXBcBPwNelDjXVZ0SkeO7Ss5N9fBein9Hzhlqx1+J2HF/PAysm6igijeD4udyekk5jSM8Haq6Um3HmEcYUZPTi4AHEuQ+WDxOuuHGawG/LzHX5cAnEuU6EBsAGs4XKf4d+e5gfQDWIyzIE6MHeCuhZS8NpAv4IeF7opFbA/g5sE+m4z0fuBR4XonHWIuwyuhLI/czlvDZpGpMDGQUcALx90qpqJhr8aHBGgDvByZG7Bjgf7HHv4b25r5QcWMIT1Bi3mu36jTyPNEbR5h1dEzEPj4LvDJNOsP6OrBVpmNJK4tpADwwUANgDPCeiJ0CzAY+F7kPdb7PVp1Ah9gIeFvJx3gF+Z40AGwNHFFw2/HAfyTMZThjgGMyHk/qt0XEtg8P1AA4FNgwYqcAHyW8n5QGszWwXdVJdJDXlbz/15a8/4EULdN+hCHMOb0WOzsrrzWAjSO2H/AVQOz7rGuAcyP3oc63TdUJdJht23z/KY9ZxXdrXcIQVimX7Sne6FzKAE8AtgH2jEop3ZoB6mw53lk3SWyfneGML3n/AylapipyBb/Tymv7iG3vBJat2gAo+s6t3++ByyL3oWaYVXUCHWZmyfuv4nwVLdPspFm0pn+SJimXnSK2vRWeu5RgbAPgy5HbqzmuB56uOokOUnbD+4qS9z+QomX6fdIsWnM1sKSC46q59ojY9jkNgK2BF0bs8Dac61+tWwL8X9VJdIgVwOklH+N8wgyEuSwlDAUs4n7yP4k8NfPx1GwTSfwE4PVR6cDJhNmFpFYdh49NU/gucEvJx3iKvEN7TwDujdj+E8DiRLkM52pszCqvXYHh1vIZyt/g2Q2Af4vY2QJc7EcjN4cw7HTIRSk0pIsodzralX0P+GaG45wHfCFyH38DjiI8SSjTHYQfTz0lH0daWUxn/Tn0Na77GwCrETf15q8JjQBppK4Fdgf+UHUibeYZwhOUQ4BlGY/7MeDdlDPF99PAscAbSbMy4LmEyYtuTrCvVfUAZxC+u3NK2L80lP0jtr2m/x/6HyG8lDD9ZlHnRWwr/QPYm9Cp5WDCErNTqkyoppYTKpvrCPPcP1JRHqcSVhI7mHDeNiT8iChiGaFM1xDK9HiC/FZ2DWEBo2mEm+bmwKSC++olvLK6hbAa4F0pEpRGaA3ifrBf2/8P/Q2AvSN29gzwm4jtpX7XstKXU7X2NPCTvqi7HsIiRpdWnYiUwDTi1sn45z22/xVAzPuEK4CFEdtLkqTWHBix7ULgz/3/0t8A2DFih767lSSpfGOIW/fjclaar6IbmAysH7HDKyK2lSRJrZlG3JoTl6z8L93Erci2EPhLxPaSJKk1sbP1Jm0A3E7omSxJksoznjBvSlH3ssrIlW7CFMBF3R6xrSRJas3hhFf2Rf1s1f/QTdz7fxsAkiSV712R2/901f/QDawTscO7I7aVJEnD2xp4ZcT297PS8L9+3cC6ETutaiYySZKa4v1AV8T25zLAYn2xDYAy5gOXJEnBFOIf/5810H/sJm7OdRsAkiSV530UX78CwlD9vw70P7p59pLAI+UKgJIklWM14MOR+zh1sP8RU/lLkqTyvBvYIGL7RQzy+B9sAEiSVEfjgc9G7uOnwFOD/U8bAJJUTzG9vtX+Pkjcr3+Abw/1P7sJa2UXtXrEtspvyfB/ZVBrJstCUitiZn1bnCwLVWEN4JjIfVwO3DjUX+gG5kccYGrEtspvYcS22yfLQlIrdojY9ulkWagKXyBuiD7ACa38pVsIEwQUiWmRCSqvwyl+rpcSN220pNbtTPFrtRd4Sf6Ulcg2hKe1Mef/Flp4hdQNPBmRqE8A2stdw/+VQY0BvpQqEUmD6gK+FrF9L3HXuqp1IjA2ch9fY4CZ/wZyFsVbGZ+KTFJ5jSHM3RDTsnxP9qylZvkycdfoHflTViKHEXfuewmL9I1q9YBfjTjQmREFVTV+S9yXq4fwnZmYO3Gpw60NnEF8BfCD3IkriSnALOLP/xtbPeBo4MGIhHeO2FbV+CVxfTe6CL1T3wacDfwJeDxBXlJTTQVeQbhxx/T87/fLBPtQfl8nftjfTYSFf1q2H8VbGsvxl2C7mUro0BfbyjQMo37xGPHvj5Xf/oSnq7Hn/5CRHLQbuC0i6VHAThHbK7+5wHlVJyGpFD8gNPDVPtYDTid+4qfLgF+NZINuYDZxj3D3idhW1TiB0FqU1DmeYZiZ31Q7XcBpxD/6Xw58bKQb9U8F/OeIA4/okYNq4S/AT6pOQlJSJxF+0Kl9fBh4TYL9fB+4uejGMyj+zmEF8a0X5bcRYQ6Iqt9ZGoYRH/cSt2a88nsZ8RP+9BL6faxVJIH+JwDXFi1B3z4Oithe1ZgJfKTqJCRFWwG8gzDHh9rDBoS+WCk6bH4SeCJmBxMJi0cUbYFcGnNwVep/qf7Xi2EYxeNY1E7GAleT5txfSqJVIy+LSKIH2DpFEsru5VR/AzMMo1gsAbZA7aKLNJM99RKe+Dw/Jpnulf75koj9dAHvi0lElVgfOKfqJCQVNhb4Gc7H0i6OA45KtK/PAfcn2hdbEdcaeRK/hO3m51T/C8YwjPhw+F/9vZN05/sKRjDff6v+HpnU+1MnpNK8hepvWoZhpIkVwJ6org4DlpHmXD8KbFhGkp+JTGwmMKGMxJTUeMIaEFXftAzDSBd/IlGHMCX1QR+WBgAAFCdJREFUGtIM9+sl9Lc7uKxEpyZI9DNlJadkPkL1NyvDMNKHE7PVyzRgEenOb+mves6KTPBJCk5KoCy6gbuo/kZlGEb6+D2qi1cDC0l3bq8FVkuZ4ECPi14J/CFyv9/GSWbqam/g8kT7Wk5oTMzt+2dJIzOWMCnMFjx7VFZRvX37ui/BvlTcG4AzSbcy4xzgJYTX7KW7hbiWygrC+taqn+8Q3xJ9DPg4sHbm3KVOtSFhiNgC4q/PT2bOXc/2bsIPolS//JeSuYPnBxIkfRd2CKyjO4k7r38lrCMgKb3tCb/eY65RZ2atRhdwPOkq/v74QM5CQOgl/lCCxL+RO3ENaT3izucDffuQVJ5tgKcofp3Op4Qx4hrSOOBs0lf+J+QsxMre3WKCQ8UK4LW5E9eg9iHufB6aP2WpkT5O3LW6ef6UG2tD4BrSV/7nkKZfSCGjgTuGSbDV1uh2mXPXwN5F8fN4P44xlnKZSFwP8mn5U26kvYHZpK/8ryQ8VSjVUK2L5cDnExxjdeAXwJQE+1KcyRHb9i8WJal8C4lbpt2h2OXqAo4BfktYUyWlvxOenC9OvN/nGO7xwnnAjQmOsxXhcUbSMYwasZi1GrIMP5H0TzHXnOuylGd94ELgq4Qn5SndBryKMJ9O6YZrAPQCHyS8y4/1KsKTABsB1Yl5hO84fymvpRHb2gmwHAcAfyFM8pPa3YR68tES9j2gVjoY/Ak4KdHxDgB+TPpWkyRJZZkCnAZcTJi4KbX7gH2BWSXse1Ct9jD8AmH8eAqvB34EjEm0P0mSyvIm4Hbg6JL2fxth4ryHStr/oFptACwirGXck+i4bwJ+gx0DJUn1tCVwEfATwkJ5ZfgzsBcV9bEayRjDq4CTEx57X8LYyS0S7lOSpBiTCRPw3Eo57/r7/QHYjzC1eiVGOsnAp4HrEx5/W+A6QmNAkqSqjCVMu3sn8AnSLeQzkLMJfeLml3iMYY20AbAYeB1pH1esA/wO+CaOEJAk5TUGOIrwLv47wLolH+9bwFvIMM5/OEWmGZxNWOowZojKqroIywdfh7MGSpLKNx54L/AP4AzKfx29hNDQ+Cjp+tNFKTrP8DXAh1Mm0udFhE4Rx+FKgpKk9NYDZhAWN/sesFmGY84kvOo+M8OxWhaz0MAPCI/tUxtPGHZ4B2G0gPPPS5JidBF6259JqPinU/6j/n6XATsTfjjXSuxKQx8HTkmRyAA2IQy/uIrQWcKGgCRpJDYFjiU85r8CeCsZFtnp0wt8Gfg34JFMxxyR2Bn5eoH3ETrvHRWfzoBeRph96SbC0IyzgWUlHUuS1N42Bo4g9FV7KdX8eJxNmDjokgqO3bIUU/L2AO8gDJk4MsH+BvNCwgyCxxM6bJxF6LUpSWquMYQfigf0xU5U+8T4Z8B7gMcrzKElqebkXwG8jfBK4Q2J9jmYTYD/7Iu/ERoCvyDdVMWSpPqaAOwG7Emo+PckLDtftfnAx4DTq06kVSkX5VlO6LT3APCphPsdyov64quERy5XEGZX+iOhQeAKdpLUnsYQfvBtQ3gC/EJgR8IEcnVbS+aXwIeAh6tOZCRSr8rXAxxDqHy/S96TtAGhAfKmvn9fBtzfl8udhIUWFhLWWV7Q988LM+ZXBxtWnUALJhA67jgMdGBzCUOKeqtOpM/6fVF0+dle/lWmsq1JeD8c0wnsKeBB6t8PaVNgl6qTGMBo/vVrfRLh1fHaq8QmhKF5G1P/ZY1nEobE/7zqROpmGqGy7TU6IqZTrn0IC0QtqUFZ6x4zgf8hzKJZhfGEacH/MUSOI40HCP17JifOtYuwAulVhFeVKXJ9itAPaevEua7qlET5GuljKXASsMagZ0+8ALiZ6k+WER/TKccYwtOiqsvXjvEosPeIP/E42xKeqJVVplnA7olyXR24oMRclxA6e5XFBkA94wLCawm1YBzwDcLrgapPnFE8pq96YhP5fg3K1s6xiHQV5nA2JLzjLLtMTxPe98YYQ1hjJMc5KKsRYAOgXvF34FVDnjENahp5bh5GOTH9uac02mE1KFcnxD2Uu3JZv0sylulm4t7/Hpsx10WEd+6p2QCoR9xGmOem7v0Ram9t4FyqP6HGyGP6AOcz1t9qUK5OiXeM8LMfqd0rKNMRBXNdjfz9j75bMNeh2ACoNu4grNoXO2NubeUu2OOEi3o/wsx+aq4tCBN2KI3DSt7/oSXvfyBFy7QP6TsTDudQnK68U9wIvB3YAfg/arJyXxmqatlcRhii8l5CRyY1zwuqTqDDlL2MdhXLdBc9ZhW5rg9MqeC4SqMH+DVhUqGXEGad7fh5ZKp8tLGcsKLgtsC3gMUV5qL8JladQIeZVPL+qzhfRctU1XerDrPRaWTuJ7zefD5wMHB1lcnkVod3G08AHyWcgOP7/l2db07VCXSY2W2+/5THrOK71VPRcTVyi4BzgP0JryL/izBRXOPUoQHQby5hfv/nEV4NOLd/Z7seeKbqJDrIFSXv/8qS9z+QKwpud3nKJFp0HWFeANXTEsIj/rcTXtccCVxKB7/fb3ejgdcSlv9dSPU9Qpse04c+XYX8sAbl6oRYAbx4hJ/9SK0NzMtYpmXEzbT3x4y59gLvjMh1MI4CiIu5hHf5b8IZ+9raJMJwjAtwqtiqYvqwZ2nkNiaMDKm6bO0ep4z0gy/o4xnLdGJkrruR715xA+WMEbcBMLJYQOhg/jlCJ/M6PeFWImsBhxM6Dv6ddPN7G0PH9FZOTgH7Ei7cqsvXrnE5cYvbjEQXcGqGMl1EmoXE3k54klBmrvcRFq8pgw2AwaOHMAHWuYQleHcl/eJ2agNrAYcAJwAXA3dT/kXfxJje6gkpYCfgzzUoYzvFEuDr5JkBcGVdhCcBZbwOWAR8ibQ38mmEe0IZ5+B8YN2Eua7KBkAYHXYHYaGwkwnTLu+BIy6S6NSJK8YSlpPcmtDLc33CO8y1+Ne7oInkv3lWbUPCsslFzACOS5fKc3QR5tk+hHDuppZ4rHa1hNAz/k+EXswPVpjL2oRV9vYivMopunzzYsICQNcQfs2VsSzwWMIQrwMIU/auVXA/ywnvlW8GziPMZFmmU4B3Fdz2AeCxhLmkspyw1gOEJ3/LCA2/xwivAx/ri0cIT1dmERoCkiLNoHhLfHr+dKVGi3kCULThoAaxk4QkSQ1kA0CSpAayASBJUgPZAJAkqYFsAEiS1EA2ACRJaiAbAJIkNZANAEmSGsgGgCRJDWQDQJKkBrIBIElSA9kAkCSpgWwASJLUQDYAJElqIBsAkiQ1kA2AZlkWse0aybKQ1IopEdsuTpaFOpYNgGZ5OmLbFyTLQlIrYq65BcmyUMeyAdAssyO23RdYJ1Uikoa0A7BdxPazUiUiqTO8COiNiJPzpyw10q+Ju1ZjXh9I6kBjgWcoflPpAd6SPWupWT5LXOV/T/6UJbWDy4i7uawA/pPQmJCUziTCU7aY67MXOD134mpPXVUnoOw+BpyUYD/3AWcC1wNzEuxPaqJuYAPgFcDbgKkJ9nkY8PME+1GHswHQPBsBDwCjqk5EUnLzgPVxGKBa4CiA5pmJvw6kTnUKVv5qkU8Ammk34Do8/1InWQJsBTxUdSJqDz4BaKbrgfOqTkJSUt/Eyl8j4C/A5toUuAmn+JU6wUPAjoQ+AFJL7AjWXPOAx4BDqk5EUpRe4AjgtqoTUXuxAdBsfwE2BnauOhFJhR0HnFZ1Emo/vgLQroQ+AZLajx3/VJidAJttbeCcqpOQVNhqwPnAuKoTUfvxFUCznQG8vOokJEXZiNAQ+G3Viai9+AqguQ4j/HKQ1P5WAHsAN1SdiNqHDYBmGgvcCmxZdSKSkrmW8ESvt+pE1B7sA9BMR2PlL3WaPYD9q05C7cMnAM3TBdwObFN1IpKS+x3wqqqTUHuwAdA8ewJ/TLSvXmAWMBcfO0pFjCKs3rd+ov31ApsRVvyUpGf5NuEmERPzgS8Am2TOXepUWwMnEsb1x16fn8ycu6Q2cTtxN5fbgM2zZy01wy6EJbtjrtFLsmctqfbWBXoofmOZRRhzLKk8LwSeJu4JnXO8SHqWvYj7ZXFk/pSlRvoMcdfqpvlTllRn76D4DeVhHDYq5bI6sIji1+t++VNWu/GG3ixTIrb9HeH1gaTyPU2Y2KeotVIlos5lA6BZJkZs+3CyLCS1ImaFv0nJslDHsgHQLDHne1myLCS1YmnEtnYC1LBsAEiS1EA2ACRJaiAbAJIkNZANAEmSGsgGgCR1nt6qE1D92QCQpHp6KmLbJ5JloY5lA0CS6umuirZVQ9gAkKR6uhBYUWC7e4FbEueiDmQDQJLqaSZwRoHtjk+diDqTDQBJqq9PAXeP4O//hmKNBjWQDQBJqq8ngP2B21r4u78CjqDYawM1kA0ASaq3e4HdgM8Dswb4/7cCbwMOBRZkzEttbnTVCUiShrUQ+BLh/f72wKaExYLuBu6rMC+1MRsAktQ+egk9/O3lr2g2AFQ3Y4D1gKlAV8W51M1iYDb1muRlErAxMLHg9osIj7VjJr1p1WrA+sA6BbdfBjwCzMWZ9iS1mRmEG1eRmF5ybrsB5xLeYRbNsSlxJ+F8rFHok443BvggcOMQOY40bgM+Q/GGxFAOIPSOX5Io1znAd4BNSshVkkoxg/o1ALqBrwE9Ebk1NWYCLx35Rx7l+cBNkXkPFfcDOyXKdTxwVom5PgO8OVGuklSqGRS/2U0vKadvR+RkhEpolxF/6sVMBR7MUKZ5hI5uMbqBCzLk2oONAEltYAbFb3TTS8jnNRH5GP+K28nTn+eXGct0I3HDlD+eMdeFwEYRuUqVcB4AVWlG1Ql0iG2BN5V8jF2AQ0o+xsp2jjjeWOCzCXMZzgTgmIzHk5KwAaCqbAq8pOokOsjhbb7/lMfci+I9/Yuq4vORotgAUFV2qDqBDlP251nF+Sp6zCpy3QiYUsFxpcJsAKgqq1edQIdZs+T9Typ5/wMpWqaqvltVDcuUCrEBoKrMrTqBDjO75P1Xcb6KlmlO0ixa04vfabUZGwCqyg2Eme2UxpUl7/+qkvc/kKJlqiLX6/H7rDZjA0BVWQCcV3USHaIX+FHJx+ifpTGXFcCPC257G6FCzumMzMeTotkAUJU+D8yvOokO8H+UX+E9Any55GOs7AeEZW6L+gSwPFEuw7kZODXTsSSpkBkUn+xkekk5HUhYEKbqyXTaNa6jnPnzB9JNuVPr9sflhIV7Yr2f8CShzFxnApsnyFWSSjWD4je66SXmtTvhsW3VlWk7xXLg+4T57nPqJjy5eSYi98FiKfANwkQ+qRwCPFxCrr3AJcCGCXOVsnI5YNXBdcALCTfrg4CtyF+xtYtHCI/7zwbuqOD4PcAXgR8S5sB/BbABca8T5wLXEsp0d2yCq/gV8DvgCMKqgM8j7unCPMJiSOdTTWdDSSpkBsV/7UzPn64kqSx2ApQkqYF8BSBJ7aGbsM7BNGATYBlwF3AhYSSCJA1qBr4CkNrRKwmV/GDX54XAZpVlp7bkKwBJqre3EToyDrXI0YGEzqG7ZMlIHcEGgCTV18sIIy7GtPB31wF+CaxbakbqGDYAJKmeuoBv0Vrl328j4AvlpKNOYwNAkuppV4o90v93YFzaVNSJbABIUj3tW3C7ScBuKRNRZ7IBIEn1tFHEtpsky0IdywaAJNVTzGN8p9LWsGwASJLUQDYAJElqIBsAkiQ1kA0ASZIayAaAJEkNZAOgWZZFbLt6siwktWLNiG0XJ8tCHcsGQLPMj9h2m2RZSGpFzDX3dLIs1LFsADTLIxHb7gdMSZWIpCFtA7wwYvu5qRKR1BlexODribcSJ+RPWWqk84i7Vm2sS3qW8YR3g0VvKiuA12XPWmqWjxBX+T+YP2VJ7eBy4m4uS4GPAqNyJy51uHHAV4Ae4q7R/5c5b7Wp0VUnoOx+A+wdsf0Y4BvAuwk3muuAOYSbltJ4BFhQcQ4TgPWwn1DZRgMbAq8Ejgaen2CfFyfYhxqgq+oElN3GwP34C77u7gHOBk4Ensh0zInAh4G3ADtkOqbSmgdsACyqOhFJ9fRr4h4xGvniMWDawKcxqZ2BByoon5E2vrPqiZWklb2c6m9URuuxFNhnwDOZxg6EOSKqLqcR/z3ZFKlFvt9rpqvxPWE7GQOcRTmzMY4ivGpwpsf29wPCUxxJGtIWwDNU/6vFaD2OHfBMxnlzDcplxMccYDLSCPgEoLnuAT5TdRIakde3yT6VVy/wXuCpqhOR1D66iJ9xzMgXi0k/cufOGpTLiAtn6FQhDgPUBOB3wB5VJ6KWTCDtEK85wNSE+1NePwPeQJilUxoRXwHoGeAg4M9VJ6JhzSP9+O6YBaJUrYsJczZY+asQGwCCMNHMvsClVSeiIV3dJvtU+c4AXkt4LSRJ0UYBXyT8oqj6vabx3Dhi8FNX2O41KJfReiwGPjjgmZSkBPYEbqb6m53xr7iK8vrsnF2D8hnDx5U4RbOkDMYA7wHupfobX9PjXsL87mVZHbixBuU0Bo6bCE9/7LQtKasxwOuAXxA6oFV9M2xa/ApYd9izFG8iYXVHX//UI+YDZxLWgbDiVyn8YmkkxhPWEdgVeAHwPMKvR2cgS2c5MBf4C3AOcG3m4+9ImB1wd2B9YGzm4zdNL2ECn3nAfcA/gGuAPxG+C5IkSZIkSZIkSZIkSZIkSZIkSZIkSZIkSZIkSZIkSZIkSZIkSZIkSZIkSZIkSZIkSZIkSZIkSZIkSZIkSZIkSZIkSZIkSZIkSZIkSZIkSZIkSZIkSZIkSZIkSZIkSZIkSZIkSZIkSZIkSZIkSZIkSZIkSZIkSZIkSZIkSZIkSZIkSZIkSZIkSZIkSZIkSZIkSZIkSZIkSZIkSZIkSZIkSZIkSZIkSZIkSZIkSZIkSZIkSZIkSZIkSZIktbn/DxoPIHItvG7AAAAAAElFTkSuQmCC;" vertex="1" parent="1">
          <mxGeometry x="1027.25" y="490" width="40" height="40" as="geometry" />
        </mxCell>
        <mxCell id="JrltaCKAHfsCq2pV7cOK-5" value="Cloud Server" style="text;html=1;align=center;verticalAlign=middle;resizable=0;points=[];autosize=1;strokeColor=none;fillColor=none;" vertex="1" parent="1">
          <mxGeometry x="1062.5" y="495" width="90" height="30" as="geometry" />
        </mxCell>
        <mxCell id="JrltaCKAHfsCq2pV7cOK-6" value="" style="shape=image;verticalLabelPosition=bottom;labelBackgroundColor=default;verticalAlign=top;aspect=fixed;imageAspect=0;image=data:image/png,iVBORw0KGgoAAAANSUhEUgAAAOEAAADhCAMAAAAJbSJIAAAAhFBMVEX///8wVoArU34jTnsfTHooUX0gTXr6+/wWSHckT3suVH+vvMsxV4Db4eigr8ESR3fx9Pfl6e5qgp+ptsZYdJXK0tyAlKxvhqJkfZz2+PrS2ODZ3+bh5uyaqby5xNFDZIpUcpQ7X4aJm7J5jqjBytaQobZJaY2GmbAGQnQAPXCbqry1wM2RPiT5AAATGUlEQVR4nNVd54KqOhCWJGCIKCAWdO1tvcf3f7+ru5ZJSAdX/X6eA26GzEymp9V6HtqT2fBU7Lf9wWG5TpJkNc+e+Nf+Fu182Psu1zQlJMJhiFjAgiBgUbx79cqaQDbt9Q8hjWJ0oYoHI9NXL68upr0VIlGIKrRdgQ6vXmEdZIsxoURJ3C+OX69epi/yTklIWOVLEeT06pX6YVEiIhE7CaLOq9fqge6ImHjzATp89XJdMVkM0tiWvDPC9qtXLCCfnub7zf7fYprL/jvrLWnoQF+QFn9NgRbD72VICY5jHBGKlt8ig2V7ZM+eZzCUjl5CiBzZPqYYrh/hFM3BTmabFFtQFYaXD3QGpXi5eB09IrINJpL1RmR/NS2zeainjyEc0RQtB+PRvlcsdrvhtPtamjh0gkix8Cj5UfdFIvsAN+JYTFKy+i52eTZ5NSlSTPpUfbYx2m8Pl0T5AMIEL0en2auJ0KGb6PkvDJX6JYzIcrSTqt03wlRtN9+2UfHPJB30uu923lUxjV0OgAd5cbruvfvm/WCGfAhEJNm/k6bUoL30IDBMB4v31JkSbKunBEOh1m3AdPtBjvuQVpZPl2W/XFOV+YnT0UdI3xUCjzIcjK62aHu4RRIXAsejzwqfFZyhwsg3XH4+EjcY0e0n7d8Z7TWUtzAQfYkdb+qgwQfJ3y8WcJNQUt2fL07l4M8LKg2gFIYyBpxCew5///kKayI7guVTeXS6BySVrT/mELxiAVYfjhUPQW1LP00Ot48jjyllDJ6YeP6n66sPsD3hwOYpVP7h6hpABqQw6ikf2z8Ofpb84fIaQDd+HAUaCdsBNk0/S9VMgaIhalsshxS+dayiAo5C9WM5UKbpZ535lhRCcaUfTKGGS/FDXNMP8euv6GKrzZkCOTx+luuUA6tak8csHlEARt4/sMYB+E5hX/lUH5z4z0zKdzeD1ahhs7AEgQqpZ3FBnj4eij0zSe3TdjWoZLJ4fB/jEOHj1u8vKNADUSi8Vzw0AtJK/DLWuzUNEcLpQBMgGF/VHmmUxC7YngDL1eQMPkO8YhgdeuXzMFGq4vH9Y6eNMioM14dL2RPtAzjvJeZ526x6Oo9vhJiCxAeBAW40p/oPBktjiePQ7kMfnwgZ68k8OR6Tvf4E6aTgMyIkJXEMHVW1l+OBnMuZRaW41knJxYsZ///5T8qNETXvndHh03IolFi2Y/hXmqWwNeJConjNRzKGay7rJiqjQ3jbGLU93hHzqqj6PfrcZ2yWS1s5H/RF6WB4F6zhgPIpDcq7Tou7fKFItYudYyU9UGHUMZ9XSBuuv5kL3xjRZNtb7E69bSLQF1BBCseP0xQFcqOvI4aUJSQKBEZq08MT60rqKYwIJVGlYi1cCW+uwJsokO1ihUWvD0ONKhCIB43bhV1NAQIEqwhbyVWmRFVZlO6g8D3G/J/HqycYvqVViROrhlN73NdHFYtBIoP3h8OunMDmd/CsT1LFKnhIircyfnWiLHY05R03WfyLHWzZpYDTf5JXTyl/1HEaRMmit+/RlcjgM+JchY0YIoXFXQipKfKQxU5qKD49b/mW/9vxM1i0lSUWVbA4UR1RIonoxqhaFv0FI7wCeIoMVo9D2UpoX214FrwU32RRcUzo8CQCM86kkX12RAJtx0SRSsxOgwxKCVw9J9a8gXZneMCYVzsMk6XJ5xUta9I9HxPuBD5nB1sZ5DE0aH3tD5TEPw0v6FJKubQJm4iMurbg/AqBTzkmWsIW/jS3tPPOvn9YJ+tDuSlmdowjMCpzKQK/EvikHWxlkCexf3yE06iJM30GAvNTsfON0sIEdhDXyLkU5rNBA1RqCMzKIyEkVYXJ9JjAUpN6fuddFj12UJs6n/364IyqcvBacKUmab1wfWEyYTRg6ijI7O7bUZ845gDYFLVDB3UYVRGeuuT17ktEK/c1fUEtT2sXcxkNUXcSZwFUhe4rhEGosIFAc8eplcaCxNka/qIy66BEG3ouTdTJnEwH/dmGwCpXTRIFyRP4MEucFQWsFmqiiMRkqiEy2Bebg6qr4+713wmMuK8Rui8RRlmIvncnX3SGpi9ocpfiwy+bdFRV5QKjzhL+OfdsBiw/YInOpsjGEYlStNETaGBRdLh9ovygeJRj1JkQAjyqy31UgL59rFt9FvxW3RCd5dExBXswsJg2Cq0LSMwDTm0x6k4gx6TaIpl7aiZSW4/Gk4LPrA4TuXF+DxHkQosL8SAwA16dNnU9i+4PYlXKxByyOPJqJCvlLvJV3YgsmnoQyKl27ReCph2W6zOzR1/9hv9SqcL5YdRcVDKyOJ8RIOcQpLqzlIvFSd0cTeD3BlrV1V9yTj1rVIFFvWTwDMCk+nwd348hIdEmqraWfJjJWLr1aC2wqCeBsAhIU3fZ4ku+Aoks2kTVInndrepVzgPzksEz5rC+Ql/INec/tSCLVlG1WCEGX4qXAYl+MnjGARYBGWIkfU3yxCqqpqwg5ypXZWA+x8QPMifPUJ0fspDBM4g6qTvQJ008ZbAlFCUaR+S0xV28MapdZJut1T8913bn+spgiysyYdjC75IzqqXPG2mGKhQqVyPwPyZ+Vwy6EKR1QjYk2jr1RBN11e2hXsfrMQGKxq4Wr12RRevki7aTqFTLodYdMCEHVQi283GEXYwPVonVQF83PdXoUrauEcAd+hTf98Wcth2QxmKaaJOXygicBXqw6Nf6rb57wuUMrGa2r6U+dlWDRBBlcwhDAll0iGzLO6Umxa7oK8NS98VJi3RsAOTbqaPQZxflmqx9SCOLKVO+JMLWWN1h1QiJipbFjV0KDoVe/R0ToGgUbZUqXBjVMfkS3W1naP8OLb+VnyzCumat91tFe2wxZEjArVJlCkvyctsUgBejwu+HXCPJK9tj4g5Gy90s343TZOLzO8rCaQ1AjIYtHSsgOu57eKnopCkJ+RmRe+sfehTpWAOYu64Vxx51Mg9whqatIAY+sgg+n9o5lRPoXicDwLXlTBy+lbMsgv5mtx4YjzoZHlDorQ3bQJK2MQD4TspGGSmBtXYwELIreudXJJE5aUQQOnDxwWrJ4A8IDCtVxsZoETuJ0wH4Tvb5/9o7KOi1tno8mgTMqR9p+XjRkDiEBNZI09+RQrNG4/1KIAmbqwHMUnMY6kZgrZqgK8L/4J/758T1TjENYFjaTk+tz6IsprTfgfpialdg/jcUWiRftNQhTNZbkV2ytcuPOk2yhRRaZcdrsShDhKz2sr/jJIjIpXpxdV8vU3RVCgT6HxMsJKQsFGpw61CA4xY7nd/tUmQTLDXm6JXkYULGC/VRPbanMHKzn7P7wI/UQgV7mmooItUhvRwm9nKoSD6rsbvO6qQWVmnH6WC+kUfIYG7yeRbWzI91ZSByTA9HQmhoEaPxkMGQpGXHbIFkqpGhVQK9mkq/OsXQ4sMsHGXwfCyg7c7Gq+4mtprUmsD2sHNydZZzxx0kS+mxUEG2G1sbgdYsWsSUkOPBrTrs2y1mQQqbxeSdcWA/9NyawNEvu4XWhugFbqNNmc1vd3uDkDicg3hludbTTZ4YdnAlcwf6zjtomnTWnu6TNHKqs7U/Jh6boaj8kFPoFjnUfrtsNwrS2PHksT8muo8pQWxlT6GTbazL8cw6ZUCf2koDM5EuE9fsWoR/oQzbff07YKfrBh4E2q906EmhSyxFmgqdDDdJiu3uMqkQ6GLJ7MC5pqn9qGLrcCBWiteyxTah2NfxcjPVAIW66hYJSnsSCWdPzIpB4HIsVAhcOa0TGrlW1SUP9DUVLzz4oP3RS/QeBDraoqBI1EWX/mBsu4sIBu2zWvS5exOgNEFXGyGHdeKX6/lwz8IBaPv1pIC5GPfRIbaySL2D9pVfck4ZguILnw4nS1nkyi50xUAmJKqpXGqAiEjsMyfXjlH53iL/+FyinnejBOg0dCu+uMGKURlXo+cWtOcJdE4ZTpagvMTvnjerXeSitj3rY0ZCoHzejRpQdWsKdrWwOTS4bOSXXxDyHq52yorm/uUlD1jsItc44hAsVPyaA6NCs5R6j5+wkEUKT0SHgO8N/DfRDUkTAGsRZc0dljAvmYtjWE2+4RAu+fFb9rIIAkp1ukXNeQauDtB2xNbj7VLMIFgz6sqzFpGHha7hBLHtKIg/Hn1l3o0diSAw718ebnVeIKjH3ATxGrIQ591YDbOAlXreV2bamTVcXcDJ5US8R9XEwUw2BhzsNXTvav+FpQ/FVSDNHAQRuEuKwUw6wKJnU5OTArYeFP/79nLIObwiozIjo9pNfG6CQGH6hHWSV/DoRUY1BV7gSHUvRSO0kyRIs3CufcM2Q1jx6IVdpAZbGlo0XteAi/0y5VitQjj3M7czTSUhC14WTZzHTfjwmEIj6XnSGXDwVav6Q2lUjdtFw5x0OMzZZ8iLtPtQ7fVzPTgbi1CGIvkCZdFQ5wuNJ/eLcNqKAapK3cPVAuqa7+4EKrQ7YFRDjSj0RN2HtCgnxKoYlZMZM4Wa5MudUZnB4wMRDIcmJxOBml0Er3+b8k3a7FLxO5UAHfUlolCfOVZ1S2QQ/qdCFkEQYWJSNIYE6G5JCaFLQ2qZY1LHGM1CaFQXBF6+i4BNTWUAxsh2e9rpTE1WGEjFs8jxrODDZVWOkstidNMLPUPI1K9ORgS8/cDV+50YCFQxalRebOWhKerR0P1fsEfM9XKKCSz4kn9wOaOiFK+JOO+8grDfxDhIrg8VOXpO8GWV0lNoVGYu6UpcCw7lqDfQa3vXFGqt7pBCFQi8sHNN8lr8VAb7uvwbujc21QxQao29oveJ8XftwCWAsPv7C3oJ7yGq0+pfPqnsW2Q7dq+r5LGtO/vxq0/T40GnocSZTk4E1mbUnBvf6dc0PMm1h2jOalQj/Hz4WrsI7zFq+G6TK3KPi+eFEEEdWeRcbKeuGlvcR/+5NOiXW5216wS4hc7tsDYQx45ZEbiqHKLesjiDrov3OCINuLFjlrv4u2G6wUwO2ELL3q1D0Qr8hNjAaj9vekWclGJB4qRbfJc/k8b7m87s8jx/FvpNi9YSuBY0xspcXnnfLHHeTWySxeloSSOMfqfFx4QeNl+cOcNqTnqWoDL6r2eOG8PZ8qrZU1J0lkSoAEQYH+AX1oxQ8SWQL1v7HTtmqLvhqbBXN7tAWiPHkewTJtVCnBB7bbzS7qJ4tguMmiosp6xvUZljrDF3JlA1flPjaVQUpjAkTdFlNkwsYq5s3fAWihNiwVw1JaNKQwQcidJLXAujI32BeKdfbQJ1E2IVJMrNT27LZROr/lm11lg1GTqgfeCPCWEynlQWFfY1x6iSK78Lu9SOd2JbAWGcY2VKs0QWlSXNgERJ4evOrvrPY9S3HiPOVpK0r1YYVXfY3UmsZhzyyuV2ChjmkzqDK7GQ9udWTnOdTTZOL78XSm53WImuJ1Pc6odqlEHJAAMHikHiHKOa7OrTKj3ifrUcoRACyihdb3un3UJyM2PDxyG4u0U5fhPsooX7157I5gzzBCJa3vVJezgQRkmrptz64d7eqpsQO76G6RjxVQP8mKV4zevLHX9Dqu9d0wosfj8g0w5Q3dMIIUToxlNEMk7YSCkeJRl3y63b6BMzdklKCNXfVtaazctDOffWclxyFctKFUq4i3WGnUox7BQNn7Ii4CU4obzOCVoeLJA98c7gA6Hyoqgu3ETPYOnrAOcAxKqKUaiMGmfTZwMWASkLFXLIyY1fI/xkgCIgzdrhxGe3rsOXA47J0jh/3PVEzUcTnwl4MaNm1DIczO/cKvVagPID3Uh1eCOxV1Hi68DdmqBhvw+mEJaQaAyyz6UQFt9rTM4P5tIJ1DRq+xdkLlidOzhfAZDKitU5F64D8LNOC1hwpokVDqyeek/ARmllsPALNpI0cIPjnwLmBpXbA4y252TxnwmuP1MRLeGKQ6U5gbcGV5uKZXwKPQuPQQovxxcXd5aM9OZTtB/HpK0pf08SqxyKQy7/Vac19iWYbStJtXQETZvsmx922HR67cnIR7EkKxqj7XVKYHs4CvgH0PKTtjAfpYqsb0jpuhyXS0rEqo/0yYG/JjHdUl1Wm6FQMnQq+pjTfrIoU49Sx4/h0dkm8Zq85DCY4JXIe4fUfWTdD4F+V9H8Kdrd3oBGiu0zpYFR/O6eb74bHYhyXCQioV4w4+StQ2yz02iNibrMmJHlsK0riWK0/4Sy2QYwyfJd73tFUhIzDReS5MdS6SSqKqQocOwCeiq60+Futyh6+9F4sEQpiWL9NEWGw/nVIcr2REZjhDdv5DGdlphSckaE49CmiASncPn5HKXcLW0I03D/RvS1RqnT+EtGWGX5w+8lopcPFGNCkWEY+p9DrBvRI6TrnnR78umit9/s551ps0n7+mi7HOU4HSzeUz9qYD/nFRE8euvzTQHLa4MRQeXpQ2xoASczhSwkkfIejPfHl+H+iLPqJ+PTx5J3gXoACAojEh7m7248GzGV3JHBEI5oeOj3pu90cHtjF0cXGi8NL2GIo4ikdF1+94b5ZyoWGbL5KkmS9fIw6G/nxWmYy+otG8P/HEwLJUCI0SUAAAAASUVORK5CYII=;" vertex="1" parent="1">
          <mxGeometry x="1422.5" y="137.5" width="55" height="55" as="geometry" />
        </mxCell>
        <mxCell id="JrltaCKAHfsCq2pV7cOK-8" value="" style="endArrow=classic;html=1;rounded=0;" edge="1" parent="1">
          <mxGeometry width="50" height="50" relative="1" as="geometry">
            <mxPoint x="1382.5" y="170" as="sourcePoint" />
            <mxPoint x="1420" y="170" as="targetPoint" />
          </mxGeometry>
        </mxCell>
        <mxCell id="JrltaCKAHfsCq2pV7cOK-9" value="" style="shape=image;verticalLabelPosition=bottom;labelBackgroundColor=default;verticalAlign=top;aspect=fixed;imageAspect=0;image=data:image/png,iVBORw0KGgoAAAANSUhEUgAAAOEAAADhCAMAAAAJbSJIAAAAhFBMVEX///8wVoArU34jTnsfTHooUX0gTXr6+/wWSHckT3suVH+vvMsxV4Db4eigr8ESR3fx9Pfl6e5qgp+ptsZYdJXK0tyAlKxvhqJkfZz2+PrS2ODZ3+bh5uyaqby5xNFDZIpUcpQ7X4aJm7J5jqjBytaQobZJaY2GmbAGQnQAPXCbqry1wM2RPiT5AAATGUlEQVR4nNVd54KqOhCWJGCIKCAWdO1tvcf3f7+ru5ZJSAdX/X6eA26GzEymp9V6HtqT2fBU7Lf9wWG5TpJkNc+e+Nf+Fu182Psu1zQlJMJhiFjAgiBgUbx79cqaQDbt9Q8hjWJ0oYoHI9NXL68upr0VIlGIKrRdgQ6vXmEdZIsxoURJ3C+OX69epi/yTklIWOVLEeT06pX6YVEiIhE7CaLOq9fqge6ImHjzATp89XJdMVkM0tiWvDPC9qtXLCCfnub7zf7fYprL/jvrLWnoQF+QFn9NgRbD72VICY5jHBGKlt8ig2V7ZM+eZzCUjl5CiBzZPqYYrh/hFM3BTmabFFtQFYaXD3QGpXi5eB09IrINJpL1RmR/NS2zeainjyEc0RQtB+PRvlcsdrvhtPtamjh0gkix8Cj5UfdFIvsAN+JYTFKy+i52eTZ5NSlSTPpUfbYx2m8Pl0T5AMIEL0en2auJ0KGb6PkvDJX6JYzIcrSTqt03wlRtN9+2UfHPJB30uu923lUxjV0OgAd5cbruvfvm/WCGfAhEJNm/k6bUoL30IDBMB4v31JkSbKunBEOh1m3AdPtBjvuQVpZPl2W/XFOV+YnT0UdI3xUCjzIcjK62aHu4RRIXAsejzwqfFZyhwsg3XH4+EjcY0e0n7d8Z7TWUtzAQfYkdb+qgwQfJ3y8WcJNQUt2fL07l4M8LKg2gFIYyBpxCew5///kKayI7guVTeXS6BySVrT/mELxiAVYfjhUPQW1LP00Ot48jjyllDJ6YeP6n66sPsD3hwOYpVP7h6hpABqQw6ikf2z8Ofpb84fIaQDd+HAUaCdsBNk0/S9VMgaIhalsshxS+dayiAo5C9WM5UKbpZ535lhRCcaUfTKGGS/FDXNMP8euv6GKrzZkCOTx+luuUA6tak8csHlEARt4/sMYB+E5hX/lUH5z4z0zKdzeD1ahhs7AEgQqpZ3FBnj4eij0zSe3TdjWoZLJ4fB/jEOHj1u8vKNADUSi8Vzw0AtJK/DLWuzUNEcLpQBMgGF/VHmmUxC7YngDL1eQMPkO8YhgdeuXzMFGq4vH9Y6eNMioM14dL2RPtAzjvJeZ526x6Oo9vhJiCxAeBAW40p/oPBktjiePQ7kMfnwgZ68k8OR6Tvf4E6aTgMyIkJXEMHVW1l+OBnMuZRaW41knJxYsZ///5T8qNETXvndHh03IolFi2Y/hXmqWwNeJConjNRzKGay7rJiqjQ3jbGLU93hHzqqj6PfrcZ2yWS1s5H/RF6WB4F6zhgPIpDcq7Tou7fKFItYudYyU9UGHUMZ9XSBuuv5kL3xjRZNtb7E69bSLQF1BBCseP0xQFcqOvI4aUJSQKBEZq08MT60rqKYwIJVGlYi1cCW+uwJsokO1ihUWvD0ONKhCIB43bhV1NAQIEqwhbyVWmRFVZlO6g8D3G/J/HqycYvqVViROrhlN73NdHFYtBIoP3h8OunMDmd/CsT1LFKnhIircyfnWiLHY05R03WfyLHWzZpYDTf5JXTyl/1HEaRMmit+/RlcjgM+JchY0YIoXFXQipKfKQxU5qKD49b/mW/9vxM1i0lSUWVbA4UR1RIonoxqhaFv0FI7wCeIoMVo9D2UpoX214FrwU32RRcUzo8CQCM86kkX12RAJtx0SRSsxOgwxKCVw9J9a8gXZneMCYVzsMk6XJ5xUta9I9HxPuBD5nB1sZ5DE0aH3tD5TEPw0v6FJKubQJm4iMurbg/AqBTzkmWsIW/jS3tPPOvn9YJ+tDuSlmdowjMCpzKQK/EvikHWxlkCexf3yE06iJM30GAvNTsfON0sIEdhDXyLkU5rNBA1RqCMzKIyEkVYXJ9JjAUpN6fuddFj12UJs6n/364IyqcvBacKUmab1wfWEyYTRg6ijI7O7bUZ845gDYFLVDB3UYVRGeuuT17ktEK/c1fUEtT2sXcxkNUXcSZwFUhe4rhEGosIFAc8eplcaCxNka/qIy66BEG3ouTdTJnEwH/dmGwCpXTRIFyRP4MEucFQWsFmqiiMRkqiEy2Bebg6qr4+713wmMuK8Rui8RRlmIvncnX3SGpi9ocpfiwy+bdFRV5QKjzhL+OfdsBiw/YInOpsjGEYlStNETaGBRdLh9ovygeJRj1JkQAjyqy31UgL59rFt9FvxW3RCd5dExBXswsJg2Cq0LSMwDTm0x6k4gx6TaIpl7aiZSW4/Gk4LPrA4TuXF+DxHkQosL8SAwA16dNnU9i+4PYlXKxByyOPJqJCvlLvJV3YgsmnoQyKl27ReCph2W6zOzR1/9hv9SqcL5YdRcVDKyOJ8RIOcQpLqzlIvFSd0cTeD3BlrV1V9yTj1rVIFFvWTwDMCk+nwd348hIdEmqraWfJjJWLr1aC2wqCeBsAhIU3fZ4ku+Aoks2kTVInndrepVzgPzksEz5rC+Ql/INec/tSCLVlG1WCEGX4qXAYl+MnjGARYBGWIkfU3yxCqqpqwg5ypXZWA+x8QPMifPUJ0fspDBM4g6qTvQJ008ZbAlFCUaR+S0xV28MapdZJut1T8913bn+spgiysyYdjC75IzqqXPG2mGKhQqVyPwPyZ+Vwy6EKR1QjYk2jr1RBN11e2hXsfrMQGKxq4Wr12RRevki7aTqFTLodYdMCEHVQi283GEXYwPVonVQF83PdXoUrauEcAd+hTf98Wcth2QxmKaaJOXygicBXqw6Nf6rb57wuUMrGa2r6U+dlWDRBBlcwhDAll0iGzLO6Umxa7oK8NS98VJi3RsAOTbqaPQZxflmqx9SCOLKVO+JMLWWN1h1QiJipbFjV0KDoVe/R0ToGgUbZUqXBjVMfkS3W1naP8OLb+VnyzCumat91tFe2wxZEjArVJlCkvyctsUgBejwu+HXCPJK9tj4g5Gy90s343TZOLzO8rCaQ1AjIYtHSsgOu57eKnopCkJ+RmRe+sfehTpWAOYu64Vxx51Mg9whqatIAY+sgg+n9o5lRPoXicDwLXlTBy+lbMsgv5mtx4YjzoZHlDorQ3bQJK2MQD4TspGGSmBtXYwELIreudXJJE5aUQQOnDxwWrJ4A8IDCtVxsZoETuJ0wH4Tvb5/9o7KOi1tno8mgTMqR9p+XjRkDiEBNZI09+RQrNG4/1KIAmbqwHMUnMY6kZgrZqgK8L/4J/758T1TjENYFjaTk+tz6IsprTfgfpialdg/jcUWiRftNQhTNZbkV2ytcuPOk2yhRRaZcdrsShDhKz2sr/jJIjIpXpxdV8vU3RVCgT6HxMsJKQsFGpw61CA4xY7nd/tUmQTLDXm6JXkYULGC/VRPbanMHKzn7P7wI/UQgV7mmooItUhvRwm9nKoSD6rsbvO6qQWVmnH6WC+kUfIYG7yeRbWzI91ZSByTA9HQmhoEaPxkMGQpGXHbIFkqpGhVQK9mkq/OsXQ4sMsHGXwfCyg7c7Gq+4mtprUmsD2sHNydZZzxx0kS+mxUEG2G1sbgdYsWsSUkOPBrTrs2y1mQQqbxeSdcWA/9NyawNEvu4XWhugFbqNNmc1vd3uDkDicg3hludbTTZ4YdnAlcwf6zjtomnTWnu6TNHKqs7U/Jh6boaj8kFPoFjnUfrtsNwrS2PHksT8muo8pQWxlT6GTbazL8cw6ZUCf2koDM5EuE9fsWoR/oQzbff07YKfrBh4E2q906EmhSyxFmgqdDDdJiu3uMqkQ6GLJ7MC5pqn9qGLrcCBWiteyxTah2NfxcjPVAIW66hYJSnsSCWdPzIpB4HIsVAhcOa0TGrlW1SUP9DUVLzz4oP3RS/QeBDraoqBI1EWX/mBsu4sIBu2zWvS5exOgNEFXGyGHdeKX6/lwz8IBaPv1pIC5GPfRIbaySL2D9pVfck4ZguILnw4nS1nkyi50xUAmJKqpXGqAiEjsMyfXjlH53iL/+FyinnejBOg0dCu+uMGKURlXo+cWtOcJdE4ZTpagvMTvnjerXeSitj3rY0ZCoHzejRpQdWsKdrWwOTS4bOSXXxDyHq52yorm/uUlD1jsItc44hAsVPyaA6NCs5R6j5+wkEUKT0SHgO8N/DfRDUkTAGsRZc0dljAvmYtjWE2+4RAu+fFb9rIIAkp1ukXNeQauDtB2xNbj7VLMIFgz6sqzFpGHha7hBLHtKIg/Hn1l3o0diSAw718ebnVeIKjH3ATxGrIQ591YDbOAlXreV2bamTVcXcDJ5US8R9XEwUw2BhzsNXTvav+FpQ/FVSDNHAQRuEuKwUw6wKJnU5OTArYeFP/79nLIObwiozIjo9pNfG6CQGH6hHWSV/DoRUY1BV7gSHUvRSO0kyRIs3CufcM2Q1jx6IVdpAZbGlo0XteAi/0y5VitQjj3M7czTSUhC14WTZzHTfjwmEIj6XnSGXDwVav6Q2lUjdtFw5x0OMzZZ8iLtPtQ7fVzPTgbi1CGIvkCZdFQ5wuNJ/eLcNqKAapK3cPVAuqa7+4EKrQ7YFRDjSj0RN2HtCgnxKoYlZMZM4Wa5MudUZnB4wMRDIcmJxOBml0Er3+b8k3a7FLxO5UAHfUlolCfOVZ1S2QQ/qdCFkEQYWJSNIYE6G5JCaFLQ2qZY1LHGM1CaFQXBF6+i4BNTWUAxsh2e9rpTE1WGEjFs8jxrODDZVWOkstidNMLPUPI1K9ORgS8/cDV+50YCFQxalRebOWhKerR0P1fsEfM9XKKCSz4kn9wOaOiFK+JOO+8grDfxDhIrg8VOXpO8GWV0lNoVGYu6UpcCw7lqDfQa3vXFGqt7pBCFQi8sHNN8lr8VAb7uvwbujc21QxQao29oveJ8XftwCWAsPv7C3oJ7yGq0+pfPqnsW2Q7dq+r5LGtO/vxq0/T40GnocSZTk4E1mbUnBvf6dc0PMm1h2jOalQj/Hz4WrsI7zFq+G6TK3KPi+eFEEEdWeRcbKeuGlvcR/+5NOiXW5216wS4hc7tsDYQx45ZEbiqHKLesjiDrov3OCINuLFjlrv4u2G6wUwO2ELL3q1D0Qr8hNjAaj9vekWclGJB4qRbfJc/k8b7m87s8jx/FvpNi9YSuBY0xspcXnnfLHHeTWySxeloSSOMfqfFx4QeNl+cOcNqTnqWoDL6r2eOG8PZ8qrZU1J0lkSoAEQYH+AX1oxQ8SWQL1v7HTtmqLvhqbBXN7tAWiPHkewTJtVCnBB7bbzS7qJ4tguMmiosp6xvUZljrDF3JlA1flPjaVQUpjAkTdFlNkwsYq5s3fAWihNiwVw1JaNKQwQcidJLXAujI32BeKdfbQJ1E2IVJMrNT27LZROr/lm11lg1GTqgfeCPCWEynlQWFfY1x6iSK78Lu9SOd2JbAWGcY2VKs0QWlSXNgERJ4evOrvrPY9S3HiPOVpK0r1YYVXfY3UmsZhzyyuV2ChjmkzqDK7GQ9udWTnOdTTZOL78XSm53WImuJ1Pc6odqlEHJAAMHikHiHKOa7OrTKj3ifrUcoRACyihdb3un3UJyM2PDxyG4u0U5fhPsooX7157I5gzzBCJa3vVJezgQRkmrptz64d7eqpsQO76G6RjxVQP8mKV4zevLHX9Dqu9d0wosfj8g0w5Q3dMIIUToxlNEMk7YSCkeJRl3y63b6BMzdklKCNXfVtaazctDOffWclxyFctKFUq4i3WGnUox7BQNn7Ii4CU4obzOCVoeLJA98c7gA6Hyoqgu3ETPYOnrAOcAxKqKUaiMGmfTZwMWASkLFXLIyY1fI/xkgCIgzdrhxGe3rsOXA47J0jh/3PVEzUcTnwl4MaNm1DIczO/cKvVagPID3Uh1eCOxV1Hi68DdmqBhvw+mEJaQaAyyz6UQFt9rTM4P5tIJ1DRq+xdkLlidOzhfAZDKitU5F64D8LNOC1hwpokVDqyeek/ARmllsPALNpI0cIPjnwLmBpXbA4y252TxnwmuP1MRLeGKQ6U5gbcGV5uKZXwKPQuPQQovxxcXd5aM9OZTtB/HpK0pf08SqxyKQy7/Vac19iWYbStJtXQETZvsmx922HR67cnIR7EkKxqj7XVKYHs4CvgH0PKTtjAfpYqsb0jpuhyXS0rEqo/0yYG/JjHdUl1Wm6FQMnQq+pjTfrIoU49Sx4/h0dkm8Zq85DCY4JXIe4fUfWTdD4F+V9H8Kdrd3oBGiu0zpYFR/O6eb74bHYhyXCQioV4w4+StQ2yz02iNibrMmJHlsK0riWK0/4Sy2QYwyfJd73tFUhIzDReS5MdS6SSqKqQocOwCeiq60+Futyh6+9F4sEQpiWL9NEWGw/nVIcr2REZjhDdv5DGdlphSckaE49CmiASncPn5HKXcLW0I03D/RvS1RqnT+EtGWGX5w+8lopcPFGNCkWEY+p9DrBvRI6TrnnR78umit9/s551ps0n7+mi7HOU4HSzeUz9qYD/nFRE8euvzTQHLa4MRQeXpQ2xoASczhSwkkfIejPfHl+H+iLPqJ+PTx5J3gXoACAojEh7m7248GzGV3JHBEI5oeOj3pu90cHtjF0cXGi8NL2GIo4ikdF1+94b5ZyoWGbL5KkmS9fIw6G/nxWmYy+otG8P/HEwLJUCI0SUAAAAASUVORK5CYII=;" vertex="1" parent="1">
          <mxGeometry x="1171.25" y="495" width="30" height="30" as="geometry" />
        </mxCell>
        <mxCell id="JrltaCKAHfsCq2pV7cOK-10" value="Thingsboard" style="text;html=1;align=center;verticalAlign=middle;resizable=0;points=[];autosize=1;strokeColor=none;fillColor=none;" vertex="1" parent="1">
          <mxGeometry x="1200" y="500" width="90" height="30" as="geometry" />
        </mxCell>
      </root>
    </mxGraphModel>
  </diagram>
</mxfile>
